<svg xmlns="http://www.w3.org/2000/svg" xmlns:xlink="http://www.w3.org/1999/xlink" width="232" zoomAndPan="magnify" viewBox="0 0 174 179.249993" height="239" preserveAspectRatio="xMidYMid meet" version="1.0"><defs><clipPath id="85d1756003"><path d="M 78.8125 79.898438 L 95.242188 79.898438 L 95.242188 96.332031 L 78.8125 96.332031 Z M 78.8125 79.898438 " clip-rule="nonzero"/></clipPath></defs><g clip-path="url(#85d1756003)"><path fill="#000000" d="M 87.027344 80.722656 C 91.101562 80.722656 94.417969 84.039062 94.417969 88.117188 C 94.417969 92.191406 91.101562 95.507812 87.027344 95.507812 C 82.949219 95.507812 79.632812 92.191406 79.632812 88.117188 C 79.632812 84.039062 82.949219 80.722656 87.027344 80.722656 Z M 87.027344 79.90625 C 84.832031 79.90625 82.773438 80.761719 81.222656 82.3125 C 79.671875 83.863281 78.816406 85.921875 78.816406 88.117188 C 78.816406 90.308594 79.671875 92.371094 81.222656 93.921875 C 82.773438 95.46875 84.832031 96.324219 87.027344 96.324219 C 89.21875 96.324219 91.28125 95.46875 92.828125 93.921875 C 94.378906 92.371094 95.234375 90.308594 95.234375 88.117188 C 95.234375 85.921875 94.378906 83.863281 92.828125 82.3125 C 91.28125 80.761719 89.21875 79.90625 87.027344 79.90625 " fill-opacity="1" fill-rule="nonzero"/><path fill="#000000" d="M 79.640625 88.117188 C 79.640625 92.1875 82.953125 95.503906 87.027344 95.503906 C 91.097656 95.503906 94.414062 92.1875 94.414062 88.117188 C 94.414062 84.042969 91.097656 80.730469 87.027344 80.730469 C 82.953125 80.730469 79.640625 84.042969 79.640625 88.117188 Z M 94.425781 88.117188 C 94.425781 92.195312 91.105469 95.515625 87.027344 95.515625 C 82.945312 95.515625 79.625 92.195312 79.625 88.117188 C 79.625 84.035156 82.945312 80.714844 87.027344 80.714844 C 91.105469 80.714844 94.425781 84.035156 94.425781 88.117188 Z M 78.824219 88.117188 C 78.824219 90.304688 79.679688 92.367188 81.226562 93.914062 C 82.777344 95.464844 84.835938 96.316406 87.027344 96.316406 C 89.214844 96.316406 91.277344 95.464844 92.824219 93.914062 C 94.375 92.367188 95.226562 90.304688 95.226562 88.117188 C 95.226562 85.925781 94.375 83.867188 92.824219 82.316406 C 91.277344 80.769531 89.214844 79.914062 87.027344 79.914062 C 84.835938 79.914062 82.777344 80.769531 81.226562 82.316406 C 79.679688 83.867188 78.824219 85.925781 78.824219 88.117188 Z M 95.242188 88.117188 C 95.242188 90.308594 94.386719 92.375 92.835938 93.925781 C 91.285156 95.476562 89.21875 96.332031 87.027344 96.332031 C 84.832031 96.332031 82.769531 95.476562 81.21875 93.925781 C 79.664062 92.375 78.8125 90.308594 78.8125 88.117188 C 78.8125 85.921875 79.664062 83.859375 81.21875 82.308594 C 82.769531 80.753906 84.832031 79.902344 87.027344 79.902344 C 89.21875 79.902344 91.285156 80.753906 92.835938 82.308594 C 94.386719 83.859375 95.242188 85.921875 95.242188 88.117188 " fill-opacity="1" fill-rule="nonzero"/></g><path fill="#000000" d="M 91.726562 87.839844 C 91.726562 87.84375 91.726562 87.84375 91.726562 87.84375 C 91.738281 87.851562 91.746094 87.863281 91.753906 87.871094 C 91.753906 87.875 91.757812 87.875 91.757812 87.878906 C 91.765625 87.886719 91.769531 87.894531 91.773438 87.898438 C 91.777344 87.902344 91.78125 87.90625 91.78125 87.910156 C 91.785156 87.917969 91.789062 87.925781 91.792969 87.933594 C 91.796875 87.9375 91.796875 87.941406 91.800781 87.945312 C 91.804688 87.953125 91.808594 87.960938 91.8125 87.972656 C 91.816406 87.976562 91.816406 87.984375 91.820312 87.988281 C 91.820312 87.992188 91.824219 88 91.828125 88.007812 C 91.828125 88.011719 91.828125 88.015625 91.832031 88.023438 C 91.832031 88.027344 91.835938 88.035156 91.835938 88.042969 C 91.835938 88.046875 91.835938 88.050781 91.839844 88.054688 C 91.839844 88.066406 91.84375 88.078125 91.84375 88.089844 C 91.84375 88.089844 91.84375 88.09375 91.84375 88.09375 C 91.84375 88.105469 91.84375 88.117188 91.84375 88.125 C 91.84375 88.128906 91.84375 88.132812 91.84375 88.136719 C 91.84375 88.144531 91.84375 88.152344 91.84375 88.164062 C 91.84375 88.164062 91.84375 88.167969 91.84375 88.171875 C 91.839844 88.183594 91.839844 88.195312 91.835938 88.203125 C 91.835938 88.207031 91.835938 88.210938 91.835938 88.210938 C 91.832031 88.222656 91.832031 88.230469 91.828125 88.242188 C 91.828125 88.246094 91.824219 88.25 91.824219 88.253906 C 91.824219 88.261719 91.820312 88.269531 91.816406 88.273438 C 91.816406 88.277344 91.8125 88.285156 91.8125 88.289062 C 91.808594 88.296875 91.804688 88.304688 91.800781 88.3125 C 91.796875 88.316406 91.796875 88.320312 91.792969 88.324219 C 91.789062 88.332031 91.785156 88.339844 91.78125 88.347656 C 91.777344 88.351562 91.773438 88.355469 91.773438 88.359375 C 91.765625 88.367188 91.761719 88.375 91.757812 88.378906 C 91.753906 88.382812 91.753906 88.386719 91.75 88.390625 C 91.742188 88.398438 91.734375 88.40625 91.726562 88.417969 L 88.671875 91.46875 C 88.511719 91.628906 88.253906 91.628906 88.097656 91.46875 C 87.9375 91.3125 87.9375 91.054688 88.097656 90.894531 L 90.453125 88.535156 L 82.613281 88.535156 C 82.390625 88.535156 82.207031 88.351562 82.207031 88.128906 C 82.207031 87.902344 82.390625 87.722656 82.613281 87.722656 L 90.460938 87.722656 L 88.09375 85.335938 C 88.015625 85.257812 87.976562 85.152344 87.976562 85.050781 C 87.976562 84.945312 88.015625 84.839844 88.097656 84.761719 C 88.257812 84.601562 88.515625 84.605469 88.671875 84.761719 L 91.726562 87.839844 " fill-opacity="1" fill-rule="nonzero"/><path fill="#000000" d="M 87.984375 91.183594 C 87.984375 91.289062 88.027344 91.390625 88.101562 91.464844 C 88.257812 91.621094 88.511719 91.621094 88.667969 91.464844 L 91.71875 88.410156 C 91.726562 88.402344 91.734375 88.394531 91.742188 88.386719 C 91.746094 88.382812 91.746094 88.378906 91.75 88.378906 L 91.75 88.375 C 91.757812 88.371094 91.761719 88.363281 91.765625 88.355469 C 91.769531 88.351562 91.769531 88.347656 91.773438 88.34375 C 91.777344 88.335938 91.78125 88.328125 91.789062 88.320312 C 91.789062 88.316406 91.792969 88.3125 91.792969 88.308594 C 91.796875 88.300781 91.800781 88.292969 91.804688 88.285156 C 91.808594 88.28125 91.808594 88.277344 91.808594 88.273438 C 91.8125 88.265625 91.816406 88.257812 91.816406 88.253906 L 91.816406 88.25 C 91.820312 88.246094 91.820312 88.242188 91.820312 88.238281 C 91.824219 88.230469 91.828125 88.21875 91.828125 88.210938 C 91.828125 88.207031 91.828125 88.207031 91.832031 88.203125 C 91.832031 88.191406 91.832031 88.183594 91.835938 88.171875 C 91.835938 88.167969 91.835938 88.167969 91.835938 88.164062 L 91.835938 88.160156 C 91.835938 88.152344 91.835938 88.144531 91.835938 88.136719 L 91.835938 88.132812 C 91.835938 88.132812 91.835938 88.128906 91.835938 88.125 C 91.835938 88.113281 91.835938 88.105469 91.835938 88.09375 C 91.835938 88.082031 91.832031 88.070312 91.832031 88.058594 C 91.832031 88.054688 91.828125 88.050781 91.828125 88.050781 L 91.828125 88.046875 C 91.828125 88.039062 91.824219 88.03125 91.824219 88.023438 C 91.820312 88.019531 91.820312 88.015625 91.820312 88.011719 C 91.816406 88.003906 91.816406 87.996094 91.8125 87.988281 L 91.808594 87.984375 C 91.808594 87.980469 91.808594 87.980469 91.808594 87.976562 C 91.804688 87.964844 91.796875 87.957031 91.792969 87.945312 C 91.792969 87.945312 91.789062 87.941406 91.789062 87.9375 L 91.789062 87.933594 C 91.785156 87.929688 91.78125 87.921875 91.777344 87.914062 C 91.773438 87.910156 91.769531 87.910156 91.769531 87.90625 C 91.761719 87.898438 91.757812 87.890625 91.753906 87.882812 L 91.75 87.878906 C 91.75 87.878906 91.75 87.878906 91.746094 87.875 C 91.738281 87.867188 91.730469 87.859375 91.722656 87.847656 L 91.726562 87.839844 L 91.722656 87.847656 L 88.667969 84.769531 C 88.511719 84.613281 88.257812 84.609375 88.101562 84.765625 C 88.027344 84.84375 87.984375 84.941406 87.984375 85.050781 C 87.984375 85.15625 88.027344 85.257812 88.101562 85.332031 L 90.476562 87.730469 L 82.613281 87.730469 C 82.394531 87.730469 82.214844 87.90625 82.214844 88.128906 C 82.214844 88.347656 82.394531 88.527344 82.613281 88.527344 L 90.472656 88.527344 L 88.101562 90.898438 C 88.027344 90.976562 87.984375 91.074219 87.984375 91.183594 Z M 91.851562 88.125 C 91.851562 88.128906 91.851562 88.132812 91.851562 88.132812 L 91.851562 88.136719 C 91.851562 88.144531 91.851562 88.152344 91.851562 88.164062 C 91.851562 88.167969 91.851562 88.171875 91.847656 88.175781 C 91.847656 88.183594 91.847656 88.195312 91.84375 88.207031 C 91.84375 88.207031 91.84375 88.210938 91.84375 88.214844 C 91.839844 88.222656 91.839844 88.234375 91.835938 88.242188 C 91.835938 88.246094 91.832031 88.25 91.832031 88.253906 L 91.832031 88.257812 C 91.828125 88.261719 91.828125 88.269531 91.824219 88.277344 C 91.820312 88.28125 91.820312 88.285156 91.820312 88.292969 C 91.816406 88.300781 91.8125 88.308594 91.808594 88.316406 C 91.804688 88.320312 91.804688 88.324219 91.800781 88.328125 C 91.796875 88.335938 91.789062 88.347656 91.785156 88.351562 C 91.785156 88.355469 91.78125 88.359375 91.777344 88.363281 C 91.773438 88.371094 91.769531 88.378906 91.761719 88.386719 C 91.757812 88.390625 91.757812 88.390625 91.753906 88.394531 C 91.746094 88.40625 91.738281 88.414062 91.730469 88.421875 L 88.675781 91.476562 C 88.515625 91.636719 88.253906 91.636719 88.089844 91.476562 C 88.011719 91.398438 87.96875 91.292969 87.96875 91.183594 C 87.96875 91.070312 88.011719 90.96875 88.089844 90.890625 L 90.4375 88.542969 L 82.613281 88.542969 C 82.386719 88.542969 82.199219 88.355469 82.199219 88.128906 C 82.199219 87.898438 82.386719 87.714844 82.613281 87.714844 L 90.441406 87.714844 L 88.089844 85.34375 C 88.011719 85.265625 87.96875 85.160156 87.96875 85.050781 C 87.96875 84.9375 88.011719 84.835938 88.09375 84.753906 C 88.253906 84.59375 88.515625 84.597656 88.679688 84.757812 L 91.730469 87.835938 L 91.734375 87.839844 C 91.742188 87.847656 91.75 87.855469 91.757812 87.867188 C 91.761719 87.867188 91.761719 87.871094 91.761719 87.871094 L 91.765625 87.875 C 91.769531 87.882812 91.777344 87.886719 91.78125 87.894531 C 91.785156 87.898438 91.785156 87.902344 91.789062 87.90625 C 91.792969 87.914062 91.796875 87.921875 91.800781 87.929688 L 91.800781 87.933594 C 91.804688 87.933594 91.804688 87.9375 91.808594 87.941406 C 91.8125 87.949219 91.816406 87.960938 91.820312 87.96875 C 91.824219 87.972656 91.824219 87.976562 91.824219 87.980469 L 91.824219 87.984375 C 91.828125 87.992188 91.832031 88 91.832031 88.003906 C 91.835938 88.011719 91.835938 88.015625 91.835938 88.019531 C 91.839844 88.027344 91.839844 88.035156 91.84375 88.042969 L 91.84375 88.046875 C 91.84375 88.050781 91.84375 88.050781 91.84375 88.054688 C 91.847656 88.066406 91.847656 88.078125 91.851562 88.089844 L 91.851562 88.09375 C 91.851562 88.105469 91.851562 88.113281 91.851562 88.125 " fill-opacity="1" fill-rule="nonzero"/></svg>