<svg xmlns="http://www.w3.org/2000/svg" xmlns:xlink="http://www.w3.org/1999/xlink" zoomAndPan="magnify" preserveAspectRatio="xMidYMid meet" version="1.0" viewBox="57.6 41.2 318.75 477"><defs><clipPath id="378a08fe9e"><path d="M 57.601562 41.203125 L 376.351562 41.203125 L 376.351562 518.203125 L 57.601562 518.203125 Z M 57.601562 41.203125 " clip-rule="nonzero"/></clipPath><clipPath id="da8cdc09fa"><path d="M 57.601562 41.203125 L 376.351562 41.203125 L 376.351562 518.203125 L 57.601562 518.203125 Z M 57.601562 41.203125 " clip-rule="nonzero"/></clipPath></defs><g clip-path="url(#378a08fe9e)"><path fill="#000000" d="M 369.46875 502.695312 C 366.3125 502.695312 363.421875 502.691406 360.53125 502.695312 C 332.628906 502.761719 304.722656 502.890625 276.820312 502.878906 C 260.125 502.867188 243.429688 502.738281 226.738281 502.464844 C 217.414062 502.3125 208.101562 501.648438 198.78125 501.414062 C 188.988281 501.167969 179.1875 501.179688 169.390625 501.050781 C 143.449219 500.710938 117.507812 500.332031 91.566406 500.019531 C 82.789062 499.914062 74.011719 499.953125 65.230469 499.925781 C 64.453125 499.925781 63.679688 499.925781 62.753906 499.925781 C 62.671875 499.3125 62.539062 498.800781 62.542969 498.289062 C 62.652344 472.859375 62.964844 447.425781 62.839844 421.996094 C 62.691406 391.003906 62.152344 360.015625 61.832031 329.023438 C 61.621094 308.988281 61.472656 288.953125 61.347656 268.917969 C 61.230469 250.449219 60.988281 231.976562 61.171875 213.507812 C 61.320312 198.328125 61.992188 183.15625 62.457031 167.980469 C 63.253906 142.003906 63.644531 116.023438 63.347656 90.035156 C 63.304688 86.289062 63.339844 82.542969 63.339844 78.566406 C 63.71875 78.511719 64.304688 78.363281 64.890625 78.351562 C 70.21875 78.238281 75.546875 78.164062 80.878906 78.058594 C 91.925781 77.832031 102.972656 77.371094 114.019531 77.421875 C 126.714844 77.480469 139.40625 78.183594 152.097656 78.238281 C 164.949219 78.296875 177.804688 78.0625 190.648438 77.664062 C 200.441406 77.363281 210.226562 76.921875 220.027344 77.203125 C 241.1875 77.804688 262.347656 77.734375 283.507812 77.210938 C 293.144531 76.976562 302.785156 76.878906 312.421875 76.636719 C 321.511719 76.40625 330.59375 76.015625 339.683594 75.796875 C 350.101562 75.550781 360.519531 75.414062 370.941406 75.234375 C 371.472656 75.222656 372.003906 75.230469 372.804688 75.230469 C 372.804688 76.296875 372.816406 77.210938 372.800781 78.125 C 372.378906 101.679688 371.824219 125.230469 371.5625 148.789062 C 371.226562 178.527344 371 208.269531 370.960938 238.007812 C 370.910156 277.769531 370.714844 317.523438 369.71875 357.273438 C 368.859375 391.546875 368.398438 425.824219 368.472656 460.105469 C 368.5 472.867188 368.621094 485.617188 369.457031 498.355469 C 369.542969 499.667969 369.46875 500.988281 369.46875 502.695312 Z M 64.023438 68.691406 C 74.363281 68.726562 84.710938 68.945312 95.046875 68.753906 C 115.261719 68.371094 135.46875 67.652344 155.679688 67.273438 C 175.738281 66.898438 195.796875 66.636719 215.859375 66.574219 C 231.683594 66.527344 247.511719 66.847656 263.339844 67.035156 C 277.835938 67.203125 292.332031 67.679688 306.824219 67.546875 C 327.980469 67.355469 349.132812 66.71875 370.289062 67.5625 C 371.121094 67.597656 371.953125 67.566406 373.023438 67.566406 C 373.023438 66.34375 373.027344 65.417969 373.019531 64.488281 C 372.980469 59.480469 372.953125 54.476562 372.894531 49.46875 C 372.859375 46.453125 372.679688 46.285156 369.738281 46.074219 C 369.503906 46.058594 369.269531 46.050781 369.035156 46.035156 C 355.652344 45.257812 342.253906 45.179688 328.851562 45.261719 C 312.003906 45.363281 295.15625 45.492188 278.3125 45.429688 C 256.058594 45.347656 233.804688 45.035156 211.550781 44.925781 C 190.863281 44.820312 170.171875 44.671875 149.484375 44.867188 C 121.671875 45.132812 93.859375 45.710938 66.042969 46.171875 C 64.890625 46.191406 63.742188 46.40625 62.261719 46.566406 C 62.523438 53.953125 62.777344 61.179688 63.039062 68.542969 C 63.558594 68.625 63.792969 68.691406 64.023438 68.691406 Z M 75.523438 63.023438 C 72.6875 62.972656 70.429688 60.714844 70.46875 57.972656 C 70.515625 54.640625 73.03125 52.074219 76.1875 52.140625 C 79.0625 52.203125 80.855469 54.273438 80.804688 57.46875 C 80.75 60.914062 78.691406 63.074219 75.523438 63.023438 Z M 91.601562 50.789062 C 94.769531 50.777344 97.253906 53.574219 97.175781 57.066406 C 97.109375 60.117188 94.230469 62.925781 91.230469 62.867188 C 88.304688 62.8125 85.859375 59.949219 85.855469 56.574219 C 85.855469 53.21875 88.253906 50.800781 91.601562 50.789062 Z M 112.339844 56.824219 C 112.285156 60.304688 109.742188 62.996094 106.542969 62.957031 C 103.496094 62.925781 101.054688 60.035156 101.085938 56.492188 C 101.113281 53.570312 103.683594 51.289062 106.929688 51.308594 C 110.152344 51.328125 112.390625 53.613281 112.339844 56.824219 Z M 62.472656 508.195312 C 62.550781 510.300781 62.722656 510.664062 64.808594 511.074219 C 68.488281 511.800781 72.195312 512.667969 75.921875 512.839844 C 92.515625 513.609375 109.117188 514.3125 125.722656 514.722656 C 137.941406 515.019531 150.171875 514.855469 162.398438 514.839844 C 187.714844 514.808594 213.027344 514.671875 238.339844 514.707031 C 254.015625 514.730469 269.6875 515.117188 285.359375 515.113281 C 312.007812 515.101562 338.652344 514.910156 365.296875 514.792969 C 365.847656 514.789062 366.394531 514.777344 366.941406 514.761719 C 368.03125 514.726562 368.710938 514.15625 368.941406 513.117188 C 369.488281 510.675781 369.707031 508.214844 369.453125 505.523438 C 368.71875 505.523438 368.113281 505.511719 367.507812 505.523438 C 363.042969 505.625 358.578125 505.816406 354.113281 505.824219 C 324.332031 505.875 294.550781 505.914062 264.769531 505.894531 C 253.015625 505.886719 241.257812 505.839844 229.507812 505.59375 C 219.324219 505.378906 209.148438 504.730469 198.964844 504.507812 C 185.414062 504.214844 171.855469 504.140625 158.296875 503.984375 C 127.1875 503.617188 96.074219 503.257812 64.964844 502.898438 C 64.203125 502.890625 63.441406 502.898438 62.457031 502.898438 C 62.457031 504.789062 62.40625 506.496094 62.472656 508.195312 Z M 64.308594 75.621094 C 73.242188 75.445312 82.1875 75.511719 91.101562 75.027344 C 107.640625 74.136719 124.164062 74.605469 140.695312 74.882812 C 150.332031 75.042969 159.972656 75.378906 169.605469 75.269531 C 180.414062 75.152344 191.21875 74.449219 202.027344 74.316406 C 212.683594 74.179688 223.339844 74.523438 234 74.503906 C 255.078125 74.460938 276.160156 74.34375 297.238281 74.179688 C 303.664062 74.128906 310.085938 73.800781 316.507812 73.621094 C 325.4375 73.371094 334.363281 73.066406 343.292969 72.917969 C 352.304688 72.769531 361.316406 72.785156 370.328125 72.714844 C 371.097656 72.710938 371.863281 72.625 372.703125 72.570312 C 372.703125 71.777344 372.703125 71.144531 372.703125 70.382812 C 370.257812 70.382812 367.996094 70.386719 365.734375 70.382812 C 352.097656 70.355469 338.464844 70.300781 324.832031 70.296875 C 309.628906 70.289062 294.425781 70.429688 279.222656 70.304688 C 265.589844 70.195312 251.957031 69.582031 238.324219 69.585938 C 205.570312 69.601562 172.8125 69.542969 140.070312 70.855469 C 124.097656 71.5 108.105469 71.632812 92.121094 71.820312 C 83.582031 71.917969 75.039062 71.644531 66.5 71.550781 C 65.359375 71.539062 64.222656 71.574219 63.085938 71.589844 C 63.085938 73.050781 63.085938 74.199219 63.085938 75.515625 C 63.691406 75.570312 64 75.628906 64.308594 75.621094 Z M 88.488281 57.207031 C 88.476562 58.757812 89.941406 60.300781 91.40625 60.285156 C 93.046875 60.265625 94.570312 58.597656 94.542969 56.855469 C 94.515625 54.957031 93.273438 53.554688 91.640625 53.582031 C 89.792969 53.609375 88.5 55.097656 88.488281 57.207031 Z M 106.574219 60.449219 C 108.296875 60.472656 109.855469 58.796875 109.878906 56.894531 C 109.902344 55.097656 108.773438 53.953125 107 53.972656 C 104.992188 53.992188 103.691406 55.226562 103.707031 57.097656 C 103.722656 58.925781 105.003906 60.425781 106.574219 60.449219 Z M 374.261719 278.574219 C 373.847656 301.109375 373.445312 323.648438 373.019531 346.183594 C 372.773438 359.097656 372.378906 372.007812 372.25 384.917969 C 371.9375 415.832031 371.710938 446.746094 371.539062 477.664062 C 371.507812 482.820312 371.96875 487.980469 372.117188 493.144531 C 372.265625 498.382812 372.34375 503.625 372.371094 508.867188 C 372.378906 510.265625 372.167969 511.679688 371.917969 513.0625 C 371.3125 516.378906 369.851562 517.625 366.472656 517.679688 C 362.238281 517.75 358.007812 517.742188 353.773438 517.765625 C 328.925781 517.902344 304.078125 518.132812 279.230469 518.140625 C 255.402344 518.148438 231.578125 517.84375 207.75 517.8125 C 184.390625 517.78125 161.03125 518.054688 137.675781 517.933594 C 123.804688 517.859375 109.933594 517.355469 96.070312 516.914062 C 88.941406 516.6875 81.816406 516.292969 74.707031 515.738281 C 71.054688 515.453125 67.40625 514.808594 63.820312 514.027344 C 59.886719 513.167969 59.132812 512.164062 59.144531 508.210938 C 59.15625 502.65625 59.417969 497.101562 59.445312 491.546875 C 59.535156 473.386719 59.707031 455.230469 59.589844 437.070312 C 59.367188 403.496094 58.945312 369.921875 58.640625 336.34375 C 58.421875 312.316406 58.214844 288.289062 58.070312 264.261719 C 57.964844 247.277344 57.691406 230.289062 57.996094 213.3125 C 58.433594 189.054688 59.414062 164.808594 60 140.550781 C 60.488281 120.207031 60.710938 99.859375 60.085938 79.507812 C 59.980469 76.171875 60.089844 72.824219 60.015625 69.484375 C 59.871094 63.074219 59.65625 56.664062 59.496094 50.25 C 59.46875 49.078125 59.496094 47.894531 59.636719 46.734375 C 59.894531 44.644531 60.691406 43.820312 62.828125 43.707031 C 69.167969 43.363281 75.507812 43.050781 81.851562 42.84375 C 132.320312 41.195312 182.804688 41.996094 233.28125 41.910156 C 258.050781 41.867188 282.816406 42.234375 307.585938 42.28125 C 322.242188 42.308594 336.898438 41.980469 351.554688 41.992188 C 357.898438 42 364.238281 42.464844 370.582031 42.722656 C 370.972656 42.738281 371.367188 42.761719 371.753906 42.816406 C 374.886719 43.226562 376.167969 44.601562 376.210938 47.769531 C 376.273438 52.542969 376.355469 57.320312 376.28125 62.09375 C 375.730469 96.214844 375.023438 130.332031 374.609375 164.457031 C 374.269531 192.394531 374.257812 220.339844 374.128906 248.28125 C 374.082031 258.375 374.121094 268.472656 374.121094 278.570312 C 374.167969 278.570312 374.214844 278.574219 374.261719 278.574219 Z M 369.46875 502.695312 C 369.46875 500.988281 369.542969 499.667969 369.457031 498.355469 C 368.621094 485.617188 368.5 472.867188 368.472656 460.105469 C 368.398438 425.824219 368.859375 391.546875 369.71875 357.273438 C 370.714844 317.523438 370.910156 277.769531 370.960938 238.007812 C 371 208.269531 371.226562 178.527344 371.5625 148.789062 C 371.824219 125.230469 372.378906 101.679688 372.800781 78.125 C 372.816406 77.210938 372.804688 76.296875 372.804688 75.230469 C 372.003906 75.230469 371.472656 75.222656 370.941406 75.234375 C 360.519531 75.414062 350.101562 75.550781 339.683594 75.796875 C 330.59375 76.015625 321.511719 76.40625 312.421875 76.636719 C 302.785156 76.878906 293.144531 76.976562 283.507812 77.210938 C 262.347656 77.734375 241.1875 77.804688 220.027344 77.203125 C 210.226562 76.921875 200.441406 77.363281 190.648438 77.664062 C 177.804688 78.0625 164.949219 78.296875 152.097656 78.238281 C 139.40625 78.183594 126.714844 77.480469 114.019531 77.421875 C 102.972656 77.371094 91.925781 77.832031 80.878906 78.058594 C 75.546875 78.164062 70.21875 78.238281 64.890625 78.351562 C 64.304688 78.363281 63.71875 78.511719 63.339844 78.566406 C 63.339844 82.542969 63.304688 86.289062 63.347656 90.035156 C 63.644531 116.023438 63.253906 142.003906 62.457031 167.980469 C 61.992188 183.15625 61.320312 198.328125 61.171875 213.507812 C 60.988281 231.976562 61.230469 250.449219 61.347656 268.917969 C 61.472656 288.953125 61.621094 308.988281 61.832031 329.023438 C 62.152344 360.015625 62.691406 391.003906 62.839844 421.996094 C 62.964844 447.425781 62.652344 472.859375 62.542969 498.289062 C 62.539062 498.800781 62.671875 499.3125 62.753906 499.925781 C 63.679688 499.925781 64.453125 499.925781 65.230469 499.925781 C 74.011719 499.953125 82.789062 499.914062 91.566406 500.019531 C 117.507812 500.332031 143.449219 500.710938 169.390625 501.050781 C 179.1875 501.179688 188.988281 501.167969 198.78125 501.414062 C 208.101562 501.648438 217.414062 502.3125 226.738281 502.464844 C 243.429688 502.738281 260.125 502.867188 276.820312 502.878906 C 304.722656 502.890625 332.628906 502.761719 360.53125 502.695312 C 363.421875 502.691406 366.3125 502.695312 369.46875 502.695312 Z M 63.039062 68.542969 C 63.558594 68.625 63.792969 68.691406 64.023438 68.691406 C 74.363281 68.726562 84.710938 68.945312 95.046875 68.753906 C 115.261719 68.371094 135.46875 67.652344 155.679688 67.273438 C 175.738281 66.898438 195.796875 66.636719 215.859375 66.574219 C 231.683594 66.527344 247.511719 66.847656 263.339844 67.035156 C 277.835938 67.203125 292.332031 67.679688 306.824219 67.546875 C 327.980469 67.355469 349.132812 66.71875 370.289062 67.5625 C 371.121094 67.597656 371.953125 67.566406 373.023438 67.566406 C 373.023438 66.34375 373.027344 65.417969 373.019531 64.488281 C 372.980469 59.480469 372.953125 54.476562 372.894531 49.46875 C 372.859375 46.453125 372.679688 46.285156 369.738281 46.074219 C 369.503906 46.058594 369.269531 46.050781 369.035156 46.035156 C 355.652344 45.257812 342.253906 45.179688 328.851562 45.261719 C 312.003906 45.363281 295.15625 45.492188 278.3125 45.429688 C 256.058594 45.347656 233.804688 45.035156 211.550781 44.925781 C 190.863281 44.820312 170.171875 44.671875 149.484375 44.867188 C 121.671875 45.132812 93.859375 45.710938 66.042969 46.171875 C 64.890625 46.191406 63.742188 46.40625 62.261719 46.566406 C 62.523438 53.953125 62.777344 61.179688 63.039062 68.542969 Z M 62.457031 502.898438 C 62.457031 504.789062 62.40625 506.496094 62.472656 508.195312 C 62.550781 510.300781 62.722656 510.664062 64.808594 511.074219 C 68.488281 511.800781 72.195312 512.667969 75.921875 512.839844 C 92.515625 513.609375 109.117188 514.3125 125.722656 514.722656 C 137.941406 515.019531 150.171875 514.855469 162.398438 514.839844 C 187.714844 514.808594 213.027344 514.671875 238.339844 514.707031 C 254.015625 514.730469 269.6875 515.117188 285.359375 515.113281 C 312.007812 515.101562 338.652344 514.910156 365.296875 514.792969 C 365.847656 514.789062 366.394531 514.777344 366.941406 514.761719 C 368.03125 514.726562 368.710938 514.15625 368.941406 513.117188 C 369.488281 510.675781 369.707031 508.214844 369.453125 505.523438 C 368.71875 505.523438 368.113281 505.511719 367.507812 505.523438 C 363.042969 505.625 358.578125 505.816406 354.113281 505.824219 C 324.332031 505.875 294.550781 505.914062 264.769531 505.894531 C 253.015625 505.886719 241.257812 505.839844 229.507812 505.59375 C 219.324219 505.378906 209.148438 504.730469 198.964844 504.507812 C 185.414062 504.214844 171.855469 504.140625 158.296875 503.984375 C 127.1875 503.617188 96.074219 503.257812 64.964844 502.898438 C 64.203125 502.890625 63.441406 502.898438 62.457031 502.898438 Z M 63.085938 75.515625 C 63.691406 75.570312 64 75.628906 64.308594 75.621094 C 73.242188 75.445312 82.1875 75.511719 91.101562 75.027344 C 107.640625 74.136719 124.164062 74.605469 140.695312 74.882812 C 150.332031 75.042969 159.972656 75.378906 169.605469 75.269531 C 180.414062 75.152344 191.21875 74.449219 202.027344 74.316406 C 212.683594 74.179688 223.339844 74.523438 234 74.503906 C 255.078125 74.460938 276.160156 74.34375 297.238281 74.179688 C 303.664062 74.128906 310.085938 73.800781 316.507812 73.621094 C 325.4375 73.371094 334.363281 73.066406 343.292969 72.917969 C 352.304688 72.769531 361.316406 72.785156 370.328125 72.714844 C 371.097656 72.710938 371.863281 72.625 372.703125 72.570312 C 372.703125 71.777344 372.703125 71.144531 372.703125 70.382812 C 370.257812 70.382812 367.996094 70.386719 365.734375 70.382812 C 352.097656 70.355469 338.464844 70.300781 324.832031 70.296875 C 309.628906 70.289062 294.425781 70.429688 279.222656 70.304688 C 265.589844 70.195312 251.957031 69.582031 238.324219 69.585938 C 205.570312 69.601562 172.8125 69.542969 140.070312 70.855469 C 124.097656 71.5 108.105469 71.632812 92.121094 71.820312 C 83.582031 71.917969 75.039062 71.644531 66.5 71.550781 C 65.359375 71.539062 64.222656 71.574219 63.085938 71.589844 C 63.085938 73.050781 63.085938 74.199219 63.085938 75.515625 Z M 76.1875 52.140625 C 73.03125 52.074219 70.515625 54.640625 70.46875 57.972656 C 70.429688 60.714844 72.6875 62.972656 75.523438 63.023438 C 78.691406 63.074219 80.75 60.914062 80.804688 57.46875 C 80.855469 54.273438 79.0625 52.203125 76.1875 52.140625 Z M 85.855469 56.574219 C 85.855469 53.21875 88.253906 50.800781 91.601562 50.789062 C 94.769531 50.777344 97.253906 53.574219 97.175781 57.066406 C 97.109375 60.117188 94.230469 62.925781 91.230469 62.867188 C 88.304688 62.8125 85.859375 59.949219 85.855469 56.574219 Z M 91.640625 53.582031 C 89.792969 53.609375 88.5 55.097656 88.488281 57.207031 C 88.476562 58.757812 89.941406 60.300781 91.40625 60.285156 C 93.046875 60.265625 94.570312 58.597656 94.542969 56.855469 C 94.515625 54.957031 93.273438 53.554688 91.640625 53.582031 Z M 106.929688 51.308594 C 110.152344 51.328125 112.390625 53.613281 112.339844 56.824219 C 112.285156 60.304688 109.742188 62.996094 106.542969 62.957031 C 103.496094 62.925781 101.054688 60.035156 101.085938 56.492188 C 101.113281 53.570312 103.683594 51.289062 106.929688 51.308594 Z M 103.707031 57.097656 C 103.722656 58.925781 105.003906 60.425781 106.574219 60.449219 C 108.296875 60.472656 109.855469 58.796875 109.878906 56.894531 C 109.902344 55.097656 108.773438 53.953125 107 53.972656 C 104.992188 53.992188 103.691406 55.226562 103.707031 57.097656 Z M 103.707031 57.097656 " fill-opacity="1" fill-rule="nonzero"/></g><path fill="#fafafa" d="M 369.46875 502.695312 C 366.3125 502.695312 363.421875 502.691406 360.53125 502.695312 C 332.628906 502.761719 304.722656 502.890625 276.820312 502.878906 C 260.125 502.867188 243.429688 502.738281 226.738281 502.464844 C 217.414062 502.3125 208.101562 501.648438 198.78125 501.414062 C 188.988281 501.167969 179.1875 501.179688 169.390625 501.050781 C 143.449219 500.710938 117.507812 500.332031 91.566406 500.019531 C 82.789062 499.914062 74.011719 499.953125 65.230469 499.925781 C 64.453125 499.925781 63.679688 499.925781 62.753906 499.925781 C 62.671875 499.3125 62.539062 498.800781 62.542969 498.289062 C 62.652344 472.859375 62.964844 447.425781 62.839844 421.996094 C 62.691406 391.003906 62.152344 360.015625 61.832031 329.023438 C 61.621094 308.988281 61.472656 288.953125 61.347656 268.917969 C 61.230469 250.449219 60.988281 231.976562 61.171875 213.507812 C 61.320312 198.328125 61.992188 183.15625 62.457031 167.980469 C 63.253906 142.003906 63.644531 116.023438 63.347656 90.035156 C 63.304688 86.289062 63.339844 82.542969 63.339844 78.566406 C 63.71875 78.511719 64.304688 78.363281 64.890625 78.351562 C 70.21875 78.238281 75.546875 78.164062 80.878906 78.058594 C 91.925781 77.832031 102.972656 77.371094 114.019531 77.421875 C 126.714844 77.480469 139.40625 78.183594 152.097656 78.238281 C 164.949219 78.296875 177.804688 78.0625 190.648438 77.664062 C 200.441406 77.363281 210.226562 76.921875 220.027344 77.203125 C 241.1875 77.804688 262.347656 77.734375 283.507812 77.210938 C 293.144531 76.976562 302.785156 76.878906 312.421875 76.636719 C 321.511719 76.40625 330.59375 76.015625 339.683594 75.796875 C 350.101562 75.550781 360.519531 75.414062 370.941406 75.234375 C 371.472656 75.222656 372.003906 75.230469 372.804688 75.230469 C 372.804688 76.296875 372.816406 77.210938 372.800781 78.125 C 372.378906 101.679688 371.824219 125.230469 371.5625 148.789062 C 371.226562 178.527344 371 208.269531 370.960938 238.007812 C 370.910156 277.769531 370.714844 317.523438 369.71875 357.273438 C 368.859375 391.546875 368.398438 425.824219 368.472656 460.105469 C 368.5 472.867188 368.621094 485.617188 369.457031 498.355469 C 369.542969 499.667969 369.46875 500.988281 369.46875 502.695312 Z M 64.023438 68.691406 C 74.363281 68.726562 84.710938 68.945312 95.046875 68.753906 C 115.261719 68.371094 135.46875 67.652344 155.679688 67.273438 C 175.738281 66.898438 195.796875 66.636719 215.859375 66.574219 C 231.683594 66.527344 247.511719 66.847656 263.339844 67.035156 C 277.835938 67.203125 292.332031 67.679688 306.824219 67.546875 C 327.980469 67.355469 349.132812 66.71875 370.289062 67.5625 C 371.121094 67.597656 371.953125 67.566406 373.023438 67.566406 C 373.023438 66.34375 373.027344 65.417969 373.019531 64.488281 C 372.980469 59.480469 372.953125 54.476562 372.894531 49.46875 C 372.859375 46.453125 372.679688 46.285156 369.738281 46.074219 C 369.503906 46.058594 369.269531 46.050781 369.035156 46.035156 C 355.652344 45.257812 342.253906 45.179688 328.851562 45.261719 C 312.003906 45.363281 295.15625 45.492188 278.3125 45.429688 C 256.058594 45.347656 233.804688 45.035156 211.550781 44.925781 C 190.863281 44.820312 170.171875 44.671875 149.484375 44.867188 C 121.671875 45.132812 93.859375 45.710938 66.042969 46.171875 C 64.890625 46.191406 63.742188 46.40625 62.261719 46.566406 C 62.523438 53.953125 62.777344 61.179688 63.039062 68.542969 C 63.558594 68.625 63.792969 68.691406 64.023438 68.691406 Z M 75.523438 63.023438 C 72.6875 62.972656 70.429688 60.714844 70.46875 57.972656 C 70.515625 54.640625 73.03125 52.074219 76.1875 52.140625 C 79.0625 52.203125 80.855469 54.273438 80.804688 57.46875 C 80.75 60.914062 78.691406 63.074219 75.523438 63.023438 Z M 91.601562 50.789062 C 94.769531 50.777344 97.253906 53.574219 97.175781 57.066406 C 97.109375 60.117188 94.230469 62.925781 91.230469 62.867188 C 88.304688 62.8125 85.859375 59.949219 85.855469 56.574219 C 85.855469 53.21875 88.253906 50.800781 91.601562 50.789062 Z M 112.339844 56.824219 C 112.285156 60.304688 109.742188 62.996094 106.542969 62.957031 C 103.496094 62.925781 101.054688 60.035156 101.085938 56.492188 C 101.113281 53.570312 103.683594 51.289062 106.929688 51.308594 C 110.152344 51.328125 112.390625 53.613281 112.339844 56.824219 Z M 62.472656 508.195312 C 62.550781 510.300781 62.722656 510.664062 64.808594 511.074219 C 68.488281 511.800781 72.195312 512.667969 75.921875 512.839844 C 92.515625 513.609375 109.117188 514.3125 125.722656 514.722656 C 137.941406 515.019531 150.171875 514.855469 162.398438 514.839844 C 187.714844 514.808594 213.027344 514.671875 238.339844 514.707031 C 254.015625 514.730469 269.6875 515.117188 285.359375 515.113281 C 312.007812 515.101562 338.652344 514.910156 365.296875 514.792969 C 365.847656 514.789062 366.394531 514.777344 366.941406 514.761719 C 368.03125 514.726562 368.710938 514.15625 368.941406 513.117188 C 369.488281 510.675781 369.707031 508.214844 369.453125 505.523438 C 368.71875 505.523438 368.113281 505.511719 367.507812 505.523438 C 363.042969 505.625 358.578125 505.816406 354.113281 505.824219 C 324.332031 505.875 294.550781 505.914062 264.769531 505.894531 C 253.015625 505.886719 241.257812 505.839844 229.507812 505.59375 C 219.324219 505.378906 209.148438 504.730469 198.964844 504.507812 C 185.414062 504.214844 171.855469 504.140625 158.296875 503.984375 C 127.1875 503.617188 96.074219 503.257812 64.964844 502.898438 C 64.203125 502.890625 63.441406 502.898438 62.457031 502.898438 C 62.457031 504.789062 62.40625 506.496094 62.472656 508.195312 Z M 64.308594 75.621094 C 73.242188 75.445312 82.1875 75.511719 91.101562 75.027344 C 107.640625 74.136719 124.164062 74.605469 140.695312 74.882812 C 150.332031 75.042969 159.972656 75.378906 169.605469 75.269531 C 180.414062 75.152344 191.21875 74.449219 202.027344 74.316406 C 212.683594 74.179688 223.339844 74.523438 234 74.503906 C 255.078125 74.460938 276.160156 74.34375 297.238281 74.179688 C 303.664062 74.128906 310.085938 73.800781 316.507812 73.621094 C 325.4375 73.371094 334.363281 73.066406 343.292969 72.917969 C 352.304688 72.769531 361.316406 72.785156 370.328125 72.714844 C 371.097656 72.710938 371.863281 72.625 372.703125 72.570312 C 372.703125 71.777344 372.703125 71.144531 372.703125 70.382812 C 370.257812 70.382812 367.996094 70.386719 365.734375 70.382812 C 352.097656 70.355469 338.464844 70.300781 324.832031 70.296875 C 309.628906 70.289062 294.425781 70.429688 279.222656 70.304688 C 265.589844 70.195312 251.957031 69.582031 238.324219 69.585938 C 205.570312 69.601562 172.8125 69.542969 140.070312 70.855469 C 124.097656 71.5 108.105469 71.632812 92.121094 71.820312 C 83.582031 71.917969 75.039062 71.644531 66.5 71.550781 C 65.359375 71.539062 64.222656 71.574219 63.085938 71.589844 C 63.085938 73.050781 63.085938 74.199219 63.085938 75.515625 C 63.691406 75.570312 64 75.628906 64.308594 75.621094 Z M 88.488281 57.207031 C 88.476562 58.757812 89.941406 60.300781 91.40625 60.285156 C 93.046875 60.265625 94.570312 58.597656 94.542969 56.855469 C 94.515625 54.957031 93.273438 53.554688 91.640625 53.582031 C 89.792969 53.609375 88.5 55.097656 88.488281 57.207031 Z M 106.574219 60.449219 C 108.296875 60.472656 109.855469 58.796875 109.878906 56.894531 C 109.902344 55.097656 108.773438 53.953125 107 53.972656 C 104.992188 53.992188 103.691406 55.226562 103.707031 57.097656 C 103.722656 58.925781 105.003906 60.425781 106.574219 60.449219 Z M 106.574219 60.449219 " fill-opacity="1" fill-rule="nonzero"/><g clip-path="url(#da8cdc09fa)"><path fill="#000000" d="M 374.261719 278.574219 C 373.847656 301.109375 373.445312 323.648438 373.019531 346.183594 C 372.773438 359.097656 372.378906 372.007812 372.25 384.917969 C 371.9375 415.832031 371.710938 446.746094 371.539062 477.664062 C 371.507812 482.820312 371.96875 487.980469 372.117188 493.144531 C 372.265625 498.382812 372.34375 503.625 372.371094 508.867188 C 372.378906 510.265625 372.167969 511.679688 371.917969 513.0625 C 371.3125 516.378906 369.851562 517.625 366.472656 517.679688 C 362.238281 517.75 358.007812 517.742188 353.773438 517.765625 C 328.925781 517.902344 304.078125 518.132812 279.230469 518.140625 C 255.402344 518.148438 231.578125 517.84375 207.75 517.8125 C 184.390625 517.78125 161.03125 518.054688 137.675781 517.933594 C 123.804688 517.859375 109.933594 517.355469 96.070312 516.914062 C 88.941406 516.6875 81.816406 516.292969 74.707031 515.738281 C 71.054688 515.453125 67.40625 514.808594 63.820312 514.027344 C 59.886719 513.167969 59.132812 512.164062 59.144531 508.210938 C 59.15625 502.65625 59.417969 497.101562 59.445312 491.546875 C 59.535156 473.386719 59.707031 455.230469 59.589844 437.070312 C 59.367188 403.496094 58.945312 369.921875 58.640625 336.34375 C 58.421875 312.316406 58.214844 288.289062 58.070312 264.261719 C 57.964844 247.277344 57.691406 230.289062 57.996094 213.3125 C 58.433594 189.054688 59.414062 164.808594 60 140.550781 C 60.488281 120.207031 60.710938 99.859375 60.085938 79.507812 C 59.980469 76.171875 60.089844 72.824219 60.015625 69.484375 C 59.871094 63.074219 59.65625 56.664062 59.496094 50.25 C 59.46875 49.078125 59.496094 47.894531 59.636719 46.734375 C 59.894531 44.644531 60.691406 43.820312 62.828125 43.707031 C 69.167969 43.363281 75.507812 43.050781 81.851562 42.84375 C 132.320312 41.195312 182.804688 41.996094 233.28125 41.910156 C 258.050781 41.867188 282.816406 42.234375 307.585938 42.28125 C 322.242188 42.308594 336.898438 41.980469 351.554688 41.992188 C 357.898438 42 364.238281 42.464844 370.582031 42.722656 C 370.972656 42.738281 371.367188 42.761719 371.753906 42.816406 C 374.886719 43.226562 376.167969 44.601562 376.210938 47.769531 C 376.273438 52.542969 376.355469 57.320312 376.28125 62.09375 C 375.730469 96.214844 375.023438 130.332031 374.609375 164.457031 C 374.269531 192.394531 374.257812 220.339844 374.128906 248.28125 C 374.082031 258.375 374.121094 268.472656 374.121094 278.570312 C 374.167969 278.570312 374.214844 278.574219 374.261719 278.574219 Z M 369.46875 502.695312 C 369.46875 500.988281 369.542969 499.667969 369.457031 498.355469 C 368.621094 485.617188 368.5 472.867188 368.472656 460.105469 C 368.398438 425.824219 368.859375 391.546875 369.71875 357.273438 C 370.714844 317.523438 370.910156 277.769531 370.960938 238.007812 C 371 208.269531 371.226562 178.527344 371.5625 148.789062 C 371.824219 125.230469 372.378906 101.679688 372.800781 78.125 C 372.816406 77.210938 372.804688 76.296875 372.804688 75.230469 C 372.003906 75.230469 371.472656 75.222656 370.941406 75.234375 C 360.519531 75.414062 350.101562 75.550781 339.683594 75.796875 C 330.59375 76.015625 321.511719 76.40625 312.421875 76.636719 C 302.785156 76.878906 293.144531 76.976562 283.507812 77.210938 C 262.347656 77.734375 241.1875 77.804688 220.027344 77.203125 C 210.226562 76.921875 200.441406 77.363281 190.648438 77.664062 C 177.804688 78.0625 164.949219 78.296875 152.097656 78.238281 C 139.40625 78.183594 126.714844 77.480469 114.019531 77.421875 C 102.972656 77.371094 91.925781 77.832031 80.878906 78.058594 C 75.546875 78.164062 70.21875 78.238281 64.890625 78.351562 C 64.304688 78.363281 63.71875 78.511719 63.339844 78.566406 C 63.339844 82.542969 63.304688 86.289062 63.347656 90.035156 C 63.644531 116.023438 63.253906 142.003906 62.457031 167.980469 C 61.992188 183.15625 61.320312 198.328125 61.171875 213.507812 C 60.988281 231.976562 61.230469 250.449219 61.347656 268.917969 C 61.472656 288.953125 61.621094 308.988281 61.832031 329.023438 C 62.152344 360.015625 62.691406 391.003906 62.839844 421.996094 C 62.964844 447.425781 62.652344 472.859375 62.542969 498.289062 C 62.539062 498.800781 62.671875 499.3125 62.753906 499.925781 C 63.679688 499.925781 64.453125 499.925781 65.230469 499.925781 C 74.011719 499.953125 82.789062 499.914062 91.566406 500.019531 C 117.507812 500.332031 143.449219 500.710938 169.390625 501.050781 C 179.1875 501.179688 188.988281 501.167969 198.78125 501.414062 C 208.101562 501.648438 217.414062 502.3125 226.738281 502.464844 C 243.429688 502.738281 260.125 502.867188 276.820312 502.878906 C 304.722656 502.890625 332.628906 502.761719 360.53125 502.695312 C 363.421875 502.691406 366.3125 502.695312 369.46875 502.695312 Z M 63.039062 68.542969 C 63.558594 68.625 63.792969 68.691406 64.023438 68.691406 C 74.363281 68.726562 84.710938 68.945312 95.046875 68.753906 C 115.261719 68.371094 135.46875 67.652344 155.679688 67.273438 C 175.738281 66.898438 195.796875 66.636719 215.859375 66.574219 C 231.683594 66.527344 247.511719 66.847656 263.339844 67.035156 C 277.835938 67.203125 292.332031 67.679688 306.824219 67.546875 C 327.980469 67.355469 349.132812 66.71875 370.289062 67.5625 C 371.121094 67.597656 371.953125 67.566406 373.023438 67.566406 C 373.023438 66.34375 373.027344 65.417969 373.019531 64.488281 C 372.980469 59.480469 372.953125 54.476562 372.894531 49.46875 C 372.859375 46.453125 372.679688 46.285156 369.738281 46.074219 C 369.503906 46.058594 369.269531 46.050781 369.035156 46.035156 C 355.652344 45.257812 342.253906 45.179688 328.851562 45.261719 C 312.003906 45.363281 295.15625 45.492188 278.3125 45.429688 C 256.058594 45.347656 233.804688 45.035156 211.550781 44.925781 C 190.863281 44.820312 170.171875 44.671875 149.484375 44.867188 C 121.671875 45.132812 93.859375 45.710938 66.042969 46.171875 C 64.890625 46.191406 63.742188 46.40625 62.261719 46.566406 C 62.523438 53.953125 62.777344 61.179688 63.039062 68.542969 Z M 62.457031 502.898438 C 62.457031 504.789062 62.40625 506.496094 62.472656 508.195312 C 62.550781 510.300781 62.722656 510.664062 64.808594 511.074219 C 68.488281 511.800781 72.195312 512.667969 75.921875 512.839844 C 92.515625 513.609375 109.117188 514.3125 125.722656 514.722656 C 137.941406 515.019531 150.171875 514.855469 162.398438 514.839844 C 187.714844 514.808594 213.027344 514.671875 238.339844 514.707031 C 254.015625 514.730469 269.6875 515.117188 285.359375 515.113281 C 312.007812 515.101562 338.652344 514.910156 365.296875 514.792969 C 365.847656 514.789062 366.394531 514.777344 366.941406 514.761719 C 368.03125 514.726562 368.710938 514.15625 368.941406 513.117188 C 369.488281 510.675781 369.707031 508.214844 369.453125 505.523438 C 368.71875 505.523438 368.113281 505.511719 367.507812 505.523438 C 363.042969 505.625 358.578125 505.816406 354.113281 505.824219 C 324.332031 505.875 294.550781 505.914062 264.769531 505.894531 C 253.015625 505.886719 241.257812 505.839844 229.507812 505.59375 C 219.324219 505.378906 209.148438 504.730469 198.964844 504.507812 C 185.414062 504.214844 171.855469 504.140625 158.296875 503.984375 C 127.1875 503.617188 96.074219 503.257812 64.964844 502.898438 C 64.203125 502.890625 63.441406 502.898438 62.457031 502.898438 Z M 63.085938 75.515625 C 63.691406 75.570312 64 75.628906 64.308594 75.621094 C 73.242188 75.445312 82.1875 75.511719 91.101562 75.027344 C 107.640625 74.136719 124.164062 74.605469 140.695312 74.882812 C 150.332031 75.042969 159.972656 75.378906 169.605469 75.269531 C 180.414062 75.152344 191.21875 74.449219 202.027344 74.316406 C 212.683594 74.179688 223.339844 74.523438 234 74.503906 C 255.078125 74.460938 276.160156 74.34375 297.238281 74.179688 C 303.664062 74.128906 310.085938 73.800781 316.507812 73.621094 C 325.4375 73.371094 334.363281 73.066406 343.292969 72.917969 C 352.304688 72.769531 361.316406 72.785156 370.328125 72.714844 C 371.097656 72.710938 371.863281 72.625 372.703125 72.570312 C 372.703125 71.777344 372.703125 71.144531 372.703125 70.382812 C 370.257812 70.382812 367.996094 70.386719 365.734375 70.382812 C 352.097656 70.355469 338.464844 70.300781 324.832031 70.296875 C 309.628906 70.289062 294.425781 70.429688 279.222656 70.304688 C 265.589844 70.195312 251.957031 69.582031 238.324219 69.585938 C 205.570312 69.601562 172.8125 69.542969 140.070312 70.855469 C 124.097656 71.5 108.105469 71.632812 92.121094 71.820312 C 83.582031 71.917969 75.039062 71.644531 66.5 71.550781 C 65.359375 71.539062 64.222656 71.574219 63.085938 71.589844 C 63.085938 73.050781 63.085938 74.199219 63.085938 75.515625 Z M 76.1875 52.140625 C 73.03125 52.074219 70.515625 54.640625 70.46875 57.972656 C 70.429688 60.714844 72.6875 62.972656 75.523438 63.023438 C 78.691406 63.074219 80.75 60.914062 80.804688 57.46875 C 80.855469 54.273438 79.0625 52.203125 76.1875 52.140625 Z M 85.855469 56.574219 C 85.855469 53.21875 88.253906 50.800781 91.601562 50.789062 C 94.769531 50.777344 97.253906 53.574219 97.175781 57.066406 C 97.109375 60.117188 94.230469 62.925781 91.230469 62.867188 C 88.304688 62.8125 85.859375 59.949219 85.855469 56.574219 Z M 91.640625 53.582031 C 89.792969 53.609375 88.5 55.097656 88.488281 57.207031 C 88.476562 58.757812 89.941406 60.300781 91.40625 60.285156 C 93.046875 60.265625 94.570312 58.597656 94.542969 56.855469 C 94.515625 54.957031 93.273438 53.554688 91.640625 53.582031 Z M 106.929688 51.308594 C 110.152344 51.328125 112.390625 53.613281 112.339844 56.824219 C 112.285156 60.304688 109.742188 62.996094 106.542969 62.957031 C 103.496094 62.925781 101.054688 60.035156 101.085938 56.492188 C 101.113281 53.570312 103.683594 51.289062 106.929688 51.308594 Z M 103.707031 57.097656 C 103.722656 58.925781 105.003906 60.425781 106.574219 60.449219 C 108.296875 60.472656 109.855469 58.796875 109.878906 56.894531 C 109.902344 55.097656 108.773438 53.953125 107 53.972656 C 104.992188 53.992188 103.691406 55.226562 103.707031 57.097656 Z M 103.707031 57.097656 " fill-opacity="1" fill-rule="nonzero"/></g></svg>