<svg xmlns="http://www.w3.org/2000/svg" xmlns:xlink="http://www.w3.org/1999/xlink" width="690" zoomAndPan="magnify" viewBox="0 0 517.5 482.249999" height="643" preserveAspectRatio="xMidYMid meet" version="1.0"><defs><clipPath id="b5f49c8773"><path d="M 86.070312 84.128906 L 430.867188 84.128906 L 430.867188 397.445312 L 86.070312 397.445312 Z M 86.070312 84.128906 " clip-rule="nonzero"/></clipPath><clipPath id="86b016188f"><path d="M 86.070312 84.128906 L 430.867188 84.128906 L 430.867188 397.445312 L 86.070312 397.445312 Z M 86.070312 84.128906 " clip-rule="nonzero"/></clipPath></defs><g clip-path="url(#b5f49c8773)"><path fill="#1967be" d="M 426.515625 380.535156 C 422.191406 380.835938 418.007812 381.160156 413.816406 381.410156 C 407.273438 381.804688 400.726562 382.15625 394.179688 382.507812 C 375.402344 383.519531 356.625 384.476562 337.808594 383.992188 C 326.492188 383.703125 315.171875 383.378906 303.851562 383.253906 C 294.839844 383.152344 285.820312 383.308594 276.804688 383.382812 C 270.757812 383.429688 264.714844 383.597656 258.667969 383.597656 C 241.609375 383.59375 224.546875 383.457031 207.488281 383.519531 C 198.625 383.554688 189.765625 383.890625 180.90625 384.109375 C 168.972656 384.398438 157.039062 384.519531 145.101562 384.054688 C 134.558594 383.644531 124.007812 383.339844 113.460938 382.984375 C 110.234375 382.875 107.011719 382.699219 103.785156 382.625 C 99.792969 382.535156 95.796875 382.515625 91.800781 382.464844 C 91.292969 382.457031 90.789062 382.464844 90.117188 382.464844 C 89.996094 381.914062 89.835938 381.394531 89.761719 380.863281 C 88.699219 373.289062 88.441406 365.664062 88.351562 358.03125 C 88.105469 336.777344 88.085938 315.523438 88.65625 294.277344 C 89.066406 278.964844 88.820312 263.65625 88.761719 248.34375 C 88.6875 228.679688 89.171875 209.019531 89.617188 189.359375 C 89.992188 172.976562 89.960938 156.585938 90.128906 140.199219 C 90.214844 131.855469 90.347656 123.507812 90.460938 115.160156 C 90.46875 114.605469 90.519531 114.054688 90.550781 113.449219 C 90.800781 113.382812 90.988281 113.292969 91.175781 113.292969 C 97.375 113.257812 103.570312 113.238281 109.769531 113.207031 C 116.789062 113.167969 123.808594 113.195312 130.824219 113.054688 C 138.96875 112.890625 147.105469 112.570312 155.25 112.339844 C 157.808594 112.269531 160.371094 112.273438 162.933594 112.242188 C 168.621094 112.171875 174.304688 112.007812 179.992188 112.054688 C 192.796875 112.164062 205.605469 112.390625 218.410156 112.539062 C 224.558594 112.609375 230.707031 112.625 236.855469 112.652344 C 244.4375 112.6875 252.019531 112.746094 259.597656 112.730469 C 284.140625 112.6875 308.679688 112.609375 333.21875 112.554688 C 342.136719 112.535156 351.050781 112.441406 359.964844 112.589844 C 367.492188 112.714844 375.011719 113.207031 382.539062 113.410156 C 393.34375 113.703125 404.148438 113.910156 414.957031 114.101562 C 419.003906 114.171875 423.050781 114.097656 427.097656 114.09375 C 427.449219 114.089844 427.796875 114.121094 428.273438 114.144531 C 428.335938 115.109375 428.414062 116.015625 428.449219 116.921875 C 429.148438 136.636719 428.535156 156.347656 428.09375 176.054688 C 428.035156 178.769531 428 181.484375 427.960938 184.199219 C 427.734375 199.761719 427.433594 215.328125 427.304688 230.894531 C 427.191406 244.105469 427.265625 257.320312 427.277344 270.53125 C 427.289062 282.972656 427.316406 295.417969 427.359375 307.863281 C 427.414062 323.480469 427.460938 339.101562 427.578125 354.71875 C 427.640625 362.765625 427.457031 370.796875 426.722656 378.808594 C 426.679688 379.3125 426.605469 379.816406 426.515625 380.535156 Z M 428.160156 111.710938 C 427.667969 106.101562 427.203125 100.492188 426.65625 94.886719 C 426.570312 93.992188 426.234375 93.085938 425.84375 92.265625 C 425 90.488281 423.605469 89.363281 421.589844 89.140625 C 420.523438 89.019531 419.453125 88.902344 418.382812 88.847656 C 415.160156 88.675781 411.917969 88.6875 408.714844 88.351562 C 399.9375 87.4375 391.144531 87.023438 382.328125 87.101562 C 364.957031 87.257812 347.589844 87.410156 330.222656 87.609375 C 324.382812 87.679688 318.539062 87.769531 312.710938 88.0625 C 307.375 88.335938 302.050781 88.289062 296.742188 87.835938 C 289.03125 87.175781 281.3125 86.613281 273.574219 86.644531 C 263.074219 86.691406 252.570312 86.929688 242.070312 87.054688 C 230.644531 87.195312 219.222656 87.453125 207.796875 87.386719 C 190.789062 87.289062 173.78125 86.953125 156.773438 86.714844 C 154.210938 86.679688 151.652344 86.628906 149.089844 86.566406 C 140.792969 86.367188 132.492188 85.992188 124.207031 86.640625 C 116.800781 87.21875 109.40625 87.902344 102.019531 88.648438 C 99.328125 88.921875 96.648438 89.421875 94 89.984375 C 91.839844 90.4375 91.445312 91.015625 91.179688 93.222656 C 90.460938 99.136719 90.621094 105.078125 90.601562 111.015625 C 90.601562 111.15625 90.6875 111.296875 90.785156 111.59375 C 91.253906 111.59375 91.753906 111.601562 92.25 111.59375 C 97.066406 111.53125 101.882812 111.464844 106.695312 111.40625 C 118.53125 111.261719 130.367188 111.285156 142.195312 110.941406 C 160.429688 110.410156 178.664062 110.242188 196.90625 110.441406 C 218.421875 110.675781 239.9375 110.847656 261.457031 110.882812 C 285.023438 110.917969 308.59375 110.738281 332.160156 110.699219 C 343.429688 110.679688 354.703125 110.640625 365.972656 110.839844 C 374.421875 110.988281 382.863281 111.636719 391.3125 111.824219 C 403.140625 112.089844 414.976562 112.128906 426.8125 112.261719 C 427.210938 112.265625 427.609375 112.21875 428.09375 112.195312 C 428.132812 111.914062 428.167969 111.8125 428.160156 111.710938 Z M 380.234375 109.183594 C 378.480469 109.15625 378.152344 108.824219 378.171875 107.105469 C 378.222656 102.652344 378.292969 98.203125 378.390625 93.753906 C 378.425781 92.097656 378.828125 91.609375 380.496094 91.574219 C 384.996094 91.476562 389.5 91.433594 394 91.46875 C 395.84375 91.484375 396.195312 91.988281 396.242188 93.808594 C 396.335938 97.644531 396.449219 101.476562 396.546875 105.3125 C 396.566406 106.027344 396.589844 106.746094 396.5625 107.460938 C 396.519531 108.550781 396.203125 108.917969 395.121094 109.082031 C 394.519531 109.171875 393.898438 109.179688 393.285156 109.183594 C 391.238281 109.195312 389.191406 109.1875 387.140625 109.1875 C 387.140625 109.1875 387.140625 109.191406 387.140625 109.191406 C 384.839844 109.191406 382.535156 109.21875 380.234375 109.183594 Z M 417.640625 91.289062 C 419.488281 91.308594 419.839844 91.691406 419.980469 93.53125 C 420.277344 97.40625 420.597656 101.277344 420.894531 105.148438 C 420.949219 105.863281 420.960938 106.582031 420.9375 107.296875 C 420.882812 108.847656 420.464844 109.316406 418.929688 109.425781 C 417.25 109.542969 415.558594 109.621094 413.871094 109.644531 C 410.753906 109.683594 407.632812 109.671875 404.511719 109.675781 C 404.207031 109.675781 403.898438 109.640625 403.59375 109.601562 C 402.289062 109.425781 401.96875 109.210938 401.804688 107.921875 C 401.492188 105.488281 401.226562 103.050781 401.058594 100.605469 C 400.902344 98.308594 400.859375 96.003906 400.835938 93.703125 C 400.8125 91.578125 401.007812 91.363281 403.210938 91.304688 C 405.613281 91.242188 408.019531 91.289062 410.425781 91.289062 C 410.425781 91.289062 410.425781 91.285156 410.425781 91.28125 C 412.828125 91.28125 415.234375 91.261719 417.640625 91.289062 Z M 369.21875 90.320312 C 369.730469 90.320312 370.242188 90.324219 370.75 90.371094 C 372.09375 90.5 372.425781 90.863281 372.433594 92.222656 C 372.441406 94.316406 372.425781 96.414062 372.429688 98.507812 C 372.4375 100.757812 372.457031 103.003906 372.46875 105.253906 C 372.46875 105.714844 372.480469 106.175781 372.433594 106.632812 C 372.3125 107.773438 372.144531 107.976562 371.011719 108 C 368.304688 108.0625 365.59375 108.140625 362.886719 108.082031 C 360.4375 108.03125 357.988281 107.816406 355.542969 107.664062 C 354.257812 107.585938 353.933594 107.289062 353.890625 105.980469 C 353.8125 103.683594 353.800781 101.382812 353.746094 99.085938 C 353.695312 97.046875 353.609375 95.007812 353.570312 92.96875 C 353.527344 90.816406 353.765625 90.550781 355.875 90.523438 C 358.277344 90.492188 360.679688 90.515625 363.085938 90.515625 C 363.085938 90.449219 363.085938 90.382812 363.085938 90.316406 C 365.128906 90.316406 367.175781 90.316406 369.21875 90.320312 Z M 425.035156 382.414062 C 418.039062 382.917969 411.042969 383.472656 404.042969 383.917969 C 397.753906 384.3125 391.457031 384.550781 385.167969 384.921875 C 374.269531 385.566406 363.363281 386.074219 352.453125 386.023438 C 340.621094 385.96875 328.785156 385.65625 316.957031 385.378906 C 304.351562 385.078125 291.75 385.074219 279.144531 385.3125 C 271.054688 385.46875 262.957031 385.59375 254.863281 385.574219 C 228.066406 385.511719 201.273438 385.152344 174.480469 386.179688 C 166.757812 386.476562 159.007812 386.335938 151.277344 386.160156 C 140.007812 385.902344 128.746094 385.4375 117.480469 385.054688 C 114 384.9375 110.519531 384.757812 107.035156 384.671875 C 101.917969 384.546875 96.792969 384.472656 91.671875 384.390625 C 91.289062 384.386719 90.90625 384.492188 90.441406 384.558594 C 90.589844 385.179688 90.6875 385.679688 90.832031 386.164062 C 91.730469 389.210938 93.621094 391.246094 96.800781 391.921875 C 97.953125 392.164062 99.113281 392.449219 100.277344 392.507812 C 104.320312 392.71875 108.363281 392.902344 112.410156 392.980469 C 125.726562 393.230469 139.046875 393.398438 152.367188 393.65625 C 161.945312 393.84375 171.519531 394.257812 181.097656 394.316406 C 193.1875 394.394531 205.28125 394.183594 217.371094 394.164062 C 225.570312 394.148438 233.765625 394.296875 241.964844 394.296875 C 267.582031 394.292969 293.199219 394.335938 318.816406 394.796875 C 330.75 395.011719 342.683594 395.441406 354.625 395.082031 C 365.222656 394.761719 375.832031 395.09375 386.429688 394.402344 C 394.351562 393.886719 402.300781 393.734375 410.1875 392.753906 C 413.332031 392.363281 416.492188 391.949219 419.570312 391.222656 C 423.652344 390.257812 426.0625 386.828125 426.074219 382.414062 C 425.730469 382.414062 425.382812 382.390625 425.035156 382.414062 Z M 394.570312 97.121094 C 389.667969 97.25 384.941406 97.378906 380.066406 97.511719 C 379.972656 100.738281 379.882812 103.972656 379.789062 107.304688 C 384.914062 107.304688 389.847656 107.304688 394.957031 107.304688 C 394.824219 103.835938 394.699219 100.539062 394.570312 97.121094 Z M 380.066406 93.4375 C 380.109375 94.351562 380.144531 95.074219 380.179688 95.773438 C 384.984375 95.984375 393.265625 95.75 394.421875 95.382812 C 394.421875 94.785156 394.421875 94.179688 394.421875 93.359375 C 389.566406 93.089844 384.894531 93.28125 380.066406 93.4375 Z M 418.011719 93.285156 C 412.960938 93.285156 407.910156 93.285156 402.703125 93.285156 C 402.796875 98.125 402.820312 102.855469 403.542969 107.621094 C 408.761719 108.070312 413.859375 107.640625 419.015625 107.585938 C 419.253906 106.160156 418.375 94.277344 418.011719 93.285156 Z M 407.382812 98.867188 C 406.832031 98.40625 405.921875 98.070312 406.285156 97.089844 C 406.46875 96.59375 407.167969 96.789062 408.253906 97.636719 C 409.21875 98.390625 410.171875 99.164062 411.144531 99.9375 C 412.695312 99 413.367188 97.074219 415.304688 96.488281 C 415.574219 97.726562 414.679688 98.175781 414.175781 98.800781 C 413.664062 99.4375 413.105469 100.03125 412.46875 100.761719 C 413.4375 101.519531 414.359375 102.21875 415.261719 102.945312 C 415.65625 103.265625 416.03125 103.613281 416.367188 103.996094 C 416.46875 104.105469 416.484375 104.453125 416.394531 104.535156 C 416.238281 104.683594 415.917969 104.828125 415.753906 104.761719 C 415.332031 104.597656 414.941406 104.335938 414.570312 104.070312 C 413.574219 103.355469 412.597656 102.617188 411.546875 101.84375 C 410.640625 102.664062 409.796875 103.464844 408.914062 104.21875 C 408.371094 104.683594 407.796875 105.125 407.179688 105.476562 C 406.933594 105.617188 406.535156 105.488281 406.203125 105.480469 C 406.273438 105.121094 406.253906 104.699219 406.441406 104.414062 C 406.652344 104.085938 407.058594 103.890625 407.363281 103.617188 C 408.269531 102.796875 409.171875 101.964844 410.199219 101.019531 C 409.160156 100.230469 408.242188 99.582031 407.382812 98.867188 Z M 370.722656 92.363281 C 365.488281 92.363281 360.394531 92.363281 355.210938 92.363281 C 355.691406 96.957031 354.761719 101.394531 355.511719 106.023438 C 360.574219 106.148438 365.617188 106.277344 370.722656 106.402344 C 370.722656 101.570312 370.722656 96.953125 370.722656 92.363281 Z M 366.648438 100.304688 C 367.054688 100.308594 367.472656 100.335938 367.851562 100.457031 C 368.046875 100.519531 368.296875 100.828125 368.285156 101.007812 C 368.269531 101.265625 368.089844 101.636719 367.878906 101.730469 C 367.472656 101.917969 366.992188 102.027344 366.546875 102.019531 C 363.933594 101.988281 361.324219 101.914062 358.714844 101.847656 C 358.238281 101.835938 357.695312 101.765625 357.667969 101.1875 C 357.632812 100.460938 358.199219 100.265625 358.8125 100.261719 C 360.246094 100.25 361.679688 100.257812 363.117188 100.257812 C 363.117188 100.269531 363.117188 100.285156 363.117188 100.296875 C 364.292969 100.296875 365.472656 100.285156 366.648438 100.304688 Z M 251.496094 396.0625 C 244.734375 396.0625 237.96875 396.035156 231.207031 396.070312 C 221.472656 396.121094 211.738281 396.285156 202.003906 396.273438 C 192.785156 396.265625 183.5625 396.121094 174.34375 395.988281 C 164.199219 395.84375 154.054688 395.65625 143.914062 395.464844 C 130.492188 395.210938 117.070312 394.964844 103.652344 394.625 C 101.210938 394.5625 98.753906 394.199219 96.355469 393.71875 C 92.535156 392.949219 90.175781 390.480469 89.097656 386.777344 C 88.089844 383.320312 87.664062 379.757812 87.320312 376.1875 C 86.210938 364.800781 86.3125 353.371094 86.339844 341.953125 C 86.382812 325.15625 86.488281 308.359375 86.792969 291.5625 C 87.023438 279.117188 86.917969 266.675781 86.871094 254.230469 C 86.816406 238.714844 87.050781 223.199219 87.238281 207.683594 C 87.410156 193.140625 87.722656 178.597656 87.902344 164.054688 C 88.078125 149.664062 88.140625 135.273438 88.304688 120.882812 C 88.386719 113.710938 88.5625 106.542969 88.746094 99.378906 C 88.800781 97.230469 89.007812 95.082031 89.191406 92.941406 C 89.394531 90.550781 90.570312 88.847656 92.972656 88.300781 C 95.613281 87.699219 98.273438 87.097656 100.957031 86.789062 C 107.773438 86.011719 114.605469 85.332031 121.441406 84.742188 C 128.238281 84.152344 135.054688 84.238281 141.867188 84.351562 C 153.957031 84.554688 166.046875 84.738281 178.136719 84.929688 C 186.386719 85.058594 194.632812 85.292969 202.882812 85.292969 C 215.332031 85.292969 227.78125 85.105469 240.230469 85.039062 C 253.5 84.96875 266.769531 84.851562 280.035156 84.941406 C 285.769531 84.980469 291.496094 85.464844 297.226562 85.785156 C 305.574219 86.25 313.921875 85.878906 322.273438 85.773438 C 335.386719 85.609375 348.503906 85.527344 361.621094 85.425781 C 371.609375 85.351562 381.601562 85.167969 391.589844 85.289062 C 396.957031 85.355469 402.316406 85.980469 407.683594 86.328125 C 410.1875 86.492188 412.695312 86.597656 415.203125 86.730469 C 417.09375 86.828125 418.992188 86.867188 420.878906 87.023438 C 425.628906 87.417969 428.4375 90.210938 428.863281 94.96875 C 429.300781 99.867188 429.828125 104.757812 430.070312 109.664062 C 430.429688 116.875 430.742188 124.09375 430.761719 131.308594 C 430.789062 142.011719 430.550781 152.714844 430.40625 163.417969 C 430.207031 177.910156 430.019531 192.402344 429.769531 206.890625 C 429.589844 217.441406 429.199219 227.984375 429.125 238.535156 C 429.039062 250.925781 429.222656 263.320312 429.242188 275.714844 C 429.261719 286.980469 429.1875 298.25 429.214844 309.515625 C 429.253906 325.851562 429.382812 342.191406 429.40625 358.527344 C 429.414062 365.851562 429.203125 373.179688 428.234375 380.449219 C 427.9375 382.664062 427.402344 384.878906 426.699219 387.003906 C 425.703125 390.015625 423.554688 391.9375 420.460938 392.839844 C 417.097656 393.824219 413.640625 394.21875 410.183594 394.640625 C 399.902344 395.90625 389.546875 396.144531 379.21875 396.664062 C 372.621094 396.996094 366 396.773438 359.390625 396.925781 C 336.945312 397.449219 314.515625 396.480469 292.074219 396.339844 C 278.550781 396.253906 265.023438 396.324219 251.496094 396.324219 C 251.496094 396.238281 251.496094 396.148438 251.496094 396.0625 Z M 426.515625 380.535156 C 426.605469 379.816406 426.679688 379.3125 426.722656 378.808594 C 427.457031 370.796875 427.640625 362.765625 427.578125 354.71875 C 427.460938 339.101562 427.414062 323.480469 427.359375 307.863281 C 427.316406 295.417969 427.289062 282.972656 427.277344 270.53125 C 427.265625 257.320312 427.191406 244.105469 427.304688 230.894531 C 427.433594 215.328125 427.734375 199.761719 427.960938 184.199219 C 428 181.484375 428.035156 178.769531 428.09375 176.054688 C 428.535156 156.347656 429.148438 136.636719 428.449219 116.921875 C 428.414062 116.015625 428.335938 115.109375 428.273438 114.144531 C 427.796875 114.121094 427.449219 114.089844 427.097656 114.09375 C 423.050781 114.097656 419.003906 114.171875 414.957031 114.101562 C 404.148438 113.910156 393.34375 113.703125 382.539062 113.410156 C 375.011719 113.207031 367.492188 112.714844 359.964844 112.589844 C 351.050781 112.441406 342.136719 112.535156 333.21875 112.554688 C 308.679688 112.609375 284.140625 112.6875 259.597656 112.730469 C 252.019531 112.746094 244.4375 112.6875 236.855469 112.652344 C 230.707031 112.625 224.558594 112.609375 218.410156 112.539062 C 205.605469 112.390625 192.796875 112.164062 179.992188 112.054688 C 174.304688 112.007812 168.621094 112.171875 162.933594 112.242188 C 160.371094 112.273438 157.808594 112.269531 155.25 112.339844 C 147.105469 112.570312 138.96875 112.890625 130.824219 113.054688 C 123.808594 113.195312 116.789062 113.167969 109.769531 113.207031 C 103.570312 113.238281 97.375 113.257812 91.175781 113.292969 C 90.988281 113.292969 90.800781 113.382812 90.550781 113.449219 C 90.519531 114.054688 90.46875 114.605469 90.460938 115.160156 C 90.347656 123.507812 90.214844 131.855469 90.128906 140.199219 C 89.960938 156.585938 89.992188 172.976562 89.617188 189.359375 C 89.171875 209.019531 88.6875 228.679688 88.761719 248.34375 C 88.820312 263.65625 89.066406 278.964844 88.65625 294.277344 C 88.085938 315.523438 88.105469 336.777344 88.351562 358.03125 C 88.441406 365.664062 88.699219 373.289062 89.761719 380.863281 C 89.835938 381.394531 89.996094 381.914062 90.117188 382.464844 C 90.789062 382.464844 91.292969 382.457031 91.800781 382.464844 C 95.796875 382.515625 99.792969 382.535156 103.785156 382.625 C 107.011719 382.699219 110.234375 382.875 113.460938 382.984375 C 124.007812 383.339844 134.558594 383.644531 145.101562 384.054688 C 157.039062 384.519531 168.972656 384.398438 180.90625 384.109375 C 189.765625 383.890625 198.625 383.554688 207.488281 383.519531 C 224.546875 383.457031 241.609375 383.59375 258.667969 383.597656 C 264.714844 383.597656 270.757812 383.429688 276.804688 383.382812 C 285.820312 383.308594 294.839844 383.152344 303.851562 383.253906 C 315.171875 383.378906 326.492188 383.703125 337.808594 383.992188 C 356.625 384.476562 375.402344 383.519531 394.179688 382.507812 C 400.726562 382.15625 407.273438 381.804688 413.816406 381.410156 C 418.007812 381.160156 422.191406 380.835938 426.515625 380.535156 Z M 428.09375 112.195312 C 428.132812 111.914062 428.167969 111.8125 428.160156 111.710938 C 427.667969 106.101562 427.203125 100.492188 426.65625 94.886719 C 426.570312 93.992188 426.234375 93.085938 425.84375 92.265625 C 425 90.488281 423.605469 89.363281 421.589844 89.140625 C 420.523438 89.019531 419.453125 88.902344 418.382812 88.847656 C 415.160156 88.675781 411.917969 88.6875 408.714844 88.351562 C 399.9375 87.4375 391.144531 87.023438 382.328125 87.101562 C 364.957031 87.257812 347.589844 87.410156 330.222656 87.609375 C 324.382812 87.679688 318.539062 87.769531 312.710938 88.0625 C 307.375 88.335938 302.050781 88.289062 296.742188 87.835938 C 289.03125 87.175781 281.3125 86.613281 273.574219 86.644531 C 263.074219 86.691406 252.570312 86.929688 242.070312 87.054688 C 230.644531 87.195312 219.222656 87.453125 207.796875 87.386719 C 190.789062 87.289062 173.78125 86.953125 156.773438 86.714844 C 154.210938 86.679688 151.652344 86.628906 149.089844 86.566406 C 140.792969 86.367188 132.492188 85.992188 124.207031 86.640625 C 116.800781 87.21875 109.40625 87.902344 102.019531 88.648438 C 99.328125 88.921875 96.648438 89.421875 94 89.984375 C 91.839844 90.4375 91.445312 91.015625 91.179688 93.222656 C 90.460938 99.136719 90.621094 105.078125 90.601562 111.015625 C 90.601562 111.15625 90.6875 111.296875 90.785156 111.59375 C 91.253906 111.59375 91.753906 111.601562 92.25 111.59375 C 97.066406 111.53125 101.882812 111.464844 106.695312 111.40625 C 118.53125 111.261719 130.367188 111.285156 142.195312 110.941406 C 160.429688 110.410156 178.664062 110.242188 196.90625 110.441406 C 218.421875 110.675781 239.9375 110.847656 261.457031 110.882812 C 285.023438 110.917969 308.59375 110.738281 332.160156 110.699219 C 343.429688 110.679688 354.703125 110.640625 365.972656 110.839844 C 374.421875 110.988281 382.863281 111.636719 391.3125 111.824219 C 403.140625 112.089844 414.976562 112.128906 426.8125 112.261719 C 427.210938 112.265625 427.609375 112.21875 428.09375 112.195312 Z M 426.074219 382.414062 C 425.730469 382.414062 425.382812 382.390625 425.035156 382.414062 C 418.039062 382.917969 411.042969 383.472656 404.042969 383.917969 C 397.753906 384.3125 391.457031 384.550781 385.167969 384.921875 C 374.269531 385.566406 363.363281 386.074219 352.453125 386.023438 C 340.621094 385.96875 328.785156 385.65625 316.957031 385.378906 C 304.351562 385.078125 291.75 385.074219 279.144531 385.3125 C 271.054688 385.46875 262.957031 385.59375 254.863281 385.574219 C 228.066406 385.511719 201.273438 385.152344 174.480469 386.179688 C 166.757812 386.476562 159.007812 386.335938 151.277344 386.160156 C 140.007812 385.902344 128.746094 385.4375 117.480469 385.054688 C 114 384.9375 110.519531 384.757812 107.035156 384.671875 C 101.917969 384.546875 96.792969 384.472656 91.671875 384.390625 C 91.289062 384.386719 90.90625 384.492188 90.441406 384.558594 C 90.589844 385.179688 90.6875 385.679688 90.832031 386.164062 C 91.730469 389.210938 93.621094 391.246094 96.800781 391.921875 C 97.953125 392.164062 99.113281 392.449219 100.277344 392.507812 C 104.320312 392.71875 108.363281 392.902344 112.410156 392.980469 C 125.726562 393.230469 139.046875 393.398438 152.367188 393.65625 C 161.945312 393.84375 171.519531 394.257812 181.097656 394.316406 C 193.1875 394.394531 205.28125 394.183594 217.371094 394.164062 C 225.570312 394.148438 233.765625 394.296875 241.964844 394.296875 C 267.582031 394.292969 293.199219 394.335938 318.816406 394.796875 C 330.75 395.011719 342.683594 395.441406 354.625 395.082031 C 365.222656 394.761719 375.832031 395.09375 386.429688 394.402344 C 394.351562 393.886719 402.300781 393.734375 410.1875 392.753906 C 413.332031 392.363281 416.492188 391.949219 419.570312 391.222656 C 423.652344 390.257812 426.0625 386.828125 426.074219 382.414062 Z M 387.140625 109.191406 C 384.839844 109.191406 382.535156 109.21875 380.234375 109.183594 C 378.480469 109.15625 378.152344 108.824219 378.171875 107.105469 C 378.222656 102.652344 378.292969 98.203125 378.390625 93.753906 C 378.425781 92.097656 378.828125 91.609375 380.496094 91.574219 C 384.996094 91.476562 389.5 91.433594 394 91.46875 C 395.84375 91.484375 396.195312 91.988281 396.242188 93.808594 C 396.335938 97.644531 396.449219 101.476562 396.546875 105.3125 C 396.566406 106.027344 396.589844 106.746094 396.5625 107.460938 C 396.519531 108.550781 396.203125 108.917969 395.121094 109.082031 C 394.519531 109.171875 393.898438 109.179688 393.285156 109.183594 C 391.238281 109.195312 389.191406 109.1875 387.140625 109.1875 C 387.140625 109.1875 387.140625 109.191406 387.140625 109.191406 Z M 394.957031 107.304688 C 394.824219 103.835938 394.699219 100.539062 394.570312 97.121094 C 389.667969 97.25 384.941406 97.378906 380.066406 97.511719 C 379.972656 100.738281 379.882812 103.972656 379.789062 107.304688 C 384.914062 107.304688 389.847656 107.304688 394.957031 107.304688 Z M 394.421875 93.359375 C 389.566406 93.089844 384.894531 93.28125 380.066406 93.4375 C 380.109375 94.351562 380.144531 95.074219 380.179688 95.773438 C 384.984375 95.984375 393.265625 95.75 394.421875 95.382812 C 394.421875 94.785156 394.421875 94.179688 394.421875 93.359375 Z M 410.425781 91.28125 C 412.828125 91.28125 415.234375 91.261719 417.640625 91.289062 C 419.488281 91.308594 419.839844 91.691406 419.980469 93.53125 C 420.277344 97.40625 420.597656 101.277344 420.894531 105.148438 C 420.949219 105.863281 420.960938 106.582031 420.9375 107.296875 C 420.882812 108.847656 420.464844 109.316406 418.929688 109.425781 C 417.25 109.542969 415.558594 109.621094 413.871094 109.644531 C 410.753906 109.683594 407.632812 109.671875 404.511719 109.675781 C 404.207031 109.675781 403.898438 109.640625 403.59375 109.601562 C 402.289062 109.425781 401.96875 109.210938 401.804688 107.921875 C 401.492188 105.488281 401.226562 103.050781 401.058594 100.605469 C 400.902344 98.308594 400.859375 96.003906 400.835938 93.703125 C 400.8125 91.578125 401.007812 91.363281 403.210938 91.304688 C 405.613281 91.242188 408.019531 91.289062 410.425781 91.289062 C 410.425781 91.289062 410.425781 91.285156 410.425781 91.28125 Z M 419.015625 107.585938 C 419.253906 106.160156 418.375 94.277344 418.011719 93.285156 C 412.960938 93.285156 407.910156 93.285156 402.703125 93.285156 C 402.796875 98.125 402.820312 102.855469 403.542969 107.621094 C 408.761719 108.070312 413.859375 107.640625 419.015625 107.585938 Z M 363.085938 90.316406 C 365.128906 90.316406 367.175781 90.316406 369.21875 90.320312 C 369.730469 90.320312 370.242188 90.324219 370.75 90.371094 C 372.09375 90.5 372.425781 90.863281 372.433594 92.222656 C 372.441406 94.316406 372.425781 96.414062 372.429688 98.507812 C 372.4375 100.757812 372.457031 103.003906 372.46875 105.253906 C 372.46875 105.714844 372.480469 106.175781 372.433594 106.632812 C 372.3125 107.773438 372.144531 107.976562 371.011719 108 C 368.304688 108.0625 365.59375 108.140625 362.886719 108.082031 C 360.4375 108.03125 357.988281 107.816406 355.542969 107.664062 C 354.257812 107.585938 353.933594 107.289062 353.890625 105.980469 C 353.8125 103.683594 353.800781 101.382812 353.746094 99.085938 C 353.695312 97.046875 353.609375 95.007812 353.570312 92.96875 C 353.527344 90.816406 353.765625 90.550781 355.875 90.523438 C 358.277344 90.492188 360.679688 90.515625 363.085938 90.515625 C 363.085938 90.449219 363.085938 90.382812 363.085938 90.316406 Z M 370.722656 106.402344 C 370.722656 101.570312 370.722656 96.953125 370.722656 92.363281 C 365.488281 92.363281 360.394531 92.363281 355.210938 92.363281 C 355.691406 96.957031 354.761719 101.394531 355.511719 106.023438 C 360.574219 106.148438 365.617188 106.277344 370.722656 106.402344 Z M 407.363281 103.617188 C 407.058594 103.890625 406.652344 104.085938 406.441406 104.414062 C 406.253906 104.699219 406.273438 105.121094 406.203125 105.480469 C 406.535156 105.488281 406.933594 105.617188 407.179688 105.476562 C 407.796875 105.125 408.371094 104.683594 408.914062 104.21875 C 409.796875 103.464844 410.640625 102.664062 411.546875 101.84375 C 412.597656 102.617188 413.574219 103.355469 414.570312 104.070312 C 414.941406 104.335938 415.332031 104.597656 415.753906 104.761719 C 415.917969 104.828125 416.238281 104.683594 416.394531 104.535156 C 416.484375 104.453125 416.46875 104.105469 416.367188 103.996094 C 416.03125 103.613281 415.65625 103.265625 415.261719 102.945312 C 414.359375 102.21875 413.4375 101.519531 412.46875 100.761719 C 413.105469 100.03125 413.664062 99.4375 414.175781 98.800781 C 414.679688 98.175781 415.574219 97.726562 415.304688 96.488281 C 413.367188 97.074219 412.695312 99 411.144531 99.9375 C 410.171875 99.164062 409.21875 98.390625 408.253906 97.636719 C 407.167969 96.789062 406.46875 96.59375 406.285156 97.089844 C 405.921875 98.070312 406.832031 98.40625 407.382812 98.867188 C 408.242188 99.582031 409.160156 100.230469 410.199219 101.019531 C 409.171875 101.964844 408.269531 102.796875 407.363281 103.617188 Z M 363.117188 100.257812 C 361.679688 100.257812 360.246094 100.25 358.8125 100.261719 C 358.199219 100.265625 357.632812 100.460938 357.667969 101.1875 C 357.695312 101.765625 358.238281 101.835938 358.714844 101.847656 C 361.324219 101.914062 363.933594 101.988281 366.546875 102.019531 C 366.992188 102.027344 367.472656 101.917969 367.878906 101.730469 C 368.089844 101.636719 368.269531 101.265625 368.285156 101.007812 C 368.296875 100.828125 368.046875 100.519531 367.851562 100.457031 C 367.472656 100.335938 367.054688 100.308594 366.648438 100.304688 C 365.472656 100.285156 364.292969 100.296875 363.117188 100.296875 C 363.117188 100.285156 363.117188 100.269531 363.117188 100.257812 Z M 363.117188 100.257812 " fill-opacity="1" fill-rule="nonzero"/></g><path fill="#ffffff" d="M 426.515625 380.535156 C 422.191406 380.835938 418.007812 381.160156 413.816406 381.410156 C 407.273438 381.804688 400.726562 382.15625 394.179688 382.507812 C 375.402344 383.519531 356.625 384.476562 337.808594 383.992188 C 326.492188 383.703125 315.171875 383.378906 303.851562 383.253906 C 294.839844 383.152344 285.820312 383.308594 276.804688 383.382812 C 270.757812 383.429688 264.714844 383.597656 258.667969 383.597656 C 241.609375 383.59375 224.546875 383.457031 207.488281 383.519531 C 198.625 383.554688 189.765625 383.890625 180.90625 384.109375 C 168.972656 384.398438 157.039062 384.519531 145.101562 384.054688 C 134.558594 383.644531 124.007812 383.339844 113.460938 382.984375 C 110.234375 382.875 107.011719 382.699219 103.785156 382.625 C 99.792969 382.535156 95.796875 382.515625 91.800781 382.464844 C 91.292969 382.457031 90.789062 382.464844 90.117188 382.464844 C 89.996094 381.914062 89.835938 381.394531 89.761719 380.863281 C 88.699219 373.289062 88.441406 365.664062 88.351562 358.03125 C 88.105469 336.777344 88.085938 315.523438 88.65625 294.277344 C 89.066406 278.964844 88.820312 263.65625 88.761719 248.34375 C 88.6875 228.679688 89.171875 209.019531 89.617188 189.359375 C 89.992188 172.976562 89.960938 156.585938 90.128906 140.199219 C 90.214844 131.855469 90.347656 123.507812 90.460938 115.160156 C 90.46875 114.605469 90.519531 114.054688 90.550781 113.449219 C 90.800781 113.382812 90.988281 113.292969 91.175781 113.292969 C 97.375 113.257812 103.570312 113.238281 109.769531 113.207031 C 116.789062 113.167969 123.808594 113.195312 130.824219 113.054688 C 138.96875 112.890625 147.105469 112.570312 155.25 112.339844 C 157.808594 112.269531 160.371094 112.273438 162.933594 112.242188 C 168.621094 112.171875 174.304688 112.007812 179.992188 112.054688 C 192.796875 112.164062 205.605469 112.390625 218.410156 112.539062 C 224.558594 112.609375 230.707031 112.625 236.855469 112.652344 C 244.4375 112.6875 252.019531 112.746094 259.597656 112.730469 C 284.140625 112.6875 308.679688 112.609375 333.21875 112.554688 C 342.136719 112.535156 351.050781 112.441406 359.964844 112.589844 C 367.492188 112.714844 375.011719 113.207031 382.539062 113.410156 C 393.34375 113.703125 404.148438 113.910156 414.957031 114.101562 C 419.003906 114.171875 423.050781 114.097656 427.097656 114.09375 C 427.449219 114.089844 427.796875 114.121094 428.273438 114.144531 C 428.335938 115.109375 428.414062 116.015625 428.449219 116.921875 C 429.148438 136.636719 428.535156 156.347656 428.09375 176.054688 C 428.035156 178.769531 428 181.484375 427.960938 184.199219 C 427.734375 199.761719 427.433594 215.328125 427.304688 230.894531 C 427.191406 244.105469 427.265625 257.320312 427.277344 270.53125 C 427.289062 282.972656 427.316406 295.417969 427.359375 307.863281 C 427.414062 323.480469 427.460938 339.101562 427.578125 354.71875 C 427.640625 362.765625 427.457031 370.796875 426.722656 378.808594 C 426.679688 379.3125 426.605469 379.816406 426.515625 380.535156 Z M 428.160156 111.710938 C 427.667969 106.101562 427.203125 100.492188 426.65625 94.886719 C 426.570312 93.992188 426.234375 93.085938 425.84375 92.265625 C 425 90.488281 423.605469 89.363281 421.589844 89.140625 C 420.523438 89.019531 419.453125 88.902344 418.382812 88.847656 C 415.160156 88.675781 411.917969 88.6875 408.714844 88.351562 C 399.9375 87.4375 391.144531 87.023438 382.328125 87.101562 C 364.957031 87.257812 347.589844 87.410156 330.222656 87.609375 C 324.382812 87.679688 318.539062 87.769531 312.710938 88.0625 C 307.375 88.335938 302.050781 88.289062 296.742188 87.835938 C 289.03125 87.175781 281.3125 86.613281 273.574219 86.644531 C 263.074219 86.691406 252.570312 86.929688 242.070312 87.054688 C 230.644531 87.195312 219.222656 87.453125 207.796875 87.386719 C 190.789062 87.289062 173.78125 86.953125 156.773438 86.714844 C 154.210938 86.679688 151.652344 86.628906 149.089844 86.566406 C 140.792969 86.367188 132.492188 85.992188 124.207031 86.640625 C 116.800781 87.21875 109.40625 87.902344 102.019531 88.648438 C 99.328125 88.921875 96.648438 89.421875 94 89.984375 C 91.839844 90.4375 91.445312 91.015625 91.179688 93.222656 C 90.460938 99.136719 90.621094 105.078125 90.601562 111.015625 C 90.601562 111.15625 90.6875 111.296875 90.785156 111.59375 C 91.253906 111.59375 91.753906 111.601562 92.25 111.59375 C 97.066406 111.53125 101.882812 111.464844 106.695312 111.40625 C 118.53125 111.261719 130.367188 111.285156 142.195312 110.941406 C 160.429688 110.410156 178.664062 110.242188 196.90625 110.441406 C 218.421875 110.675781 239.9375 110.847656 261.457031 110.882812 C 285.023438 110.917969 308.59375 110.738281 332.160156 110.699219 C 343.429688 110.679688 354.703125 110.640625 365.972656 110.839844 C 374.421875 110.988281 382.863281 111.636719 391.3125 111.824219 C 403.140625 112.089844 414.976562 112.128906 426.8125 112.261719 C 427.210938 112.265625 427.609375 112.21875 428.09375 112.195312 C 428.132812 111.914062 428.167969 111.8125 428.160156 111.710938 Z M 380.234375 109.183594 C 378.480469 109.15625 378.152344 108.824219 378.171875 107.105469 C 378.222656 102.652344 378.292969 98.203125 378.390625 93.753906 C 378.425781 92.097656 378.828125 91.609375 380.496094 91.574219 C 384.996094 91.476562 389.5 91.433594 394 91.46875 C 395.84375 91.484375 396.195312 91.988281 396.242188 93.808594 C 396.335938 97.644531 396.449219 101.476562 396.546875 105.3125 C 396.566406 106.027344 396.589844 106.746094 396.5625 107.460938 C 396.519531 108.550781 396.203125 108.917969 395.121094 109.082031 C 394.519531 109.171875 393.898438 109.179688 393.285156 109.183594 C 391.238281 109.195312 389.191406 109.1875 387.140625 109.1875 C 387.140625 109.1875 387.140625 109.191406 387.140625 109.191406 C 384.839844 109.191406 382.535156 109.21875 380.234375 109.183594 Z M 417.640625 91.289062 C 419.488281 91.308594 419.839844 91.691406 419.980469 93.53125 C 420.277344 97.40625 420.597656 101.277344 420.894531 105.148438 C 420.949219 105.863281 420.960938 106.582031 420.9375 107.296875 C 420.882812 108.847656 420.464844 109.316406 418.929688 109.425781 C 417.25 109.542969 415.558594 109.621094 413.871094 109.644531 C 410.753906 109.683594 407.632812 109.671875 404.511719 109.675781 C 404.207031 109.675781 403.898438 109.640625 403.59375 109.601562 C 402.289062 109.425781 401.96875 109.210938 401.804688 107.921875 C 401.492188 105.488281 401.226562 103.050781 401.058594 100.605469 C 400.902344 98.308594 400.859375 96.003906 400.835938 93.703125 C 400.8125 91.578125 401.007812 91.363281 403.210938 91.304688 C 405.613281 91.242188 408.019531 91.289062 410.425781 91.289062 C 410.425781 91.289062 410.425781 91.285156 410.425781 91.28125 C 412.828125 91.28125 415.234375 91.261719 417.640625 91.289062 Z M 369.21875 90.320312 C 369.730469 90.320312 370.242188 90.324219 370.75 90.371094 C 372.09375 90.5 372.425781 90.863281 372.433594 92.222656 C 372.441406 94.316406 372.425781 96.414062 372.429688 98.507812 C 372.4375 100.757812 372.457031 103.003906 372.46875 105.253906 C 372.46875 105.714844 372.480469 106.175781 372.433594 106.632812 C 372.3125 107.773438 372.144531 107.976562 371.011719 108 C 368.304688 108.0625 365.59375 108.140625 362.886719 108.082031 C 360.4375 108.03125 357.988281 107.816406 355.542969 107.664062 C 354.257812 107.585938 353.933594 107.289062 353.890625 105.980469 C 353.8125 103.683594 353.800781 101.382812 353.746094 99.085938 C 353.695312 97.046875 353.609375 95.007812 353.570312 92.96875 C 353.527344 90.816406 353.765625 90.550781 355.875 90.523438 C 358.277344 90.492188 360.679688 90.515625 363.085938 90.515625 C 363.085938 90.449219 363.085938 90.382812 363.085938 90.316406 C 365.128906 90.316406 367.175781 90.316406 369.21875 90.320312 Z M 425.035156 382.414062 C 418.039062 382.917969 411.042969 383.472656 404.042969 383.917969 C 397.753906 384.3125 391.457031 384.550781 385.167969 384.921875 C 374.269531 385.566406 363.363281 386.074219 352.453125 386.023438 C 340.621094 385.96875 328.785156 385.65625 316.957031 385.378906 C 304.351562 385.078125 291.75 385.074219 279.144531 385.3125 C 271.054688 385.46875 262.957031 385.59375 254.863281 385.574219 C 228.066406 385.511719 201.273438 385.152344 174.480469 386.179688 C 166.757812 386.476562 159.007812 386.335938 151.277344 386.160156 C 140.007812 385.902344 128.746094 385.4375 117.480469 385.054688 C 114 384.9375 110.519531 384.757812 107.035156 384.671875 C 101.917969 384.546875 96.792969 384.472656 91.671875 384.390625 C 91.289062 384.386719 90.90625 384.492188 90.441406 384.558594 C 90.589844 385.179688 90.6875 385.679688 90.832031 386.164062 C 91.730469 389.210938 93.621094 391.246094 96.800781 391.921875 C 97.953125 392.164062 99.113281 392.449219 100.277344 392.507812 C 104.320312 392.71875 108.363281 392.902344 112.410156 392.980469 C 125.726562 393.230469 139.046875 393.398438 152.367188 393.65625 C 161.945312 393.84375 171.519531 394.257812 181.097656 394.316406 C 193.1875 394.394531 205.28125 394.183594 217.371094 394.164062 C 225.570312 394.148438 233.765625 394.296875 241.964844 394.296875 C 267.582031 394.292969 293.199219 394.335938 318.816406 394.796875 C 330.75 395.011719 342.683594 395.441406 354.625 395.082031 C 365.222656 394.761719 375.832031 395.09375 386.429688 394.402344 C 394.351562 393.886719 402.300781 393.734375 410.1875 392.753906 C 413.332031 392.363281 416.492188 391.949219 419.570312 391.222656 C 423.652344 390.257812 426.0625 386.828125 426.074219 382.414062 C 425.730469 382.414062 425.382812 382.390625 425.035156 382.414062 Z M 394.570312 97.121094 C 389.667969 97.25 384.941406 97.378906 380.066406 97.511719 C 379.972656 100.738281 379.882812 103.972656 379.789062 107.304688 C 384.914062 107.304688 389.847656 107.304688 394.957031 107.304688 C 394.824219 103.835938 394.699219 100.539062 394.570312 97.121094 Z M 380.066406 93.4375 C 380.109375 94.351562 380.144531 95.074219 380.179688 95.773438 C 384.984375 95.984375 393.265625 95.75 394.421875 95.382812 C 394.421875 94.785156 394.421875 94.179688 394.421875 93.359375 C 389.566406 93.089844 384.894531 93.28125 380.066406 93.4375 Z M 418.011719 93.285156 C 412.960938 93.285156 407.910156 93.285156 402.703125 93.285156 C 402.796875 98.125 402.820312 102.855469 403.542969 107.621094 C 408.761719 108.070312 413.859375 107.640625 419.015625 107.585938 C 419.253906 106.160156 418.375 94.277344 418.011719 93.285156 Z M 407.382812 98.867188 C 406.832031 98.40625 405.921875 98.070312 406.285156 97.089844 C 406.46875 96.59375 407.167969 96.789062 408.253906 97.636719 C 409.21875 98.390625 410.171875 99.164062 411.144531 99.9375 C 412.695312 99 413.367188 97.074219 415.304688 96.488281 C 415.574219 97.726562 414.679688 98.175781 414.175781 98.800781 C 413.664062 99.4375 413.105469 100.03125 412.46875 100.761719 C 413.4375 101.519531 414.359375 102.21875 415.261719 102.945312 C 415.65625 103.265625 416.03125 103.613281 416.367188 103.996094 C 416.46875 104.105469 416.484375 104.453125 416.394531 104.535156 C 416.238281 104.683594 415.917969 104.828125 415.753906 104.761719 C 415.332031 104.597656 414.941406 104.335938 414.570312 104.070312 C 413.574219 103.355469 412.597656 102.617188 411.546875 101.84375 C 410.640625 102.664062 409.796875 103.464844 408.914062 104.21875 C 408.371094 104.683594 407.796875 105.125 407.179688 105.476562 C 406.933594 105.617188 406.535156 105.488281 406.203125 105.480469 C 406.273438 105.121094 406.253906 104.699219 406.441406 104.414062 C 406.652344 104.085938 407.058594 103.890625 407.363281 103.617188 C 408.269531 102.796875 409.171875 101.964844 410.199219 101.019531 C 409.160156 100.230469 408.242188 99.582031 407.382812 98.867188 Z M 370.722656 92.363281 C 365.488281 92.363281 360.394531 92.363281 355.210938 92.363281 C 355.691406 96.957031 354.761719 101.394531 355.511719 106.023438 C 360.574219 106.148438 365.617188 106.277344 370.722656 106.402344 C 370.722656 101.570312 370.722656 96.953125 370.722656 92.363281 Z M 366.648438 100.304688 C 367.054688 100.308594 367.472656 100.335938 367.851562 100.457031 C 368.046875 100.519531 368.296875 100.828125 368.285156 101.007812 C 368.269531 101.265625 368.089844 101.636719 367.878906 101.730469 C 367.472656 101.917969 366.992188 102.027344 366.546875 102.019531 C 363.933594 101.988281 361.324219 101.914062 358.714844 101.847656 C 358.238281 101.835938 357.695312 101.765625 357.667969 101.1875 C 357.632812 100.460938 358.199219 100.265625 358.8125 100.261719 C 360.246094 100.25 361.679688 100.257812 363.117188 100.257812 C 363.117188 100.269531 363.117188 100.285156 363.117188 100.296875 C 364.292969 100.296875 365.472656 100.285156 366.648438 100.304688 Z M 366.648438 100.304688 " fill-opacity="1" fill-rule="nonzero"/><g clip-path="url(#86b016188f)"><path fill="#1967be" d="M 251.496094 396.0625 C 244.734375 396.0625 237.96875 396.035156 231.207031 396.070312 C 221.472656 396.121094 211.738281 396.285156 202.003906 396.273438 C 192.785156 396.265625 183.5625 396.121094 174.34375 395.988281 C 164.199219 395.84375 154.054688 395.65625 143.914062 395.464844 C 130.492188 395.210938 117.070312 394.964844 103.652344 394.625 C 101.210938 394.5625 98.753906 394.199219 96.355469 393.71875 C 92.535156 392.949219 90.175781 390.480469 89.097656 386.777344 C 88.089844 383.320312 87.664062 379.757812 87.320312 376.1875 C 86.210938 364.800781 86.3125 353.371094 86.339844 341.953125 C 86.382812 325.15625 86.488281 308.359375 86.792969 291.5625 C 87.023438 279.117188 86.917969 266.675781 86.871094 254.230469 C 86.816406 238.714844 87.050781 223.199219 87.238281 207.683594 C 87.410156 193.140625 87.722656 178.597656 87.902344 164.054688 C 88.078125 149.664062 88.140625 135.273438 88.304688 120.882812 C 88.386719 113.710938 88.5625 106.542969 88.746094 99.378906 C 88.800781 97.230469 89.007812 95.082031 89.191406 92.941406 C 89.394531 90.550781 90.570312 88.847656 92.972656 88.300781 C 95.613281 87.699219 98.273438 87.097656 100.957031 86.789062 C 107.773438 86.011719 114.605469 85.332031 121.441406 84.742188 C 128.238281 84.152344 135.054688 84.238281 141.867188 84.351562 C 153.957031 84.554688 166.046875 84.738281 178.136719 84.929688 C 186.386719 85.058594 194.632812 85.292969 202.882812 85.292969 C 215.332031 85.292969 227.78125 85.105469 240.230469 85.039062 C 253.5 84.96875 266.769531 84.851562 280.035156 84.941406 C 285.769531 84.980469 291.496094 85.464844 297.226562 85.785156 C 305.574219 86.25 313.921875 85.878906 322.273438 85.773438 C 335.386719 85.609375 348.503906 85.527344 361.621094 85.425781 C 371.609375 85.351562 381.601562 85.167969 391.589844 85.289062 C 396.957031 85.355469 402.316406 85.980469 407.683594 86.328125 C 410.1875 86.492188 412.695312 86.597656 415.203125 86.730469 C 417.09375 86.828125 418.992188 86.867188 420.878906 87.023438 C 425.628906 87.417969 428.4375 90.210938 428.863281 94.96875 C 429.300781 99.867188 429.828125 104.757812 430.070312 109.664062 C 430.429688 116.875 430.742188 124.09375 430.761719 131.308594 C 430.789062 142.011719 430.550781 152.714844 430.40625 163.417969 C 430.207031 177.910156 430.019531 192.402344 429.769531 206.890625 C 429.589844 217.441406 429.199219 227.984375 429.125 238.535156 C 429.039062 250.925781 429.222656 263.320312 429.242188 275.714844 C 429.261719 286.980469 429.1875 298.25 429.214844 309.515625 C 429.253906 325.851562 429.382812 342.191406 429.40625 358.527344 C 429.414062 365.851562 429.203125 373.179688 428.234375 380.449219 C 427.9375 382.664062 427.402344 384.878906 426.699219 387.003906 C 425.703125 390.015625 423.554688 391.9375 420.460938 392.839844 C 417.097656 393.824219 413.640625 394.21875 410.183594 394.640625 C 399.902344 395.90625 389.546875 396.144531 379.21875 396.664062 C 372.621094 396.996094 366 396.773438 359.390625 396.925781 C 336.945312 397.449219 314.515625 396.480469 292.074219 396.339844 C 278.550781 396.253906 265.023438 396.324219 251.496094 396.324219 C 251.496094 396.238281 251.496094 396.148438 251.496094 396.0625 Z M 426.515625 380.535156 C 426.605469 379.816406 426.679688 379.3125 426.722656 378.808594 C 427.457031 370.796875 427.640625 362.765625 427.578125 354.71875 C 427.460938 339.101562 427.414062 323.480469 427.359375 307.863281 C 427.316406 295.417969 427.289062 282.972656 427.277344 270.53125 C 427.265625 257.320312 427.191406 244.105469 427.304688 230.894531 C 427.433594 215.328125 427.734375 199.761719 427.960938 184.199219 C 428 181.484375 428.035156 178.769531 428.09375 176.054688 C 428.535156 156.347656 429.148438 136.636719 428.449219 116.921875 C 428.414062 116.015625 428.335938 115.109375 428.273438 114.144531 C 427.796875 114.121094 427.449219 114.089844 427.097656 114.09375 C 423.050781 114.097656 419.003906 114.171875 414.957031 114.101562 C 404.148438 113.910156 393.34375 113.703125 382.539062 113.410156 C 375.011719 113.207031 367.492188 112.714844 359.964844 112.589844 C 351.050781 112.441406 342.136719 112.535156 333.21875 112.554688 C 308.679688 112.609375 284.140625 112.6875 259.597656 112.730469 C 252.019531 112.746094 244.4375 112.6875 236.855469 112.652344 C 230.707031 112.625 224.558594 112.609375 218.410156 112.539062 C 205.605469 112.390625 192.796875 112.164062 179.992188 112.054688 C 174.304688 112.007812 168.621094 112.171875 162.933594 112.242188 C 160.371094 112.273438 157.808594 112.269531 155.25 112.339844 C 147.105469 112.570312 138.96875 112.890625 130.824219 113.054688 C 123.808594 113.195312 116.789062 113.167969 109.769531 113.207031 C 103.570312 113.238281 97.375 113.257812 91.175781 113.292969 C 90.988281 113.292969 90.800781 113.382812 90.550781 113.449219 C 90.519531 114.054688 90.46875 114.605469 90.460938 115.160156 C 90.347656 123.507812 90.214844 131.855469 90.128906 140.199219 C 89.960938 156.585938 89.992188 172.976562 89.617188 189.359375 C 89.171875 209.019531 88.6875 228.679688 88.761719 248.34375 C 88.820312 263.65625 89.066406 278.964844 88.65625 294.277344 C 88.085938 315.523438 88.105469 336.777344 88.351562 358.03125 C 88.441406 365.664062 88.699219 373.289062 89.761719 380.863281 C 89.835938 381.394531 89.996094 381.914062 90.117188 382.464844 C 90.789062 382.464844 91.292969 382.457031 91.800781 382.464844 C 95.796875 382.515625 99.792969 382.535156 103.785156 382.625 C 107.011719 382.699219 110.234375 382.875 113.460938 382.984375 C 124.007812 383.339844 134.558594 383.644531 145.101562 384.054688 C 157.039062 384.519531 168.972656 384.398438 180.90625 384.109375 C 189.765625 383.890625 198.625 383.554688 207.488281 383.519531 C 224.546875 383.457031 241.609375 383.59375 258.667969 383.597656 C 264.714844 383.597656 270.757812 383.429688 276.804688 383.382812 C 285.820312 383.308594 294.839844 383.152344 303.851562 383.253906 C 315.171875 383.378906 326.492188 383.703125 337.808594 383.992188 C 356.625 384.476562 375.402344 383.519531 394.179688 382.507812 C 400.726562 382.15625 407.273438 381.804688 413.816406 381.410156 C 418.007812 381.160156 422.191406 380.835938 426.515625 380.535156 Z M 428.09375 112.195312 C 428.132812 111.914062 428.167969 111.8125 428.160156 111.710938 C 427.667969 106.101562 427.203125 100.492188 426.65625 94.886719 C 426.570312 93.992188 426.234375 93.085938 425.84375 92.265625 C 425 90.488281 423.605469 89.363281 421.589844 89.140625 C 420.523438 89.019531 419.453125 88.902344 418.382812 88.847656 C 415.160156 88.675781 411.917969 88.6875 408.714844 88.351562 C 399.9375 87.4375 391.144531 87.023438 382.328125 87.101562 C 364.957031 87.257812 347.589844 87.410156 330.222656 87.609375 C 324.382812 87.679688 318.539062 87.769531 312.710938 88.0625 C 307.375 88.335938 302.050781 88.289062 296.742188 87.835938 C 289.03125 87.175781 281.3125 86.613281 273.574219 86.644531 C 263.074219 86.691406 252.570312 86.929688 242.070312 87.054688 C 230.644531 87.195312 219.222656 87.453125 207.796875 87.386719 C 190.789062 87.289062 173.78125 86.953125 156.773438 86.714844 C 154.210938 86.679688 151.652344 86.628906 149.089844 86.566406 C 140.792969 86.367188 132.492188 85.992188 124.207031 86.640625 C 116.800781 87.21875 109.40625 87.902344 102.019531 88.648438 C 99.328125 88.921875 96.648438 89.421875 94 89.984375 C 91.839844 90.4375 91.445312 91.015625 91.179688 93.222656 C 90.460938 99.136719 90.621094 105.078125 90.601562 111.015625 C 90.601562 111.15625 90.6875 111.296875 90.785156 111.59375 C 91.253906 111.59375 91.753906 111.601562 92.25 111.59375 C 97.066406 111.53125 101.882812 111.464844 106.695312 111.40625 C 118.53125 111.261719 130.367188 111.285156 142.195312 110.941406 C 160.429688 110.410156 178.664062 110.242188 196.90625 110.441406 C 218.421875 110.675781 239.9375 110.847656 261.457031 110.882812 C 285.023438 110.917969 308.59375 110.738281 332.160156 110.699219 C 343.429688 110.679688 354.703125 110.640625 365.972656 110.839844 C 374.421875 110.988281 382.863281 111.636719 391.3125 111.824219 C 403.140625 112.089844 414.976562 112.128906 426.8125 112.261719 C 427.210938 112.265625 427.609375 112.21875 428.09375 112.195312 Z M 426.074219 382.414062 C 425.730469 382.414062 425.382812 382.390625 425.035156 382.414062 C 418.039062 382.917969 411.042969 383.472656 404.042969 383.917969 C 397.753906 384.3125 391.457031 384.550781 385.167969 384.921875 C 374.269531 385.566406 363.363281 386.074219 352.453125 386.023438 C 340.621094 385.96875 328.785156 385.65625 316.957031 385.378906 C 304.351562 385.078125 291.75 385.074219 279.144531 385.3125 C 271.054688 385.46875 262.957031 385.59375 254.863281 385.574219 C 228.066406 385.511719 201.273438 385.152344 174.480469 386.179688 C 166.757812 386.476562 159.007812 386.335938 151.277344 386.160156 C 140.007812 385.902344 128.746094 385.4375 117.480469 385.054688 C 114 384.9375 110.519531 384.757812 107.035156 384.671875 C 101.917969 384.546875 96.792969 384.472656 91.671875 384.390625 C 91.289062 384.386719 90.90625 384.492188 90.441406 384.558594 C 90.589844 385.179688 90.6875 385.679688 90.832031 386.164062 C 91.730469 389.210938 93.621094 391.246094 96.800781 391.921875 C 97.953125 392.164062 99.113281 392.449219 100.277344 392.507812 C 104.320312 392.71875 108.363281 392.902344 112.410156 392.980469 C 125.726562 393.230469 139.046875 393.398438 152.367188 393.65625 C 161.945312 393.84375 171.519531 394.257812 181.097656 394.316406 C 193.1875 394.394531 205.28125 394.183594 217.371094 394.164062 C 225.570312 394.148438 233.765625 394.296875 241.964844 394.296875 C 267.582031 394.292969 293.199219 394.335938 318.816406 394.796875 C 330.75 395.011719 342.683594 395.441406 354.625 395.082031 C 365.222656 394.761719 375.832031 395.09375 386.429688 394.402344 C 394.351562 393.886719 402.300781 393.734375 410.1875 392.753906 C 413.332031 392.363281 416.492188 391.949219 419.570312 391.222656 C 423.652344 390.257812 426.0625 386.828125 426.074219 382.414062 Z M 387.140625 109.191406 C 384.839844 109.191406 382.535156 109.21875 380.234375 109.183594 C 378.480469 109.15625 378.152344 108.824219 378.171875 107.105469 C 378.222656 102.652344 378.292969 98.203125 378.390625 93.753906 C 378.425781 92.097656 378.828125 91.609375 380.496094 91.574219 C 384.996094 91.476562 389.5 91.433594 394 91.46875 C 395.84375 91.484375 396.195312 91.988281 396.242188 93.808594 C 396.335938 97.644531 396.449219 101.476562 396.546875 105.3125 C 396.566406 106.027344 396.589844 106.746094 396.5625 107.460938 C 396.519531 108.550781 396.203125 108.917969 395.121094 109.082031 C 394.519531 109.171875 393.898438 109.179688 393.285156 109.183594 C 391.238281 109.195312 389.191406 109.1875 387.140625 109.1875 C 387.140625 109.1875 387.140625 109.191406 387.140625 109.191406 Z M 394.957031 107.304688 C 394.824219 103.835938 394.699219 100.539062 394.570312 97.121094 C 389.667969 97.25 384.941406 97.378906 380.066406 97.511719 C 379.972656 100.738281 379.882812 103.972656 379.789062 107.304688 C 384.914062 107.304688 389.847656 107.304688 394.957031 107.304688 Z M 394.421875 93.359375 C 389.566406 93.089844 384.894531 93.28125 380.066406 93.4375 C 380.109375 94.351562 380.144531 95.074219 380.179688 95.773438 C 384.984375 95.984375 393.265625 95.75 394.421875 95.382812 C 394.421875 94.785156 394.421875 94.179688 394.421875 93.359375 Z M 410.425781 91.28125 C 412.828125 91.28125 415.234375 91.261719 417.640625 91.289062 C 419.488281 91.308594 419.839844 91.691406 419.980469 93.53125 C 420.277344 97.40625 420.597656 101.277344 420.894531 105.148438 C 420.949219 105.863281 420.960938 106.582031 420.9375 107.296875 C 420.882812 108.847656 420.464844 109.316406 418.929688 109.425781 C 417.25 109.542969 415.558594 109.621094 413.871094 109.644531 C 410.753906 109.683594 407.632812 109.671875 404.511719 109.675781 C 404.207031 109.675781 403.898438 109.640625 403.59375 109.601562 C 402.289062 109.425781 401.96875 109.210938 401.804688 107.921875 C 401.492188 105.488281 401.226562 103.050781 401.058594 100.605469 C 400.902344 98.308594 400.859375 96.003906 400.835938 93.703125 C 400.8125 91.578125 401.007812 91.363281 403.210938 91.304688 C 405.613281 91.242188 408.019531 91.289062 410.425781 91.289062 C 410.425781 91.289062 410.425781 91.285156 410.425781 91.28125 Z M 419.015625 107.585938 C 419.253906 106.160156 418.375 94.277344 418.011719 93.285156 C 412.960938 93.285156 407.910156 93.285156 402.703125 93.285156 C 402.796875 98.125 402.820312 102.855469 403.542969 107.621094 C 408.761719 108.070312 413.859375 107.640625 419.015625 107.585938 Z M 363.085938 90.316406 C 365.128906 90.316406 367.175781 90.316406 369.21875 90.320312 C 369.730469 90.320312 370.242188 90.324219 370.75 90.371094 C 372.09375 90.5 372.425781 90.863281 372.433594 92.222656 C 372.441406 94.316406 372.425781 96.414062 372.429688 98.507812 C 372.4375 100.757812 372.457031 103.003906 372.46875 105.253906 C 372.46875 105.714844 372.480469 106.175781 372.433594 106.632812 C 372.3125 107.773438 372.144531 107.976562 371.011719 108 C 368.304688 108.0625 365.59375 108.140625 362.886719 108.082031 C 360.4375 108.03125 357.988281 107.816406 355.542969 107.664062 C 354.257812 107.585938 353.933594 107.289062 353.890625 105.980469 C 353.8125 103.683594 353.800781 101.382812 353.746094 99.085938 C 353.695312 97.046875 353.609375 95.007812 353.570312 92.96875 C 353.527344 90.816406 353.765625 90.550781 355.875 90.523438 C 358.277344 90.492188 360.679688 90.515625 363.085938 90.515625 C 363.085938 90.449219 363.085938 90.382812 363.085938 90.316406 Z M 370.722656 106.402344 C 370.722656 101.570312 370.722656 96.953125 370.722656 92.363281 C 365.488281 92.363281 360.394531 92.363281 355.210938 92.363281 C 355.691406 96.957031 354.761719 101.394531 355.511719 106.023438 C 360.574219 106.148438 365.617188 106.277344 370.722656 106.402344 Z M 407.363281 103.617188 C 407.058594 103.890625 406.652344 104.085938 406.441406 104.414062 C 406.253906 104.699219 406.273438 105.121094 406.203125 105.480469 C 406.535156 105.488281 406.933594 105.617188 407.179688 105.476562 C 407.796875 105.125 408.371094 104.683594 408.914062 104.21875 C 409.796875 103.464844 410.640625 102.664062 411.546875 101.84375 C 412.597656 102.617188 413.574219 103.355469 414.570312 104.070312 C 414.941406 104.335938 415.332031 104.597656 415.753906 104.761719 C 415.917969 104.828125 416.238281 104.683594 416.394531 104.535156 C 416.484375 104.453125 416.46875 104.105469 416.367188 103.996094 C 416.03125 103.613281 415.65625 103.265625 415.261719 102.945312 C 414.359375 102.21875 413.4375 101.519531 412.46875 100.761719 C 413.105469 100.03125 413.664062 99.4375 414.175781 98.800781 C 414.679688 98.175781 415.574219 97.726562 415.304688 96.488281 C 413.367188 97.074219 412.695312 99 411.144531 99.9375 C 410.171875 99.164062 409.21875 98.390625 408.253906 97.636719 C 407.167969 96.789062 406.46875 96.59375 406.285156 97.089844 C 405.921875 98.070312 406.832031 98.40625 407.382812 98.867188 C 408.242188 99.582031 409.160156 100.230469 410.199219 101.019531 C 409.171875 101.964844 408.269531 102.796875 407.363281 103.617188 Z M 363.117188 100.257812 C 361.679688 100.257812 360.246094 100.25 358.8125 100.261719 C 358.199219 100.265625 357.632812 100.460938 357.667969 101.1875 C 357.695312 101.765625 358.238281 101.835938 358.714844 101.847656 C 361.324219 101.914062 363.933594 101.988281 366.546875 102.019531 C 366.992188 102.027344 367.472656 101.917969 367.878906 101.730469 C 368.089844 101.636719 368.269531 101.265625 368.285156 101.007812 C 368.296875 100.828125 368.046875 100.519531 367.851562 100.457031 C 367.472656 100.335938 367.054688 100.308594 366.648438 100.304688 C 365.472656 100.285156 364.292969 100.296875 363.117188 100.296875 C 363.117188 100.285156 363.117188 100.269531 363.117188 100.257812 Z M 363.117188 100.257812 " fill-opacity="1" fill-rule="nonzero"/></g></svg>