<svg xmlns="http://www.w3.org/2000/svg" xmlns:xlink="http://www.w3.org/1999/xlink" zoomAndPan="magnify" preserveAspectRatio="xMidYMid meet" version="1.0" viewBox="75.62 76 318.71 476.5"><defs><clipPath id="bac5504721"><path d="M 75.617188 76 L 394.332031 76 L 394.332031 552.5 L 75.617188 552.5 Z M 75.617188 76 " clip-rule="nonzero"/></clipPath><clipPath id="35883329b3"><path d="M 75.617188 76 L 394.332031 76 L 394.332031 552.5 L 75.617188 552.5 Z M 75.617188 76 " clip-rule="nonzero"/></clipPath></defs><g clip-path="url(#bac5504721)"><path fill="#1967be" d="M 387.449219 536.996094 C 384.296875 536.996094 381.40625 536.988281 378.515625 536.996094 C 350.613281 537.0625 322.714844 537.191406 294.8125 537.175781 C 278.121094 537.167969 261.425781 537.039062 244.734375 536.765625 C 235.414062 536.613281 226.105469 535.949219 216.785156 535.714844 C 206.992188 535.46875 197.191406 535.480469 187.398438 535.351562 C 161.457031 535.011719 135.519531 534.632812 109.582031 534.320312 C 100.804688 534.214844 92.027344 534.253906 83.25 534.226562 C 82.472656 534.226562 81.695312 534.226562 80.769531 534.226562 C 80.6875 533.613281 80.558594 533.101562 80.558594 532.589844 C 80.667969 507.160156 80.980469 481.734375 80.859375 456.304688 C 80.710938 425.316406 80.171875 394.332031 79.847656 363.34375 C 79.640625 343.308594 79.488281 323.277344 79.363281 303.242188 C 79.246094 284.777344 79.007812 266.304688 79.1875 247.839844 C 79.335938 232.664062 80.007812 217.488281 80.472656 202.316406 C 81.269531 176.34375 81.660156 150.367188 81.363281 124.382812 C 81.320312 120.636719 81.359375 116.890625 81.359375 112.914062 C 81.734375 112.859375 82.320312 112.710938 82.90625 112.699219 C 88.234375 112.585938 93.5625 112.511719 98.890625 112.402344 C 109.9375 112.179688 120.988281 111.71875 132.03125 111.769531 C 144.722656 111.828125 157.414062 112.527344 170.105469 112.585938 C 182.953125 112.644531 195.808594 112.410156 208.652344 112.011719 C 218.445312 111.710938 228.226562 111.269531 238.027344 111.546875 C 259.183594 112.152344 280.34375 112.082031 301.5 111.558594 C 311.136719 111.320312 320.777344 111.226562 330.410156 110.984375 C 339.5 110.753906 348.582031 110.363281 357.667969 110.144531 C 368.085938 109.894531 378.503906 109.761719 388.925781 109.582031 C 389.457031 109.570312 389.988281 109.578125 390.785156 109.578125 C 390.785156 110.644531 390.800781 111.558594 390.785156 112.472656 C 390.363281 136.023438 389.808594 159.574219 389.542969 183.128906 C 389.210938 212.863281 388.984375 242.601562 388.945312 272.339844 C 388.894531 312.09375 388.695312 351.84375 387.699219 391.589844 C 386.84375 425.859375 386.378906 460.132812 386.453125 494.410156 C 386.484375 507.171875 386.601562 519.921875 387.4375 532.65625 C 387.523438 533.96875 387.449219 535.289062 387.449219 536.996094 Z M 82.039062 103.039062 C 92.378906 103.078125 102.726562 103.296875 113.0625 103.101562 C 133.273438 102.71875 153.476562 102 173.6875 101.621094 C 193.742188 101.246094 213.800781 100.984375 233.859375 100.921875 C 249.683594 100.875 265.507812 101.195312 281.335938 101.382812 C 295.828125 101.554688 310.324219 102.027344 324.816406 101.894531 C 345.96875 101.703125 367.117188 101.066406 388.273438 101.910156 C 389.101562 101.945312 389.933594 101.914062 391.003906 101.914062 C 391.003906 100.695312 391.011719 99.765625 391.003906 98.835938 C 390.964844 93.832031 390.9375 88.824219 390.878906 83.820312 C 390.839844 80.800781 390.664062 80.636719 387.722656 80.425781 C 387.488281 80.410156 387.253906 80.398438 387.019531 80.386719 C 373.636719 79.609375 360.238281 79.527344 346.839844 79.613281 C 329.996094 79.714844 313.148438 79.84375 296.304688 79.78125 C 274.050781 79.699219 251.800781 79.386719 229.550781 79.273438 C 208.863281 79.171875 188.175781 79.023438 167.492188 79.21875 C 139.679688 79.484375 111.871094 80.058594 84.058594 80.523438 C 82.90625 80.542969 81.757812 80.757812 80.28125 80.917969 C 80.539062 88.300781 80.792969 95.527344 81.054688 102.890625 C 81.578125 102.972656 81.808594 103.039062 82.039062 103.039062 Z M 93.539062 97.371094 C 90.703125 97.320312 88.445312 95.066406 88.484375 92.324219 C 88.53125 88.988281 91.046875 86.425781 94.203125 86.492188 C 97.078125 86.554688 98.867188 88.621094 98.820312 91.820312 C 98.765625 95.261719 96.707031 97.425781 93.539062 97.371094 Z M 109.617188 85.140625 C 112.785156 85.128906 115.265625 87.925781 115.191406 91.417969 C 115.125 94.46875 112.246094 97.277344 109.246094 97.21875 C 106.320312 97.160156 103.875 94.300781 103.871094 90.925781 C 103.867188 87.570312 106.269531 85.152344 109.617188 85.140625 Z M 130.351562 91.175781 C 130.296875 94.652344 127.753906 97.34375 124.554688 97.308594 C 121.507812 97.273438 119.070312 94.382812 119.101562 90.839844 C 119.125 87.921875 121.695312 85.640625 124.941406 85.660156 C 128.164062 85.679688 130.402344 87.960938 130.351562 91.175781 Z M 80.488281 542.496094 C 80.566406 544.601562 80.738281 544.964844 82.828125 545.375 C 86.507812 546.101562 90.214844 546.96875 93.9375 547.140625 C 110.53125 547.90625 127.128906 548.613281 143.734375 549.019531 C 155.949219 549.320312 168.179688 549.152344 180.40625 549.136719 C 205.71875 549.105469 231.027344 548.972656 256.339844 549.007812 C 272.011719 549.03125 287.683594 549.417969 303.351562 549.410156 C 329.996094 549.398438 356.636719 549.207031 383.28125 549.089844 C 383.828125 549.089844 384.378906 549.078125 384.925781 549.058594 C 386.015625 549.027344 386.695312 548.453125 386.925781 547.417969 C 387.46875 544.976562 387.691406 542.511719 387.433594 539.824219 C 386.703125 539.824219 386.097656 539.8125 385.492188 539.824219 C 381.027344 539.925781 376.5625 540.117188 372.097656 540.125 C 342.320312 540.175781 312.542969 540.214844 282.765625 540.195312 C 271.011719 540.1875 259.253906 540.136719 247.503906 539.890625 C 237.324219 539.679688 227.148438 539.03125 216.96875 538.808594 C 203.414062 538.515625 189.859375 538.441406 176.304688 538.285156 C 145.195312 537.917969 114.089844 537.558594 82.980469 537.199219 C 82.21875 537.191406 81.457031 537.199219 80.476562 537.199219 C 80.476562 539.089844 80.421875 540.792969 80.488281 542.496094 Z M 82.328125 109.96875 C 91.257812 109.792969 100.203125 109.855469 109.117188 109.375 C 125.652344 108.484375 142.175781 108.953125 158.707031 109.230469 C 168.339844 109.390625 177.976562 109.726562 187.609375 109.617188 C 198.417969 109.5 209.21875 108.796875 220.027344 108.664062 C 230.683594 108.527344 241.339844 108.871094 251.996094 108.851562 C 273.074219 108.808594 294.152344 108.691406 315.230469 108.527344 C 321.652344 108.476562 328.074219 108.148438 334.496094 107.96875 C 343.425781 107.71875 352.351562 107.414062 361.28125 107.265625 C 370.289062 107.117188 379.300781 107.132812 388.3125 107.0625 C 389.078125 107.058594 389.847656 106.972656 390.683594 106.921875 C 390.683594 106.125 390.683594 105.492188 390.683594 104.730469 C 388.242188 104.730469 385.980469 104.734375 383.714844 104.730469 C 370.082031 104.703125 356.453125 104.652344 342.820312 104.644531 C 327.617188 104.636719 312.417969 104.777344 297.21875 104.652344 C 283.585938 104.542969 269.953125 103.929688 256.324219 103.933594 C 223.570312 103.949219 190.816406 103.890625 158.078125 105.203125 C 142.109375 105.847656 126.117188 105.980469 110.132812 106.167969 C 101.597656 106.269531 93.054688 105.996094 84.515625 105.898438 C 83.375 105.886719 82.238281 105.921875 81.101562 105.9375 C 81.101562 107.398438 81.101562 108.546875 81.101562 109.863281 C 81.710938 109.917969 82.019531 109.976562 82.328125 109.96875 Z M 106.503906 91.558594 C 106.492188 93.105469 107.957031 94.648438 109.417969 94.632812 C 111.058594 94.613281 112.585938 92.949219 112.558594 91.203125 C 112.527344 89.308594 111.285156 87.90625 109.65625 87.929688 C 107.808594 87.960938 106.515625 89.445312 106.503906 91.558594 Z M 124.585938 94.796875 C 126.308594 94.820312 127.867188 93.144531 127.890625 91.242188 C 127.914062 89.445312 126.785156 88.300781 125.011719 88.320312 C 123.003906 88.34375 121.703125 89.578125 121.71875 91.445312 C 121.734375 93.277344 123.015625 94.773438 124.585938 94.796875 Z M 392.246094 312.898438 C 391.832031 335.433594 391.425781 357.96875 391 380.5 C 390.757812 393.414062 390.359375 406.320312 390.230469 419.234375 C 389.921875 450.144531 389.695312 481.054688 389.519531 511.964844 C 389.492188 517.125 389.953125 522.285156 390.097656 527.445312 C 390.25 532.683594 390.328125 537.925781 390.355469 543.167969 C 390.359375 544.566406 390.152344 545.980469 389.898438 547.363281 C 389.292969 550.675781 387.835938 551.921875 384.453125 551.980469 C 380.222656 552.050781 375.992188 552.042969 371.757812 552.066406 C 346.914062 552.199219 322.070312 552.433594 297.226562 552.4375 C 273.398438 552.445312 249.574219 552.144531 225.75 552.109375 C 202.394531 552.078125 179.039062 552.351562 155.683594 552.230469 C 141.816406 552.160156 127.945312 551.652344 114.082031 551.210938 C 106.957031 550.984375 99.832031 550.59375 92.722656 550.039062 C 89.070312 549.753906 85.421875 549.109375 81.835938 548.324219 C 77.902344 547.464844 77.152344 546.464844 77.160156 542.511719 C 77.175781 536.957031 77.4375 531.402344 77.464844 525.847656 C 77.550781 507.691406 77.726562 489.535156 77.605469 471.378906 C 77.382812 437.808594 76.964844 404.234375 76.65625 370.664062 C 76.4375 346.640625 76.230469 322.613281 76.085938 298.585938 C 75.984375 281.605469 75.710938 264.621094 76.015625 247.644531 C 76.449219 223.390625 77.433594 199.144531 78.015625 174.894531 C 78.507812 154.550781 78.726562 134.203125 78.101562 113.855469 C 78 110.515625 78.105469 107.171875 78.03125 103.832031 C 77.890625 97.421875 77.671875 91.011719 77.515625 84.601562 C 77.484375 83.429688 77.511719 82.246094 77.65625 81.085938 C 77.910156 78.996094 78.710938 78.171875 80.847656 78.054688 C 87.183594 77.714844 93.523438 77.402344 99.867188 77.195312 C 150.328125 75.546875 200.808594 76.34375 251.277344 76.261719 C 276.042969 76.21875 300.808594 76.585938 325.574219 76.632812 C 340.230469 76.660156 354.886719 76.332031 369.539062 76.34375 C 375.882812 76.351562 382.222656 76.8125 388.566406 77.074219 C 388.957031 77.089844 389.347656 77.113281 389.738281 77.164062 C 392.867188 77.578125 394.152344 78.953125 394.195312 82.121094 C 394.257812 86.894531 394.339844 91.667969 394.261719 96.441406 C 393.714844 130.558594 393.003906 164.675781 392.59375 198.792969 C 392.253906 226.730469 392.238281 254.667969 392.109375 282.609375 C 392.066406 292.703125 392.105469 302.800781 392.105469 312.894531 C 392.152344 312.898438 392.199219 312.898438 392.246094 312.898438 Z M 387.449219 536.996094 C 387.449219 535.289062 387.523438 533.96875 387.4375 532.65625 C 386.601562 519.921875 386.484375 507.171875 386.453125 494.410156 C 386.378906 460.132812 386.84375 425.859375 387.699219 391.589844 C 388.695312 351.84375 388.894531 312.09375 388.945312 272.339844 C 388.984375 242.601562 389.210938 212.863281 389.542969 183.128906 C 389.808594 159.574219 390.363281 136.023438 390.785156 112.472656 C 390.800781 111.558594 390.785156 110.644531 390.785156 109.578125 C 389.988281 109.578125 389.457031 109.570312 388.925781 109.582031 C 378.503906 109.761719 368.085938 109.894531 357.667969 110.144531 C 348.582031 110.363281 339.5 110.753906 330.410156 110.984375 C 320.777344 111.226562 311.136719 111.320312 301.5 111.558594 C 280.34375 112.082031 259.183594 112.152344 238.027344 111.546875 C 228.226562 111.269531 218.445312 111.710938 208.652344 112.011719 C 195.808594 112.410156 182.953125 112.644531 170.105469 112.585938 C 157.414062 112.527344 144.722656 111.828125 132.03125 111.769531 C 120.988281 111.71875 109.9375 112.179688 98.890625 112.402344 C 93.5625 112.511719 88.234375 112.585938 82.90625 112.699219 C 82.320312 112.710938 81.734375 112.859375 81.359375 112.914062 C 81.359375 116.890625 81.320312 120.636719 81.363281 124.382812 C 81.660156 150.367188 81.269531 176.34375 80.472656 202.316406 C 80.007812 217.488281 79.335938 232.664062 79.1875 247.839844 C 79.007812 266.304688 79.246094 284.777344 79.363281 303.242188 C 79.488281 323.277344 79.640625 343.308594 79.847656 363.34375 C 80.171875 394.332031 80.710938 425.316406 80.859375 456.304688 C 80.980469 481.734375 80.667969 507.160156 80.558594 532.589844 C 80.558594 533.101562 80.6875 533.613281 80.769531 534.226562 C 81.695312 534.226562 82.472656 534.226562 83.25 534.226562 C 92.027344 534.253906 100.804688 534.214844 109.582031 534.320312 C 135.519531 534.632812 161.457031 535.011719 187.398438 535.351562 C 197.191406 535.480469 206.992188 535.46875 216.785156 535.714844 C 226.105469 535.949219 235.414062 536.613281 244.734375 536.765625 C 261.425781 537.039062 278.121094 537.167969 294.8125 537.175781 C 322.714844 537.191406 350.613281 537.0625 378.515625 536.996094 C 381.40625 536.988281 384.296875 536.996094 387.449219 536.996094 Z M 81.054688 102.890625 C 81.578125 102.972656 81.808594 103.039062 82.039062 103.039062 C 92.378906 103.078125 102.726562 103.296875 113.0625 103.101562 C 133.273438 102.71875 153.476562 102 173.6875 101.621094 C 193.742188 101.246094 213.800781 100.984375 233.859375 100.921875 C 249.683594 100.875 265.507812 101.195312 281.335938 101.382812 C 295.828125 101.554688 310.324219 102.027344 324.816406 101.894531 C 345.96875 101.703125 367.117188 101.066406 388.273438 101.910156 C 389.101562 101.945312 389.933594 101.914062 391.003906 101.914062 C 391.003906 100.695312 391.011719 99.765625 391.003906 98.835938 C 390.964844 93.832031 390.9375 88.824219 390.878906 83.820312 C 390.839844 80.800781 390.664062 80.636719 387.722656 80.425781 C 387.488281 80.410156 387.253906 80.398438 387.019531 80.386719 C 373.636719 79.609375 360.238281 79.527344 346.839844 79.613281 C 329.996094 79.714844 313.148438 79.84375 296.304688 79.78125 C 274.050781 79.699219 251.800781 79.386719 229.550781 79.273438 C 208.863281 79.171875 188.175781 79.023438 167.492188 79.21875 C 139.679688 79.484375 111.871094 80.058594 84.058594 80.523438 C 82.90625 80.542969 81.757812 80.757812 80.28125 80.917969 C 80.539062 88.300781 80.792969 95.527344 81.054688 102.890625 Z M 80.476562 537.199219 C 80.476562 539.089844 80.421875 540.792969 80.488281 542.496094 C 80.566406 544.601562 80.738281 544.964844 82.828125 545.375 C 86.507812 546.101562 90.214844 546.96875 93.9375 547.140625 C 110.53125 547.90625 127.128906 548.613281 143.734375 549.019531 C 155.949219 549.320312 168.179688 549.152344 180.40625 549.136719 C 205.71875 549.105469 231.027344 548.972656 256.339844 549.007812 C 272.011719 549.03125 287.683594 549.417969 303.351562 549.410156 C 329.996094 549.398438 356.636719 549.207031 383.28125 549.089844 C 383.828125 549.089844 384.378906 549.078125 384.925781 549.058594 C 386.015625 549.027344 386.695312 548.453125 386.925781 547.417969 C 387.46875 544.976562 387.691406 542.511719 387.433594 539.824219 C 386.703125 539.824219 386.097656 539.8125 385.492188 539.824219 C 381.027344 539.925781 376.5625 540.117188 372.097656 540.125 C 342.320312 540.175781 312.542969 540.214844 282.765625 540.195312 C 271.011719 540.1875 259.253906 540.136719 247.503906 539.890625 C 237.324219 539.679688 227.148438 539.03125 216.96875 538.808594 C 203.414062 538.515625 189.859375 538.441406 176.304688 538.285156 C 145.195312 537.917969 114.089844 537.558594 82.980469 537.199219 C 82.21875 537.191406 81.457031 537.199219 80.476562 537.199219 Z M 81.101562 109.863281 C 81.710938 109.917969 82.019531 109.976562 82.328125 109.96875 C 91.257812 109.792969 100.203125 109.855469 109.117188 109.375 C 125.652344 108.484375 142.175781 108.953125 158.707031 109.230469 C 168.339844 109.390625 177.976562 109.726562 187.609375 109.617188 C 198.417969 109.5 209.21875 108.796875 220.027344 108.664062 C 230.683594 108.527344 241.339844 108.871094 251.996094 108.851562 C 273.074219 108.808594 294.152344 108.691406 315.230469 108.527344 C 321.652344 108.476562 328.074219 108.148438 334.496094 107.96875 C 343.425781 107.71875 352.351562 107.414062 361.28125 107.265625 C 370.289062 107.117188 379.300781 107.132812 388.3125 107.0625 C 389.078125 107.058594 389.847656 106.972656 390.683594 106.921875 C 390.683594 106.125 390.683594 105.492188 390.683594 104.730469 C 388.242188 104.730469 385.980469 104.734375 383.714844 104.730469 C 370.082031 104.703125 356.453125 104.652344 342.820312 104.644531 C 327.617188 104.636719 312.417969 104.777344 297.21875 104.652344 C 283.585938 104.542969 269.953125 103.929688 256.324219 103.933594 C 223.570312 103.949219 190.816406 103.890625 158.078125 105.203125 C 142.109375 105.847656 126.117188 105.980469 110.132812 106.167969 C 101.597656 106.269531 93.054688 105.996094 84.515625 105.898438 C 83.375 105.886719 82.238281 105.921875 81.101562 105.9375 C 81.101562 107.398438 81.101562 108.546875 81.101562 109.863281 Z M 94.203125 86.492188 C 91.046875 86.425781 88.53125 88.988281 88.484375 92.324219 C 88.445312 95.066406 90.703125 97.320312 93.539062 97.371094 C 96.707031 97.425781 98.765625 95.261719 98.820312 91.820312 C 98.867188 88.621094 97.078125 86.554688 94.203125 86.492188 Z M 103.871094 90.925781 C 103.867188 87.570312 106.269531 85.152344 109.617188 85.140625 C 112.785156 85.128906 115.265625 87.925781 115.191406 91.417969 C 115.125 94.46875 112.246094 97.277344 109.246094 97.21875 C 106.320312 97.160156 103.875 94.300781 103.871094 90.925781 Z M 109.65625 87.929688 C 107.808594 87.960938 106.515625 89.445312 106.503906 91.558594 C 106.492188 93.105469 107.957031 94.648438 109.417969 94.632812 C 111.058594 94.613281 112.585938 92.949219 112.558594 91.203125 C 112.527344 89.308594 111.285156 87.90625 109.65625 87.929688 Z M 124.941406 85.660156 C 128.164062 85.679688 130.402344 87.960938 130.351562 91.175781 C 130.296875 94.652344 127.753906 97.34375 124.554688 97.308594 C 121.507812 97.273438 119.070312 94.382812 119.101562 90.839844 C 119.125 87.921875 121.695312 85.640625 124.941406 85.660156 Z M 121.71875 91.445312 C 121.734375 93.277344 123.015625 94.773438 124.585938 94.796875 C 126.308594 94.820312 127.867188 93.144531 127.890625 91.242188 C 127.914062 89.445312 126.785156 88.300781 125.011719 88.320312 C 123.003906 88.34375 121.703125 89.578125 121.71875 91.445312 Z M 121.71875 91.445312 " fill-opacity="1" fill-rule="nonzero"/></g><path fill="#fafafa" d="M 387.449219 536.996094 C 384.296875 536.996094 381.40625 536.988281 378.515625 536.996094 C 350.613281 537.0625 322.714844 537.191406 294.8125 537.175781 C 278.121094 537.167969 261.425781 537.039062 244.734375 536.765625 C 235.414062 536.613281 226.105469 535.949219 216.785156 535.714844 C 206.992188 535.46875 197.191406 535.480469 187.398438 535.351562 C 161.457031 535.011719 135.519531 534.632812 109.582031 534.320312 C 100.804688 534.214844 92.027344 534.253906 83.25 534.226562 C 82.472656 534.226562 81.695312 534.226562 80.769531 534.226562 C 80.6875 533.613281 80.558594 533.101562 80.558594 532.589844 C 80.667969 507.160156 80.980469 481.734375 80.859375 456.304688 C 80.710938 425.316406 80.171875 394.332031 79.847656 363.34375 C 79.640625 343.308594 79.488281 323.277344 79.363281 303.242188 C 79.246094 284.777344 79.007812 266.304688 79.1875 247.839844 C 79.335938 232.664062 80.007812 217.488281 80.472656 202.316406 C 81.269531 176.34375 81.660156 150.367188 81.363281 124.382812 C 81.320312 120.636719 81.359375 116.890625 81.359375 112.914062 C 81.734375 112.859375 82.320312 112.710938 82.90625 112.699219 C 88.234375 112.585938 93.5625 112.511719 98.890625 112.402344 C 109.9375 112.179688 120.988281 111.71875 132.03125 111.769531 C 144.722656 111.828125 157.414062 112.527344 170.105469 112.585938 C 182.953125 112.644531 195.808594 112.410156 208.652344 112.011719 C 218.445312 111.710938 228.226562 111.269531 238.027344 111.546875 C 259.183594 112.152344 280.34375 112.082031 301.5 111.558594 C 311.136719 111.320312 320.777344 111.226562 330.410156 110.984375 C 339.5 110.753906 348.582031 110.363281 357.667969 110.144531 C 368.085938 109.894531 378.503906 109.761719 388.925781 109.582031 C 389.457031 109.570312 389.988281 109.578125 390.785156 109.578125 C 390.785156 110.644531 390.800781 111.558594 390.785156 112.472656 C 390.363281 136.023438 389.808594 159.574219 389.542969 183.128906 C 389.210938 212.863281 388.984375 242.601562 388.945312 272.339844 C 388.894531 312.09375 388.695312 351.84375 387.699219 391.589844 C 386.84375 425.859375 386.378906 460.132812 386.453125 494.410156 C 386.484375 507.171875 386.601562 519.921875 387.4375 532.65625 C 387.523438 533.96875 387.449219 535.289062 387.449219 536.996094 Z M 82.039062 103.039062 C 92.378906 103.078125 102.726562 103.296875 113.0625 103.101562 C 133.273438 102.71875 153.476562 102 173.6875 101.621094 C 193.742188 101.246094 213.800781 100.984375 233.859375 100.921875 C 249.683594 100.875 265.507812 101.195312 281.335938 101.382812 C 295.828125 101.554688 310.324219 102.027344 324.816406 101.894531 C 345.96875 101.703125 367.117188 101.066406 388.273438 101.910156 C 389.101562 101.945312 389.933594 101.914062 391.003906 101.914062 C 391.003906 100.695312 391.011719 99.765625 391.003906 98.835938 C 390.964844 93.832031 390.9375 88.824219 390.878906 83.820312 C 390.839844 80.800781 390.664062 80.636719 387.722656 80.425781 C 387.488281 80.410156 387.253906 80.398438 387.019531 80.386719 C 373.636719 79.609375 360.238281 79.527344 346.839844 79.613281 C 329.996094 79.714844 313.148438 79.84375 296.304688 79.78125 C 274.050781 79.699219 251.800781 79.386719 229.550781 79.273438 C 208.863281 79.171875 188.175781 79.023438 167.492188 79.21875 C 139.679688 79.484375 111.871094 80.058594 84.058594 80.523438 C 82.90625 80.542969 81.757812 80.757812 80.28125 80.917969 C 80.539062 88.300781 80.792969 95.527344 81.054688 102.890625 C 81.578125 102.972656 81.808594 103.039062 82.039062 103.039062 Z M 93.539062 97.371094 C 90.703125 97.320312 88.445312 95.066406 88.484375 92.324219 C 88.53125 88.988281 91.046875 86.425781 94.203125 86.492188 C 97.078125 86.554688 98.867188 88.621094 98.820312 91.820312 C 98.765625 95.261719 96.707031 97.425781 93.539062 97.371094 Z M 109.617188 85.140625 C 112.785156 85.128906 115.265625 87.925781 115.191406 91.417969 C 115.125 94.46875 112.246094 97.277344 109.246094 97.21875 C 106.320312 97.160156 103.875 94.300781 103.871094 90.925781 C 103.867188 87.570312 106.269531 85.152344 109.617188 85.140625 Z M 130.351562 91.175781 C 130.296875 94.652344 127.753906 97.34375 124.554688 97.308594 C 121.507812 97.273438 119.070312 94.382812 119.101562 90.839844 C 119.125 87.921875 121.695312 85.640625 124.941406 85.660156 C 128.164062 85.679688 130.402344 87.960938 130.351562 91.175781 Z M 80.488281 542.496094 C 80.566406 544.601562 80.738281 544.964844 82.828125 545.375 C 86.507812 546.101562 90.214844 546.96875 93.9375 547.140625 C 110.53125 547.90625 127.128906 548.613281 143.734375 549.019531 C 155.949219 549.320312 168.179688 549.152344 180.40625 549.136719 C 205.71875 549.105469 231.027344 548.972656 256.339844 549.007812 C 272.011719 549.03125 287.683594 549.417969 303.351562 549.410156 C 329.996094 549.398438 356.636719 549.207031 383.28125 549.089844 C 383.828125 549.089844 384.378906 549.078125 384.925781 549.058594 C 386.015625 549.027344 386.695312 548.453125 386.925781 547.417969 C 387.46875 544.976562 387.691406 542.511719 387.433594 539.824219 C 386.703125 539.824219 386.097656 539.8125 385.492188 539.824219 C 381.027344 539.925781 376.5625 540.117188 372.097656 540.125 C 342.320312 540.175781 312.542969 540.214844 282.765625 540.195312 C 271.011719 540.1875 259.253906 540.136719 247.503906 539.890625 C 237.324219 539.679688 227.148438 539.03125 216.96875 538.808594 C 203.414062 538.515625 189.859375 538.441406 176.304688 538.285156 C 145.195312 537.917969 114.089844 537.558594 82.980469 537.199219 C 82.21875 537.191406 81.457031 537.199219 80.476562 537.199219 C 80.476562 539.089844 80.421875 540.792969 80.488281 542.496094 Z M 82.328125 109.96875 C 91.257812 109.792969 100.203125 109.855469 109.117188 109.375 C 125.652344 108.484375 142.175781 108.953125 158.707031 109.230469 C 168.339844 109.390625 177.976562 109.726562 187.609375 109.617188 C 198.417969 109.5 209.21875 108.796875 220.027344 108.664062 C 230.683594 108.527344 241.339844 108.871094 251.996094 108.851562 C 273.074219 108.808594 294.152344 108.691406 315.230469 108.527344 C 321.652344 108.476562 328.074219 108.148438 334.496094 107.96875 C 343.425781 107.71875 352.351562 107.414062 361.28125 107.265625 C 370.289062 107.117188 379.300781 107.132812 388.3125 107.0625 C 389.078125 107.058594 389.847656 106.972656 390.683594 106.921875 C 390.683594 106.125 390.683594 105.492188 390.683594 104.730469 C 388.242188 104.730469 385.980469 104.734375 383.714844 104.730469 C 370.082031 104.703125 356.453125 104.652344 342.820312 104.644531 C 327.617188 104.636719 312.417969 104.777344 297.21875 104.652344 C 283.585938 104.542969 269.953125 103.929688 256.324219 103.933594 C 223.570312 103.949219 190.816406 103.890625 158.078125 105.203125 C 142.109375 105.847656 126.117188 105.980469 110.132812 106.167969 C 101.597656 106.269531 93.054688 105.996094 84.515625 105.898438 C 83.375 105.886719 82.238281 105.921875 81.101562 105.9375 C 81.101562 107.398438 81.101562 108.546875 81.101562 109.863281 C 81.710938 109.917969 82.019531 109.976562 82.328125 109.96875 Z M 106.503906 91.558594 C 106.492188 93.105469 107.957031 94.648438 109.417969 94.632812 C 111.058594 94.613281 112.585938 92.949219 112.558594 91.203125 C 112.527344 89.308594 111.285156 87.90625 109.65625 87.929688 C 107.808594 87.960938 106.515625 89.445312 106.503906 91.558594 Z M 124.585938 94.796875 C 126.308594 94.820312 127.867188 93.144531 127.890625 91.242188 C 127.914062 89.445312 126.785156 88.300781 125.011719 88.320312 C 123.003906 88.34375 121.703125 89.578125 121.71875 91.445312 C 121.734375 93.277344 123.015625 94.773438 124.585938 94.796875 Z M 124.585938 94.796875 " fill-opacity="1" fill-rule="nonzero"/><g clip-path="url(#35883329b3)"><path fill="#1967be" d="M 392.246094 312.898438 C 391.832031 335.433594 391.425781 357.96875 391 380.5 C 390.757812 393.414062 390.359375 406.320312 390.230469 419.234375 C 389.921875 450.144531 389.695312 481.054688 389.519531 511.964844 C 389.492188 517.125 389.953125 522.285156 390.097656 527.445312 C 390.25 532.683594 390.328125 537.925781 390.355469 543.167969 C 390.359375 544.566406 390.152344 545.980469 389.898438 547.363281 C 389.292969 550.675781 387.835938 551.921875 384.453125 551.980469 C 380.222656 552.050781 375.992188 552.042969 371.757812 552.066406 C 346.914062 552.199219 322.070312 552.433594 297.226562 552.4375 C 273.398438 552.445312 249.574219 552.144531 225.75 552.109375 C 202.394531 552.078125 179.039062 552.351562 155.683594 552.230469 C 141.816406 552.160156 127.945312 551.652344 114.082031 551.210938 C 106.957031 550.984375 99.832031 550.59375 92.722656 550.039062 C 89.070312 549.753906 85.421875 549.109375 81.835938 548.324219 C 77.902344 547.464844 77.152344 546.464844 77.160156 542.511719 C 77.175781 536.957031 77.4375 531.402344 77.464844 525.847656 C 77.550781 507.691406 77.726562 489.535156 77.605469 471.378906 C 77.382812 437.808594 76.964844 404.234375 76.65625 370.664062 C 76.4375 346.640625 76.230469 322.613281 76.085938 298.585938 C 75.984375 281.605469 75.710938 264.621094 76.015625 247.644531 C 76.449219 223.390625 77.433594 199.144531 78.015625 174.894531 C 78.507812 154.550781 78.726562 134.203125 78.101562 113.855469 C 78 110.515625 78.105469 107.171875 78.03125 103.832031 C 77.890625 97.421875 77.671875 91.011719 77.515625 84.601562 C 77.484375 83.429688 77.511719 82.246094 77.65625 81.085938 C 77.910156 78.996094 78.710938 78.171875 80.847656 78.054688 C 87.183594 77.714844 93.523438 77.402344 99.867188 77.195312 C 150.328125 75.546875 200.808594 76.34375 251.277344 76.261719 C 276.042969 76.21875 300.808594 76.585938 325.574219 76.632812 C 340.230469 76.660156 354.886719 76.332031 369.539062 76.34375 C 375.882812 76.351562 382.222656 76.8125 388.566406 77.074219 C 388.957031 77.089844 389.347656 77.113281 389.738281 77.164062 C 392.867188 77.578125 394.152344 78.953125 394.195312 82.121094 C 394.257812 86.894531 394.339844 91.667969 394.261719 96.441406 C 393.714844 130.558594 393.003906 164.675781 392.59375 198.792969 C 392.253906 226.730469 392.238281 254.667969 392.109375 282.609375 C 392.066406 292.703125 392.105469 302.800781 392.105469 312.894531 C 392.152344 312.898438 392.199219 312.898438 392.246094 312.898438 Z M 387.449219 536.996094 C 387.449219 535.289062 387.523438 533.96875 387.4375 532.65625 C 386.601562 519.921875 386.484375 507.171875 386.453125 494.410156 C 386.378906 460.132812 386.84375 425.859375 387.699219 391.589844 C 388.695312 351.84375 388.894531 312.09375 388.945312 272.339844 C 388.984375 242.601562 389.210938 212.863281 389.542969 183.128906 C 389.808594 159.574219 390.363281 136.023438 390.785156 112.472656 C 390.800781 111.558594 390.785156 110.644531 390.785156 109.578125 C 389.988281 109.578125 389.457031 109.570312 388.925781 109.582031 C 378.503906 109.761719 368.085938 109.894531 357.667969 110.144531 C 348.582031 110.363281 339.5 110.753906 330.410156 110.984375 C 320.777344 111.226562 311.136719 111.320312 301.5 111.558594 C 280.34375 112.082031 259.183594 112.152344 238.027344 111.546875 C 228.226562 111.269531 218.445312 111.710938 208.652344 112.011719 C 195.808594 112.410156 182.953125 112.644531 170.105469 112.585938 C 157.414062 112.527344 144.722656 111.828125 132.03125 111.769531 C 120.988281 111.71875 109.9375 112.179688 98.890625 112.402344 C 93.5625 112.511719 88.234375 112.585938 82.90625 112.699219 C 82.320312 112.710938 81.734375 112.859375 81.359375 112.914062 C 81.359375 116.890625 81.320312 120.636719 81.363281 124.382812 C 81.660156 150.367188 81.269531 176.34375 80.472656 202.316406 C 80.007812 217.488281 79.335938 232.664062 79.1875 247.839844 C 79.007812 266.304688 79.246094 284.777344 79.363281 303.242188 C 79.488281 323.277344 79.640625 343.308594 79.847656 363.34375 C 80.171875 394.332031 80.710938 425.316406 80.859375 456.304688 C 80.980469 481.734375 80.667969 507.160156 80.558594 532.589844 C 80.558594 533.101562 80.6875 533.613281 80.769531 534.226562 C 81.695312 534.226562 82.472656 534.226562 83.25 534.226562 C 92.027344 534.253906 100.804688 534.214844 109.582031 534.320312 C 135.519531 534.632812 161.457031 535.011719 187.398438 535.351562 C 197.191406 535.480469 206.992188 535.46875 216.785156 535.714844 C 226.105469 535.949219 235.414062 536.613281 244.734375 536.765625 C 261.425781 537.039062 278.121094 537.167969 294.8125 537.175781 C 322.714844 537.191406 350.613281 537.0625 378.515625 536.996094 C 381.40625 536.988281 384.296875 536.996094 387.449219 536.996094 Z M 81.054688 102.890625 C 81.578125 102.972656 81.808594 103.039062 82.039062 103.039062 C 92.378906 103.078125 102.726562 103.296875 113.0625 103.101562 C 133.273438 102.71875 153.476562 102 173.6875 101.621094 C 193.742188 101.246094 213.800781 100.984375 233.859375 100.921875 C 249.683594 100.875 265.507812 101.195312 281.335938 101.382812 C 295.828125 101.554688 310.324219 102.027344 324.816406 101.894531 C 345.96875 101.703125 367.117188 101.066406 388.273438 101.910156 C 389.101562 101.945312 389.933594 101.914062 391.003906 101.914062 C 391.003906 100.695312 391.011719 99.765625 391.003906 98.835938 C 390.964844 93.832031 390.9375 88.824219 390.878906 83.820312 C 390.839844 80.800781 390.664062 80.636719 387.722656 80.425781 C 387.488281 80.410156 387.253906 80.398438 387.019531 80.386719 C 373.636719 79.609375 360.238281 79.527344 346.839844 79.613281 C 329.996094 79.714844 313.148438 79.84375 296.304688 79.78125 C 274.050781 79.699219 251.800781 79.386719 229.550781 79.273438 C 208.863281 79.171875 188.175781 79.023438 167.492188 79.21875 C 139.679688 79.484375 111.871094 80.058594 84.058594 80.523438 C 82.90625 80.542969 81.757812 80.757812 80.28125 80.917969 C 80.539062 88.300781 80.792969 95.527344 81.054688 102.890625 Z M 80.476562 537.199219 C 80.476562 539.089844 80.421875 540.792969 80.488281 542.496094 C 80.566406 544.601562 80.738281 544.964844 82.828125 545.375 C 86.507812 546.101562 90.214844 546.96875 93.9375 547.140625 C 110.53125 547.90625 127.128906 548.613281 143.734375 549.019531 C 155.949219 549.320312 168.179688 549.152344 180.40625 549.136719 C 205.71875 549.105469 231.027344 548.972656 256.339844 549.007812 C 272.011719 549.03125 287.683594 549.417969 303.351562 549.410156 C 329.996094 549.398438 356.636719 549.207031 383.28125 549.089844 C 383.828125 549.089844 384.378906 549.078125 384.925781 549.058594 C 386.015625 549.027344 386.695312 548.453125 386.925781 547.417969 C 387.46875 544.976562 387.691406 542.511719 387.433594 539.824219 C 386.703125 539.824219 386.097656 539.8125 385.492188 539.824219 C 381.027344 539.925781 376.5625 540.117188 372.097656 540.125 C 342.320312 540.175781 312.542969 540.214844 282.765625 540.195312 C 271.011719 540.1875 259.253906 540.136719 247.503906 539.890625 C 237.324219 539.679688 227.148438 539.03125 216.96875 538.808594 C 203.414062 538.515625 189.859375 538.441406 176.304688 538.285156 C 145.195312 537.917969 114.089844 537.558594 82.980469 537.199219 C 82.21875 537.191406 81.457031 537.199219 80.476562 537.199219 Z M 81.101562 109.863281 C 81.710938 109.917969 82.019531 109.976562 82.328125 109.96875 C 91.257812 109.792969 100.203125 109.855469 109.117188 109.375 C 125.652344 108.484375 142.175781 108.953125 158.707031 109.230469 C 168.339844 109.390625 177.976562 109.726562 187.609375 109.617188 C 198.417969 109.5 209.21875 108.796875 220.027344 108.664062 C 230.683594 108.527344 241.339844 108.871094 251.996094 108.851562 C 273.074219 108.808594 294.152344 108.691406 315.230469 108.527344 C 321.652344 108.476562 328.074219 108.148438 334.496094 107.96875 C 343.425781 107.71875 352.351562 107.414062 361.28125 107.265625 C 370.289062 107.117188 379.300781 107.132812 388.3125 107.0625 C 389.078125 107.058594 389.847656 106.972656 390.683594 106.921875 C 390.683594 106.125 390.683594 105.492188 390.683594 104.730469 C 388.242188 104.730469 385.980469 104.734375 383.714844 104.730469 C 370.082031 104.703125 356.453125 104.652344 342.820312 104.644531 C 327.617188 104.636719 312.417969 104.777344 297.21875 104.652344 C 283.585938 104.542969 269.953125 103.929688 256.324219 103.933594 C 223.570312 103.949219 190.816406 103.890625 158.078125 105.203125 C 142.109375 105.847656 126.117188 105.980469 110.132812 106.167969 C 101.597656 106.269531 93.054688 105.996094 84.515625 105.898438 C 83.375 105.886719 82.238281 105.921875 81.101562 105.9375 C 81.101562 107.398438 81.101562 108.546875 81.101562 109.863281 Z M 94.203125 86.492188 C 91.046875 86.425781 88.53125 88.988281 88.484375 92.324219 C 88.445312 95.066406 90.703125 97.320312 93.539062 97.371094 C 96.707031 97.425781 98.765625 95.261719 98.820312 91.820312 C 98.867188 88.621094 97.078125 86.554688 94.203125 86.492188 Z M 103.871094 90.925781 C 103.867188 87.570312 106.269531 85.152344 109.617188 85.140625 C 112.785156 85.128906 115.265625 87.925781 115.191406 91.417969 C 115.125 94.46875 112.246094 97.277344 109.246094 97.21875 C 106.320312 97.160156 103.875 94.300781 103.871094 90.925781 Z M 109.65625 87.929688 C 107.808594 87.960938 106.515625 89.445312 106.503906 91.558594 C 106.492188 93.105469 107.957031 94.648438 109.417969 94.632812 C 111.058594 94.613281 112.585938 92.949219 112.558594 91.203125 C 112.527344 89.308594 111.285156 87.90625 109.65625 87.929688 Z M 124.941406 85.660156 C 128.164062 85.679688 130.402344 87.960938 130.351562 91.175781 C 130.296875 94.652344 127.753906 97.34375 124.554688 97.308594 C 121.507812 97.273438 119.070312 94.382812 119.101562 90.839844 C 119.125 87.921875 121.695312 85.640625 124.941406 85.660156 Z M 121.71875 91.445312 C 121.734375 93.277344 123.015625 94.773438 124.585938 94.796875 C 126.308594 94.820312 127.867188 93.144531 127.890625 91.242188 C 127.914062 89.445312 126.785156 88.300781 125.011719 88.320312 C 123.003906 88.34375 121.703125 89.578125 121.71875 91.445312 Z M 121.71875 91.445312 " fill-opacity="1" fill-rule="nonzero"/></g></svg>