<svg xmlns="http://www.w3.org/2000/svg" xmlns:xlink="http://www.w3.org/1999/xlink" width="468" zoomAndPan="magnify" viewBox="0 0 351 187.499995" height="250" preserveAspectRatio="xMidYMid meet" version="1.0"><defs><clipPath id="6ac11a86a1"><path d="M 241.921875 84.160156 L 269.597656 84.160156 L 269.597656 97.625 L 241.921875 97.625 Z M 241.921875 84.160156 " clip-rule="nonzero"/></clipPath><clipPath id="d4393d62ad"><path d="M 201.914062 84.160156 L 229.589844 84.160156 L 229.589844 97.625 L 201.914062 97.625 Z M 201.914062 84.160156 " clip-rule="nonzero"/></clipPath><clipPath id="5600b5ea24"><path d="M 161.6875 84.160156 L 189.363281 84.160156 L 189.363281 97.625 L 161.6875 97.625 Z M 161.6875 84.160156 " clip-rule="nonzero"/></clipPath><clipPath id="8c931731e1"><path d="M 121.460938 84.160156 L 149.136719 84.160156 L 149.136719 97.625 L 121.460938 97.625 Z M 121.460938 84.160156 " clip-rule="nonzero"/></clipPath><clipPath id="8311558f6e"><path d="M 81.230469 84.160156 L 108.90625 84.160156 L 108.90625 97.625 L 81.230469 97.625 Z M 81.230469 84.160156 " clip-rule="nonzero"/></clipPath></defs><g clip-path="url(#6ac11a86a1)"><path fill="#37a75b" d="M 241.941406 97.625 C 241.941406 90.1875 248.132812 84.160156 255.773438 84.160156 C 263.414062 84.160156 269.582031 90.1875 269.582031 97.625 Z M 241.941406 97.625 " fill-opacity="1" fill-rule="nonzero"/></g><g clip-path="url(#d4393d62ad)"><path fill="#1967be" d="M 201.933594 97.625 C 201.933594 90.1875 208.125 84.160156 215.765625 84.160156 C 223.40625 84.160156 229.574219 90.1875 229.574219 97.625 Z M 201.933594 97.625 " fill-opacity="1" fill-rule="nonzero"/></g><g clip-path="url(#5600b5ea24)"><path fill="#ec709a" d="M 161.703125 97.625 C 161.703125 90.1875 167.894531 84.160156 175.535156 84.160156 C 183.175781 84.160156 189.34375 90.1875 189.34375 97.625 Z M 161.703125 97.625 " fill-opacity="1" fill-rule="nonzero"/></g><g clip-path="url(#8c931731e1)"><path fill="#ffe683" d="M 121.476562 97.625 C 121.476562 90.1875 127.667969 84.160156 135.308594 84.160156 C 142.949219 84.160156 149.117188 90.1875 149.117188 97.625 Z M 121.476562 97.625 " fill-opacity="1" fill-rule="nonzero"/></g><g clip-path="url(#8311558f6e)"><path fill="#b1a1ed" d="M 81.25 97.625 C 81.25 90.1875 87.441406 84.160156 95.082031 84.160156 C 102.722656 84.160156 108.890625 90.1875 108.890625 97.625 Z M 81.25 97.625 " fill-opacity="1" fill-rule="nonzero"/></g></svg>