<svg xmlns="http://www.w3.org/2000/svg" xmlns:xlink="http://www.w3.org/1999/xlink" width="431" zoomAndPan="magnify" viewBox="0 0 323.25 177.749994" height="237" preserveAspectRatio="xMidYMid meet" version="1.0"><defs><clipPath id="69baa7735a"><path d="M 183.210938 75 L 211.035156 75 L 211.035156 102.34375 L 183.210938 102.34375 Z M 183.210938 75 " clip-rule="nonzero"/></clipPath><clipPath id="c5cc8f83ca"><path d="M 197.539062 102.34375 L 196.796875 102.34375 C 189.339844 102.34375 183.296875 96.304688 183.296875 88.847656 C 183.296875 81.394531 189.339844 75.351562 196.796875 75.351562 L 197.539062 75.351562 C 204.992188 75.351562 211.035156 81.394531 211.035156 88.847656 C 211.035156 96.304688 204.992188 102.34375 197.539062 102.34375 " clip-rule="nonzero"/></clipPath><clipPath id="9cd83a3a28"><path d="M 147.125 75 L 174.949219 75 L 174.949219 102.34375 L 147.125 102.34375 Z M 147.125 75 " clip-rule="nonzero"/></clipPath><clipPath id="0ec27e5fe6"><path d="M 161.453125 102.34375 L 160.710938 102.34375 C 153.257812 102.34375 147.214844 96.304688 147.214844 88.847656 C 147.214844 81.394531 153.257812 75.351562 160.710938 75.351562 L 161.453125 75.351562 C 168.910156 75.351562 174.949219 81.394531 174.949219 88.847656 C 174.949219 96.304688 168.910156 102.34375 161.453125 102.34375 " clip-rule="nonzero"/></clipPath><clipPath id="cd32790281"><path d="M 219.292969 75 L 247.117188 75 L 247.117188 102.34375 L 219.292969 102.34375 Z M 219.292969 75 " clip-rule="nonzero"/></clipPath><clipPath id="42eeee619f"><path d="M 233.621094 102.34375 L 232.878906 102.34375 C 225.425781 102.34375 219.382812 96.304688 219.382812 88.847656 C 219.382812 81.394531 225.425781 75.351562 232.878906 75.351562 L 233.621094 75.351562 C 241.078125 75.351562 247.117188 81.394531 247.117188 88.847656 C 247.117188 96.304688 241.078125 102.34375 233.621094 102.34375 " clip-rule="nonzero"/></clipPath><clipPath id="3b3a9dcbaa"><path d="M 111.042969 75 L 138.867188 75 L 138.867188 102.34375 L 111.042969 102.34375 Z M 111.042969 75 " clip-rule="nonzero"/></clipPath><clipPath id="23ccc4cdd5"><path d="M 125.371094 102.34375 L 124.625 102.34375 C 117.171875 102.34375 111.128906 96.304688 111.128906 88.847656 C 111.128906 81.394531 117.171875 75.351562 124.625 75.351562 L 125.371094 75.351562 C 132.824219 75.351562 138.867188 81.394531 138.867188 88.847656 C 138.867188 96.304688 132.824219 102.34375 125.371094 102.34375 " clip-rule="nonzero"/></clipPath><clipPath id="00d14e1912"><path d="M 75.046875 75.355469 L 102.78125 75.355469 L 102.78125 103.09375 L 75.046875 103.09375 Z M 75.046875 75.355469 " clip-rule="nonzero"/></clipPath><clipPath id="6d6e75a6a0"><path d="M 88.914062 103.09375 C 96.574219 103.09375 102.78125 96.882812 102.78125 89.226562 C 102.78125 81.566406 96.574219 75.355469 88.914062 75.355469 C 81.253906 75.355469 75.046875 81.566406 75.046875 89.226562 C 75.046875 96.882812 81.253906 103.09375 88.914062 103.09375 " clip-rule="nonzero"/></clipPath></defs><g clip-path="url(#69baa7735a)"><g clip-path="url(#c5cc8f83ca)"><path fill="#ffe683" d="M 211.035156 102.34375 L 183.210938 102.34375 L 183.210938 75.632812 L 211.035156 75.632812 Z M 211.035156 102.34375 " fill-opacity="1" fill-rule="nonzero"/></g></g><g clip-path="url(#9cd83a3a28)"><g clip-path="url(#0ec27e5fe6)"><path fill="#ec709a" d="M 174.949219 102.34375 L 147.125 102.34375 L 147.125 75.632812 L 174.949219 75.632812 Z M 174.949219 102.34375 " fill-opacity="1" fill-rule="nonzero"/></g></g><g clip-path="url(#cd32790281)"><g clip-path="url(#42eeee619f)"><path fill="#b1a1ed" d="M 247.117188 102.34375 L 219.292969 102.34375 L 219.292969 75.632812 L 247.117188 75.632812 Z M 247.117188 102.34375 " fill-opacity="1" fill-rule="nonzero"/></g></g><g clip-path="url(#3b3a9dcbaa)"><g clip-path="url(#23ccc4cdd5)"><path fill="#1867be" d="M 138.867188 102.34375 L 111.042969 102.34375 L 111.042969 75.632812 L 138.867188 75.632812 Z M 138.867188 102.34375 " fill-opacity="1" fill-rule="nonzero"/></g></g><g clip-path="url(#00d14e1912)"><g clip-path="url(#6d6e75a6a0)"><path fill="#37a75c" d="M 102.78125 103.09375 L 75.046875 103.09375 L 75.046875 75.355469 L 102.78125 75.355469 Z M 102.78125 103.09375 " fill-opacity="1" fill-rule="nonzero"/></g></g></svg>