<svg xmlns="http://www.w3.org/2000/svg" xmlns:xlink="http://www.w3.org/1999/xlink" zoomAndPan="magnify" preserveAspectRatio="xMidYMid meet" version="1.0" viewBox="468.14 224.56 87.86 127.44"><defs><clipPath id="ad66dbe509"><path d="M 468.144531 224.5625 L 556 224.5625 L 556 352 L 468.144531 352 Z M 468.144531 224.5625 " clip-rule="nonzero"/></clipPath></defs><g clip-path="url(#ad66dbe509)"><path fill="#37a75c" d="M 482.46875 311.359375 C 483.175781 310.03125 483.65625 308.816406 484.417969 307.800781 C 485.15625 306.839844 486.03125 305.824219 487.074219 305.316406 C 490.15625 303.847656 493.011719 305.625 493.09375 309.042969 C 493.179688 310.539062 493.011719 312.035156 492.644531 313.476562 C 490.523438 320.621094 487.046875 327.0625 481.734375 332.398438 C 479.136719 335.023438 476.820312 334.6875 475.179688 331.324219 C 472.15625 325.140625 470.039062 318.617188 468.566406 311.921875 C 468.144531 310.03125 468.3125 307.96875 468.511719 306.019531 C 468.738281 303.875 469.640625 301.925781 471.957031 301.25 C 474.390625 300.570312 476.535156 301.332031 478.175781 303.167969 C 479.21875 304.328125 480.011719 305.738281 480.746094 307.152344 C 481.425781 308.367188 481.847656 309.777344 482.46875 311.359375 Z M 488.96875 309.832031 L 488.460938 309.578125 C 488.007812 310.3125 487.585938 311.078125 487.132812 311.839844 C 486.144531 313.535156 485.4375 315.539062 483.007812 315.738281 C 482.867188 315.738281 482.722656 315.992188 482.582031 316.101562 C 482.046875 316.5 481.3125 317.347656 480.972656 317.234375 C 480.351562 317.007812 479.8125 316.246094 479.53125 315.59375 C 478.457031 313.25 477.582031 310.824219 476.480469 308.476562 C 476.054688 307.574219 475.433594 306.785156 474.726562 306.105469 C 473.824219 305.257812 473.003906 305.542969 472.863281 306.753906 C 472.691406 308.367188 472.523438 310.058594 472.863281 311.613281 C 473.511719 314.664062 474.359375 317.683594 475.40625 320.648438 C 476.367188 323.304688 477.722656 325.847656 478.996094 328.640625 C 483.996094 322.9375 487.667969 317.007812 488.96875 309.832031 Z M 529.09375 329.234375 C 530.449219 329.433594 531.917969 329.460938 533.246094 329.855469 C 536.015625 330.703125 536.949219 332.820312 535.789062 335.476562 C 534.605469 338.328125 532.683594 340.84375 530.253906 342.792969 C 525.589844 346.40625 520.363281 349.0625 514.796875 351.039062 C 512.222656 351.941406 510.078125 350.332031 510.386719 347.535156 C 511.007812 342.171875 511.742188 336.804688 512.929688 331.523438 C 513.863281 327.398438 514.824219 323.164062 517.253906 319.519531 C 517.988281 318.390625 518.667969 317.234375 519.515625 316.214844 C 521.886719 313.363281 525.308594 313.390625 527.710938 316.214844 C 529.515625 318.363281 529.96875 320.960938 529.800781 323.644531 C 529.714844 325.5625 529.347656 327.457031 529.09375 329.234375 Z M 532.03125 334.066406 C 530.476562 334.320312 529.347656 334.574219 528.191406 334.714844 C 525.082031 335.109375 523.753906 333.613281 524.460938 330.675781 C 524.796875 329.265625 525.222656 327.851562 525.25 326.441406 C 525.277344 324.238281 525.25 321.976562 524.828125 319.804688 C 524.488281 318.136719 523.414062 318.023438 522.539062 319.4375 C 521.292969 321.46875 519.910156 323.503906 519.203125 325.707031 C 517.761719 330.394531 516.632812 335.167969 515.53125 339.96875 C 515.050781 342.085938 514.964844 344.316406 514.65625 346.859375 C 521.550781 343.835938 528.105469 341.179688 532.03125 334.066406 Z M 511.886719 283.003906 C 512.902344 282.355469 513.695312 281.566406 514.65625 281.28125 C 516.09375 280.859375 517.648438 280.492188 519.117188 280.660156 C 521.519531 280.914062 522.734375 282.863281 522.171875 285.207031 C 521.773438 287.015625 521.210938 288.765625 520.445312 290.433594 C 517.453125 296.785156 513.777344 302.632812 507.789062 306.699219 C 505.867188 308 504 307.742188 502.871094 305.683594 C 502.050781 304.214844 501.457031 302.632812 501.121094 300.964844 C 499.933594 294.359375 499.59375 287.722656 500.835938 281.085938 C 501.175781 279.53125 501.742188 278.035156 502.53125 276.652344 C 504.226562 273.65625 507.589844 273.628906 509.285156 276.652344 C 510.21875 278.289062 510.753906 280.125 511.460938 281.875 C 511.601562 282.242188 511.714844 282.554688 511.886719 283.003906 Z M 517.707031 285.96875 L 517.167969 285.460938 C 516.039062 286.535156 514.878906 287.578125 513.777344 288.679688 C 512.960938 289.472656 512.28125 290.433594 511.433594 291.167969 C 510.332031 292.097656 508.976562 292.042969 507.789062 291.390625 C 506.601562 290.742188 506.769531 289.640625 507.023438 288.484375 C 507.589844 285.914062 507.082031 283.511719 505.753906 281.253906 C 504.257812 288.230469 504.820312 295.121094 506.347656 302.492188 C 511.914062 297.773438 515.644531 292.4375 517.707031 285.96875 Z M 546.160156 266.570312 C 548.027344 266.398438 550.003906 265.976562 551.953125 266.058594 C 555.003906 266.230469 556.644531 268.6875 555.515625 271.539062 C 554.890625 273.148438 553.875 274.589844 552.574219 275.691406 C 549.523438 278.148438 546.1875 280.265625 542.96875 282.496094 C 542.542969 282.777344 542.121094 283.003906 541.667969 283.230469 C 538.304688 284.757812 536.128906 283.398438 536.382812 279.730469 C 536.667969 275.605469 536.976562 271.484375 537.65625 267.445312 C 538.050781 265.15625 539.152344 262.953125 540.085938 260.78125 C 540.652344 259.480469 541.695312 258.605469 543.277344 258.832031 C 544.832031 259.054688 545.679688 260.15625 545.90625 261.542969 C 546.160156 263.234375 546.074219 265.015625 546.160156 266.570312 Z M 539.859375 279.871094 C 543.929688 276.988281 547.628906 274.390625 551.273438 271.738281 C 551.785156 271.371094 551.980469 270.578125 552.347656 269.984375 L 552.039062 269.617188 C 551.21875 269.761719 550.371094 269.789062 549.609375 270.015625 C 548.25 270.464844 546.953125 271.257812 545.566406 271.511719 C 541.78125 272.21875 541.242188 271.199219 541.949219 268.261719 C 542.121094 267.527344 542.261719 266.792969 542.375 266.058594 C 542.488281 265.382812 542.542969 264.703125 542.65625 264.027344 L 542.234375 263.96875 C 540.027344 268.914062 540.226562 274.222656 539.859375 279.871094 Z M 539.097656 229.769531 C 540.113281 228.472656 540.960938 227.199219 542.007812 226.097656 C 543.050781 224.996094 544.804688 224.6875 545.992188 225.308594 C 547.375 226.042969 547.574219 227.3125 547.375 228.640625 C 546.527344 234.570312 544.183594 240.191406 540.539062 244.964844 C 538.757812 247.308594 536.554688 247.140625 534.773438 244.765625 C 531.976562 241.039062 530.734375 236.691406 530.140625 232.171875 C 529.773438 229.433594 530.816406 227.652344 532.683594 227.003906 C 534.886719 226.242188 537.089844 227.03125 538.671875 229.207031 Z M 543.476562 229.65625 C 543.195312 230.222656 542.855469 230.730469 542.628906 231.324219 C 542.316406 232.113281 542.09375 232.933594 541.78125 233.695312 C 541.355469 234.710938 539.464844 235.957031 538.503906 235.84375 C 537.089844 235.671875 537.261719 234.402344 536.890625 233.46875 C 536.582031 232.59375 536.15625 231.746094 535.59375 230.984375 C 535.308594 230.617188 534.574219 230.589844 534.039062 230.390625 C 533.898438 230.84375 533.585938 231.296875 533.644531 231.71875 C 534.09375 235.277344 534.886719 238.75 536.78125 241.859375 C 537.0625 242.28125 537.402344 242.703125 537.742188 243.101562 C 540.960938 239.0625 542.941406 234.710938 543.476562 229.65625 Z M 543.476562 229.65625 " fill-opacity="1" fill-rule="nonzero"/></g></svg>