<svg xmlns="http://www.w3.org/2000/svg" xmlns:xlink="http://www.w3.org/1999/xlink" zoomAndPan="magnify" preserveAspectRatio="xMidYMid meet" version="1.0" viewBox="459 242.27 106.49 91.5"><defs><clipPath id="fd11a3a4a0"><path d="M 459 242.273438 L 565.492188 242.273438 L 565.492188 333.773438 L 459 333.773438 Z M 459 242.273438 " clip-rule="nonzero"/></clipPath></defs><g clip-path="url(#fd11a3a4a0)"><path fill="#37a75c" d="M 564.691406 253.898438 C 563.972656 251.167969 562.519531 248.457031 560.375 246.574219 C 557.761719 244.277344 554.539062 243.199219 551.101562 242.960938 C 548.125 242.753906 545.089844 243.253906 542.203125 243.933594 C 537.097656 245.136719 532.144531 247.21875 527.675781 249.953125 C 523.195312 252.691406 519.078125 256.113281 515.609375 260.050781 C 512.476562 263.613281 509.777344 267.578125 507.75 271.867188 C 505.3125 268.277344 503.265625 264.433594 501.027344 260.714844 C 498.351562 256.257812 495.347656 251.804688 491.203125 248.578125 C 487.058594 245.347656 482.230469 243.078125 476.9375 242.664062 C 471.953125 242.273438 466.777344 244.171875 463.503906 248.003906 C 460.277344 251.773438 459.023438 256.613281 459.085938 261.507812 C 459.148438 266.214844 460.242188 270.933594 461.847656 275.34375 C 463.734375 280.535156 466.046875 285.609375 468.554688 290.53125 C 470.984375 295.296875 473.675781 299.925781 476.609375 304.402344 C 482.625 313.570312 489.636719 322.125 497.5 329.777344 C 498.429688 330.683594 499.375 331.574219 500.328125 332.457031 C 501.566406 333.601562 503.683594 333.773438 504.890625 332.457031 C 506.039062 331.210938 506.214844 329.125 504.890625 327.902344 C 500.222656 323.59375 495.835938 318.984375 491.765625 314.105469 C 490.683594 312.808594 489.628906 311.492188 488.59375 310.164062 C 482.675781 302.457031 477.515625 294.179688 473.222656 285.46875 C 472.035156 283.054688 470.914062 280.605469 469.859375 278.132812 C 468.054688 273.8125 466.46875 269.417969 465.773438 264.769531 C 465.519531 262.671875 465.457031 260.550781 465.699219 258.449219 C 465.886719 257.289062 466.179688 256.152344 466.59375 255.054688 C 466.96875 254.230469 467.421875 253.449219 467.949219 252.714844 C 468.472656 252.085938 469.050781 251.511719 469.679688 250.992188 C 470.316406 250.535156 470.988281 250.144531 471.695312 249.8125 C 472.527344 249.496094 473.386719 249.269531 474.265625 249.125 C 475.3125 249.027344 476.363281 249.042969 477.410156 249.152344 C 478.933594 249.394531 480.417969 249.820312 481.851562 250.390625 C 483.640625 251.183594 485.332031 252.179688 486.902344 253.347656 C 488.605469 254.710938 490.097656 256.265625 491.457031 257.972656 C 495.597656 263.4375 498.460938 269.71875 502.335938 275.363281 C 503.5625 277.15625 504.890625 278.890625 506.339844 280.515625 C 507.09375 281.359375 508.417969 281.632812 509.480469 281.34375 C 510.617188 281.03125 511.367188 280.171875 511.734375 279.09375 C 512.042969 278.191406 512.382812 277.304688 512.742188 276.421875 C 514.253906 272.945312 516.195312 269.667969 518.488281 266.644531 C 520.945312 263.539062 523.765625 260.734375 526.882812 258.289062 C 530.015625 255.921875 533.421875 253.925781 537.03125 252.367188 C 540.28125 251.039062 543.695312 250.035156 547.175781 249.527344 C 548.675781 249.355469 550.1875 249.308594 551.695312 249.464844 C 552.492188 249.601562 553.273438 249.796875 554.03125 250.074219 C 554.59375 250.339844 555.132812 250.648438 555.644531 251.003906 C 556.082031 251.375 556.484375 251.78125 556.859375 252.21875 C 557.308594 252.851562 557.691406 253.523438 558.015625 254.226562 C 558.359375 255.132812 558.601562 256.070312 558.761719 257.023438 C 558.882812 258.179688 558.882812 259.34375 558.765625 260.5 C 558.476562 262.3125 557.933594 264.074219 557.242188 265.777344 C 555.320312 270.148438 552.632812 274.183594 550.234375 278.304688 C 547.917969 282.277344 545.636719 286.269531 543.367188 290.265625 C 538.476562 298.863281 533.644531 307.488281 528.734375 316.070312 C 527.367188 318.457031 525.996094 320.839844 524.613281 323.21875 C 524.042969 321.355469 523.554688 319.46875 523.1875 317.546875 C 522.964844 316.390625 522.78125 315.222656 522.621094 314.054688 C 522.519531 313.316406 521.75 312.488281 521.136719 312.128906 C 520.445312 311.726562 519.425781 311.554688 518.648438 311.804688 C 517.867188 312.058594 517.113281 312.539062 516.71875 313.285156 C 516.609375 313.539062 516.503906 313.796875 516.394531 314.054688 C 516.238281 314.625 516.238281 315.195312 516.394531 315.765625 C 516.9375 319.757812 517.859375 323.648438 519.195312 327.445312 C 519.621094 328.65625 520.078125 329.851562 520.554688 331.039062 C 520.632812 331.371094 520.773438 331.664062 520.964844 331.929688 C 521.234375 332.355469 521.585938 332.726562 522.039062 332.964844 C 522.246094 333.082031 522.480469 333.179688 522.726562 333.253906 C 522.753906 333.265625 522.78125 333.277344 522.8125 333.289062 C 523.007812 333.34375 523.207031 333.371094 523.40625 333.386719 C 523.484375 333.394531 523.566406 333.402344 523.644531 333.402344 C 523.664062 333.402344 523.679688 333.402344 523.699219 333.402344 C 523.855469 333.402344 524.007812 333.394531 524.15625 333.371094 C 524.667969 333.386719 525.171875 333.289062 525.632812 333.082031 C 529.351562 332.363281 533.011719 331.429688 536.546875 330.050781 C 537.875 329.535156 539.1875 328.976562 540.488281 328.394531 C 541.183594 328.082031 541.78125 327.167969 541.972656 326.46875 C 542.1875 325.695312 542.089844 324.671875 541.648438 323.984375 C 541.203125 323.296875 540.539062 322.691406 539.71875 322.503906 C 539.429688 322.464844 539.144531 322.425781 538.859375 322.390625 C 538.277344 322.390625 537.734375 322.539062 537.230469 322.832031 C 536.832031 323.007812 536.429688 323.183594 536.027344 323.355469 C 534.359375 324.039062 532.664062 324.644531 530.945312 325.167969 C 532 323.347656 533.046875 321.523438 534.09375 319.695312 C 536.753906 315.050781 539.390625 310.390625 542.023438 305.730469 C 544.691406 301.011719 547.355469 296.292969 550.039062 291.585938 C 552.460938 287.335938 554.890625 283.09375 557.375 278.878906 C 560.359375 273.8125 563.78125 268.667969 564.894531 262.796875 C 565.457031 259.839844 565.464844 256.824219 564.691406 253.898438 Z M 564.691406 253.898438 " fill-opacity="1" fill-rule="nonzero"/></g></svg>