<svg xmlns="http://www.w3.org/2000/svg" xmlns:xlink="http://www.w3.org/1999/xlink" zoomAndPan="magnify" preserveAspectRatio="xMidYMid meet" version="1.0" viewBox="434.68 279.19 155.36 18"><defs><clipPath id="664b233ea7"><path d="M 557 279.195312 L 558 279.195312 L 558 280 L 557 280 Z M 557 279.195312 " clip-rule="nonzero"/></clipPath><clipPath id="7fd53ba8d6"><path d="M 519 279.195312 L 521 279.195312 L 521 280 L 519 280 Z M 519 279.195312 " clip-rule="nonzero"/></clipPath><clipPath id="edd16908aa"><path d="M 434.679688 279.195312 L 590.039062 279.195312 L 590.039062 297.195312 L 434.679688 297.195312 Z M 434.679688 279.195312 " clip-rule="nonzero"/></clipPath></defs><path fill="#37a75b" d="M 527.90625 291.785156 L 527.835938 291.851562 L 527.90625 291.785156 " fill-opacity="1" fill-rule="nonzero"/><path fill="#37a75b" d="M 531.109375 286.417969 L 531.488281 286.40625 C 531.238281 286.398438 531.144531 286.402344 531.109375 286.417969 " fill-opacity="1" fill-rule="nonzero"/><path fill="#37a75b" d="M 508.578125 292.734375 L 508.625 292.71875 C 508.328125 292.722656 507.921875 292.730469 507.265625 292.742188 L 508.578125 292.734375 " fill-opacity="1" fill-rule="nonzero"/><path fill="#37a75b" d="M 492.292969 288.59375 L 491.863281 288.636719 C 492.058594 288.617188 492.183594 288.613281 492.292969 288.59375 " fill-opacity="1" fill-rule="nonzero"/><path fill="#37a75b" d="M 503.042969 286.207031 C 502.914062 286.234375 502.703125 286.246094 502.496094 286.253906 C 502.757812 286.253906 502.96875 286.253906 503.042969 286.207031 " fill-opacity="1" fill-rule="nonzero"/><path fill="#37a75b" d="M 504.988281 293.039062 L 504.441406 292.945312 C 504.453125 292.984375 504.640625 293.027344 504.988281 293.039062 " fill-opacity="1" fill-rule="nonzero"/><path fill="#37a75b" d="M 524.289062 295.105469 L 524.246094 295.074219 L 524.289062 295.105469 " fill-opacity="1" fill-rule="nonzero"/><path fill="#37a75b" d="M 516.890625 293.21875 C 516.726562 293.207031 516.535156 293.191406 516.339844 293.171875 C 516.570312 293.207031 516.863281 293.25 516.890625 293.21875 " fill-opacity="1" fill-rule="nonzero"/><path fill="#37a75b" d="M 516.082031 293.160156 C 516.164062 293.164062 516.253906 293.167969 516.339844 293.171875 C 516.199219 293.15625 516.078125 293.144531 516.082031 293.160156 " fill-opacity="1" fill-rule="nonzero"/><path fill="#37a75b" d="M 437.734375 281.609375 C 437.171875 281.625 436.691406 281.710938 436.191406 281.777344 L 437.734375 281.609375 " fill-opacity="1" fill-rule="nonzero"/><path fill="#37a75b" d="M 554.320312 287.039062 L 554.195312 287.074219 C 554.3125 287.066406 554.332031 287.050781 554.320312 287.039062 " fill-opacity="1" fill-rule="nonzero"/><path fill="#37a75b" d="M 437.0625 282.386719 L 436.664062 282.382812 C 436.808594 282.394531 436.9375 282.394531 437.0625 282.386719 " fill-opacity="1" fill-rule="nonzero"/><path fill="#37a75b" d="M 508.714844 291.21875 C 509.277344 291.121094 510.433594 291.183594 510.421875 291.105469 C 509.824219 291.136719 508.980469 291.09375 508.714844 291.21875 " fill-opacity="1" fill-rule="nonzero"/><path fill="#37a75b" d="M 437.0625 282.386719 L 437.523438 282.390625 L 437.382812 282.351562 C 437.28125 282.367188 437.175781 282.382812 437.0625 282.386719 " fill-opacity="1" fill-rule="nonzero"/><path fill="#37a75b" d="M 560.476562 280.023438 L 560.5 280.027344 L 560.632812 280.015625 Z M 560.476562 280.023438 " fill-opacity="1" fill-rule="nonzero"/><g clip-path="url(#664b233ea7)"><path fill="#37a75b" d="M 557.03125 279.746094 C 557.273438 279.746094 557.507812 279.746094 557.765625 279.746094 C 557.378906 279.722656 557.171875 279.730469 557.03125 279.746094 " fill-opacity="1" fill-rule="nonzero"/></g><path fill="#37a75b" d="M 436.191406 281.777344 L 435.304688 281.878906 C 435.621094 281.855469 435.914062 281.820312 436.191406 281.777344 " fill-opacity="1" fill-rule="nonzero"/><g clip-path="url(#7fd53ba8d6)"><path fill="#37a75b" d="M 519.902344 279.339844 C 520.023438 279.335938 520.136719 279.332031 520.246094 279.328125 C 520.097656 279.328125 519.984375 279.332031 519.902344 279.339844 " fill-opacity="1" fill-rule="nonzero"/></g><path fill="#37a75b" d="M 505.660156 286.246094 C 505.746094 286.253906 505.859375 286.257812 505.960938 286.261719 C 505.992188 286.246094 505.972656 286.230469 505.660156 286.246094 " fill-opacity="1" fill-rule="nonzero"/><path fill="#37a75b" d="M 480.179688 289.445312 L 480.167969 289.449219 Z M 480.179688 289.445312 " fill-opacity="1" fill-rule="nonzero"/><path fill="#37a75b" d="M 481.519531 289.222656 C 481.097656 289.242188 480.496094 289.355469 480.179688 289.445312 C 480.605469 289.40625 481 289.355469 481.519531 289.222656 " fill-opacity="1" fill-rule="nonzero"/><path fill="#37a75b" d="M 477.300781 287.625 L 477.171875 287.632812 L 477.410156 289.703125 L 477.4375 289.703125 L 477.410156 289.703125 L 477.171875 287.632812 L 477.300781 287.625 " fill-opacity="1" fill-rule="nonzero"/><path fill="#37a75b" d="M 504.636719 288.632812 L 504.636719 288.625 L 504.621094 288.632812 Z M 504.636719 288.632812 " fill-opacity="1" fill-rule="nonzero"/><path fill="#37a75b" d="M 499.195312 288.691406 C 499.101562 288.679688 498.964844 288.667969 498.824219 288.660156 C 498.914062 288.679688 499.039062 288.6875 499.195312 288.691406 " fill-opacity="1" fill-rule="nonzero"/><path fill="#37a75b" d="M 490.78125 285.933594 L 490.773438 285.9375 L 490.800781 285.933594 Z M 490.78125 285.933594 " fill-opacity="1" fill-rule="nonzero"/><g clip-path="url(#edd16908aa)"><path fill="#37a75b" d="M 542.21875 283.421875 C 537.050781 283.457031 530.355469 283.503906 525.238281 283.542969 C 524.121094 283.730469 522.492188 283.757812 520.859375 283.824219 L 520.683594 283.597656 L 519.320312 283.703125 C 518.765625 283.644531 520.371094 283.632812 519.382812 283.566406 L 518.871094 283.726562 C 518.765625 283.636719 515.367188 283.769531 517.652344 283.535156 L 512.347656 283.71875 C 511.175781 283.761719 511.671875 283.941406 510.371094 283.945312 C 510.105469 283.886719 510.835938 283.875 510.726562 283.796875 C 506.820312 283.824219 506.253906 284.484375 502.628906 284.636719 L 502.933594 284.585938 C 502.628906 284.636719 502.179688 284.679688 501.8125 284.71875 C 501.441406 284.761719 501.144531 284.789062 501.136719 284.804688 C 501.621094 285.003906 501.777344 284.625 502.890625 284.683594 C 502.808594 284.886719 501.527344 284.894531 501.605469 285.039062 C 500.757812 285.035156 500.269531 285.179688 499.53125 285.253906 C 498.265625 285.234375 496.472656 285.484375 495.511719 285.417969 C 494.902344 285.535156 494.234375 285.789062 492.914062 285.925781 C 491.957031 285.863281 493.125 285.753906 491.832031 285.824219 L 491.632812 285.960938 C 490.578125 286.046875 490.738281 285.996094 490.773438 285.9375 C 489.644531 286.050781 489.851562 286.191406 488.429688 286.261719 L 489.207031 286.070312 C 488.164062 286.222656 487.738281 286.25 486.277344 286.390625 C 486.304688 286.320312 486.886719 286.265625 487.320312 286.242188 C 486.507812 286.152344 485.972656 286.457031 485.542969 286.484375 C 485.671875 286.519531 486.683594 286.4375 486.199219 286.601562 C 485.476562 286.65625 484.679688 286.917969 484.148438 286.839844 L 484.921875 286.644531 C 483.425781 286.894531 484.132812 286.875 482.402344 287.019531 C 482.496094 287 482.449219 286.976562 482.480469 286.949219 C 481.402344 287.210938 479.960938 287.238281 478.347656 287.40625 L 478.648438 287.339844 C 478 287.457031 477.652344 287.59375 477.300781 287.625 C 478.230469 287.589844 477.984375 287.652344 478.078125 287.75 C 477.75 287.734375 477.46875 287.761719 477.191406 287.804688 L 477.386719 289.535156 C 478.148438 289.417969 478.855469 289.132812 480.320312 289.070312 C 480.289062 289.136719 479.824219 289.261719 479.273438 289.257812 C 478.636719 289.511719 478.554688 289.683594 477.429688 289.894531 L 477.152344 287.441406 L 477.21875 287.425781 L 477.152344 287.4375 L 477.429688 289.898438 C 478.15625 289.777344 478.976562 289.667969 478.804688 289.769531 L 479.015625 289.5625 C 479.46875 289.515625 479.828125 289.480469 480.167969 289.449219 C 480.351562 289.3125 479.234375 289.351562 480.28125 289.175781 C 481.460938 289.011719 480.929688 289.304688 481.105469 289.203125 C 482.734375 288.996094 481.765625 288.941406 483.34375 288.882812 C 483.191406 288.910156 482.882812 288.960938 482.75 288.957031 C 483.882812 288.949219 485.523438 288.722656 485.867188 288.925781 C 485.703125 288.984375 485.679688 289.046875 485.246094 289.0625 L 485.261719 289.023438 C 484.03125 289.265625 486.296875 288.914062 485.917969 289.136719 C 485.824219 289.023438 487.417969 288.964844 488.136719 288.941406 L 487.902344 288.824219 C 490.269531 288.3125 487.785156 289.089844 490.144531 288.9375 C 491.636719 288.78125 489.574219 288.925781 490.492188 288.789062 C 491.503906 288.765625 491.886719 288.882812 493.367188 288.773438 C 493.78125 288.8125 494.625 288.867188 494.703125 289.011719 C 495.601562 288.933594 497.441406 289.015625 497.949219 288.871094 C 496.40625 288.765625 496.417969 289.054688 494.609375 288.898438 L 495.113281 288.746094 C 496.363281 288.71875 497.957031 288.617188 498.824219 288.660156 C 498.648438 288.636719 498.570312 288.601562 498.679688 288.566406 C 500.457031 288.488281 500.972656 288.339844 502.703125 288.367188 C 502.933594 288.496094 501.917969 288.484375 501.179688 288.503906 C 502.296875 288.601562 502.347656 288.5 504.082031 288.535156 C 504.171875 288.648438 502.914062 288.535156 502.714844 288.648438 L 504.636719 288.601562 L 504.636719 288.625 C 504.914062 288.425781 506.101562 288.636719 507.277344 288.574219 C 510.0625 288.570312 510.488281 288.308594 512.03125 288.148438 C 512.449219 288.199219 512.566406 288.25 512.390625 288.296875 C 511.707031 288.214844 511.828125 288.285156 511.589844 288.332031 C 512.53125 288.308594 513.652344 288.519531 513.125 288.597656 C 514.621094 288.539062 512.585938 288.496094 513.503906 288.433594 L 515.550781 288.433594 C 515.308594 288.339844 514.585938 288.320312 515.644531 288.238281 C 516.539062 288.207031 516.972656 288.222656 518.140625 288.21875 C 517.972656 288.269531 518.511719 288.363281 517.632812 288.367188 C 518.199219 288.398438 519.082031 288.398438 519.425781 288.296875 C 518.140625 288.226562 521.519531 288.175781 520.5625 288.039062 L 521.84375 288.105469 C 521.550781 288.109375 521.519531 288.175781 521.089844 288.164062 C 521.457031 288.308594 522.136719 288.105469 522.574219 288.085938 C 523.019531 288.105469 524.183594 288.125 524.273438 288.183594 C 524.675781 288.140625 525.65625 288.191406 525.835938 288.273438 C 526.4375 288.25 525.886719 288.171875 526.0625 288.128906 L 528.097656 288.195312 C 528.199219 288.285156 528.363281 288.519531 528.058594 288.542969 C 528.824219 288.488281 528.339844 288.300781 529.5 288.355469 C 528.824219 288.488281 531.03125 288.546875 530.054688 288.695312 C 530.714844 288.839844 532.609375 288.925781 533.652344 288.949219 C 534.304688 288.867188 532.527344 288.808594 532.601562 288.683594 C 535.535156 288.808594 535.742188 288.472656 537.882812 288.710938 L 537.332031 288.625 C 538.679688 288.667969 538.523438 288.679688 539.316406 288.640625 C 538.925781 288.769531 540.800781 289.203125 542.941406 289.511719 C 543.140625 289.457031 541.765625 289.171875 542.132812 289.097656 L 543.566406 289.304688 C 543.667969 289.339844 543.507812 289.332031 543.320312 289.324219 C 544.101562 289.425781 544.757812 289.675781 545.210938 289.839844 L 545.347656 288.316406 C 544.996094 288.347656 544.730469 288.382812 544.59375 288.480469 L 543.234375 288.425781 L 543.773438 288.453125 C 543.601562 288.558594 542.136719 288.777344 541.835938 288.84375 C 540.347656 289.125 539.796875 289.125 538.964844 289.117188 C 539.230469 289.152344 539.902344 289.226562 538.722656 289.390625 C 538.703125 289.128906 536.234375 289.582031 536.253906 289.441406 C 535.777344 289.496094 534.921875 289.511719 534.875 289.625 L 534.941406 289.449219 C 534.855469 289.695312 533.109375 289.863281 531.78125 290.039062 C 532.054688 289.703125 530.320312 290.203125 529.703125 289.976562 C 529.46875 290.214844 527.34375 290.269531 527.121094 290.472656 C 526.09375 290.570312 526.179688 290.363281 525.914062 290.316406 L 525.441406 290.433594 C 524.914062 290.378906 522.984375 290.515625 521.832031 290.523438 L 520.777344 290.785156 L 520.375 290.722656 C 520.203125 290.78125 519.320312 290.863281 519.875 290.898438 L 519.296875 290.921875 C 519.261719 291.125 518.492188 291.035156 517.332031 291.179688 C 517.066406 291.164062 517.132812 291.109375 517.382812 291.070312 C 516.804688 291.101562 517.046875 290.980469 516.730469 290.929688 C 517.144531 290.960938 514.671875 291.40625 516.230469 291.417969 C 516.339844 291.492188 515.4375 291.605469 514.863281 291.59375 L 514.511719 291.425781 L 513.839844 291.648438 C 512.949219 291.710938 512.566406 291.617188 511.84375 291.617188 C 512.578125 291.578125 513.46875 291.207031 511.566406 291.277344 C 512.566406 291.222656 513.050781 291.09375 513.566406 291.035156 C 513.171875 291.046875 512.976562 291.035156 513.585938 290.929688 C 512.101562 291.050781 513.09375 291.070312 511.625 291.144531 C 511.699219 290.980469 511.289062 290.9375 510.003906 290.925781 L 510.96875 291.015625 L 510.785156 291.0625 C 511.148438 291.070312 511.253906 291.09375 511.332031 291.152344 C 511.042969 291.160156 509.632812 291.417969 509.386719 291.320312 C 510.871094 291.539062 506.808594 291.582031 507.753906 291.710938 C 507.589844 291.765625 506.558594 291.796875 506.453125 291.710938 C 507.683594 291.570312 505.523438 291.539062 505.722656 291.421875 C 505.265625 291.476562 506.691406 291.53125 506.070312 291.601562 C 505.339844 291.621094 504.800781 291.527344 504.390625 291.484375 L 504.699219 291.445312 L 503.5625 291.378906 C 503.378906 291.460938 504.660156 291.515625 503.617188 291.558594 C 503.34375 291.527344 502.296875 291.574219 502.332031 291.507812 C 502.824219 291.394531 502.46875 291.242188 503.351562 291.214844 C 502.992188 291.222656 502.238281 291.242188 501.683594 291.253906 L 501.683594 293.292969 C 502.261719 293.269531 502.628906 293.226562 502.148438 293.148438 L 503.027344 293.15625 C 502.472656 293.085938 500.929688 292.957031 502.695312 292.9375 L 502.679688 292.96875 L 503.90625 292.851562 L 504.441406 292.945312 C 504.425781 292.902344 504.621094 292.867188 505.074219 292.878906 C 505.191406 292.925781 505.621094 292.957031 505.582031 293.023438 C 506.902344 293.046875 506.796875 292.964844 506.972656 292.917969 C 507.707031 292.929688 507.984375 292.980469 507.636719 293.0625 C 508.640625 293.117188 510.398438 293.195312 511.078125 293.335938 C 512.425781 293.367188 510.804688 293.28125 511.597656 293.230469 C 512.742188 293.585938 516.015625 293.746094 518.183594 294.09375 C 517.636719 293.742188 518.777344 294.171875 519.214844 294.015625 C 518.738281 293.996094 521.222656 294.597656 519.324219 294.304688 C 519.714844 294.359375 520.09375 294.4375 520.480469 294.503906 C 521.234375 294.796875 518.5625 294.226562 519.714844 294.644531 C 520.992188 294.894531 521.894531 294.808594 523.367188 295.273438 C 522.828125 295.316406 524.53125 295.523438 524.109375 295.613281 C 523.78125 295.59375 523.375 295.464844 522.953125 295.367188 L 523.203125 295.46875 C 525.949219 296.261719 524.0625 295.472656 525.535156 295.777344 C 527.226562 296.253906 526.8125 296.328125 526.886719 296.429688 C 527.128906 296.550781 527.976562 296.792969 528.421875 296.914062 C 527.382812 296.660156 526.589844 296.175781 527.089844 296.222656 C 527.765625 296.640625 529.535156 297.101562 530.015625 297.195312 C 527.734375 296.125 528.394531 296.574219 526.222656 295.625 C 525.886719 295.59375 525.890625 295.773438 524.554688 295.308594 C 525.433594 295.457031 524.527344 295.195312 524.289062 295.105469 C 524.523438 295.277344 523.328125 294.882812 522.898438 294.828125 C 522.535156 294.65625 523.78125 294.789062 522.390625 294.417969 L 522.074219 294.59375 C 521.535156 294.433594 522.347656 294.46875 521.164062 294.261719 C 521.828125 294.273438 521.015625 294.019531 522.609375 294.351562 C 520.769531 293.691406 519.671875 293.832031 518.179688 293.660156 C 518.332031 293.667969 518.355469 293.640625 518.507812 293.652344 C 518.179688 293.65625 517.609375 293.558594 517.164062 293.511719 C 516.1875 293.308594 517.960938 293.519531 517.714844 293.410156 L 516.117188 293.183594 L 516.082031 293.160156 C 515.65625 293.144531 515.25 293.113281 515.109375 293.035156 C 515.597656 293.015625 515.792969 292.960938 516.125 292.933594 L 514.417969 292.898438 C 514.617188 292.835938 513.039062 292.617188 514.25 292.679688 C 513.414062 292.605469 512.578125 292.527344 511.742188 292.480469 L 511.546875 292.300781 C 510.941406 292.28125 510.921875 292.3125 511.640625 292.386719 C 510.785156 292.261719 507.820312 292.453125 508.289062 292.152344 C 506.3125 292.207031 505.601562 292.140625 503.214844 292.199219 C 505.050781 292.054688 501.113281 292.003906 503.058594 291.9375 C 502.398438 291.890625 502.039062 291.9375 501.679688 291.984375 L 501.679688 292.570312 C 501.941406 292.53125 502.199219 292.492188 502.578125 292.480469 C 503.417969 292.550781 503.042969 292.710938 502.132812 292.773438 L 503.203125 292.699219 L 503.179688 292.730469 L 504.113281 292.636719 C 505.097656 292.714844 504.320312 292.796875 505.339844 292.808594 L 505.558594 292.660156 L 506.25 292.734375 C 505.988281 292.671875 506.589844 292.636719 507.328125 292.609375 L 507.3125 292.644531 L 508.210938 292.59375 C 507.324219 292.707031 509.03125 292.605469 508.625 292.71875 C 509.394531 292.707031 509.410156 292.710938 510.792969 292.636719 L 510.546875 292.542969 C 512.351562 292.394531 510.628906 292.691406 512.09375 292.648438 L 511.996094 292.535156 C 514.109375 292.648438 515.5625 292.273438 517.125 292.316406 C 516.234375 292.386719 516.464844 292.511719 516.484375 292.476562 C 517.820312 292.371094 520.007812 292.261719 521.382812 292.03125 C 521.898438 292.164062 522.019531 292.203125 523.453125 292.179688 C 524.484375 292.089844 524.640625 292.0625 524.96875 291.941406 C 525.976562 291.929688 527.847656 291.671875 527.90625 291.785156 C 528.128906 291.667969 528.8125 291.726562 529.351562 291.597656 L 529.472656 291.632812 L 529.378906 291.527344 C 531.175781 291.621094 532.359375 291.101562 534.167969 291.132812 L 533.867188 291.195312 L 534.613281 291.074219 C 534.738281 291.109375 534.4375 291.175781 534.40625 291.242188 L 537.90625 290.875 L 537.210938 290.867188 C 537.945312 290.777344 538.425781 290.601562 539.273438 290.574219 C 537.898438 290.910156 540.4375 290.445312 540.679688 290.542969 L 539.933594 290.679688 C 540.957031 290.546875 540.957031 290.542969 540.855469 290.4375 C 542.179688 290.230469 541.792969 290.542969 543.003906 290.265625 L 542.132812 290.367188 C 541.863281 290.335938 542.484375 290.160156 543.0625 290.085938 C 543.203125 290.085938 543.621094 290.085938 543.179688 290.15625 C 543.902344 290.027344 544.878906 289.914062 545.554688 289.824219 L 545.6875 288.398438 C 545.367188 288.304688 545.109375 288.238281 544.957031 288.214844 C 544.382812 288.042969 544.59375 288.007812 544.914062 288.046875 C 543.761719 287.851562 543.503906 287.804688 543.246094 287.761719 C 542.988281 287.714844 542.730469 287.65625 541.589844 287.554688 L 541.636719 287.496094 L 540.851562 287.476562 L 539.757812 287.210938 L 540.148438 287.339844 C 539.402344 287.269531 538.9375 287.277344 538.078125 287.152344 L 538.433594 287.089844 C 536.339844 286.960938 536.027344 286.722656 534.03125 286.730469 C 533.894531 286.703125 534.207031 286.695312 534.367188 286.6875 C 532.515625 286.726562 532.988281 286.429688 531.117188 286.515625 C 531.234375 286.492188 531.035156 286.441406 531.109375 286.417969 L 530.261719 286.445312 L 530.332031 286.316406 L 529.636719 286.480469 L 529.121094 286.324219 L 528.789062 286.378906 C 527.894531 286.089844 526.613281 286.242188 525.378906 286.035156 L 525.589844 286.203125 C 522.441406 286.480469 518.46875 286.097656 514.738281 286.246094 L 514.800781 286.113281 L 513.261719 286.273438 C 512.433594 286.175781 513.757812 286.160156 513.5 286.09375 C 511.847656 286.171875 512.8125 286.289062 510.890625 286.332031 C 509.90625 286.246094 511.234375 286.238281 511.695312 286.1875 C 509.898438 286.253906 507.238281 286.332031 505.960938 286.261719 L 505.917969 286.3125 C 504.714844 286.378906 503.128906 286.320312 501.804688 286.34375 C 501.835938 286.28125 502.164062 286.269531 502.496094 286.253906 C 502.015625 286.253906 501.363281 286.214844 500.957031 286.28125 L 501.457031 286.164062 C 500.4375 286.144531 498.480469 286.273438 498.246094 286.144531 C 498.371094 286.195312 498.320312 286.296875 497.441406 286.304688 C 496.953125 286.105469 495.046875 286.4375 493.632812 286.363281 C 493.800781 286.308594 494.835938 286.273438 494.546875 286.277344 C 493.835938 286.238281 493.199219 286.355469 492.578125 286.4375 L 492.769531 286.351562 L 489.476562 286.582031 C 488.976562 286.394531 486.371094 286.765625 486.585938 286.613281 C 485.40625 286.671875 487.578125 286.644531 486.09375 286.753906 C 485.6875 286.6875 484.746094 286.875 484.804688 286.742188 L 484.960938 286.714844 L 483.921875 286.800781 L 484.570312 286.625 C 483.675781 286.714844 483.027344 286.890625 482.988281 286.992188 C 482.136719 286.980469 480.933594 287.152344 480.539062 287.070312 L 480.851562 287.011719 C 479.394531 287.160156 478.230469 287.171875 477.113281 287.21875 L 477.445312 290.121094 C 478.140625 290.085938 478.816406 290.019531 479.523438 289.851562 C 479.664062 289.855469 479.652344 289.890625 479.363281 289.921875 L 480.820312 289.769531 L 480.484375 289.902344 L 482.875 289.488281 L 482.855469 289.558594 C 484.449219 289.410156 486.929688 289.109375 488.972656 288.875 L 488.675781 288.9375 C 490.898438 288.609375 490.835938 288.78125 492.460938 288.550781 L 492.292969 288.59375 L 493.761719 288.445312 L 493.441406 288.542969 C 494.519531 288.296875 496.570312 288.433594 495.890625 288.375 C 496.5 288.257812 497.550781 288.089844 497.726562 287.992188 C 499.332031 287.847656 498.125 288.042969 499.125 288.015625 C 500.285156 287.921875 500.480469 287.792969 502.058594 287.730469 L 502.03125 287.796875 C 502.761719 287.730469 503.21875 287.65625 504.242188 287.570312 L 503.9375 287.621094 C 505.601562 287.371094 506.035156 287.671875 507.328125 287.308594 C 508.03125 287.316406 509.359375 287.210938 509.304688 287.339844 C 511.378906 287.144531 513 287.039062 515.066406 286.910156 C 515.40625 287.117188 515.511719 286.882812 516.773438 286.96875 L 516.675781 286.855469 C 519.609375 286.75 522.976562 286.976562 526.207031 286.902344 L 526.300781 287.019531 L 526.945312 286.890625 C 530.433594 286.925781 534.941406 286.976562 537.71875 287.007812 C 538.628906 286.957031 540.015625 286.828125 541.460938 286.886719 L 541.3125 286.898438 C 543.832031 286.859375 546.496094 286.84375 549.246094 286.949219 C 549.074219 286.992188 549.351562 287.03125 549.042969 287.058594 C 549.695312 286.941406 550.65625 287.074219 551.242188 287.082031 L 550.554688 286.988281 C 551.339844 286.890625 552.460938 287.007812 552.855469 287.097656 L 554.097656 286.988281 L 554.320312 287.039062 L 554.539062 286.980469 L 555.195312 287.144531 C 555.503906 287.117188 557.140625 287.097656 557.652344 286.957031 C 557.769531 287.011719 558.929688 287.066406 558.035156 287.082031 L 562.550781 287.183594 L 561.847656 287.121094 C 561.757812 287.003906 563.117188 286.949219 563.820312 287.011719 C 562.898438 287.089844 563.746094 287.171875 564.136719 287.265625 C 564.75 287.210938 563.605469 287.152344 563.925781 287.09375 C 564.703125 287.027344 566.335938 287.007812 566.742188 287.066406 L 566.28125 287.105469 C 567.328125 287.078125 567.8125 287.28125 568.847656 287.285156 C 569.777344 287.207031 570.457031 287.300781 570.269531 287.097656 C 571.613281 287.078125 570.789062 287.242188 571.21875 287.269531 C 571.851562 287.179688 573.726562 287.265625 573.964844 287.367188 C 574.703125 287.085938 577.578125 287.519531 577.855469 287.277344 L 578.953125 287.429688 C 578.988281 287.363281 579.210938 287.21875 580.105469 287.207031 C 580.941406 287.285156 580.742188 287.402344 581 287.46875 L 581.566406 287.230469 C 583.960938 287.394531 586.738281 287.453125 589.570312 287.503906 L 590.039062 284.402344 C 587.210938 283.542969 584.273438 282.839844 581.609375 282.214844 C 579.234375 281.796875 576.222656 281.425781 573.441406 281.070312 L 573.753906 281.074219 C 572.835938 280.929688 571.914062 280.824219 570.996094 280.695312 L 572.992188 281.027344 C 572.382812 280.988281 571.90625 280.984375 571.324219 280.917969 C 568.300781 280.496094 564.246094 280.066406 560.5 280.027344 C 558.066406 280.203125 558.902344 279.703125 556.578125 279.824219 C 556.777344 279.804688 556.851562 279.769531 557.03125 279.746094 C 554.53125 279.75 553.179688 279.765625 550.683594 279.867188 C 550.976562 279.601562 549.0625 279.84375 549.289062 279.699219 L 549.078125 279.808594 C 548.527344 279.730469 547.222656 279.675781 547.414062 279.601562 L 546.3125 279.71875 L 546.21875 279.601562 C 544.761719 279.550781 541.628906 279.601562 540.867188 279.351562 C 537.253906 279.46875 531.558594 279.351562 527.03125 279.289062 C 526.394531 279.382812 525.070312 279.386719 524.039062 279.390625 L 522.9375 279.246094 C 521.886719 279.285156 520.769531 279.464844 519.789062 279.375 L 519.902344 279.339844 C 518.839844 279.367188 517.820312 279.296875 516.824219 279.425781 C 515.65625 279.417969 514.515625 279.347656 514.875 279.21875 C 514.761719 279.445312 512.394531 279.199219 512.394531 279.199219 C 512.394531 279.199219 497.371094 279.113281 480.53125 279.527344 C 463.6875 279.910156 445.03125 280.726562 437.734375 281.609375 C 437.25 281.738281 435.890625 281.859375 436.417969 281.976562 C 435.367188 282.058594 434.875 281.875 434.679688 281.996094 C 436.109375 282.019531 434.246094 282.304688 435.648438 282.398438 L 434.75 282.457031 C 434.570312 282.542969 435.96875 282.320312 435.75 282.476562 L 435.996094 282.253906 C 436.726562 282.261719 437.125 282.289062 437.382812 282.351562 C 438.0625 282.246094 438.488281 281.945312 440.125 282.011719 L 439.671875 282.039062 C 441 281.984375 440.492188 282.152344 440.769531 282.171875 L 440.476562 282.183594 L 441.597656 282.25 C 440.746094 282.210938 439.355469 282.429688 440.085938 282.390625 C 441.671875 282.394531 439.675781 282.351562 440.859375 282.289062 C 441.597656 282.25 441.394531 282.371094 441.367188 282.4375 L 442.6875 282.382812 C 442.644531 282.480469 441.808594 282.410156 442.351562 282.492188 L 444.011719 282.332031 C 444.332031 282.570312 445.828125 282.152344 446.59375 282.359375 C 445.398438 282.460938 446.707031 282.4375 446.519531 282.527344 L 449.457031 282.414062 C 449.734375 282.4375 448.683594 282.515625 449.128906 282.488281 C 449.6875 282.539062 450.039062 282.398438 450.335938 282.390625 C 450.589844 282.449219 452.527344 282.316406 452.453125 282.484375 C 454.449219 282.535156 453.285156 282.25 455.144531 282.285156 C 455.394531 282.375 453.671875 282.351562 454.5 282.429688 L 456.425781 282.335938 C 456.25 282.386719 456.050781 282.507812 455.332031 282.507812 C 460.542969 282.480469 463.367188 282.925781 468.125 282.664062 C 468.796875 282.761719 467.644531 282.753906 467.167969 282.847656 C 470.609375 282.59375 472.023438 282.976562 474.957031 282.890625 L 475.007812 282.792969 C 479.109375 282.992188 484.03125 282.703125 488.65625 282.746094 L 488.101562 282.6875 C 488.734375 282.582031 489.765625 282.550781 490.523438 282.492188 C 490.640625 282.542969 489.976562 282.714844 491.316406 282.652344 C 491.039062 282.617188 490.472656 282.59375 490.640625 282.542969 C 494.617188 282.722656 503 282.542969 509.527344 282.625 C 518.355469 282.484375 527.929688 282.695312 536.589844 282.738281 C 535.273438 282.738281 535.835938 282.496094 536.832031 282.566406 C 539.550781 283.019531 541.554688 282.5625 544.332031 282.894531 C 549.382812 282.867188 553.882812 283.308594 558.566406 283.183594 L 558.648438 283.300781 C 559.34375 283.382812 559.535156 283.3125 560.269531 283.332031 L 560.25 283.363281 C 561.980469 283.484375 564.074219 283.496094 565.058594 283.617188 L 565.132812 283.492188 C 566.15625 283.550781 565.652344 283.632812 566.707031 283.632812 L 566.675781 283.695312 L 567.90625 283.667969 C 567.765625 283.886719 570.785156 283.941406 571.585938 284.148438 C 572.90625 284.234375 575.410156 284.46875 577.382812 284.820312 C 577.730469 284.992188 580.152344 285.394531 581.667969 285.769531 C 583.75 286.179688 586.441406 286.773438 589.101562 287.570312 L 589.613281 284.203125 C 588.390625 284.179688 587.164062 284.15625 585.976562 284.136719 L 586.046875 284.285156 L 585.015625 284.28125 C 585.03125 284.25 584.894531 284.230469 585.050781 284.214844 C 584.253906 284.035156 582.679688 284.238281 581.851562 284.125 C 582.371094 284.265625 582.574219 284.152344 583.160156 284.164062 C 584 284.246094 583.191406 284.378906 582.054688 284.289062 L 582.078125 284.261719 L 581.300781 284.328125 C 581.214844 284.207031 580.511719 284.144531 580.421875 284.027344 C 577.039062 284.015625 574.734375 284.1875 571.242188 284.085938 C 571.605469 283.960938 568.734375 284.085938 569.4375 283.871094 C 567.339844 283.929688 569.785156 284.058594 568.820312 284.207031 C 568.238281 284.195312 567.617188 284.246094 567.515625 284.160156 C 567.792969 284.113281 567.042969 284.015625 567.519531 284.007812 L 566.117188 284.003906 C 565.984375 283.984375 566.292969 283.957031 566.445312 283.945312 C 563.59375 284.039062 561.394531 283.734375 558.828125 283.832031 C 558.636719 283.910156 559.847656 283.867188 559.660156 283.949219 C 557.082031 284.078125 557.386719 283.769531 554.984375 283.859375 L 555.480469 283.753906 C 554.707031 283.820312 554.363281 283.910156 553.089844 283.804688 C 552.871094 283.667969 554.175781 283.710938 554.789062 283.65625 C 553.914062 283.636719 551.699219 283.644531 552.371094 283.773438 C 551.320312 283.804688 550.941406 283.683594 550.375 283.636719 C 550.355469 283.671875 551.355469 283.742188 550.738281 283.792969 C 549.308594 283.699219 547.101562 283.675781 545.359375 283.640625 C 545.375 283.609375 545.253906 283.558594 545.402344 283.542969 C 543.996094 283.699219 544.148438 283.402344 542.21875 283.421875 " fill-opacity="1" fill-rule="nonzero"/></g><path fill="#37a75b" d="M 505.34375 288.652344 L 504.636719 288.632812 C 504.636719 288.664062 504.605469 288.695312 504.28125 288.734375 L 505.34375 288.652344 " fill-opacity="1" fill-rule="nonzero"/><path fill="#37a75b" d="M 482.480469 286.949219 C 482.570312 286.929688 482.652344 286.910156 482.730469 286.886719 C 482.5625 286.910156 482.507812 286.929688 482.480469 286.949219 " fill-opacity="1" fill-rule="nonzero"/><path fill="#37a75b" d="M 490.550781 285.863281 C 489.972656 285.949219 490.492188 285.933594 490.78125 285.933594 C 490.789062 285.910156 490.773438 285.875 490.550781 285.863281 " fill-opacity="1" fill-rule="nonzero"/><path fill="#37a75b" d="M 524.273438 288.183594 C 524.152344 288.195312 524.078125 288.214844 524.097656 288.238281 C 524.261719 288.21875 524.300781 288.199219 524.273438 288.183594 " fill-opacity="1" fill-rule="nonzero"/><path fill="#37a75b" d="M 514.484375 291.011719 L 514.691406 291.023438 C 514.652344 291.011719 514.578125 291.011719 514.484375 291.011719 " fill-opacity="1" fill-rule="nonzero"/><path fill="#37a75b" d="M 517.382812 291.070312 C 517.523438 291.0625 517.707031 291.046875 517.96875 291.019531 C 517.714844 291.027344 517.53125 291.046875 517.382812 291.070312 " fill-opacity="1" fill-rule="nonzero"/><path fill="#37a75b" d="M 511.589844 288.332031 C 511.394531 288.339844 511.207031 288.351562 511.039062 288.375 C 511.339844 288.371094 511.492188 288.355469 511.589844 288.332031 " fill-opacity="1" fill-rule="nonzero"/><path fill="#37a75b" d="M 518.566406 290.953125 L 519.296875 290.921875 L 519.308594 290.898438 Z M 518.566406 290.953125 " fill-opacity="1" fill-rule="nonzero"/><path fill="#37a75b" d="M 513.566406 291.035156 C 513.855469 291.027344 514.234375 291.015625 514.484375 291.011719 C 514.121094 290.988281 513.835938 291 513.566406 291.035156 " fill-opacity="1" fill-rule="nonzero"/><path fill="#37a75b" d="M 543.320312 289.324219 L 543.242188 289.316406 C 542.679688 289.28125 543.03125 289.316406 543.320312 289.324219 " fill-opacity="1" fill-rule="nonzero"/><path fill="#37a75b" d="M 521.734375 290.523438 L 521.832031 290.523438 L 522.039062 290.472656 Z M 521.734375 290.523438 " fill-opacity="1" fill-rule="nonzero"/><path fill="#37a75b" d="M 510.421875 291.105469 C 510.558594 291.09375 510.6875 291.085938 510.785156 291.0625 C 510.671875 291.0625 510.539062 291.0625 510.371094 291.0625 L 510.421875 291.105469 " fill-opacity="1" fill-rule="nonzero"/><path fill="#37a75b" d="M 536.53125 289.300781 C 536.335938 289.375 536.261719 289.414062 536.253906 289.441406 C 536.496094 289.410156 536.644531 289.371094 536.53125 289.300781 " fill-opacity="1" fill-rule="nonzero"/></svg>