<svg xmlns="http://www.w3.org/2000/svg" xmlns:xlink="http://www.w3.org/1999/xlink" zoomAndPan="magnify" preserveAspectRatio="xMidYMid meet" version="1.0" viewBox="75.22 79 318.67 476.42"><defs><clipPath id="e369667b3c"><path d="M 75.21875 79 L 393.886719 79 L 393.886719 555.417969 L 75.21875 555.417969 Z M 75.21875 79 " clip-rule="nonzero"/></clipPath><clipPath id="3d89e4ae4c"><path d="M 75.21875 79 L 393.886719 79 L 393.886719 555.417969 L 75.21875 555.417969 Z M 75.21875 79 " clip-rule="nonzero"/></clipPath></defs><g clip-path="url(#e369667b3c)"><path fill="#37a75b" d="M 387.003906 539.914062 C 383.851562 539.914062 380.960938 539.910156 378.070312 539.917969 C 350.175781 539.984375 322.277344 540.113281 294.382812 540.097656 C 277.691406 540.089844 261 539.957031 244.3125 539.683594 C 234.992188 539.53125 225.683594 538.867188 216.363281 538.636719 C 206.574219 538.390625 196.777344 538.398438 186.980469 538.269531 C 161.046875 537.929688 135.113281 537.554688 109.175781 537.238281 C 100.402344 537.132812 91.625 537.175781 82.847656 537.148438 C 82.070312 537.144531 81.296875 537.148438 80.371094 537.148438 C 80.289062 536.535156 80.15625 536.023438 80.160156 535.511719 C 80.269531 510.085938 80.582031 484.660156 80.457031 459.238281 C 80.308594 428.253906 79.769531 397.273438 79.449219 366.289062 C 79.238281 346.257812 79.089844 326.226562 78.964844 306.195312 C 78.847656 287.734375 78.609375 269.265625 78.789062 250.804688 C 78.9375 235.628906 79.609375 220.457031 80.074219 205.285156 C 80.871094 179.316406 81.261719 153.34375 80.964844 127.363281 C 80.921875 123.617188 80.957031 119.871094 80.957031 115.898438 C 81.335938 115.84375 81.921875 115.691406 82.507812 115.679688 C 87.835938 115.570312 93.164062 115.496094 98.488281 115.386719 C 109.535156 115.164062 120.582031 114.703125 131.625 114.753906 C 144.316406 114.808594 157.003906 115.511719 169.691406 115.570312 C 182.539062 115.625 195.390625 115.390625 208.234375 114.996094 C 218.023438 114.691406 227.804688 114.25 237.605469 114.53125 C 258.757812 115.136719 279.914062 115.066406 301.070312 114.542969 C 310.703125 114.304688 320.339844 114.210938 329.976562 113.964844 C 339.0625 113.738281 348.144531 113.34375 357.230469 113.128906 C 367.644531 112.878906 378.0625 112.746094 388.480469 112.5625 C 389.011719 112.554688 389.542969 112.5625 390.339844 112.5625 C 390.339844 113.628906 390.355469 114.542969 390.339844 115.453125 C 389.917969 139.003906 389.363281 162.550781 389.097656 186.097656 C 388.765625 215.832031 388.539062 245.5625 388.5 275.296875 C 388.449219 315.046875 388.25 354.792969 387.253906 394.53125 C 386.398438 428.792969 385.933594 463.0625 386.011719 497.335938 C 386.039062 510.09375 386.15625 522.84375 386.992188 535.578125 C 387.078125 536.886719 387.003906 538.207031 387.003906 539.914062 Z M 81.640625 106.023438 C 91.980469 106.058594 102.324219 106.277344 112.65625 106.085938 C 132.863281 105.703125 153.066406 104.984375 173.273438 104.605469 C 193.324219 104.230469 213.378906 103.96875 233.4375 103.90625 C 249.257812 103.859375 265.082031 104.179688 280.90625 104.367188 C 295.398438 104.539062 309.890625 105.011719 324.378906 104.878906 C 345.53125 104.6875 366.675781 104.050781 387.828125 104.894531 C 388.65625 104.929688 389.488281 104.898438 390.558594 104.898438 C 390.558594 103.679688 390.566406 102.75 390.558594 101.824219 C 390.519531 96.816406 390.492188 91.8125 390.429688 86.804688 C 390.394531 83.789062 390.21875 83.625 387.277344 83.414062 C 387.042969 83.394531 386.808594 83.386719 386.574219 83.375 C 373.191406 82.597656 359.800781 82.515625 346.398438 82.597656 C 329.558594 82.703125 312.714844 82.832031 295.871094 82.769531 C 273.625 82.6875 251.375 82.375 229.128906 82.261719 C 208.445312 82.160156 187.761719 82.007812 167.082031 82.207031 C 139.273438 82.472656 111.46875 83.046875 83.660156 83.507812 C 82.507812 83.527344 81.359375 83.746094 79.878906 83.90625 C 80.140625 91.289062 80.394531 98.511719 80.65625 105.875 C 81.175781 105.957031 81.40625 106.023438 81.640625 106.023438 Z M 93.136719 100.355469 C 90.304688 100.308594 88.042969 98.050781 88.082031 95.308594 C 88.128906 91.972656 90.644531 89.410156 93.800781 89.476562 C 96.675781 89.539062 98.464844 91.609375 98.417969 94.804688 C 98.363281 98.246094 96.304688 100.410156 93.136719 100.355469 Z M 109.214844 88.125 C 112.378906 88.113281 114.863281 90.910156 114.785156 94.402344 C 114.71875 97.453125 111.839844 100.261719 108.84375 100.203125 C 105.914062 100.144531 103.472656 97.285156 103.46875 93.910156 C 103.464844 90.554688 105.863281 88.140625 109.214844 88.125 Z M 129.945312 94.160156 C 129.886719 97.636719 127.347656 100.328125 124.148438 100.292969 C 121.101562 100.257812 118.664062 97.367188 118.695312 93.828125 C 118.71875 90.90625 121.289062 88.625 124.535156 88.644531 C 127.757812 88.667969 129.996094 90.949219 129.945312 94.160156 Z M 80.089844 545.414062 C 80.167969 547.519531 80.339844 547.882812 82.425781 548.292969 C 86.105469 549.019531 89.8125 549.886719 93.535156 550.058594 C 110.125 550.824219 126.722656 551.53125 143.324219 551.9375 C 155.539062 552.238281 167.769531 552.070312 179.992188 552.054688 C 205.300781 552.023438 230.605469 551.890625 255.914062 551.925781 C 271.582031 551.949219 287.25 552.335938 302.921875 552.328125 C 329.558594 552.316406 356.199219 552.125 382.835938 552.007812 C 383.386719 552.007812 383.933594 551.996094 384.480469 551.976562 C 385.570312 551.945312 386.25 551.371094 386.480469 550.335938 C 387.023438 547.894531 387.246094 545.433594 386.988281 542.742188 C 386.257812 542.742188 385.652344 542.730469 385.046875 542.742188 C 380.582031 542.847656 376.121094 543.039062 371.65625 543.042969 C 341.882812 543.09375 312.109375 543.132812 282.335938 543.113281 C 270.582031 543.105469 258.828125 543.058594 247.082031 542.8125 C 236.898438 542.597656 226.730469 541.949219 216.546875 541.726562 C 203 541.433594 189.441406 541.363281 175.890625 541.203125 C 144.789062 540.839844 113.683594 540.480469 82.582031 540.117188 C 81.820312 540.109375 81.058594 540.117188 80.074219 540.117188 C 80.074219 542.011719 80.023438 543.714844 80.089844 545.414062 Z M 81.925781 112.953125 C 90.855469 112.777344 99.800781 112.839844 108.714844 112.359375 C 125.246094 111.46875 141.765625 111.9375 158.292969 112.210938 C 167.925781 112.371094 177.5625 112.707031 187.195312 112.601562 C 198 112.480469 208.800781 111.78125 219.609375 111.644531 C 230.261719 111.511719 240.917969 111.855469 251.570312 111.832031 C 272.644531 111.789062 293.71875 111.675781 314.792969 111.507812 C 321.21875 111.457031 327.636719 111.132812 334.058594 110.953125 C 342.984375 110.703125 351.910156 110.398438 360.839844 110.25 C 369.847656 110.101562 378.855469 110.113281 387.867188 110.046875 C 388.632812 110.042969 389.402344 109.957031 390.238281 109.902344 C 390.238281 109.109375 390.238281 108.472656 390.238281 107.714844 C 387.796875 107.714844 385.535156 107.71875 383.273438 107.714844 C 369.640625 107.683594 356.011719 107.632812 342.382812 107.628906 C 327.183594 107.621094 311.984375 107.761719 296.785156 107.636719 C 283.15625 107.527344 269.527344 106.914062 255.898438 106.917969 C 223.148438 106.933594 190.402344 106.871094 157.667969 108.1875 C 141.699219 108.832031 125.710938 108.960938 109.730469 109.152344 C 101.191406 109.25 92.652344 108.976562 84.113281 108.882812 C 82.976562 108.867188 81.839844 108.90625 80.703125 108.917969 C 80.703125 110.382812 80.703125 111.53125 80.703125 112.847656 C 81.308594 112.902344 81.617188 112.957031 81.925781 112.953125 Z M 106.097656 94.542969 C 106.089844 96.09375 107.550781 97.636719 109.015625 97.617188 C 110.65625 97.601562 112.179688 95.933594 112.152344 94.191406 C 112.125 92.292969 110.882812 90.890625 109.25 90.917969 C 107.40625 90.945312 106.113281 92.433594 106.097656 94.542969 Z M 124.179688 97.78125 C 125.902344 97.808594 127.460938 96.128906 127.484375 94.230469 C 127.503906 92.433594 126.378906 91.289062 124.605469 91.308594 C 122.597656 91.328125 121.296875 92.5625 121.3125 94.433594 C 121.332031 96.261719 122.613281 97.761719 124.179688 97.78125 Z M 391.800781 315.851562 C 391.386719 338.382812 390.980469 360.914062 390.554688 383.445312 C 390.308594 396.351562 389.914062 409.261719 389.785156 422.167969 C 389.476562 453.074219 389.25 483.984375 389.074219 514.890625 C 389.046875 520.046875 389.507812 525.207031 389.652344 530.367188 C 389.804688 535.605469 389.882812 540.847656 389.910156 546.085938 C 389.914062 547.484375 389.707031 548.898438 389.453125 550.28125 C 388.847656 553.59375 387.390625 554.839844 384.011719 554.898438 C 379.78125 554.96875 375.546875 554.957031 371.316406 554.980469 C 346.476562 555.117188 321.632812 555.351562 296.792969 555.355469 C 272.972656 555.363281 249.152344 555.058594 225.328125 555.027344 C 201.976562 554.996094 178.625 555.269531 155.273438 555.148438 C 141.40625 555.078125 127.539062 554.570312 113.679688 554.128906 C 106.554688 553.902344 99.429688 553.511719 92.324219 552.957031 C 88.671875 552.671875 85.023438 552.027344 81.4375 551.242188 C 77.503906 550.382812 76.75 549.382812 76.761719 545.429688 C 76.773438 539.875 77.035156 534.324219 77.0625 528.769531 C 77.152344 510.617188 77.324219 492.460938 77.207031 474.308594 C 76.984375 440.742188 76.566406 407.175781 76.257812 373.609375 C 76.039062 349.585938 75.832031 325.566406 75.6875 301.542969 C 75.585938 284.5625 75.3125 267.578125 75.617188 250.609375 C 76.050781 226.355469 77.03125 202.117188 77.617188 177.867188 C 78.109375 157.527344 78.328125 137.183594 77.703125 116.835938 C 77.597656 113.5 77.707031 110.15625 77.632812 106.816406 C 77.488281 100.40625 77.273438 93.996094 77.117188 87.585938 C 77.085938 86.417969 77.113281 85.234375 77.257812 84.074219 C 77.511719 81.984375 78.308594 81.160156 80.445312 81.042969 C 86.78125 80.703125 93.121094 80.390625 99.464844 80.183594 C 149.917969 78.535156 200.390625 79.332031 250.855469 79.246094 C 275.617188 79.207031 300.378906 79.574219 325.140625 79.621094 C 339.792969 79.648438 354.445312 79.320312 369.097656 79.332031 C 375.4375 79.339844 381.78125 79.800781 388.121094 80.0625 C 388.511719 80.078125 388.902344 80.101562 389.292969 80.152344 C 392.421875 80.5625 393.707031 81.941406 393.746094 85.109375 C 393.8125 89.878906 393.894531 94.65625 393.816406 99.425781 C 393.269531 133.539062 392.558594 167.648438 392.144531 201.761719 C 391.808594 229.695312 391.792969 257.632812 391.664062 285.566406 C 391.617188 295.660156 391.65625 305.753906 391.65625 315.847656 C 391.703125 315.851562 391.75 315.851562 391.800781 315.851562 Z M 387.003906 539.914062 C 387.003906 538.207031 387.078125 536.886719 386.992188 535.578125 C 386.15625 522.84375 386.039062 510.09375 386.011719 497.335938 C 385.933594 463.0625 386.398438 428.792969 387.253906 394.53125 C 388.25 354.792969 388.449219 315.046875 388.5 275.296875 C 388.539062 245.5625 388.765625 215.832031 389.097656 186.097656 C 389.363281 162.550781 389.917969 139.003906 390.339844 115.453125 C 390.355469 114.542969 390.339844 113.628906 390.339844 112.5625 C 389.542969 112.5625 389.011719 112.554688 388.480469 112.5625 C 378.0625 112.746094 367.644531 112.878906 357.230469 113.128906 C 348.144531 113.34375 339.0625 113.738281 329.976562 113.964844 C 320.339844 114.210938 310.703125 114.304688 301.070312 114.542969 C 279.914062 115.066406 258.757812 115.136719 237.605469 114.53125 C 227.804688 114.25 218.023438 114.691406 208.234375 114.996094 C 195.390625 115.390625 182.539062 115.625 169.691406 115.570312 C 157.003906 115.511719 144.316406 114.808594 131.625 114.753906 C 120.582031 114.703125 109.535156 115.164062 98.488281 115.386719 C 93.164062 115.496094 87.835938 115.570312 82.507812 115.679688 C 81.921875 115.691406 81.335938 115.84375 80.957031 115.898438 C 80.957031 119.871094 80.921875 123.617188 80.964844 127.363281 C 81.261719 153.34375 80.871094 179.316406 80.074219 205.285156 C 79.609375 220.457031 78.9375 235.628906 78.789062 250.804688 C 78.609375 269.265625 78.847656 287.734375 78.964844 306.195312 C 79.089844 326.226562 79.238281 346.257812 79.449219 366.289062 C 79.769531 397.273438 80.308594 428.253906 80.457031 459.238281 C 80.582031 484.660156 80.269531 510.085938 80.160156 535.511719 C 80.15625 536.023438 80.289062 536.535156 80.371094 537.148438 C 81.296875 537.148438 82.070312 537.144531 82.847656 537.148438 C 91.625 537.175781 100.402344 537.132812 109.175781 537.238281 C 135.113281 537.554688 161.046875 537.929688 186.980469 538.269531 C 196.777344 538.398438 206.574219 538.390625 216.363281 538.636719 C 225.683594 538.867188 234.992188 539.53125 244.3125 539.683594 C 261 539.957031 277.691406 540.089844 294.382812 540.097656 C 322.277344 540.113281 350.175781 539.984375 378.070312 539.917969 C 380.960938 539.910156 383.851562 539.914062 387.003906 539.914062 Z M 80.65625 105.875 C 81.175781 105.957031 81.40625 106.023438 81.640625 106.023438 C 91.980469 106.058594 102.324219 106.277344 112.65625 106.085938 C 132.863281 105.703125 153.066406 104.984375 173.273438 104.605469 C 193.324219 104.230469 213.378906 103.96875 233.4375 103.90625 C 249.257812 103.859375 265.082031 104.179688 280.90625 104.367188 C 295.398438 104.539062 309.890625 105.011719 324.378906 104.878906 C 345.53125 104.6875 366.675781 104.050781 387.828125 104.894531 C 388.65625 104.929688 389.488281 104.898438 390.558594 104.898438 C 390.558594 103.679688 390.566406 102.75 390.558594 101.824219 C 390.519531 96.816406 390.492188 91.8125 390.429688 86.804688 C 390.394531 83.789062 390.21875 83.625 387.277344 83.414062 C 387.042969 83.394531 386.808594 83.386719 386.574219 83.375 C 373.191406 82.597656 359.800781 82.515625 346.398438 82.597656 C 329.558594 82.703125 312.714844 82.832031 295.871094 82.769531 C 273.625 82.6875 251.375 82.375 229.128906 82.261719 C 208.445312 82.160156 187.761719 82.007812 167.082031 82.207031 C 139.273438 82.472656 111.46875 83.046875 83.660156 83.507812 C 82.507812 83.527344 81.359375 83.746094 79.878906 83.90625 C 80.140625 91.289062 80.394531 98.511719 80.65625 105.875 Z M 80.074219 540.117188 C 80.074219 542.011719 80.023438 543.714844 80.089844 545.414062 C 80.167969 547.519531 80.339844 547.882812 82.425781 548.292969 C 86.105469 549.019531 89.8125 549.886719 93.535156 550.058594 C 110.125 550.824219 126.722656 551.53125 143.324219 551.9375 C 155.539062 552.238281 167.769531 552.070312 179.992188 552.054688 C 205.300781 552.023438 230.605469 551.890625 255.914062 551.925781 C 271.582031 551.949219 287.25 552.335938 302.921875 552.328125 C 329.558594 552.316406 356.199219 552.125 382.835938 552.007812 C 383.386719 552.007812 383.933594 551.996094 384.480469 551.976562 C 385.570312 551.945312 386.25 551.371094 386.480469 550.335938 C 387.023438 547.894531 387.246094 545.433594 386.988281 542.742188 C 386.257812 542.742188 385.652344 542.730469 385.046875 542.742188 C 380.582031 542.847656 376.121094 543.039062 371.65625 543.042969 C 341.882812 543.09375 312.109375 543.132812 282.335938 543.113281 C 270.582031 543.105469 258.828125 543.058594 247.082031 542.8125 C 236.898438 542.597656 226.730469 541.949219 216.546875 541.726562 C 203 541.433594 189.441406 541.363281 175.890625 541.203125 C 144.789062 540.839844 113.683594 540.480469 82.582031 540.117188 C 81.820312 540.109375 81.058594 540.117188 80.074219 540.117188 Z M 80.703125 112.847656 C 81.308594 112.902344 81.617188 112.957031 81.925781 112.953125 C 90.855469 112.777344 99.800781 112.839844 108.714844 112.359375 C 125.246094 111.46875 141.765625 111.9375 158.292969 112.210938 C 167.925781 112.371094 177.5625 112.707031 187.195312 112.601562 C 198 112.480469 208.800781 111.78125 219.609375 111.644531 C 230.261719 111.511719 240.917969 111.855469 251.570312 111.832031 C 272.644531 111.789062 293.71875 111.675781 314.792969 111.507812 C 321.21875 111.457031 327.636719 111.132812 334.058594 110.953125 C 342.984375 110.703125 351.910156 110.398438 360.839844 110.25 C 369.847656 110.101562 378.855469 110.113281 387.867188 110.046875 C 388.632812 110.042969 389.402344 109.957031 390.238281 109.902344 C 390.238281 109.109375 390.238281 108.472656 390.238281 107.714844 C 387.796875 107.714844 385.535156 107.71875 383.273438 107.714844 C 369.640625 107.683594 356.011719 107.632812 342.382812 107.628906 C 327.183594 107.621094 311.984375 107.761719 296.785156 107.636719 C 283.15625 107.527344 269.527344 106.914062 255.898438 106.917969 C 223.148438 106.933594 190.402344 106.871094 157.667969 108.1875 C 141.699219 108.832031 125.710938 108.960938 109.730469 109.152344 C 101.191406 109.25 92.652344 108.976562 84.113281 108.882812 C 82.976562 108.867188 81.839844 108.90625 80.703125 108.917969 C 80.703125 110.382812 80.703125 111.53125 80.703125 112.847656 Z M 93.800781 89.476562 C 90.644531 89.410156 88.128906 91.972656 88.082031 95.308594 C 88.042969 98.050781 90.304688 100.308594 93.136719 100.355469 C 96.304688 100.410156 98.363281 98.246094 98.417969 94.804688 C 98.464844 91.609375 96.675781 89.539062 93.800781 89.476562 Z M 103.46875 93.910156 C 103.464844 90.554688 105.863281 88.140625 109.214844 88.125 C 112.378906 88.113281 114.863281 90.910156 114.785156 94.402344 C 114.71875 97.453125 111.839844 100.261719 108.84375 100.203125 C 105.914062 100.144531 103.472656 97.285156 103.46875 93.910156 Z M 109.25 90.917969 C 107.40625 90.945312 106.113281 92.433594 106.097656 94.542969 C 106.089844 96.09375 107.550781 97.636719 109.015625 97.617188 C 110.65625 97.601562 112.179688 95.933594 112.152344 94.191406 C 112.125 92.292969 110.882812 90.890625 109.25 90.917969 Z M 124.535156 88.644531 C 127.757812 88.667969 129.996094 90.949219 129.945312 94.160156 C 129.886719 97.636719 127.347656 100.328125 124.148438 100.292969 C 121.101562 100.257812 118.664062 97.367188 118.695312 93.828125 C 118.71875 90.90625 121.289062 88.625 124.535156 88.644531 Z M 121.3125 94.433594 C 121.332031 96.261719 122.613281 97.761719 124.179688 97.78125 C 125.902344 97.808594 127.460938 96.128906 127.484375 94.230469 C 127.503906 92.433594 126.378906 91.289062 124.605469 91.308594 C 122.597656 91.328125 121.296875 92.5625 121.3125 94.433594 Z M 121.3125 94.433594 " fill-opacity="1" fill-rule="nonzero"/></g><path fill="#fafafa" d="M 387.003906 539.914062 C 383.851562 539.914062 380.960938 539.910156 378.070312 539.917969 C 350.175781 539.984375 322.277344 540.113281 294.382812 540.097656 C 277.691406 540.089844 261 539.957031 244.3125 539.683594 C 234.992188 539.53125 225.683594 538.867188 216.363281 538.636719 C 206.574219 538.390625 196.777344 538.398438 186.980469 538.269531 C 161.046875 537.929688 135.113281 537.554688 109.175781 537.238281 C 100.402344 537.132812 91.625 537.175781 82.847656 537.148438 C 82.070312 537.144531 81.296875 537.148438 80.371094 537.148438 C 80.289062 536.535156 80.15625 536.023438 80.160156 535.511719 C 80.269531 510.085938 80.582031 484.660156 80.457031 459.238281 C 80.308594 428.253906 79.769531 397.273438 79.449219 366.289062 C 79.238281 346.257812 79.089844 326.226562 78.964844 306.195312 C 78.847656 287.734375 78.609375 269.265625 78.789062 250.804688 C 78.9375 235.628906 79.609375 220.457031 80.074219 205.285156 C 80.871094 179.316406 81.261719 153.34375 80.964844 127.363281 C 80.921875 123.617188 80.957031 119.871094 80.957031 115.898438 C 81.335938 115.84375 81.921875 115.691406 82.507812 115.679688 C 87.835938 115.570312 93.164062 115.496094 98.488281 115.386719 C 109.535156 115.164062 120.582031 114.703125 131.625 114.753906 C 144.316406 114.808594 157.003906 115.511719 169.691406 115.570312 C 182.539062 115.625 195.390625 115.390625 208.234375 114.996094 C 218.023438 114.691406 227.804688 114.25 237.605469 114.53125 C 258.757812 115.136719 279.914062 115.066406 301.070312 114.542969 C 310.703125 114.304688 320.339844 114.210938 329.976562 113.964844 C 339.0625 113.738281 348.144531 113.34375 357.230469 113.128906 C 367.644531 112.878906 378.0625 112.746094 388.480469 112.5625 C 389.011719 112.554688 389.542969 112.5625 390.339844 112.5625 C 390.339844 113.628906 390.355469 114.542969 390.339844 115.453125 C 389.917969 139.003906 389.363281 162.550781 389.097656 186.097656 C 388.765625 215.832031 388.539062 245.5625 388.5 275.296875 C 388.449219 315.046875 388.25 354.792969 387.253906 394.53125 C 386.398438 428.792969 385.933594 463.0625 386.011719 497.335938 C 386.039062 510.09375 386.15625 522.84375 386.992188 535.578125 C 387.078125 536.886719 387.003906 538.207031 387.003906 539.914062 Z M 81.640625 106.023438 C 91.980469 106.058594 102.324219 106.277344 112.65625 106.085938 C 132.863281 105.703125 153.066406 104.984375 173.273438 104.605469 C 193.324219 104.230469 213.378906 103.96875 233.4375 103.90625 C 249.257812 103.859375 265.082031 104.179688 280.90625 104.367188 C 295.398438 104.539062 309.890625 105.011719 324.378906 104.878906 C 345.53125 104.6875 366.675781 104.050781 387.828125 104.894531 C 388.65625 104.929688 389.488281 104.898438 390.558594 104.898438 C 390.558594 103.679688 390.566406 102.75 390.558594 101.824219 C 390.519531 96.816406 390.492188 91.8125 390.429688 86.804688 C 390.394531 83.789062 390.21875 83.625 387.277344 83.414062 C 387.042969 83.394531 386.808594 83.386719 386.574219 83.375 C 373.191406 82.597656 359.800781 82.515625 346.398438 82.597656 C 329.558594 82.703125 312.714844 82.832031 295.871094 82.769531 C 273.625 82.6875 251.375 82.375 229.128906 82.261719 C 208.445312 82.160156 187.761719 82.007812 167.082031 82.207031 C 139.273438 82.472656 111.46875 83.046875 83.660156 83.507812 C 82.507812 83.527344 81.359375 83.746094 79.878906 83.90625 C 80.140625 91.289062 80.394531 98.511719 80.65625 105.875 C 81.175781 105.957031 81.40625 106.023438 81.640625 106.023438 Z M 93.136719 100.355469 C 90.304688 100.308594 88.042969 98.050781 88.082031 95.308594 C 88.128906 91.972656 90.644531 89.410156 93.800781 89.476562 C 96.675781 89.539062 98.464844 91.609375 98.417969 94.804688 C 98.363281 98.246094 96.304688 100.410156 93.136719 100.355469 Z M 109.214844 88.125 C 112.378906 88.113281 114.863281 90.910156 114.785156 94.402344 C 114.71875 97.453125 111.839844 100.261719 108.84375 100.203125 C 105.914062 100.144531 103.472656 97.285156 103.46875 93.910156 C 103.464844 90.554688 105.863281 88.140625 109.214844 88.125 Z M 129.945312 94.160156 C 129.886719 97.636719 127.347656 100.328125 124.148438 100.292969 C 121.101562 100.257812 118.664062 97.367188 118.695312 93.828125 C 118.71875 90.90625 121.289062 88.625 124.535156 88.644531 C 127.757812 88.667969 129.996094 90.949219 129.945312 94.160156 Z M 80.089844 545.414062 C 80.167969 547.519531 80.339844 547.882812 82.425781 548.292969 C 86.105469 549.019531 89.8125 549.886719 93.535156 550.058594 C 110.125 550.824219 126.722656 551.53125 143.324219 551.9375 C 155.539062 552.238281 167.769531 552.070312 179.992188 552.054688 C 205.300781 552.023438 230.605469 551.890625 255.914062 551.925781 C 271.582031 551.949219 287.25 552.335938 302.921875 552.328125 C 329.558594 552.316406 356.199219 552.125 382.835938 552.007812 C 383.386719 552.007812 383.933594 551.996094 384.480469 551.976562 C 385.570312 551.945312 386.25 551.371094 386.480469 550.335938 C 387.023438 547.894531 387.246094 545.433594 386.988281 542.742188 C 386.257812 542.742188 385.652344 542.730469 385.046875 542.742188 C 380.582031 542.847656 376.121094 543.039062 371.65625 543.042969 C 341.882812 543.09375 312.109375 543.132812 282.335938 543.113281 C 270.582031 543.105469 258.828125 543.058594 247.082031 542.8125 C 236.898438 542.597656 226.730469 541.949219 216.546875 541.726562 C 203 541.433594 189.441406 541.363281 175.890625 541.203125 C 144.789062 540.839844 113.683594 540.480469 82.582031 540.117188 C 81.820312 540.109375 81.058594 540.117188 80.074219 540.117188 C 80.074219 542.011719 80.023438 543.714844 80.089844 545.414062 Z M 81.925781 112.953125 C 90.855469 112.777344 99.800781 112.839844 108.714844 112.359375 C 125.246094 111.46875 141.765625 111.9375 158.292969 112.210938 C 167.925781 112.371094 177.5625 112.707031 187.195312 112.601562 C 198 112.480469 208.800781 111.78125 219.609375 111.644531 C 230.261719 111.511719 240.917969 111.855469 251.570312 111.832031 C 272.644531 111.789062 293.71875 111.675781 314.792969 111.507812 C 321.21875 111.457031 327.636719 111.132812 334.058594 110.953125 C 342.984375 110.703125 351.910156 110.398438 360.839844 110.25 C 369.847656 110.101562 378.855469 110.113281 387.867188 110.046875 C 388.632812 110.042969 389.402344 109.957031 390.238281 109.902344 C 390.238281 109.109375 390.238281 108.472656 390.238281 107.714844 C 387.796875 107.714844 385.535156 107.71875 383.273438 107.714844 C 369.640625 107.683594 356.011719 107.632812 342.382812 107.628906 C 327.183594 107.621094 311.984375 107.761719 296.785156 107.636719 C 283.15625 107.527344 269.527344 106.914062 255.898438 106.917969 C 223.148438 106.933594 190.402344 106.871094 157.667969 108.1875 C 141.699219 108.832031 125.710938 108.960938 109.730469 109.152344 C 101.191406 109.25 92.652344 108.976562 84.113281 108.882812 C 82.976562 108.867188 81.839844 108.90625 80.703125 108.917969 C 80.703125 110.382812 80.703125 111.53125 80.703125 112.847656 C 81.308594 112.902344 81.617188 112.957031 81.925781 112.953125 Z M 106.097656 94.542969 C 106.089844 96.09375 107.550781 97.636719 109.015625 97.617188 C 110.65625 97.601562 112.179688 95.933594 112.152344 94.191406 C 112.125 92.292969 110.882812 90.890625 109.25 90.917969 C 107.40625 90.945312 106.113281 92.433594 106.097656 94.542969 Z M 124.179688 97.78125 C 125.902344 97.808594 127.460938 96.128906 127.484375 94.230469 C 127.503906 92.433594 126.378906 91.289062 124.605469 91.308594 C 122.597656 91.328125 121.296875 92.5625 121.3125 94.433594 C 121.332031 96.261719 122.613281 97.761719 124.179688 97.78125 Z M 124.179688 97.78125 " fill-opacity="1" fill-rule="nonzero"/><g clip-path="url(#3d89e4ae4c)"><path fill="#37a75b" d="M 391.800781 315.851562 C 391.386719 338.382812 390.980469 360.914062 390.554688 383.445312 C 390.308594 396.351562 389.914062 409.261719 389.785156 422.167969 C 389.476562 453.074219 389.25 483.984375 389.074219 514.890625 C 389.046875 520.046875 389.507812 525.207031 389.652344 530.367188 C 389.804688 535.605469 389.882812 540.847656 389.910156 546.085938 C 389.914062 547.484375 389.707031 548.898438 389.453125 550.28125 C 388.847656 553.59375 387.390625 554.839844 384.011719 554.898438 C 379.78125 554.96875 375.546875 554.957031 371.316406 554.980469 C 346.476562 555.117188 321.632812 555.351562 296.792969 555.355469 C 272.972656 555.363281 249.152344 555.058594 225.328125 555.027344 C 201.976562 554.996094 178.625 555.269531 155.273438 555.148438 C 141.40625 555.078125 127.539062 554.570312 113.679688 554.128906 C 106.554688 553.902344 99.429688 553.511719 92.324219 552.957031 C 88.671875 552.671875 85.023438 552.027344 81.4375 551.242188 C 77.503906 550.382812 76.75 549.382812 76.761719 545.429688 C 76.773438 539.875 77.035156 534.324219 77.0625 528.769531 C 77.152344 510.617188 77.324219 492.460938 77.207031 474.308594 C 76.984375 440.742188 76.566406 407.175781 76.257812 373.609375 C 76.039062 349.585938 75.832031 325.566406 75.6875 301.542969 C 75.585938 284.5625 75.3125 267.578125 75.617188 250.609375 C 76.050781 226.355469 77.03125 202.117188 77.617188 177.867188 C 78.109375 157.527344 78.328125 137.183594 77.703125 116.835938 C 77.597656 113.5 77.707031 110.15625 77.632812 106.816406 C 77.488281 100.40625 77.273438 93.996094 77.117188 87.585938 C 77.085938 86.417969 77.113281 85.234375 77.257812 84.074219 C 77.511719 81.984375 78.308594 81.160156 80.445312 81.042969 C 86.78125 80.703125 93.121094 80.390625 99.464844 80.183594 C 149.917969 78.535156 200.390625 79.332031 250.855469 79.246094 C 275.617188 79.207031 300.378906 79.574219 325.140625 79.621094 C 339.792969 79.648438 354.445312 79.320312 369.097656 79.332031 C 375.4375 79.339844 381.78125 79.800781 388.121094 80.0625 C 388.511719 80.078125 388.902344 80.101562 389.292969 80.152344 C 392.421875 80.5625 393.707031 81.941406 393.746094 85.109375 C 393.8125 89.878906 393.894531 94.65625 393.816406 99.425781 C 393.269531 133.539062 392.558594 167.648438 392.144531 201.761719 C 391.808594 229.695312 391.792969 257.632812 391.664062 285.566406 C 391.617188 295.660156 391.65625 305.753906 391.65625 315.847656 C 391.703125 315.851562 391.75 315.851562 391.800781 315.851562 Z M 387.003906 539.914062 C 387.003906 538.207031 387.078125 536.886719 386.992188 535.578125 C 386.15625 522.84375 386.039062 510.09375 386.011719 497.335938 C 385.933594 463.0625 386.398438 428.792969 387.253906 394.53125 C 388.25 354.792969 388.449219 315.046875 388.5 275.296875 C 388.539062 245.5625 388.765625 215.832031 389.097656 186.097656 C 389.363281 162.550781 389.917969 139.003906 390.339844 115.453125 C 390.355469 114.542969 390.339844 113.628906 390.339844 112.5625 C 389.542969 112.5625 389.011719 112.554688 388.480469 112.5625 C 378.0625 112.746094 367.644531 112.878906 357.230469 113.128906 C 348.144531 113.34375 339.0625 113.738281 329.976562 113.964844 C 320.339844 114.210938 310.703125 114.304688 301.070312 114.542969 C 279.914062 115.066406 258.757812 115.136719 237.605469 114.53125 C 227.804688 114.25 218.023438 114.691406 208.234375 114.996094 C 195.390625 115.390625 182.539062 115.625 169.691406 115.570312 C 157.003906 115.511719 144.316406 114.808594 131.625 114.753906 C 120.582031 114.703125 109.535156 115.164062 98.488281 115.386719 C 93.164062 115.496094 87.835938 115.570312 82.507812 115.679688 C 81.921875 115.691406 81.335938 115.84375 80.957031 115.898438 C 80.957031 119.871094 80.921875 123.617188 80.964844 127.363281 C 81.261719 153.34375 80.871094 179.316406 80.074219 205.285156 C 79.609375 220.457031 78.9375 235.628906 78.789062 250.804688 C 78.609375 269.265625 78.847656 287.734375 78.964844 306.195312 C 79.089844 326.226562 79.238281 346.257812 79.449219 366.289062 C 79.769531 397.273438 80.308594 428.253906 80.457031 459.238281 C 80.582031 484.660156 80.269531 510.085938 80.160156 535.511719 C 80.15625 536.023438 80.289062 536.535156 80.371094 537.148438 C 81.296875 537.148438 82.070312 537.144531 82.847656 537.148438 C 91.625 537.175781 100.402344 537.132812 109.175781 537.238281 C 135.113281 537.554688 161.046875 537.929688 186.980469 538.269531 C 196.777344 538.398438 206.574219 538.390625 216.363281 538.636719 C 225.683594 538.867188 234.992188 539.53125 244.3125 539.683594 C 261 539.957031 277.691406 540.089844 294.382812 540.097656 C 322.277344 540.113281 350.175781 539.984375 378.070312 539.917969 C 380.960938 539.910156 383.851562 539.914062 387.003906 539.914062 Z M 80.65625 105.875 C 81.175781 105.957031 81.40625 106.023438 81.640625 106.023438 C 91.980469 106.058594 102.324219 106.277344 112.65625 106.085938 C 132.863281 105.703125 153.066406 104.984375 173.273438 104.605469 C 193.324219 104.230469 213.378906 103.96875 233.4375 103.90625 C 249.257812 103.859375 265.082031 104.179688 280.90625 104.367188 C 295.398438 104.539062 309.890625 105.011719 324.378906 104.878906 C 345.53125 104.6875 366.675781 104.050781 387.828125 104.894531 C 388.65625 104.929688 389.488281 104.898438 390.558594 104.898438 C 390.558594 103.679688 390.566406 102.75 390.558594 101.824219 C 390.519531 96.816406 390.492188 91.8125 390.429688 86.804688 C 390.394531 83.789062 390.21875 83.625 387.277344 83.414062 C 387.042969 83.394531 386.808594 83.386719 386.574219 83.375 C 373.191406 82.597656 359.800781 82.515625 346.398438 82.597656 C 329.558594 82.703125 312.714844 82.832031 295.871094 82.769531 C 273.625 82.6875 251.375 82.375 229.128906 82.261719 C 208.445312 82.160156 187.761719 82.007812 167.082031 82.207031 C 139.273438 82.472656 111.46875 83.046875 83.660156 83.507812 C 82.507812 83.527344 81.359375 83.746094 79.878906 83.90625 C 80.140625 91.289062 80.394531 98.511719 80.65625 105.875 Z M 80.074219 540.117188 C 80.074219 542.011719 80.023438 543.714844 80.089844 545.414062 C 80.167969 547.519531 80.339844 547.882812 82.425781 548.292969 C 86.105469 549.019531 89.8125 549.886719 93.535156 550.058594 C 110.125 550.824219 126.722656 551.53125 143.324219 551.9375 C 155.539062 552.238281 167.769531 552.070312 179.992188 552.054688 C 205.300781 552.023438 230.605469 551.890625 255.914062 551.925781 C 271.582031 551.949219 287.25 552.335938 302.921875 552.328125 C 329.558594 552.316406 356.199219 552.125 382.835938 552.007812 C 383.386719 552.007812 383.933594 551.996094 384.480469 551.976562 C 385.570312 551.945312 386.25 551.371094 386.480469 550.335938 C 387.023438 547.894531 387.246094 545.433594 386.988281 542.742188 C 386.257812 542.742188 385.652344 542.730469 385.046875 542.742188 C 380.582031 542.847656 376.121094 543.039062 371.65625 543.042969 C 341.882812 543.09375 312.109375 543.132812 282.335938 543.113281 C 270.582031 543.105469 258.828125 543.058594 247.082031 542.8125 C 236.898438 542.597656 226.730469 541.949219 216.546875 541.726562 C 203 541.433594 189.441406 541.363281 175.890625 541.203125 C 144.789062 540.839844 113.683594 540.480469 82.582031 540.117188 C 81.820312 540.109375 81.058594 540.117188 80.074219 540.117188 Z M 80.703125 112.847656 C 81.308594 112.902344 81.617188 112.957031 81.925781 112.953125 C 90.855469 112.777344 99.800781 112.839844 108.714844 112.359375 C 125.246094 111.46875 141.765625 111.9375 158.292969 112.210938 C 167.925781 112.371094 177.5625 112.707031 187.195312 112.601562 C 198 112.480469 208.800781 111.78125 219.609375 111.644531 C 230.261719 111.511719 240.917969 111.855469 251.570312 111.832031 C 272.644531 111.789062 293.71875 111.675781 314.792969 111.507812 C 321.21875 111.457031 327.636719 111.132812 334.058594 110.953125 C 342.984375 110.703125 351.910156 110.398438 360.839844 110.25 C 369.847656 110.101562 378.855469 110.113281 387.867188 110.046875 C 388.632812 110.042969 389.402344 109.957031 390.238281 109.902344 C 390.238281 109.109375 390.238281 108.472656 390.238281 107.714844 C 387.796875 107.714844 385.535156 107.71875 383.273438 107.714844 C 369.640625 107.683594 356.011719 107.632812 342.382812 107.628906 C 327.183594 107.621094 311.984375 107.761719 296.785156 107.636719 C 283.15625 107.527344 269.527344 106.914062 255.898438 106.917969 C 223.148438 106.933594 190.402344 106.871094 157.667969 108.1875 C 141.699219 108.832031 125.710938 108.960938 109.730469 109.152344 C 101.191406 109.25 92.652344 108.976562 84.113281 108.882812 C 82.976562 108.867188 81.839844 108.90625 80.703125 108.917969 C 80.703125 110.382812 80.703125 111.53125 80.703125 112.847656 Z M 93.800781 89.476562 C 90.644531 89.410156 88.128906 91.972656 88.082031 95.308594 C 88.042969 98.050781 90.304688 100.308594 93.136719 100.355469 C 96.304688 100.410156 98.363281 98.246094 98.417969 94.804688 C 98.464844 91.609375 96.675781 89.539062 93.800781 89.476562 Z M 103.46875 93.910156 C 103.464844 90.554688 105.863281 88.140625 109.214844 88.125 C 112.378906 88.113281 114.863281 90.910156 114.785156 94.402344 C 114.71875 97.453125 111.839844 100.261719 108.84375 100.203125 C 105.914062 100.144531 103.472656 97.285156 103.46875 93.910156 Z M 109.25 90.917969 C 107.40625 90.945312 106.113281 92.433594 106.097656 94.542969 C 106.089844 96.09375 107.550781 97.636719 109.015625 97.617188 C 110.65625 97.601562 112.179688 95.933594 112.152344 94.191406 C 112.125 92.292969 110.882812 90.890625 109.25 90.917969 Z M 124.535156 88.644531 C 127.757812 88.667969 129.996094 90.949219 129.945312 94.160156 C 129.886719 97.636719 127.347656 100.328125 124.148438 100.292969 C 121.101562 100.257812 118.664062 97.367188 118.695312 93.828125 C 118.71875 90.90625 121.289062 88.625 124.535156 88.644531 Z M 121.3125 94.433594 C 121.332031 96.261719 122.613281 97.761719 124.179688 97.78125 C 125.902344 97.808594 127.460938 96.128906 127.484375 94.230469 C 127.503906 92.433594 126.378906 91.289062 124.605469 91.308594 C 122.597656 91.328125 121.296875 92.5625 121.3125 94.433594 Z M 121.3125 94.433594 " fill-opacity="1" fill-rule="nonzero"/></g></svg>