<svg xmlns="http://www.w3.org/2000/svg" xmlns:xlink="http://www.w3.org/1999/xlink" width="255" zoomAndPan="magnify" viewBox="0 0 191.25 193.499992" height="258" preserveAspectRatio="xMidYMid meet" version="1.0"><defs><clipPath id="ecceb96937"><path d="M 96 112 L 97 112 L 97 113 L 96 113 Z M 96 112 " clip-rule="nonzero"/></clipPath><clipPath id="07613452a5"><path d="M 98.289062 75.46875 L 115.804688 103.285156 L 92.414062 118.011719 L 74.898438 90.195312 Z M 98.289062 75.46875 " clip-rule="nonzero"/></clipPath><clipPath id="9e8c9b3063"><path d="M 98.289062 75.46875 L 115.804688 103.285156 L 92.414062 118.011719 L 74.898438 90.195312 Z M 98.289062 75.46875 " clip-rule="nonzero"/></clipPath><clipPath id="4da8862ee8"><path d="M 98.289062 75.46875 L 115.804688 103.285156 L 92.414062 118.011719 L 74.898438 90.195312 Z M 98.289062 75.46875 " clip-rule="nonzero"/></clipPath><clipPath id="462d0ff3c6"><path d="M 81 78 L 107 78 L 107 117 L 81 117 Z M 81 78 " clip-rule="nonzero"/></clipPath><clipPath id="9c4ae4061d"><path d="M 98.289062 75.46875 L 115.804688 103.285156 L 92.414062 118.011719 L 74.898438 90.195312 Z M 98.289062 75.46875 " clip-rule="nonzero"/></clipPath><clipPath id="68e9b39e94"><path d="M 98.289062 75.46875 L 115.804688 103.285156 L 92.414062 118.011719 L 74.898438 90.195312 Z M 98.289062 75.46875 " clip-rule="nonzero"/></clipPath><clipPath id="8ed68a57d5"><path d="M 98.289062 75.46875 L 115.804688 103.285156 L 92.414062 118.011719 L 74.898438 90.195312 Z M 98.289062 75.46875 " clip-rule="nonzero"/></clipPath><clipPath id="2380fa3675"><path d="M 87 88 L 88 88 L 88 89 L 87 89 Z M 87 88 " clip-rule="nonzero"/></clipPath><clipPath id="1899571bc8"><path d="M 98.289062 75.46875 L 115.804688 103.285156 L 92.414062 118.011719 L 74.898438 90.195312 Z M 98.289062 75.46875 " clip-rule="nonzero"/></clipPath><clipPath id="ce9266c7f5"><path d="M 98.289062 75.46875 L 115.804688 103.285156 L 92.414062 118.011719 L 74.898438 90.195312 Z M 98.289062 75.46875 " clip-rule="nonzero"/></clipPath><clipPath id="4de1e7464b"><path d="M 98.289062 75.46875 L 115.804688 103.285156 L 92.414062 118.011719 L 74.898438 90.195312 Z M 98.289062 75.46875 " clip-rule="nonzero"/></clipPath><clipPath id="47de73fcc4"><path d="M 83 100 L 84 100 L 84 101 L 83 101 Z M 83 100 " clip-rule="nonzero"/></clipPath><clipPath id="eb799f3df1"><path d="M 98.289062 75.46875 L 115.804688 103.285156 L 92.414062 118.011719 L 74.898438 90.195312 Z M 98.289062 75.46875 " clip-rule="nonzero"/></clipPath><clipPath id="a4585657a1"><path d="M 98.289062 75.46875 L 115.804688 103.285156 L 92.414062 118.011719 L 74.898438 90.195312 Z M 98.289062 75.46875 " clip-rule="nonzero"/></clipPath><clipPath id="fd36557e79"><path d="M 98.289062 75.46875 L 115.804688 103.285156 L 92.414062 118.011719 L 74.898438 90.195312 Z M 98.289062 75.46875 " clip-rule="nonzero"/></clipPath></defs><g clip-path="url(#ecceb96937)"><g clip-path="url(#07613452a5)"><g clip-path="url(#9e8c9b3063)"><g clip-path="url(#4da8862ee8)"><path fill="#37a75b" d="M 96.347656 112.921875 C 96.347656 112.921875 96.347656 112.917969 96.347656 112.917969 C 96.390625 112.882812 96.507812 112.777344 96.347656 112.921875 Z M 96.347656 112.921875 " fill-opacity="1" fill-rule="nonzero"/></g></g></g></g><g clip-path="url(#462d0ff3c6)"><g clip-path="url(#9c4ae4061d)"><g clip-path="url(#68e9b39e94)"><g clip-path="url(#8ed68a57d5)"><path fill="#37a75b" d="M 95.246094 116.203125 C 95.25 116.199219 95.257812 116.195312 95.261719 116.191406 C 95.265625 116.1875 95.269531 116.183594 95.273438 116.179688 C 95.28125 116.171875 95.289062 116.167969 95.296875 116.160156 C 96.035156 115.417969 96.785156 114.6875 97.527344 113.949219 C 97.871094 113.664062 98.195312 113.359375 98.472656 113.011719 C 98.730469 112.691406 98.765625 112.195312 98.425781 111.910156 C 98.089844 111.632812 97.632812 111.65625 97.324219 111.964844 C 97.03125 112.257812 96.738281 112.546875 96.445312 112.835938 C 96.410156 112.867188 96.375 112.898438 96.339844 112.929688 C 96.34375 112.925781 96.34375 112.921875 96.347656 112.921875 C 96.3125 112.953125 96.273438 112.980469 96.234375 113.011719 C 96.15625 113.078125 96.078125 113.140625 95.996094 113.207031 C 95.988281 112.285156 95.8125 111.355469 95.53125 110.46875 C 95.238281 109.539062 94.828125 108.648438 94.382812 107.785156 C 94.347656 107.71875 94.3125 107.652344 94.277344 107.585938 C 95.664062 107.570312 97.042969 107.28125 98.253906 106.578125 C 99.972656 105.574219 101.035156 103.765625 101.304688 101.832031 C 101.441406 100.839844 101.40625 99.863281 101.222656 98.882812 C 101.019531 97.804688 100.589844 96.769531 100.070312 95.804688 C 99.9375 95.554688 99.792969 95.308594 99.644531 95.066406 C 99.707031 95.054688 99.769531 95.042969 99.832031 95.035156 C 100.6875 94.882812 101.523438 94.644531 102.328125 94.316406 C 103.261719 93.933594 104.144531 93.433594 104.871094 92.722656 C 105.621094 91.984375 106.082031 91.023438 106.128906 89.972656 C 106.179688 88.886719 105.734375 87.835938 105.257812 86.882812 C 104.390625 85.15625 103.160156 83.601562 101.71875 82.324219 C 100.265625 81.039062 98.574219 80 96.75 79.328125 C 95.847656 78.992188 94.925781 78.726562 93.972656 78.566406 C 93.570312 78.496094 93.117188 78.726562 93.035156 79.15625 C 92.960938 79.550781 93.191406 80.011719 93.621094 80.085938 C 94.070312 80.160156 94.515625 80.257812 94.957031 80.378906 C 95.167969 80.433594 95.378906 80.496094 95.589844 80.5625 C 95.691406 80.59375 95.789062 80.628906 95.890625 80.664062 C 95.9375 80.679688 95.984375 80.695312 96.03125 80.710938 C 96.050781 80.71875 96.074219 80.726562 96.09375 80.734375 C 96.9375 81.050781 97.753906 81.445312 98.527344 81.910156 C 98.714844 82.023438 98.902344 82.140625 99.085938 82.257812 C 99.171875 82.316406 99.257812 82.375 99.34375 82.433594 C 99.351562 82.4375 99.355469 82.441406 99.363281 82.445312 C 99.414062 82.484375 99.46875 82.523438 99.519531 82.5625 C 99.882812 82.824219 100.234375 83.101562 100.570312 83.394531 C 100.914062 83.695312 101.242188 84.007812 101.554688 84.335938 C 101.714844 84.5 101.867188 84.667969 102.015625 84.839844 C 102.050781 84.875 102.082031 84.914062 102.113281 84.949219 C 102.125 84.960938 102.152344 84.992188 102.171875 85.019531 C 102.195312 85.046875 102.222656 85.078125 102.230469 85.089844 C 102.265625 85.132812 102.300781 85.175781 102.335938 85.222656 C 102.894531 85.925781 103.390625 86.679688 103.8125 87.476562 C 103.863281 87.578125 103.917969 87.679688 103.964844 87.78125 C 104.011719 87.875 104.050781 88.011719 104.113281 88.089844 C 104.136719 88.144531 104.160156 88.199219 104.183594 88.253906 C 104.230469 88.371094 104.277344 88.488281 104.320312 88.609375 C 104.394531 88.824219 104.460938 89.042969 104.511719 89.265625 C 104.523438 89.3125 104.527344 89.371094 104.542969 89.421875 C 104.542969 89.433594 104.542969 89.445312 104.546875 89.460938 C 104.558594 89.574219 104.570312 89.691406 104.570312 89.808594 C 104.574219 89.90625 104.550781 90.019531 104.5625 90.117188 C 104.5625 90.132812 104.558594 90.144531 104.558594 90.15625 C 104.546875 90.21875 104.535156 90.28125 104.523438 90.339844 C 104.5 90.4375 104.472656 90.527344 104.445312 90.621094 C 104.445312 90.621094 104.445312 90.625 104.445312 90.625 C 104.425781 90.671875 104.40625 90.71875 104.382812 90.765625 C 104.339844 90.855469 104.292969 90.949219 104.238281 91.039062 C 104.21875 91.074219 104.195312 91.113281 104.171875 91.152344 C 104.160156 91.164062 104.152344 91.179688 104.140625 91.191406 C 104.019531 91.351562 103.890625 91.503906 103.75 91.644531 C 103.679688 91.714844 103.609375 91.78125 103.535156 91.847656 C 103.527344 91.855469 103.519531 91.863281 103.511719 91.867188 C 103.46875 91.898438 103.433594 91.929688 103.394531 91.960938 C 103.226562 92.089844 103.050781 92.207031 102.875 92.316406 C 102.6875 92.429688 102.496094 92.539062 102.300781 92.636719 C 102.253906 92.660156 102.203125 92.683594 102.152344 92.707031 C 102.054688 92.746094 101.957031 92.792969 101.859375 92.835938 C 101.097656 93.144531 100.304688 93.375 99.496094 93.523438 C 99.449219 93.53125 99.40625 93.539062 99.359375 93.546875 C 99.351562 93.550781 99.347656 93.550781 99.34375 93.550781 C 99.238281 93.566406 99.136719 93.582031 99.03125 93.59375 C 98.90625 93.613281 98.78125 93.625 98.65625 93.640625 C 98.488281 93.417969 98.316406 93.199219 98.140625 92.984375 C 97.417969 92.097656 96.660156 91.234375 95.871094 90.40625 C 94.417969 88.878906 92.769531 87.449219 90.8125 86.601562 C 89.875 86.195312 88.84375 86.046875 87.835938 86.257812 C 87.351562 86.363281 86.90625 86.59375 86.542969 86.929688 C 86.140625 87.304688 85.949219 87.832031 85.90625 88.371094 C 85.824219 89.464844 86.636719 90.402344 87.339844 91.136719 C 87.976562 91.796875 88.6875 92.367188 89.445312 92.882812 C 90.917969 93.882812 92.617188 94.578125 94.359375 94.949219 C 95.523438 95.195312 96.707031 95.289062 97.890625 95.242188 C 98.195312 95.683594 98.480469 96.140625 98.734375 96.613281 C 98.792969 96.722656 98.855469 96.835938 98.910156 96.949219 C 98.941406 97.011719 98.972656 97.070312 99 97.132812 C 99.015625 97.160156 99.027344 97.1875 99.039062 97.210938 C 99.039062 97.214844 99.050781 97.238281 99.0625 97.265625 C 99.066406 97.273438 99.070312 97.285156 99.074219 97.289062 C 99.089844 97.324219 99.105469 97.359375 99.121094 97.398438 C 99.144531 97.449219 99.167969 97.503906 99.1875 97.558594 C 99.246094 97.695312 99.296875 97.832031 99.347656 97.96875 C 99.503906 98.398438 99.628906 98.84375 99.71875 99.292969 C 99.726562 99.339844 99.734375 99.390625 99.746094 99.4375 C 99.761719 99.550781 99.773438 99.660156 99.789062 99.773438 C 99.808594 99.976562 99.824219 100.183594 99.832031 100.390625 C 99.835938 100.601562 99.835938 100.816406 99.824219 101.03125 C 99.820312 101.125 99.8125 101.222656 99.804688 101.316406 C 99.804688 101.320312 99.804688 101.324219 99.804688 101.332031 C 99.796875 101.394531 99.789062 101.453125 99.78125 101.511719 C 99.722656 101.921875 99.628906 102.328125 99.5 102.71875 C 99.488281 102.746094 99.480469 102.773438 99.472656 102.796875 C 99.460938 102.820312 99.453125 102.847656 99.445312 102.871094 C 99.40625 102.964844 99.363281 103.0625 99.320312 103.15625 C 99.234375 103.34375 99.136719 103.53125 99.03125 103.707031 C 98.980469 103.789062 98.929688 103.871094 98.875 103.949219 C 98.84375 103.992188 98.8125 104.035156 98.78125 104.074219 C 98.652344 104.242188 98.511719 104.398438 98.367188 104.546875 C 98.289062 104.625 98.214844 104.695312 98.136719 104.765625 C 98.117188 104.78125 98.101562 104.796875 98.082031 104.8125 C 98.042969 104.84375 98.003906 104.875 97.964844 104.902344 C 97.789062 105.039062 97.601562 105.160156 97.40625 105.273438 C 97.304688 105.332031 97.203125 105.386719 97.101562 105.4375 C 97.054688 105.460938 97.011719 105.480469 96.96875 105.503906 C 97.175781 105.390625 96.988281 105.492188 96.929688 105.515625 C 96.71875 105.605469 96.496094 105.683594 96.273438 105.75 C 96.050781 105.816406 95.820312 105.871094 95.59375 105.914062 C 95.550781 105.921875 95.511719 105.929688 95.472656 105.9375 C 95.453125 105.9375 95.4375 105.941406 95.417969 105.945312 C 95.300781 105.960938 95.179688 105.976562 95.0625 105.988281 C 94.582031 106.035156 94.101562 106.042969 93.621094 106.019531 C 93.539062 106.015625 93.457031 106.007812 93.375 106.003906 C 93.152344 105.640625 92.921875 105.285156 92.683594 104.933594 C 91.410156 103.066406 89.914062 101.339844 88.238281 99.816406 C 87.414062 99.066406 86.539062 98.363281 85.628906 97.71875 C 84.757812 97.097656 83.785156 96.496094 82.660156 96.738281 C 82.230469 96.828125 81.785156 97.101562 81.523438 97.457031 C 81.230469 97.851562 81.097656 98.285156 81.070312 98.773438 C 81.023438 99.589844 81.363281 100.441406 81.785156 101.121094 C 82.023438 101.511719 82.332031 101.855469 82.644531 102.191406 C 82.992188 102.558594 83.355469 102.910156 83.734375 103.246094 C 84.53125 103.953125 85.390625 104.585938 86.296875 105.140625 C 87.160156 105.671875 88.070312 106.128906 89.015625 106.5 C 90.003906 106.890625 91.023438 107.214844 92.074219 107.398438 C 92.1875 107.417969 92.304688 107.4375 92.417969 107.453125 C 92.660156 107.871094 92.890625 108.292969 93.109375 108.71875 C 93.214844 108.925781 93.316406 109.128906 93.417969 109.335938 C 93.433594 109.375 93.453125 109.414062 93.46875 109.449219 C 93.46875 109.453125 93.472656 109.457031 93.472656 109.460938 C 93.515625 109.558594 93.558594 109.65625 93.601562 109.753906 C 93.769531 110.152344 93.921875 110.554688 94.050781 110.96875 C 94.175781 111.367188 94.28125 111.777344 94.355469 112.1875 C 94.355469 112.203125 94.359375 112.214844 94.359375 112.230469 C 94.367188 112.261719 94.371094 112.292969 94.375 112.324219 C 94.390625 112.4375 94.402344 112.546875 94.414062 112.660156 C 94.433594 112.867188 94.445312 113.074219 94.445312 113.28125 C 94.449219 113.46875 94.4375 113.652344 94.425781 113.839844 C 94.425781 113.84375 94.425781 113.847656 94.421875 113.855469 C 94.417969 113.898438 94.414062 113.941406 94.40625 113.984375 C 94.390625 114.085938 94.375 114.1875 94.351562 114.289062 C 94.351562 114.296875 94.351562 114.300781 94.347656 114.308594 C 94.207031 114.164062 94.074219 114.015625 93.945312 113.863281 C 93.507812 113.359375 93.085938 112.851562 92.605469 112.386719 C 92.316406 112.101562 91.769531 112.121094 91.503906 112.4375 C 91.222656 112.773438 91.238281 113.234375 91.550781 113.539062 C 92.039062 114.015625 92.472656 114.539062 92.917969 115.050781 C 93.300781 115.492188 93.710938 115.882812 94.1875 116.214844 C 94.238281 116.257812 94.292969 116.296875 94.359375 116.328125 C 94.53125 116.441406 94.75 116.441406 94.945312 116.375 C 95.054688 116.339844 95.160156 116.285156 95.246094 116.203125 Z M 104.566406 90.082031 C 104.574219 90.039062 104.582031 89.992188 104.566406 90.082031 Z M 104.160156 91.167969 C 104.160156 91.167969 104.160156 91.167969 104.160156 91.171875 C 104.183594 91.140625 104.199219 91.117188 104.160156 91.167969 Z M 87.707031 87.960938 C 87.714844 87.964844 87.683594 87.988281 87.652344 88.011719 C 87.675781 87.984375 87.699219 87.960938 87.707031 87.960938 Z M 96.554688 93.683594 C 96.457031 93.679688 96.359375 93.671875 96.261719 93.664062 C 96.234375 93.660156 96.203125 93.660156 96.171875 93.65625 C 96.140625 93.652344 96.113281 93.648438 96.082031 93.648438 C 95.671875 93.601562 95.265625 93.539062 94.863281 93.460938 C 94.460938 93.378906 94.0625 93.28125 93.667969 93.164062 C 93.46875 93.105469 93.269531 93.042969 93.070312 92.972656 C 93.050781 92.964844 92.988281 92.941406 92.960938 92.933594 C 92.945312 92.925781 92.929688 92.921875 92.921875 92.917969 C 92.824219 92.882812 92.726562 92.84375 92.628906 92.804688 C 91.863281 92.496094 91.125 92.117188 90.433594 91.671875 C 90.351562 91.621094 90.269531 91.566406 90.191406 91.511719 C 90.183594 91.507812 90.171875 91.5 90.15625 91.488281 C 90.132812 91.472656 90.078125 91.433594 90.0625 91.421875 C 89.894531 91.300781 89.726562 91.175781 89.566406 91.046875 C 89.242188 90.789062 88.929688 90.511719 88.632812 90.21875 C 88.488281 90.078125 88.347656 89.933594 88.214844 89.785156 C 88.148438 89.714844 88.082031 89.640625 88.019531 89.566406 C 88.011719 89.5625 88.007812 89.554688 88.003906 89.550781 C 87.964844 89.5 87.929688 89.457031 87.890625 89.40625 C 87.828125 89.320312 87.769531 89.234375 87.710938 89.144531 C 87.679688 89.097656 87.652344 89.050781 87.625 89 C 87.613281 88.980469 87.578125 88.90625 87.558594 88.875 C 87.554688 88.863281 87.550781 88.851562 87.546875 88.84375 C 87.527344 88.792969 87.511719 88.742188 87.496094 88.6875 C 87.492188 88.679688 87.492188 88.671875 87.488281 88.660156 C 87.484375 88.664062 87.476562 88.648438 87.472656 88.617188 C 87.472656 88.601562 87.472656 88.585938 87.46875 88.574219 C 87.46875 88.566406 87.464844 88.558594 87.464844 88.554688 C 87.464844 88.558594 87.46875 88.5625 87.46875 88.570312 C 87.46875 88.554688 87.464844 88.539062 87.464844 88.523438 C 87.464844 88.484375 87.464844 88.449219 87.464844 88.410156 C 87.46875 88.386719 87.472656 88.359375 87.472656 88.355469 C 87.480469 88.316406 87.488281 88.277344 87.5 88.238281 C 87.5 88.238281 87.5 88.234375 87.5 88.234375 C 87.519531 88.199219 87.535156 88.160156 87.558594 88.125 C 87.574219 88.101562 87.59375 88.078125 87.605469 88.066406 C 87.613281 88.058594 87.628906 88.035156 87.648438 88.015625 C 87.652344 88.011719 87.65625 88.007812 87.664062 88.003906 C 87.699219 87.976562 87.734375 87.953125 87.769531 87.929688 C 87.804688 87.910156 87.839844 87.890625 87.875 87.871094 C 87.957031 87.839844 88.039062 87.8125 88.121094 87.789062 C 88.160156 87.777344 88.199219 87.765625 88.242188 87.757812 C 88.25 87.753906 88.273438 87.75 88.300781 87.746094 C 88.332031 87.742188 88.378906 87.734375 88.394531 87.734375 C 88.4375 87.726562 88.480469 87.722656 88.523438 87.722656 C 88.632812 87.714844 88.742188 87.710938 88.855469 87.714844 C 88.90625 87.714844 88.957031 87.714844 89.007812 87.71875 C 89.019531 87.71875 89.027344 87.722656 89.035156 87.722656 C 89.125 87.734375 89.210938 87.742188 89.300781 87.757812 C 89.5 87.792969 89.703125 87.84375 89.898438 87.90625 C 89.898438 87.90625 89.902344 87.910156 89.90625 87.910156 C 89.949219 87.929688 89.996094 87.945312 90.039062 87.964844 C 90.152344 88.011719 90.269531 88.066406 90.382812 88.117188 C 90.824219 88.328125 91.25 88.566406 91.664062 88.832031 C 91.765625 88.898438 91.867188 88.96875 91.972656 89.035156 C 91.976562 89.039062 91.980469 89.042969 91.984375 89.042969 C 92.042969 89.085938 92.101562 89.128906 92.15625 89.167969 C 92.359375 89.316406 92.558594 89.46875 92.75 89.628906 C 93.527344 90.253906 94.242188 90.953125 94.925781 91.679688 C 95.269531 92.042969 95.601562 92.410156 95.933594 92.785156 C 96.117188 92.992188 96.296875 93.199219 96.476562 93.410156 C 96.515625 93.453125 96.550781 93.5 96.589844 93.546875 C 96.597656 93.550781 96.609375 93.566406 96.621094 93.582031 C 96.625 93.585938 96.625 93.589844 96.628906 93.589844 C 96.65625 93.625 96.683594 93.65625 96.710938 93.691406 C 96.660156 93.6875 96.605469 93.6875 96.554688 93.683594 Z M 84.476562 98.804688 C 84.539062 98.84375 84.496094 98.816406 84.460938 98.792969 C 84.464844 98.796875 84.472656 98.800781 84.476562 98.804688 Z M 82.761719 98.375 C 82.773438 98.355469 82.792969 98.332031 82.761719 98.375 Z M 82.851562 99.8125 C 82.847656 99.800781 82.867188 99.84375 82.882812 99.878906 C 82.871094 99.855469 82.859375 99.832031 82.851562 99.8125 Z M 90.941406 105.527344 C 90.714844 105.460938 90.492188 105.386719 90.265625 105.3125 C 90.210938 105.292969 90.152344 105.273438 90.09375 105.25 C 90.089844 105.25 90.089844 105.25 90.085938 105.25 C 90.085938 105.25 90.085938 105.25 90.082031 105.246094 C 89.960938 105.203125 89.839844 105.15625 89.714844 105.105469 C 88.8125 104.75 87.941406 104.316406 87.113281 103.8125 C 86.910156 103.691406 86.710938 103.5625 86.515625 103.433594 C 86.464844 103.398438 86.414062 103.363281 86.363281 103.332031 C 86.347656 103.320312 86.332031 103.308594 86.316406 103.300781 C 86.222656 103.234375 86.128906 103.164062 86.035156 103.097656 C 85.648438 102.8125 85.273438 102.511719 84.910156 102.199219 C 84.539062 101.878906 84.1875 101.539062 83.847656 101.1875 C 83.765625 101.105469 83.691406 101.023438 83.613281 100.941406 C 83.570312 100.894531 83.53125 100.851562 83.488281 100.804688 C 83.480469 100.796875 83.46875 100.785156 83.453125 100.769531 C 83.457031 100.777344 83.460938 100.78125 83.449219 100.769531 C 83.414062 100.738281 83.375 100.695312 83.371094 100.671875 C 83.371094 100.671875 83.375 100.675781 83.382812 100.6875 C 83.367188 100.664062 83.347656 100.640625 83.332031 100.617188 C 83.277344 100.546875 83.226562 100.476562 83.179688 100.402344 C 83.082031 100.25 82.992188 100.09375 82.910156 99.933594 C 82.902344 99.921875 82.898438 99.910156 82.890625 99.898438 C 82.886719 99.886719 82.878906 99.871094 82.875 99.859375 C 82.835938 99.769531 82.804688 99.679688 82.773438 99.589844 C 82.71875 99.4375 82.679688 99.285156 82.648438 99.125 C 82.644531 99.09375 82.640625 99.058594 82.636719 99.023438 C 82.628906 98.945312 82.625 98.863281 82.628906 98.785156 C 82.628906 98.765625 82.628906 98.75 82.628906 98.730469 C 82.644531 98.664062 82.660156 98.601562 82.675781 98.535156 C 82.683594 98.515625 82.691406 98.496094 82.703125 98.480469 C 82.710938 98.460938 82.722656 98.445312 82.730469 98.429688 C 82.75 98.40625 82.773438 98.382812 82.792969 98.359375 C 82.808594 98.347656 82.824219 98.339844 82.832031 98.332031 C 82.859375 98.3125 82.890625 98.296875 82.921875 98.28125 C 82.957031 98.269531 82.992188 98.253906 83.027344 98.246094 C 83.03125 98.246094 83.039062 98.242188 83.050781 98.242188 C 83.09375 98.238281 83.136719 98.230469 83.179688 98.230469 C 83.207031 98.230469 83.234375 98.230469 83.261719 98.234375 C 83.273438 98.234375 83.285156 98.238281 83.296875 98.238281 C 83.398438 98.257812 83.496094 98.285156 83.597656 98.316406 C 83.644531 98.332031 83.691406 98.351562 83.734375 98.375 C 83.832031 98.417969 83.925781 98.464844 84.019531 98.519531 C 84.109375 98.570312 84.203125 98.625 84.292969 98.679688 C 84.328125 98.703125 84.367188 98.730469 84.40625 98.753906 C 84.417969 98.765625 84.433594 98.773438 84.449219 98.785156 C 84.652344 98.941406 84.875 99.085938 85.082031 99.242188 C 86.777344 100.5 88.324219 101.953125 89.6875 103.5625 C 89.707031 103.582031 89.722656 103.601562 89.742188 103.621094 C 89.777344 103.667969 89.8125 103.710938 89.847656 103.753906 C 89.933594 103.855469 90.019531 103.960938 90.101562 104.0625 C 90.269531 104.273438 90.429688 104.484375 90.59375 104.699219 C 90.820312 105 91.039062 105.304688 91.253906 105.617188 C 91.148438 105.585938 91.046875 105.558594 90.941406 105.527344 Z M 90.941406 105.527344 " fill-opacity="1" fill-rule="nonzero"/></g></g></g></g><g clip-path="url(#2380fa3675)"><g clip-path="url(#1899571bc8)"><g clip-path="url(#ce9266c7f5)"><g clip-path="url(#4de1e7464b)"><path fill="#37a75b" d="M 87.46875 88.570312 C 87.46875 88.570312 87.46875 88.570312 87.46875 88.574219 C 87.480469 88.601562 87.484375 88.632812 87.488281 88.660156 C 87.496094 88.65625 87.492188 88.628906 87.46875 88.570312 Z M 87.46875 88.570312 " fill-opacity="1" fill-rule="nonzero"/></g></g></g></g><g clip-path="url(#47de73fcc4)"><g clip-path="url(#eb799f3df1)"><g clip-path="url(#a4585657a1)"><g clip-path="url(#fd36557e79)"><path fill="#37a75b" d="M 83.410156 100.722656 C 83.421875 100.734375 83.433594 100.75 83.445312 100.765625 C 83.449219 100.765625 83.449219 100.765625 83.449219 100.769531 C 83.449219 100.769531 83.449219 100.769531 83.453125 100.769531 C 83.4375 100.753906 83.402344 100.707031 83.382812 100.6875 C 83.394531 100.699219 83.402344 100.710938 83.410156 100.722656 Z M 83.410156 100.722656 " fill-opacity="1" fill-rule="nonzero"/></g></g></g></g></svg>