<svg xmlns="http://www.w3.org/2000/svg" xmlns:xlink="http://www.w3.org/1999/xlink" width="238" zoomAndPan="magnify" viewBox="0 0 178.5 183.000001" height="244" preserveAspectRatio="xMidYMid meet" version="1.0"><defs><clipPath id="b73d2b5124"><path d="M 82 82 L 97 82 L 97 99 L 82 99 Z M 82 82 " clip-rule="nonzero"/></clipPath><clipPath id="9bd92fae5c"><path d="M 95.671875 98.878906 L 81.492188 97.902344 L 82.570312 82.234375 L 96.75 83.207031 Z M 95.671875 98.878906 " clip-rule="nonzero"/></clipPath><clipPath id="c2d904eebd"><path d="M 95.671875 98.878906 L 81.492188 97.902344 L 82.570312 82.234375 L 96.75 83.207031 Z M 95.671875 98.878906 " clip-rule="nonzero"/></clipPath><clipPath id="e338390d66"><path d="M 95.671875 98.878906 L 81.492188 97.902344 L 82.570312 82.234375 L 96.75 83.207031 Z M 95.671875 98.878906 " clip-rule="nonzero"/></clipPath></defs><g clip-path="url(#b73d2b5124)"><g clip-path="url(#9bd92fae5c)"><g clip-path="url(#c2d904eebd)"><g clip-path="url(#e338390d66)"><path fill="#1967be" d="M 82.414062 84.617188 C 82.945312 84.082031 83.601562 83.867188 84.339844 83.765625 C 86.113281 83.527344 87.878906 83.222656 89.652344 82.976562 C 90.238281 82.898438 90.832031 82.863281 91.417969 82.875 C 91.960938 82.878906 92.308594 83.179688 92.367188 83.589844 C 92.421875 84.015625 92.148438 84.433594 91.59375 84.53125 C 90.683594 84.699219 89.757812 84.777344 88.839844 84.90625 C 87.445312 85.101562 86.058594 85.328125 84.667969 85.484375 C 83.859375 85.578125 83.070312 85.410156 82.402344 84.902344 Z M 92.632812 98.671875 C 93.25 98.355469 93.757812 97.917969 94.019531 97.277344 C 94.699219 95.628906 95.355469 93.96875 95.988281 92.296875 C 96.113281 91.96875 96.164062 91.617188 96.140625 91.269531 C 96.125 91.039062 95.949219 90.707031 95.765625 90.640625 C 95.550781 90.566406 95.230469 90.699219 94.996094 90.8125 C 94.855469 90.875 94.757812 91.066406 94.675781 91.222656 C 93.757812 93.066406 92.855469 94.917969 92.378906 96.929688 C 92.25 97.472656 92.414062 98.078125 92.441406 98.65625 Z M 86.625 93.585938 C 88.230469 92.722656 89.855469 91.902344 91.203125 90.628906 C 91.523438 90.328125 91.925781 90.109375 92.273438 89.828125 C 92.578125 89.578125 92.894531 89.328125 93.140625 89.019531 C 93.363281 88.746094 93.398438 88.394531 93.132812 88.097656 C 92.878906 87.820312 92.546875 87.824219 92.246094 87.976562 C 91.605469 88.308594 90.949219 88.617188 90.371094 89.03125 C 89.214844 89.863281 88.105469 90.753906 86.984375 91.625 C 86.542969 91.96875 86.101562 92.316406 85.675781 92.675781 C 85.347656 92.957031 85.074219 93.285156 85.085938 93.785156 C 85.644531 93.96875 86.152344 93.84375 86.625 93.585938 Z M 86.625 93.585938 " fill-opacity="1" fill-rule="nonzero"/></g></g></g></g></svg>