<svg xmlns="http://www.w3.org/2000/svg" xmlns:xlink="http://www.w3.org/1999/xlink" zoomAndPan="magnify" preserveAspectRatio="xMidYMid meet" version="1.0" viewBox="79.48 86.22 58.33 12.71"><defs><clipPath id="a4ab0dd9bf"><path d="M 79.476562 86.21875 L 137.808594 86.21875 L 137.808594 98.933594 L 79.476562 98.933594 Z M 79.476562 86.21875 " clip-rule="nonzero"/></clipPath></defs><g clip-path="url(#a4ab0dd9bf)"><path fill="#ec709a" d="M 120.363281 91.441406 C 120.414062 91.449219 120.464844 91.453125 120.515625 91.457031 C 123.269531 91.460938 126.023438 91.453125 128.777344 91.464844 C 131.519531 91.476562 134.265625 91.511719 137.003906 91.546875 C 137.183594 91.546875 137.359375 91.597656 137.511719 91.6875 C 137.742188 91.832031 137.808594 92.078125 137.710938 92.339844 C 137.613281 92.613281 137.394531 92.75 137.113281 92.722656 C 134.300781 92.402344 131.484375 92.679688 128.667969 92.648438 C 126.828125 92.625 124.988281 92.589844 123.152344 92.585938 C 120.308594 92.582031 117.484375 92.800781 114.65625 93.070312 C 112.613281 93.261719 110.566406 93.382812 108.527344 93.613281 C 107.5 93.730469 106.484375 93.992188 105.46875 94.230469 C 100.742188 95.332031 96.019531 96.480469 91.277344 97.546875 C 89.144531 98.027344 86.976562 98.363281 84.816406 98.71875 C 83.851562 98.875 82.867188 98.921875 81.898438 98.695312 C 81.59375 98.621094 81.304688 98.480469 81.058594 98.277344 C 80.65625 97.945312 80.6875 97.445312 81.085938 97.117188 C 81.277344 96.964844 81.484375 96.832031 81.707031 96.71875 C 83.628906 95.65625 85.707031 95.058594 87.855469 94.679688 C 92.054688 93.945312 96.269531 93.289062 100.515625 92.910156 C 102.566406 92.726562 104.632812 92.628906 106.695312 92.585938 C 108.371094 92.546875 109.980469 92.175781 111.617188 91.894531 C 115.550781 91.21875 119.492188 90.539062 123.4375 89.925781 C 127.105469 89.359375 130.753906 88.6875 134.355469 87.789062 C 134.648438 87.714844 134.929688 87.605469 135.246094 87.503906 C 135.128906 87.199219 134.914062 87.128906 134.695312 87.128906 C 134.007812 87.136719 133.3125 87.136719 132.628906 87.207031 C 131.011719 87.375 129.398438 87.5625 127.785156 87.777344 C 126.628906 87.929688 125.480469 88.152344 124.324219 88.316406 C 121.726562 88.683594 119.128906 89.023438 116.53125 89.390625 C 114.875 89.617188 113.230469 89.886719 111.578125 90.101562 C 110.167969 90.292969 108.753906 90.449219 107.339844 90.585938 C 105.613281 90.75 103.886719 90.886719 102.15625 91.003906 C 100.070312 91.144531 97.980469 91.28125 95.886719 91.355469 C 93.742188 91.4375 91.601562 91.589844 89.46875 91.851562 C 87.507812 92.09375 85.539062 92.289062 83.578125 92.53125 C 82.757812 92.628906 81.945312 92.804688 81.125 92.925781 C 80.757812 92.972656 80.386719 92.992188 80.015625 92.980469 C 79.808594 92.980469 79.542969 92.960938 79.507812 92.695312 C 79.476562 92.433594 79.722656 92.34375 79.925781 92.292969 C 80.742188 92.09375 81.554688 91.851562 82.378906 91.738281 C 85.085938 91.363281 87.792969 90.972656 90.507812 90.71875 C 93.042969 90.476562 95.597656 90.40625 98.144531 90.246094 C 101.253906 90.046875 104.367188 89.894531 107.464844 89.605469 C 110.480469 89.324219 113.484375 88.925781 116.488281 88.535156 C 119.535156 88.144531 122.574219 87.695312 125.613281 87.285156 C 128.144531 86.941406 130.671875 86.605469 133.199219 86.296875 C 133.730469 86.230469 134.28125 86.277344 134.820312 86.3125 C 135.042969 86.332031 135.277344 86.429688 135.46875 86.546875 C 136.246094 87.023438 136.253906 87.933594 135.441406 88.328125 C 134.828125 88.625 134.148438 88.808594 133.484375 88.984375 C 129.871094 89.917969 126.195312 90.535156 122.503906 91.058594 C 121.789062 91.160156 121.082031 91.28125 120.367188 91.394531 Z M 82.15625 97.582031 L 82.1875 97.710938 C 82.589844 97.710938 82.996094 97.746094 83.386719 97.703125 C 84.84375 97.53125 86.304688 97.386719 87.742188 97.128906 C 92.484375 96.285156 97.171875 95.195312 101.847656 94.042969 C 102.082031 93.984375 102.320312 93.925781 102.558594 93.863281 L 102.542969 93.777344 C 101.253906 93.894531 99.960938 93.96875 98.679688 94.144531 C 95.253906 94.605469 91.824219 95.09375 88.40625 95.609375 C 86.351562 95.921875 84.359375 96.476562 82.484375 97.410156 C 82.367188 97.46875 82.265625 97.527344 82.15625 97.582031 Z M 82.15625 97.582031 " fill-opacity="1" fill-rule="nonzero"/></g></svg>