<svg xmlns="http://www.w3.org/2000/svg" xmlns:xlink="http://www.w3.org/1999/xlink" zoomAndPan="magnify" preserveAspectRatio="xMidYMid meet" version="1.0" viewBox="402.09 177 220.5 226"><defs><clipPath id="9f7f746d14"><path d="M 402.089844 177 L 622.589844 177 L 622.589844 403 L 402.089844 403 Z M 402.089844 177 " clip-rule="nonzero"/></clipPath></defs><g clip-path="url(#9f7f746d14)"><path fill="#1867be" d="M 445.457031 369.144531 C 444.914062 369.277344 444.324219 369.300781 443.761719 369.164062 C 439.976562 368.285156 434.183594 367.835938 428.296875 368.363281 C 423.835938 368.769531 419.382812 369.730469 415.859375 371.476562 C 412.796875 373 410.484375 375.144531 409.660156 378.066406 C 409.386719 379.046875 409.261719 380.128906 409.308594 381.324219 C 409.488281 385.65625 418.660156 391.386719 428.363281 394.09375 C 432.429688 395.234375 436.554688 395.75 440.113281 395.335938 C 443.164062 394.960938 445.703125 393.878906 447.230469 391.835938 C 449.871094 388.285156 450.109375 381.652344 445.988281 370.609375 Z M 562.609375 294.054688 C 562.246094 294.15625 561.863281 294.167969 561.488281 294.078125 C 558.992188 293.492188 555.175781 293.199219 551.289062 293.546875 C 548.351562 293.816406 545.414062 294.449219 543.089844 295.601562 C 541.078125 296.605469 539.539062 298.015625 539.011719 299.941406 C 538.816406 300.585938 538.738281 301.308594 538.773438 302.097656 C 538.886719 304.949219 544.941406 308.730469 551.335938 310.511719 C 554.023438 311.269531 556.734375 311.605469 559.082031 311.324219 C 561.09375 311.085938 562.777344 310.375 563.769531 309.023438 C 565.523438 306.6875 565.667969 302.3125 562.957031 295.023438 Z M 551.109375 288.890625 C 554.644531 288.574219 558.167969 288.730469 560.902344 289.160156 C 559.285156 284.308594 557.332031 277.902344 555.820312 271.574219 C 554.339844 265.40625 553.277344 259.269531 553.355469 254.632812 C 553.480469 245.96875 557.433594 245.574219 564.59375 244.863281 C 565.023438 244.832031 565.464844 244.785156 566.371094 244.683594 C 567.25 244.59375 567.960938 244.503906 568.832031 244.390625 C 579.40625 243.070312 609.429688 239.316406 612.535156 248.902344 C 613.066406 250.550781 613.878906 252.773438 614.796875 255.277344 C 617.449219 262.550781 620.929688 272.058594 622.070312 280.496094 C 622.351562 281.015625 622.433594 281.625 622.273438 282.210938 C 622.613281 285.675781 622.511719 288.910156 621.730469 291.675781 C 619.617188 299.175781 613.328125 303.328125 599.457031 300.089844 C 595.941406 299.277344 593.648438 296.523438 593.074219 293.230469 C 592.8125 291.675781 592.925781 289.996094 593.492188 288.347656 C 594.042969 286.722656 595.039062 285.144531 596.496094 283.769531 C 600.097656 280.351562 606.742188 278.105469 617.191406 279.71875 C 615.914062 272.230469 612.785156 263.679688 610.367188 257.070312 C 609.488281 254.65625 608.695312 252.488281 608.0625 250.539062 C 606.074219 244.414062 578.792969 247.832031 569.183594 249.027344 C 567.949219 249.183594 566.957031 249.308594 566.652344 249.34375 L 564.820312 249.535156 C 560.496094 249.964844 558.113281 250.199219 558.042969 254.484375 C 557.976562 258.683594 558.980469 264.421875 560.382812 270.277344 C 562.597656 279.539062 565.78125 288.96875 567.363281 293.207031 C 570.71875 302.210938 570.175781 308.085938 567.5 311.683594 C 565.578125 314.269531 562.699219 315.585938 559.398438 315.984375 C 556.441406 316.34375 553.109375 315.9375 549.867188 315.023438 C 541.867188 312.789062 534.277344 307.230469 534.085938 302.515625 C 534.027344 301.207031 534.175781 300 534.492188 298.894531 C 535.453125 295.453125 537.9375 293.050781 541.167969 291.4375 C 544.09375 289.984375 547.628906 289.203125 551.109375 288.890625 Z M 617.203125 290.625 C 617.699219 288.878906 617.84375 286.824219 617.742188 284.601562 C 608.121094 282.820312 602.4375 284.433594 599.636719 287.085938 C 598.789062 287.886719 598.234375 288.765625 597.917969 289.65625 C 597.625 290.523438 597.558594 291.402344 597.703125 292.214844 C 597.976562 293.808594 599.070312 295.136719 600.730469 295.53125 C 611.25 297.980469 615.855469 295.441406 617.203125 290.625 Z M 456.1875 243.441406 C 455.722656 243.566406 455.238281 243.578125 454.753906 243.464844 C 451.554688 242.722656 446.664062 242.339844 441.683594 242.789062 C 437.910156 243.128906 434.148438 243.941406 431.175781 245.429688 C 428.589844 246.714844 426.625 248.519531 425.9375 250.976562 C 425.699219 251.8125 425.597656 252.726562 425.632812 253.742188 C 425.789062 257.40625 433.539062 262.246094 441.738281 264.535156 C 445.183594 265.496094 448.664062 265.945312 451.679688 265.574219 C 454.242188 265.269531 456.402344 264.355469 457.6875 262.628906 C 459.925781 259.628906 460.117188 254.023438 456.640625 244.683594 Z M 441.445312 236.820312 C 445.976562 236.40625 450.492188 236.621094 454.007812 237.160156 C 451.941406 230.945312 449.421875 222.734375 447.488281 214.625 C 445.589844 206.71875 444.234375 198.84375 444.324219 192.898438 C 444.496094 181.800781 449.554688 181.292969 458.738281 180.390625 C 459.28125 180.332031 459.847656 180.277344 461.011719 180.152344 C 462.140625 180.03125 463.054688 179.917969 464.171875 179.769531 C 477.730469 178.078125 516.214844 173.261719 520.191406 185.554688 C 520.867188 187.664062 521.917969 190.519531 523.082031 193.722656 C 526.492188 203.050781 530.957031 215.234375 532.414062 226.0625 C 532.785156 226.714844 532.875 227.503906 532.671875 228.261719 C 533.113281 232.695312 532.976562 236.832031 531.972656 240.386719 C 529.273438 250.007812 521.207031 255.320312 503.414062 251.179688 C 498.921875 250.132812 495.984375 246.601562 495.25 242.382812 C 494.898438 240.386719 495.058594 238.230469 495.78125 236.121094 C 496.492188 234.046875 497.757812 232.015625 499.632812 230.246094 C 504.25 225.871094 512.757812 222.992188 526.167969 225.070312 C 524.515625 215.457031 520.507812 204.496094 517.410156 196.023438 C 516.28125 192.921875 515.265625 190.160156 514.464844 187.65625 C 511.921875 179.804688 476.949219 184.179688 464.625 185.726562 C 463.03125 185.917969 461.765625 186.074219 461.371094 186.121094 L 459.023438 186.355469 C 453.476562 186.910156 450.414062 187.214844 450.335938 192.71875 C 450.257812 198.097656 451.542969 205.453125 453.339844 212.953125 C 456.175781 224.820312 460.265625 236.914062 462.285156 242.359375 C 466.589844 253.886719 465.890625 261.433594 462.457031 266.035156 C 459.992188 269.339844 456.3125 271.042969 452.085938 271.550781 C 448.289062 272.003906 444.007812 271.484375 439.851562 270.324219 C 429.605469 267.457031 419.871094 260.328125 419.632812 254.28125 C 419.566406 252.601562 419.746094 251.058594 420.140625 249.648438 C 421.382812 245.226562 424.570312 242.144531 428.703125 240.09375 C 432.453125 238.222656 436.984375 237.21875 441.445312 236.820312 Z M 526.175781 239.042969 C 526.808594 236.800781 527.003906 234.171875 526.878906 231.316406 C 514.53125 229.027344 507.246094 231.101562 503.652344 234.5 C 502.570312 235.523438 501.855469 236.664062 501.460938 237.792969 C 501.078125 238.910156 501 240.046875 501.179688 241.085938 C 501.53125 243.128906 502.929688 244.832031 505.054688 245.328125 C 518.554688 248.472656 524.449219 245.226562 526.175781 239.042969 Z M 428.015625 361.304688 C 433.378906 360.820312 438.722656 361.054688 442.867188 361.699219 C 440.417969 354.34375 437.457031 344.632812 435.164062 335.046875 C 432.917969 325.683594 431.3125 316.378906 431.414062 309.339844 C 431.617188 296.210938 437.617188 295.613281 448.472656 294.539062 C 449.117188 294.472656 449.792969 294.40625 451.160156 294.257812 C 452.492188 294.113281 453.578125 293.976562 454.898438 293.808594 C 470.941406 291.800781 516.472656 286.101562 521.183594 300.652344 C 521.988281 303.136719 523.21875 306.53125 524.609375 310.308594 C 528.640625 321.351562 533.914062 335.765625 535.644531 348.570312 C 536.085938 349.347656 536.1875 350.285156 535.949219 351.175781 C 536.46875 356.417969 536.300781 361.328125 535.125 365.523438 C 531.925781 376.902344 522.382812 383.199219 501.335938 378.292969 C 496.015625 377.050781 492.539062 372.875 491.667969 367.878906 C 491.261719 365.511719 491.441406 362.972656 492.300781 360.480469 C 493.148438 358.023438 494.640625 355.617188 496.851562 353.519531 C 502.320312 348.355469 512.386719 344.949219 528.246094 347.394531 C 526.300781 336.039062 521.558594 323.066406 517.898438 313.039062 C 516.554688 309.371094 515.355469 306.089844 514.394531 303.136719 C 511.390625 293.839844 470.011719 299.019531 455.441406 300.84375 C 453.554688 301.082031 452.0625 301.273438 451.589844 301.320312 L 448.8125 301.601562 C 442.246094 302.253906 438.632812 302.617188 438.53125 309.125 C 438.429688 315.484375 439.953125 324.195312 442.078125 333.070312 C 445.445312 347.113281 450.277344 361.417969 452.675781 367.847656 C 457.757812 381.503906 456.933594 390.429688 452.878906 395.875 C 449.960938 399.777344 445.601562 401.785156 440.597656 402.394531 C 436.101562 402.9375 431.042969 402.316406 426.128906 400.941406 C 413.996094 397.558594 402.496094 389.121094 402.203125 381.957031 C 402.125 379.972656 402.339844 378.144531 402.800781 376.476562 C 404.269531 371.253906 408.042969 367.609375 412.945312 365.171875 C 417.375 362.960938 422.738281 361.777344 428.015625 361.304688 Z M 528.265625 363.945312 C 529.011719 361.269531 529.238281 358.167969 529.09375 354.796875 C 514.484375 352.089844 505.855469 354.546875 501.621094 358.5625 C 500.332031 359.769531 499.484375 361.113281 499.023438 362.453125 C 498.570312 363.773438 498.46875 365.117188 498.683594 366.347656 C 499.101562 368.761719 500.75 370.777344 503.269531 371.367188 C 519.242188 375.085938 526.210938 371.242188 528.265625 363.945312 Z M 528.265625 363.945312 " fill-opacity="1" fill-rule="nonzero"/></g></svg>