<svg xmlns="http://www.w3.org/2000/svg" xmlns:xlink="http://www.w3.org/1999/xlink" zoomAndPan="magnify" preserveAspectRatio="xMidYMid meet" version="1.0" viewBox="360.61 218.42 303 454.44"><defs><clipPath id="264194c601"><path d="M 360.605469 218.417969 L 663.605469 218.417969 L 663.605469 357.917969 L 360.605469 357.917969 Z M 360.605469 218.417969 " clip-rule="nonzero"/></clipPath><clipPath id="f93bdb2e41"><path d="M 363 221 L 661 221 L 661 357.917969 L 363 357.917969 Z M 363 221 " clip-rule="nonzero"/></clipPath><clipPath id="b7ea0fe584"><path d="M 360.605469 218.417969 L 663.605469 218.417969 L 663.605469 357.917969 L 360.605469 357.917969 Z M 360.605469 218.417969 " clip-rule="nonzero"/></clipPath></defs><g clip-path="url(#264194c601)"><path fill="#ec709a" d="M 657.0625 658.140625 C 654.0625 658.140625 651.316406 658.136719 648.566406 658.144531 C 622.042969 658.207031 595.519531 658.328125 568.992188 658.316406 C 553.125 658.308594 537.253906 658.183594 521.386719 657.921875 C 512.523438 657.777344 503.671875 657.144531 494.8125 656.921875 C 485.5 656.6875 476.1875 656.695312 466.875 656.574219 C 442.214844 656.25 417.554688 655.890625 392.894531 655.589844 C 384.550781 655.492188 376.207031 655.527344 367.859375 655.503906 C 367.121094 655.503906 366.382812 655.503906 365.507812 655.503906 C 365.425781 654.917969 365.300781 654.429688 365.304688 653.945312 C 365.40625 629.710938 365.707031 605.480469 365.589844 581.25 C 365.445312 551.71875 364.933594 522.191406 364.628906 492.664062 C 364.429688 473.574219 364.285156 454.480469 364.167969 435.390625 C 364.058594 417.792969 363.828125 400.191406 364 382.597656 C 364.140625 368.132812 364.78125 353.675781 365.222656 339.214844 C 365.980469 314.464844 366.351562 289.710938 366.070312 264.949219 C 366.027344 261.378906 366.0625 257.808594 366.0625 254.019531 C 366.421875 253.96875 366.976562 253.824219 367.535156 253.8125 C 372.601562 253.707031 377.667969 253.636719 382.734375 253.535156 C 393.234375 253.320312 403.738281 252.882812 414.238281 252.929688 C 426.304688 252.984375 438.371094 253.652344 450.4375 253.707031 C 462.648438 253.761719 474.871094 253.539062 487.078125 253.160156 C 496.390625 252.871094 505.691406 252.453125 515.007812 252.71875 C 535.121094 253.292969 555.234375 253.226562 575.351562 252.730469 C 584.511719 252.503906 593.675781 252.410156 602.835938 252.179688 C 611.476562 251.960938 620.109375 251.585938 628.75 251.378906 C 638.652344 251.144531 648.558594 251.015625 658.464844 250.84375 C 658.96875 250.835938 659.472656 250.84375 660.234375 250.84375 C 660.234375 251.859375 660.246094 252.730469 660.230469 253.597656 C 659.832031 276.042969 659.304688 298.484375 659.054688 320.929688 C 658.734375 349.265625 658.519531 377.601562 658.484375 405.941406 C 658.433594 443.824219 658.246094 481.707031 657.300781 519.582031 C 656.484375 552.234375 656.042969 584.894531 656.117188 617.5625 C 656.140625 629.71875 656.257812 641.871094 657.050781 654.007812 C 657.132812 655.257812 657.0625 656.515625 657.0625 658.140625 Z M 366.710938 244.609375 C 376.542969 244.644531 386.378906 244.851562 396.203125 244.667969 C 415.417969 244.304688 434.625 243.621094 453.839844 243.257812 C 472.90625 242.902344 491.976562 242.652344 511.042969 242.59375 C 526.089844 242.546875 541.132812 242.851562 556.179688 243.03125 C 569.957031 243.195312 583.738281 243.644531 597.515625 243.519531 C 617.625 243.335938 637.734375 242.730469 657.84375 243.535156 C 658.632812 243.566406 659.425781 243.539062 660.441406 243.539062 C 660.441406 242.375 660.445312 241.488281 660.441406 240.605469 C 660.402344 235.835938 660.378906 231.0625 660.320312 226.292969 C 660.285156 223.417969 660.117188 223.261719 657.320312 223.0625 C 657.097656 223.042969 656.875 223.035156 656.652344 223.023438 C 643.929688 222.28125 631.195312 222.207031 618.453125 222.285156 C 602.441406 222.382812 586.425781 222.507812 570.410156 222.445312 C 549.257812 222.367188 528.101562 222.070312 506.949219 221.964844 C 487.28125 221.867188 467.613281 221.722656 447.953125 221.910156 C 421.511719 222.164062 395.074219 222.710938 368.632812 223.152344 C 367.539062 223.171875 366.445312 223.375 365.039062 223.527344 C 365.285156 230.566406 365.527344 237.453125 365.773438 244.46875 C 366.273438 244.546875 366.492188 244.609375 366.710938 244.609375 Z M 377.644531 239.207031 C 374.949219 239.160156 372.800781 237.011719 372.835938 234.398438 C 372.882812 231.21875 375.273438 228.777344 378.273438 228.839844 C 381.007812 228.898438 382.710938 230.871094 382.664062 233.917969 C 382.613281 237.199219 380.65625 239.257812 377.644531 239.207031 Z M 392.929688 227.550781 C 395.941406 227.542969 398.300781 230.207031 398.226562 233.535156 C 398.164062 236.441406 395.429688 239.117188 392.578125 239.0625 C 389.792969 239.007812 387.46875 236.28125 387.46875 233.066406 C 387.464844 229.867188 389.746094 227.566406 392.929688 227.550781 Z M 412.640625 233.304688 C 412.585938 236.617188 410.171875 239.179688 407.132812 239.148438 C 404.234375 239.113281 401.914062 236.359375 401.945312 232.984375 C 401.96875 230.203125 404.414062 228.027344 407.496094 228.046875 C 410.5625 228.066406 412.691406 230.242188 412.640625 233.304688 Z M 365.238281 663.382812 C 365.3125 665.386719 365.476562 665.734375 367.460938 666.128906 C 370.957031 666.820312 374.484375 667.644531 378.023438 667.808594 C 393.796875 668.539062 409.578125 669.210938 425.363281 669.601562 C 436.980469 669.886719 448.605469 669.726562 460.226562 669.710938 C 484.289062 669.683594 508.351562 669.554688 532.417969 669.589844 C 547.316406 669.609375 562.214844 669.980469 577.113281 669.972656 C 602.441406 669.960938 627.769531 669.78125 653.097656 669.667969 C 653.621094 669.664062 654.140625 669.65625 654.664062 669.636719 C 655.695312 669.605469 656.34375 669.0625 656.5625 668.070312 C 657.082031 665.746094 657.289062 663.398438 657.046875 660.835938 C 656.351562 660.835938 655.773438 660.824219 655.199219 660.835938 C 650.957031 660.933594 646.710938 661.117188 642.46875 661.125 C 614.15625 661.171875 585.847656 661.210938 557.539062 661.191406 C 546.363281 661.183594 535.1875 661.136719 524.019531 660.902344 C 514.339844 660.699219 504.667969 660.078125 494.988281 659.871094 C 482.101562 659.589844 469.214844 659.519531 456.328125 659.371094 C 426.753906 659.023438 397.179688 658.679688 367.609375 658.335938 C 366.882812 658.328125 366.160156 658.335938 365.226562 658.335938 C 365.226562 660.136719 365.175781 661.761719 365.238281 663.382812 Z M 366.984375 251.214844 C 375.476562 251.046875 383.980469 251.105469 392.453125 250.648438 C 408.171875 249.796875 423.882812 250.246094 439.597656 250.507812 C 448.757812 250.660156 457.917969 250.980469 467.078125 250.878906 C 477.351562 250.765625 487.621094 250.097656 497.898438 249.96875 C 508.023438 249.839844 518.15625 250.167969 528.289062 250.148438 C 548.324219 250.105469 568.363281 249.996094 588.402344 249.839844 C 594.507812 249.789062 600.613281 249.480469 606.71875 249.308594 C 615.207031 249.070312 623.691406 248.777344 632.183594 248.636719 C 640.746094 248.496094 649.3125 248.507812 657.878906 248.445312 C 658.609375 248.441406 659.339844 248.359375 660.136719 248.308594 C 660.136719 247.550781 660.136719 246.945312 660.136719 246.222656 C 657.816406 246.222656 655.664062 246.226562 653.511719 246.222656 C 640.550781 246.195312 627.59375 246.144531 614.632812 246.140625 C 600.179688 246.132812 585.730469 246.269531 571.277344 246.148438 C 558.320312 246.042969 545.359375 245.457031 532.402344 245.464844 C 501.265625 245.476562 470.125 245.417969 439 246.671875 C 423.820312 247.285156 408.617188 247.410156 393.421875 247.589844 C 385.304688 247.6875 377.183594 247.425781 369.066406 247.332031 C 367.984375 247.320312 366.902344 247.355469 365.820312 247.371094 C 365.820312 248.761719 365.820312 249.859375 365.820312 251.113281 C 366.398438 251.164062 366.691406 251.21875 366.984375 251.214844 Z M 389.96875 233.667969 C 389.957031 235.144531 391.351562 236.617188 392.742188 236.597656 C 394.300781 236.582031 395.75 234.992188 395.726562 233.332031 C 395.695312 231.523438 394.515625 230.1875 392.964844 230.210938 C 391.210938 230.238281 389.980469 231.65625 389.96875 233.667969 Z M 407.160156 236.753906 C 408.796875 236.777344 410.28125 235.179688 410.300781 233.371094 C 410.324219 231.65625 409.25 230.566406 407.566406 230.585938 C 405.65625 230.605469 404.421875 231.78125 404.4375 233.5625 C 404.449219 235.304688 405.667969 236.734375 407.160156 236.753906 Z M 661.621094 444.59375 C 661.226562 466.066406 660.84375 487.539062 660.4375 509.011719 C 660.203125 521.316406 659.828125 533.617188 659.707031 545.921875 C 659.410156 575.378906 659.195312 604.832031 659.03125 634.289062 C 659.003906 639.207031 659.441406 644.125 659.578125 649.042969 C 659.722656 654.035156 659.796875 659.027344 659.824219 664.023438 C 659.828125 665.355469 659.628906 666.703125 659.390625 668.019531 C 658.816406 671.179688 657.429688 672.367188 654.214844 672.421875 C 650.191406 672.488281 646.167969 672.480469 642.144531 672.5 C 618.523438 672.628906 594.90625 672.851562 571.285156 672.859375 C 548.636719 672.863281 525.984375 672.578125 503.335938 672.546875 C 481.132812 672.515625 458.925781 672.773438 436.722656 672.660156 C 423.539062 672.59375 410.355469 672.109375 397.175781 671.6875 C 390.402344 671.472656 383.625 671.101562 376.871094 670.570312 C 373.394531 670.296875 369.925781 669.683594 366.519531 668.9375 C 362.78125 668.121094 362.0625 667.164062 362.074219 663.398438 C 362.085938 658.105469 362.335938 652.8125 362.363281 647.519531 C 362.445312 630.21875 362.609375 612.914062 362.496094 595.613281 C 362.285156 563.621094 361.886719 531.628906 361.59375 499.640625 C 361.386719 476.746094 361.191406 453.847656 361.050781 430.953125 C 360.953125 414.773438 360.695312 398.585938 360.984375 382.410156 C 361.398438 359.296875 362.332031 336.191406 362.886719 313.082031 C 363.355469 293.695312 363.5625 274.304688 362.96875 254.917969 C 362.871094 251.734375 362.972656 248.550781 362.902344 245.367188 C 362.765625 239.257812 362.558594 233.148438 362.410156 227.039062 C 362.382812 225.921875 362.410156 224.796875 362.542969 223.6875 C 362.785156 221.699219 363.546875 220.910156 365.578125 220.800781 C 371.601562 220.476562 377.628906 220.179688 383.660156 219.980469 C 431.632812 218.410156 479.621094 219.171875 527.605469 219.089844 C 551.148438 219.050781 574.695312 219.402344 598.238281 219.445312 C 612.171875 219.472656 626.101562 219.160156 640.035156 219.171875 C 646.0625 219.175781 652.09375 219.617188 658.121094 219.867188 C 658.492188 219.878906 658.867188 219.90625 659.234375 219.953125 C 662.214844 220.34375 663.433594 221.65625 663.472656 224.675781 C 663.53125 229.222656 663.609375 233.773438 663.539062 238.324219 C 663.015625 270.835938 662.34375 303.34375 661.949219 335.855469 C 661.628906 362.480469 661.613281 389.105469 661.492188 415.726562 C 661.449219 425.347656 661.484375 434.96875 661.484375 444.589844 C 661.53125 444.589844 661.574219 444.589844 661.621094 444.59375 Z M 657.0625 658.140625 C 657.0625 656.515625 657.132812 655.257812 657.050781 654.007812 C 656.257812 641.871094 656.140625 629.71875 656.117188 617.5625 C 656.042969 584.894531 656.484375 552.234375 657.300781 519.582031 C 658.246094 481.707031 658.433594 443.824219 658.484375 405.941406 C 658.519531 377.601562 658.734375 349.265625 659.054688 320.929688 C 659.304688 298.484375 659.832031 276.042969 660.230469 253.597656 C 660.246094 252.730469 660.234375 251.859375 660.234375 250.84375 C 659.472656 250.84375 658.96875 250.835938 658.464844 250.84375 C 648.558594 251.015625 638.652344 251.144531 628.75 251.378906 C 620.109375 251.585938 611.476562 251.960938 602.835938 252.179688 C 593.675781 252.410156 584.511719 252.503906 575.351562 252.730469 C 555.234375 253.226562 535.121094 253.292969 515.007812 252.71875 C 505.691406 252.453125 496.390625 252.871094 487.078125 253.160156 C 474.871094 253.539062 462.648438 253.761719 450.4375 253.707031 C 438.371094 253.652344 426.304688 252.984375 414.238281 252.929688 C 403.738281 252.882812 393.234375 253.320312 382.734375 253.535156 C 377.667969 253.636719 372.601562 253.707031 367.535156 253.8125 C 366.976562 253.824219 366.421875 253.96875 366.0625 254.019531 C 366.0625 257.808594 366.027344 261.378906 366.070312 264.949219 C 366.351562 289.710938 365.980469 314.464844 365.222656 339.214844 C 364.78125 353.675781 364.140625 368.132812 364 382.597656 C 363.828125 400.191406 364.058594 417.792969 364.167969 435.390625 C 364.285156 454.480469 364.429688 473.574219 364.628906 492.664062 C 364.933594 522.191406 365.445312 551.71875 365.589844 581.25 C 365.707031 605.480469 365.40625 629.710938 365.304688 653.945312 C 365.300781 654.429688 365.425781 654.917969 365.507812 655.503906 C 366.382812 655.503906 367.121094 655.503906 367.859375 655.503906 C 376.207031 655.527344 384.550781 655.492188 392.894531 655.589844 C 417.554688 655.890625 442.214844 656.25 466.875 656.574219 C 476.1875 656.695312 485.5 656.6875 494.8125 656.921875 C 503.671875 657.144531 512.523438 657.777344 521.386719 657.921875 C 537.253906 658.183594 553.125 658.308594 568.992188 658.316406 C 595.519531 658.328125 622.042969 658.207031 648.566406 658.144531 C 651.316406 658.136719 654.0625 658.140625 657.0625 658.140625 Z M 365.773438 244.46875 C 366.273438 244.546875 366.492188 244.609375 366.710938 244.609375 C 376.542969 244.644531 386.378906 244.851562 396.203125 244.667969 C 415.417969 244.304688 434.625 243.621094 453.839844 243.257812 C 472.90625 242.902344 491.976562 242.652344 511.042969 242.59375 C 526.089844 242.546875 541.132812 242.851562 556.179688 243.03125 C 569.957031 243.195312 583.738281 243.644531 597.515625 243.519531 C 617.625 243.335938 637.734375 242.730469 657.84375 243.535156 C 658.632812 243.566406 659.425781 243.539062 660.441406 243.539062 C 660.441406 242.375 660.445312 241.488281 660.441406 240.605469 C 660.402344 235.835938 660.378906 231.0625 660.320312 226.292969 C 660.285156 223.417969 660.117188 223.261719 657.320312 223.0625 C 657.097656 223.042969 656.875 223.035156 656.652344 223.023438 C 643.929688 222.28125 631.195312 222.207031 618.453125 222.285156 C 602.441406 222.382812 586.425781 222.507812 570.410156 222.445312 C 549.257812 222.367188 528.101562 222.070312 506.949219 221.964844 C 487.28125 221.867188 467.613281 221.722656 447.953125 221.910156 C 421.511719 222.164062 395.074219 222.710938 368.632812 223.152344 C 367.539062 223.171875 366.445312 223.375 365.039062 223.527344 C 365.285156 230.566406 365.527344 237.453125 365.773438 244.46875 Z M 365.226562 658.335938 C 365.226562 660.136719 365.175781 661.761719 365.238281 663.382812 C 365.3125 665.386719 365.476562 665.734375 367.460938 666.128906 C 370.957031 666.820312 374.484375 667.644531 378.023438 667.808594 C 393.796875 668.539062 409.578125 669.210938 425.363281 669.601562 C 436.980469 669.886719 448.605469 669.726562 460.226562 669.710938 C 484.289062 669.683594 508.351562 669.554688 532.417969 669.589844 C 547.316406 669.609375 562.214844 669.980469 577.113281 669.972656 C 602.441406 669.960938 627.769531 669.78125 653.097656 669.667969 C 653.621094 669.664062 654.140625 669.65625 654.664062 669.636719 C 655.695312 669.605469 656.34375 669.0625 656.5625 668.070312 C 657.082031 665.746094 657.289062 663.398438 657.046875 660.835938 C 656.351562 660.835938 655.773438 660.824219 655.199219 660.835938 C 650.957031 660.933594 646.710938 661.117188 642.46875 661.125 C 614.15625 661.171875 585.847656 661.210938 557.539062 661.191406 C 546.363281 661.183594 535.1875 661.136719 524.019531 660.902344 C 514.339844 660.699219 504.667969 660.078125 494.988281 659.871094 C 482.101562 659.589844 469.214844 659.519531 456.328125 659.371094 C 426.753906 659.023438 397.179688 658.679688 367.609375 658.335938 C 366.882812 658.328125 366.160156 658.335938 365.226562 658.335938 Z M 365.820312 251.113281 C 366.398438 251.164062 366.691406 251.21875 366.984375 251.214844 C 375.476562 251.046875 383.980469 251.105469 392.453125 250.648438 C 408.171875 249.796875 423.882812 250.246094 439.597656 250.507812 C 448.757812 250.660156 457.917969 250.980469 467.078125 250.878906 C 477.351562 250.765625 487.621094 250.097656 497.898438 249.96875 C 508.023438 249.839844 518.15625 250.167969 528.289062 250.148438 C 548.324219 250.105469 568.363281 249.996094 588.402344 249.839844 C 594.507812 249.789062 600.613281 249.480469 606.71875 249.308594 C 615.207031 249.070312 623.691406 248.777344 632.183594 248.636719 C 640.746094 248.496094 649.3125 248.507812 657.878906 248.445312 C 658.609375 248.441406 659.339844 248.359375 660.136719 248.308594 C 660.136719 247.550781 660.136719 246.945312 660.136719 246.222656 C 657.816406 246.222656 655.664062 246.226562 653.511719 246.222656 C 640.550781 246.195312 627.59375 246.144531 614.632812 246.140625 C 600.179688 246.132812 585.730469 246.269531 571.277344 246.148438 C 558.320312 246.042969 545.359375 245.457031 532.402344 245.464844 C 501.265625 245.476562 470.125 245.417969 439 246.671875 C 423.820312 247.285156 408.617188 247.410156 393.421875 247.589844 C 385.304688 247.6875 377.183594 247.425781 369.066406 247.332031 C 367.984375 247.320312 366.902344 247.355469 365.820312 247.371094 C 365.820312 248.761719 365.820312 249.859375 365.820312 251.113281 Z M 378.273438 228.839844 C 375.273438 228.777344 372.882812 231.21875 372.835938 234.398438 C 372.800781 237.011719 374.949219 239.160156 377.644531 239.207031 C 380.65625 239.257812 382.613281 237.199219 382.664062 233.917969 C 382.710938 230.871094 381.007812 228.898438 378.273438 228.839844 Z M 387.46875 233.066406 C 387.464844 229.867188 389.746094 227.566406 392.929688 227.550781 C 395.941406 227.542969 398.300781 230.207031 398.226562 233.535156 C 398.164062 236.441406 395.429688 239.117188 392.578125 239.0625 C 389.792969 239.007812 387.46875 236.28125 387.46875 233.066406 Z M 392.964844 230.210938 C 391.210938 230.238281 389.980469 231.65625 389.96875 233.667969 C 389.957031 235.144531 391.351562 236.617188 392.742188 236.597656 C 394.300781 236.582031 395.75 234.992188 395.726562 233.332031 C 395.695312 231.523438 394.515625 230.1875 392.964844 230.210938 Z M 407.496094 228.046875 C 410.5625 228.066406 412.691406 230.242188 412.640625 233.304688 C 412.585938 236.617188 410.171875 239.179688 407.132812 239.148438 C 404.234375 239.113281 401.914062 236.359375 401.945312 232.984375 C 401.96875 230.203125 404.414062 228.027344 407.496094 228.046875 Z M 404.4375 233.5625 C 404.449219 235.304688 405.667969 236.734375 407.160156 236.753906 C 408.796875 236.777344 410.28125 235.179688 410.300781 233.371094 C 410.324219 231.65625 409.25 230.566406 407.566406 230.585938 C 405.65625 230.605469 404.421875 231.78125 404.4375 233.5625 Z M 404.4375 233.5625 " fill-opacity="1" fill-rule="nonzero"/></g><g clip-path="url(#f93bdb2e41)"><path fill="#ffffff" d="M 657.0625 658.140625 C 654.0625 658.140625 651.316406 658.136719 648.566406 658.144531 C 622.042969 658.207031 595.519531 658.328125 568.992188 658.316406 C 553.125 658.308594 537.253906 658.183594 521.386719 657.921875 C 512.523438 657.777344 503.671875 657.144531 494.8125 656.921875 C 485.5 656.6875 476.1875 656.695312 466.875 656.574219 C 442.214844 656.25 417.554688 655.890625 392.894531 655.589844 C 384.550781 655.492188 376.207031 655.527344 367.859375 655.503906 C 367.121094 655.503906 366.382812 655.503906 365.507812 655.503906 C 365.425781 654.917969 365.300781 654.429688 365.304688 653.945312 C 365.40625 629.710938 365.707031 605.480469 365.589844 581.25 C 365.445312 551.71875 364.933594 522.191406 364.628906 492.664062 C 364.429688 473.574219 364.285156 454.480469 364.167969 435.390625 C 364.058594 417.792969 363.828125 400.191406 364 382.597656 C 364.140625 368.132812 364.78125 353.675781 365.222656 339.214844 C 365.980469 314.464844 366.351562 289.710938 366.070312 264.949219 C 366.027344 261.378906 366.0625 257.808594 366.0625 254.019531 C 366.421875 253.96875 366.976562 253.824219 367.535156 253.8125 C 372.601562 253.707031 377.667969 253.636719 382.734375 253.535156 C 393.234375 253.320312 403.738281 252.882812 414.238281 252.929688 C 426.304688 252.984375 438.371094 253.652344 450.4375 253.707031 C 462.648438 253.761719 474.871094 253.539062 487.078125 253.160156 C 496.390625 252.871094 505.691406 252.453125 515.007812 252.71875 C 535.121094 253.292969 555.234375 253.226562 575.351562 252.730469 C 584.511719 252.503906 593.675781 252.410156 602.835938 252.179688 C 611.476562 251.960938 620.109375 251.585938 628.75 251.378906 C 638.652344 251.144531 648.558594 251.015625 658.464844 250.84375 C 658.96875 250.835938 659.472656 250.84375 660.234375 250.84375 C 660.234375 251.859375 660.246094 252.730469 660.230469 253.597656 C 659.832031 276.042969 659.304688 298.484375 659.054688 320.929688 C 658.734375 349.265625 658.519531 377.601562 658.484375 405.941406 C 658.433594 443.824219 658.246094 481.707031 657.300781 519.582031 C 656.484375 552.234375 656.042969 584.894531 656.117188 617.5625 C 656.140625 629.71875 656.257812 641.871094 657.050781 654.007812 C 657.132812 655.257812 657.0625 656.515625 657.0625 658.140625 Z M 366.710938 244.609375 C 376.542969 244.644531 386.378906 244.851562 396.203125 244.667969 C 415.417969 244.304688 434.625 243.621094 453.839844 243.257812 C 472.90625 242.902344 491.976562 242.652344 511.042969 242.59375 C 526.089844 242.546875 541.132812 242.851562 556.179688 243.03125 C 569.957031 243.195312 583.738281 243.644531 597.515625 243.519531 C 617.625 243.335938 637.734375 242.730469 657.84375 243.535156 C 658.632812 243.566406 659.425781 243.539062 660.441406 243.539062 C 660.441406 242.375 660.445312 241.488281 660.441406 240.605469 C 660.402344 235.835938 660.378906 231.0625 660.320312 226.292969 C 660.285156 223.417969 660.117188 223.261719 657.320312 223.0625 C 657.097656 223.042969 656.875 223.035156 656.652344 223.023438 C 643.929688 222.28125 631.195312 222.207031 618.453125 222.285156 C 602.441406 222.382812 586.425781 222.507812 570.410156 222.445312 C 549.257812 222.367188 528.101562 222.070312 506.949219 221.964844 C 487.28125 221.867188 467.613281 221.722656 447.953125 221.910156 C 421.511719 222.164062 395.074219 222.710938 368.632812 223.152344 C 367.539062 223.171875 366.445312 223.375 365.039062 223.527344 C 365.285156 230.566406 365.527344 237.453125 365.773438 244.46875 C 366.273438 244.546875 366.492188 244.609375 366.710938 244.609375 Z M 377.644531 239.207031 C 374.949219 239.160156 372.800781 237.011719 372.835938 234.398438 C 372.882812 231.21875 375.273438 228.777344 378.273438 228.839844 C 381.007812 228.898438 382.710938 230.871094 382.664062 233.917969 C 382.613281 237.199219 380.65625 239.257812 377.644531 239.207031 Z M 392.929688 227.550781 C 395.941406 227.542969 398.300781 230.207031 398.226562 233.535156 C 398.164062 236.441406 395.429688 239.117188 392.578125 239.0625 C 389.792969 239.007812 387.46875 236.28125 387.46875 233.066406 C 387.464844 229.867188 389.746094 227.566406 392.929688 227.550781 Z M 412.640625 233.304688 C 412.585938 236.617188 410.171875 239.179688 407.132812 239.148438 C 404.234375 239.113281 401.914062 236.359375 401.945312 232.984375 C 401.96875 230.203125 404.414062 228.027344 407.496094 228.046875 C 410.5625 228.066406 412.691406 230.242188 412.640625 233.304688 Z M 365.238281 663.382812 C 365.3125 665.386719 365.476562 665.734375 367.460938 666.128906 C 370.957031 666.820312 374.484375 667.644531 378.023438 667.808594 C 393.796875 668.539062 409.578125 669.210938 425.363281 669.601562 C 436.980469 669.886719 448.605469 669.726562 460.226562 669.710938 C 484.289062 669.683594 508.351562 669.554688 532.417969 669.589844 C 547.316406 669.609375 562.214844 669.980469 577.113281 669.972656 C 602.441406 669.960938 627.769531 669.78125 653.097656 669.667969 C 653.621094 669.664062 654.140625 669.65625 654.664062 669.636719 C 655.695312 669.605469 656.34375 669.0625 656.5625 668.070312 C 657.082031 665.746094 657.289062 663.398438 657.046875 660.835938 C 656.351562 660.835938 655.773438 660.824219 655.199219 660.835938 C 650.957031 660.933594 646.710938 661.117188 642.46875 661.125 C 614.15625 661.171875 585.847656 661.210938 557.539062 661.191406 C 546.363281 661.183594 535.1875 661.136719 524.019531 660.902344 C 514.339844 660.699219 504.667969 660.078125 494.988281 659.871094 C 482.101562 659.589844 469.214844 659.519531 456.328125 659.371094 C 426.753906 659.023438 397.179688 658.679688 367.609375 658.335938 C 366.882812 658.328125 366.160156 658.335938 365.226562 658.335938 C 365.226562 660.136719 365.175781 661.761719 365.238281 663.382812 Z M 366.984375 251.214844 C 375.476562 251.046875 383.980469 251.105469 392.453125 250.648438 C 408.171875 249.796875 423.882812 250.246094 439.597656 250.507812 C 448.757812 250.660156 457.917969 250.980469 467.078125 250.878906 C 477.351562 250.765625 487.621094 250.097656 497.898438 249.96875 C 508.023438 249.839844 518.15625 250.167969 528.289062 250.148438 C 548.324219 250.105469 568.363281 249.996094 588.402344 249.839844 C 594.507812 249.789062 600.613281 249.480469 606.71875 249.308594 C 615.207031 249.070312 623.691406 248.777344 632.183594 248.636719 C 640.746094 248.496094 649.3125 248.507812 657.878906 248.445312 C 658.609375 248.441406 659.339844 248.359375 660.136719 248.308594 C 660.136719 247.550781 660.136719 246.945312 660.136719 246.222656 C 657.816406 246.222656 655.664062 246.226562 653.511719 246.222656 C 640.550781 246.195312 627.59375 246.144531 614.632812 246.140625 C 600.179688 246.132812 585.730469 246.269531 571.277344 246.148438 C 558.320312 246.042969 545.359375 245.457031 532.402344 245.464844 C 501.265625 245.476562 470.125 245.417969 439 246.671875 C 423.820312 247.285156 408.617188 247.410156 393.421875 247.589844 C 385.304688 247.6875 377.183594 247.425781 369.066406 247.332031 C 367.984375 247.320312 366.902344 247.355469 365.820312 247.371094 C 365.820312 248.761719 365.820312 249.859375 365.820312 251.113281 C 366.398438 251.164062 366.691406 251.21875 366.984375 251.214844 Z M 389.96875 233.667969 C 389.957031 235.144531 391.351562 236.617188 392.742188 236.597656 C 394.300781 236.582031 395.75 234.992188 395.726562 233.332031 C 395.695312 231.523438 394.515625 230.1875 392.964844 230.210938 C 391.210938 230.238281 389.980469 231.65625 389.96875 233.667969 Z M 407.160156 236.753906 C 408.796875 236.777344 410.28125 235.179688 410.300781 233.371094 C 410.324219 231.65625 409.25 230.566406 407.566406 230.585938 C 405.65625 230.605469 404.421875 231.78125 404.4375 233.5625 C 404.449219 235.304688 405.667969 236.734375 407.160156 236.753906 Z M 407.160156 236.753906 " fill-opacity="1" fill-rule="nonzero"/></g><g clip-path="url(#b7ea0fe584)"><path fill="#ec709a" d="M 661.621094 444.59375 C 661.226562 466.066406 660.84375 487.539062 660.4375 509.011719 C 660.203125 521.316406 659.828125 533.617188 659.707031 545.921875 C 659.410156 575.378906 659.195312 604.832031 659.03125 634.289062 C 659.003906 639.207031 659.441406 644.125 659.578125 649.042969 C 659.722656 654.035156 659.796875 659.027344 659.824219 664.023438 C 659.828125 665.355469 659.628906 666.703125 659.390625 668.019531 C 658.816406 671.179688 657.429688 672.367188 654.214844 672.421875 C 650.191406 672.488281 646.167969 672.480469 642.144531 672.5 C 618.523438 672.628906 594.90625 672.851562 571.285156 672.859375 C 548.636719 672.863281 525.984375 672.578125 503.335938 672.546875 C 481.132812 672.515625 458.925781 672.773438 436.722656 672.660156 C 423.539062 672.59375 410.355469 672.109375 397.175781 671.6875 C 390.402344 671.472656 383.625 671.101562 376.871094 670.570312 C 373.394531 670.296875 369.925781 669.683594 366.519531 668.9375 C 362.78125 668.121094 362.0625 667.164062 362.074219 663.398438 C 362.085938 658.105469 362.335938 652.8125 362.363281 647.519531 C 362.445312 630.21875 362.609375 612.914062 362.496094 595.613281 C 362.285156 563.621094 361.886719 531.628906 361.59375 499.640625 C 361.386719 476.746094 361.191406 453.847656 361.050781 430.953125 C 360.953125 414.773438 360.695312 398.585938 360.984375 382.410156 C 361.398438 359.296875 362.332031 336.191406 362.886719 313.082031 C 363.355469 293.695312 363.5625 274.304688 362.96875 254.917969 C 362.871094 251.734375 362.972656 248.550781 362.902344 245.367188 C 362.765625 239.257812 362.558594 233.148438 362.410156 227.039062 C 362.382812 225.921875 362.410156 224.796875 362.542969 223.6875 C 362.785156 221.699219 363.546875 220.910156 365.578125 220.800781 C 371.601562 220.476562 377.628906 220.179688 383.660156 219.980469 C 431.632812 218.410156 479.621094 219.171875 527.605469 219.089844 C 551.148438 219.050781 574.695312 219.402344 598.238281 219.445312 C 612.171875 219.472656 626.101562 219.160156 640.035156 219.171875 C 646.0625 219.175781 652.09375 219.617188 658.121094 219.867188 C 658.492188 219.878906 658.867188 219.90625 659.234375 219.953125 C 662.214844 220.34375 663.433594 221.65625 663.472656 224.675781 C 663.53125 229.222656 663.609375 233.773438 663.539062 238.324219 C 663.015625 270.835938 662.34375 303.34375 661.949219 335.855469 C 661.628906 362.480469 661.613281 389.105469 661.492188 415.726562 C 661.449219 425.347656 661.484375 434.96875 661.484375 444.589844 C 661.53125 444.589844 661.574219 444.589844 661.621094 444.59375 Z M 657.0625 658.140625 C 657.0625 656.515625 657.132812 655.257812 657.050781 654.007812 C 656.257812 641.871094 656.140625 629.71875 656.117188 617.5625 C 656.042969 584.894531 656.484375 552.234375 657.300781 519.582031 C 658.246094 481.707031 658.433594 443.824219 658.484375 405.941406 C 658.519531 377.601562 658.734375 349.265625 659.054688 320.929688 C 659.304688 298.484375 659.832031 276.042969 660.230469 253.597656 C 660.246094 252.730469 660.234375 251.859375 660.234375 250.84375 C 659.472656 250.84375 658.96875 250.835938 658.464844 250.84375 C 648.558594 251.015625 638.652344 251.144531 628.75 251.378906 C 620.109375 251.585938 611.476562 251.960938 602.835938 252.179688 C 593.675781 252.410156 584.511719 252.503906 575.351562 252.730469 C 555.234375 253.226562 535.121094 253.292969 515.007812 252.71875 C 505.691406 252.453125 496.390625 252.871094 487.078125 253.160156 C 474.871094 253.539062 462.648438 253.761719 450.4375 253.707031 C 438.371094 253.652344 426.304688 252.984375 414.238281 252.929688 C 403.738281 252.882812 393.234375 253.320312 382.734375 253.535156 C 377.667969 253.636719 372.601562 253.707031 367.535156 253.8125 C 366.976562 253.824219 366.421875 253.96875 366.0625 254.019531 C 366.0625 257.808594 366.027344 261.378906 366.070312 264.949219 C 366.351562 289.710938 365.980469 314.464844 365.222656 339.214844 C 364.78125 353.675781 364.140625 368.132812 364 382.597656 C 363.828125 400.191406 364.058594 417.792969 364.167969 435.390625 C 364.285156 454.480469 364.429688 473.574219 364.628906 492.664062 C 364.933594 522.191406 365.445312 551.71875 365.589844 581.25 C 365.707031 605.480469 365.40625 629.710938 365.304688 653.945312 C 365.300781 654.429688 365.425781 654.917969 365.507812 655.503906 C 366.382812 655.503906 367.121094 655.503906 367.859375 655.503906 C 376.207031 655.527344 384.550781 655.492188 392.894531 655.589844 C 417.554688 655.890625 442.214844 656.25 466.875 656.574219 C 476.1875 656.695312 485.5 656.6875 494.8125 656.921875 C 503.671875 657.144531 512.523438 657.777344 521.386719 657.921875 C 537.253906 658.183594 553.125 658.308594 568.992188 658.316406 C 595.519531 658.328125 622.042969 658.207031 648.566406 658.144531 C 651.316406 658.136719 654.0625 658.140625 657.0625 658.140625 Z M 365.773438 244.46875 C 366.273438 244.546875 366.492188 244.609375 366.710938 244.609375 C 376.542969 244.644531 386.378906 244.851562 396.203125 244.667969 C 415.417969 244.304688 434.625 243.621094 453.839844 243.257812 C 472.90625 242.902344 491.976562 242.652344 511.042969 242.59375 C 526.089844 242.546875 541.132812 242.851562 556.179688 243.03125 C 569.957031 243.195312 583.738281 243.644531 597.515625 243.519531 C 617.625 243.335938 637.734375 242.730469 657.84375 243.535156 C 658.632812 243.566406 659.425781 243.539062 660.441406 243.539062 C 660.441406 242.375 660.445312 241.488281 660.441406 240.605469 C 660.402344 235.835938 660.378906 231.0625 660.320312 226.292969 C 660.285156 223.417969 660.117188 223.261719 657.320312 223.0625 C 657.097656 223.042969 656.875 223.035156 656.652344 223.023438 C 643.929688 222.28125 631.195312 222.207031 618.453125 222.285156 C 602.441406 222.382812 586.425781 222.507812 570.410156 222.445312 C 549.257812 222.367188 528.101562 222.070312 506.949219 221.964844 C 487.28125 221.867188 467.613281 221.722656 447.953125 221.910156 C 421.511719 222.164062 395.074219 222.710938 368.632812 223.152344 C 367.539062 223.171875 366.445312 223.375 365.039062 223.527344 C 365.285156 230.566406 365.527344 237.453125 365.773438 244.46875 Z M 365.226562 658.335938 C 365.226562 660.136719 365.175781 661.761719 365.238281 663.382812 C 365.3125 665.386719 365.476562 665.734375 367.460938 666.128906 C 370.957031 666.820312 374.484375 667.644531 378.023438 667.808594 C 393.796875 668.539062 409.578125 669.210938 425.363281 669.601562 C 436.980469 669.886719 448.605469 669.726562 460.226562 669.710938 C 484.289062 669.683594 508.351562 669.554688 532.417969 669.589844 C 547.316406 669.609375 562.214844 669.980469 577.113281 669.972656 C 602.441406 669.960938 627.769531 669.78125 653.097656 669.667969 C 653.621094 669.664062 654.140625 669.65625 654.664062 669.636719 C 655.695312 669.605469 656.34375 669.0625 656.5625 668.070312 C 657.082031 665.746094 657.289062 663.398438 657.046875 660.835938 C 656.351562 660.835938 655.773438 660.824219 655.199219 660.835938 C 650.957031 660.933594 646.710938 661.117188 642.46875 661.125 C 614.15625 661.171875 585.847656 661.210938 557.539062 661.191406 C 546.363281 661.183594 535.1875 661.136719 524.019531 660.902344 C 514.339844 660.699219 504.667969 660.078125 494.988281 659.871094 C 482.101562 659.589844 469.214844 659.519531 456.328125 659.371094 C 426.753906 659.023438 397.179688 658.679688 367.609375 658.335938 C 366.882812 658.328125 366.160156 658.335938 365.226562 658.335938 Z M 365.820312 251.113281 C 366.398438 251.164062 366.691406 251.21875 366.984375 251.214844 C 375.476562 251.046875 383.980469 251.105469 392.453125 250.648438 C 408.171875 249.796875 423.882812 250.246094 439.597656 250.507812 C 448.757812 250.660156 457.917969 250.980469 467.078125 250.878906 C 477.351562 250.765625 487.621094 250.097656 497.898438 249.96875 C 508.023438 249.839844 518.15625 250.167969 528.289062 250.148438 C 548.324219 250.105469 568.363281 249.996094 588.402344 249.839844 C 594.507812 249.789062 600.613281 249.480469 606.71875 249.308594 C 615.207031 249.070312 623.691406 248.777344 632.183594 248.636719 C 640.746094 248.496094 649.3125 248.507812 657.878906 248.445312 C 658.609375 248.441406 659.339844 248.359375 660.136719 248.308594 C 660.136719 247.550781 660.136719 246.945312 660.136719 246.222656 C 657.816406 246.222656 655.664062 246.226562 653.511719 246.222656 C 640.550781 246.195312 627.59375 246.144531 614.632812 246.140625 C 600.179688 246.132812 585.730469 246.269531 571.277344 246.148438 C 558.320312 246.042969 545.359375 245.457031 532.402344 245.464844 C 501.265625 245.476562 470.125 245.417969 439 246.671875 C 423.820312 247.285156 408.617188 247.410156 393.421875 247.589844 C 385.304688 247.6875 377.183594 247.425781 369.066406 247.332031 C 367.984375 247.320312 366.902344 247.355469 365.820312 247.371094 C 365.820312 248.761719 365.820312 249.859375 365.820312 251.113281 Z M 378.273438 228.839844 C 375.273438 228.777344 372.882812 231.21875 372.835938 234.398438 C 372.800781 237.011719 374.949219 239.160156 377.644531 239.207031 C 380.65625 239.257812 382.613281 237.199219 382.664062 233.917969 C 382.710938 230.871094 381.007812 228.898438 378.273438 228.839844 Z M 387.46875 233.066406 C 387.464844 229.867188 389.746094 227.566406 392.929688 227.550781 C 395.941406 227.542969 398.300781 230.207031 398.226562 233.535156 C 398.164062 236.441406 395.429688 239.117188 392.578125 239.0625 C 389.792969 239.007812 387.46875 236.28125 387.46875 233.066406 Z M 392.964844 230.210938 C 391.210938 230.238281 389.980469 231.65625 389.96875 233.667969 C 389.957031 235.144531 391.351562 236.617188 392.742188 236.597656 C 394.300781 236.582031 395.75 234.992188 395.726562 233.332031 C 395.695312 231.523438 394.515625 230.1875 392.964844 230.210938 Z M 407.496094 228.046875 C 410.5625 228.066406 412.691406 230.242188 412.640625 233.304688 C 412.585938 236.617188 410.171875 239.179688 407.132812 239.148438 C 404.234375 239.113281 401.914062 236.359375 401.945312 232.984375 C 401.96875 230.203125 404.414062 228.027344 407.496094 228.046875 Z M 404.4375 233.5625 C 404.449219 235.304688 405.667969 236.734375 407.160156 236.753906 C 408.796875 236.777344 410.28125 235.179688 410.300781 233.371094 C 410.324219 231.65625 409.25 230.566406 407.566406 230.585938 C 405.65625 230.605469 404.421875 231.78125 404.4375 233.5625 Z M 404.4375 233.5625 " fill-opacity="1" fill-rule="nonzero"/></g></svg>