<svg xmlns="http://www.w3.org/2000/svg" xmlns:xlink="http://www.w3.org/1999/xlink" zoomAndPan="magnify" preserveAspectRatio="xMidYMid meet" version="1.0" viewBox="407 254 211 70.25"><defs><clipPath id="3a65223730"><path d="M 407 254 L 618 254 L 618 324.246094 L 407 324.246094 Z M 407 254 " clip-rule="nonzero"/></clipPath></defs><g clip-path="url(#3a65223730)"><path fill="#b1a1ed" d="M 585.289062 263.882812 C 548.886719 252.644531 509.773438 252.242188 472.507812 259.140625 C 463.066406 260.890625 453.71875 263.109375 444.496094 265.773438 C 436.46875 268.089844 427.097656 270.195312 420.921875 276.214844 C 420.367188 276.753906 419.855469 277.332031 419.375 277.933594 C 415.371094 279.460938 411.628906 281.566406 409.203125 285.035156 C 404.832031 291.277344 408.125 298.480469 413.328125 302.980469 C 419.621094 308.425781 427.90625 311.960938 435.742188 314.527344 C 444.121094 317.265625 452.863281 318.8125 461.617188 319.71875 C 468.609375 320.4375 475.664062 320.835938 482.734375 321.007812 C 481.839844 322.03125 482.683594 324.242188 484.375 324.222656 C 504.554688 323.960938 524.773438 323.6875 544.855469 321.449219 C 554.613281 320.363281 564.332031 318.835938 573.898438 316.609375 C 582.273438 314.664062 591.074219 312.554688 598.714844 308.472656 C 600.472656 307.539062 602.167969 306.417969 603.707031 305.136719 C 604.082031 304.96875 604.457031 304.804688 604.832031 304.628906 C 610.789062 301.832031 616.835938 297.214844 617.761719 290.230469 C 619.917969 273.875 596.871094 267.457031 585.289062 263.882812 Z M 422.144531 281.085938 C 427.839844 278.820312 434.113281 277.574219 439.894531 276.058594 C 448.738281 273.742188 457.648438 271.683594 466.625 269.945312 C 484.34375 266.503906 502.3125 264.300781 520.363281 263.796875 C 538.285156 263.300781 556.273438 264.484375 573.902344 267.84375 C 579.796875 268.964844 586.070312 270.09375 591.746094 272.421875 C 594.886719 274.5625 597.429688 277.449219 598.996094 281.453125 C 605.0625 296.964844 583.984375 302.953125 573.222656 305.144531 C 538 312.300781 501.53125 313.753906 465.964844 308.304688 C 456.761719 306.890625 447.640625 305 438.640625 302.636719 C 432.265625 300.960938 422.605469 299.09375 419.914062 292.085938 C 418.335938 287.96875 419.632812 284.191406 422.144531 281.085938 Z M 456.542969 266.589844 C 488.179688 258.703125 521.433594 255.894531 553.789062 260.558594 C 553.730469 260.769531 553.714844 260.996094 553.734375 261.230469 C 551.453125 260.996094 549.167969 260.796875 546.882812 260.625 C 507.875 257.757812 468.609375 263.910156 431.074219 274.398438 C 431.230469 274.324219 431.390625 274.25 431.542969 274.1875 C 439.441406 270.722656 448.199219 268.667969 456.542969 266.589844 Z M 438.101562 311.550781 C 430.449219 309.222656 422.230469 305.992188 416.003906 300.824219 C 413.113281 298.421875 410.347656 295.105469 410.933594 291.082031 C 411.386719 287.976562 413.660156 285.695312 416.199219 284.050781 C 415.101562 287.914062 415.464844 292.089844 417.902344 295.675781 C 422.15625 301.914062 430.207031 304.085938 437.082031 305.925781 C 475.5 316.195312 515.929688 317.730469 555.222656 312.164062 C 564.414062 310.863281 573.832031 309.488281 582.769531 306.925781 C 589.117188 305.105469 596.019531 302.292969 600.171875 296.890625 C 605.03125 290.566406 604.429688 283.898438 601.078125 278.246094 C 605.648438 282.730469 608.492188 289.332031 606.023438 295.578125 C 605.03125 298.085938 603.390625 300.148438 601.386719 301.863281 C 598.890625 302.902344 596.320312 303.714844 593.929688 304.433594 C 559.105469 314.933594 522.472656 317.46875 486.277344 317.164062 C 470.121094 317.027344 453.664062 316.28125 438.101562 311.550781 Z M 612.371094 293.558594 C 611.679688 294.679688 610.847656 295.683594 609.914062 296.589844 C 610.367188 295.285156 610.65625 293.898438 610.746094 292.433594 C 611.210938 284.683594 606.5 277.394531 600.332031 273.085938 C 600.21875 273.007812 600.109375 272.9375 600 272.863281 C 602.007812 273.785156 603.957031 274.808594 605.800781 275.992188 C 611.753906 279.800781 616.6875 286.566406 612.371094 293.558594 Z M 612.371094 293.558594 " fill-opacity="1" fill-rule="nonzero"/></g></svg>