<svg xmlns="http://www.w3.org/2000/svg" xmlns:xlink="http://www.w3.org/1999/xlink" zoomAndPan="magnify" preserveAspectRatio="xMidYMid meet" version="1.0" viewBox="75.1 78 318.67 476.67"><defs><clipPath id="8ce272858a"><path d="M 75.097656 78 L 393.765625 78 L 393.765625 554.667969 L 75.097656 554.667969 Z M 75.097656 78 " clip-rule="nonzero"/></clipPath><clipPath id="bf696cb7ef"><path d="M 75.097656 78 L 393.765625 78 L 393.765625 554.667969 L 75.097656 554.667969 Z M 75.097656 78 " clip-rule="nonzero"/></clipPath></defs><g clip-path="url(#8ce272858a)"><path fill="#a9a4ff" d="M 386.882812 539.167969 C 383.730469 539.167969 380.839844 539.160156 377.949219 539.167969 C 350.054688 539.234375 322.15625 539.363281 294.261719 539.347656 C 277.570312 539.339844 260.878906 539.207031 244.191406 538.933594 C 234.871094 538.785156 225.5625 538.117188 216.242188 537.886719 C 206.453125 537.640625 196.65625 537.648438 186.859375 537.519531 C 160.925781 537.179688 134.992188 536.804688 109.058594 536.488281 C 100.28125 536.382812 91.503906 536.425781 82.726562 536.398438 C 81.949219 536.394531 81.175781 536.398438 80.25 536.398438 C 80.167969 535.785156 80.035156 535.273438 80.039062 534.761719 C 80.148438 509.335938 80.460938 483.910156 80.339844 458.488281 C 80.1875 427.503906 79.652344 396.523438 79.328125 365.539062 C 79.121094 345.507812 78.96875 325.476562 78.84375 305.449219 C 78.726562 286.984375 78.488281 268.515625 78.667969 250.054688 C 78.816406 234.878906 79.488281 219.707031 79.953125 204.535156 C 80.75 178.566406 81.140625 152.59375 80.84375 126.613281 C 80.800781 122.867188 80.835938 119.121094 80.835938 115.148438 C 81.214844 115.09375 81.800781 114.941406 82.386719 114.929688 C 87.714844 114.820312 93.042969 114.746094 98.371094 114.636719 C 109.414062 114.414062 120.460938 113.953125 131.503906 114.003906 C 144.195312 114.058594 156.882812 114.761719 169.574219 114.820312 C 182.417969 114.875 195.269531 114.640625 208.113281 114.246094 C 217.902344 113.941406 227.683594 113.5 237.484375 113.78125 C 258.636719 114.386719 279.792969 114.316406 300.949219 113.792969 C 310.582031 113.554688 320.21875 113.460938 329.855469 113.21875 C 338.941406 112.988281 348.023438 112.59375 357.109375 112.378906 C 367.523438 112.128906 377.941406 111.996094 388.359375 111.8125 C 388.890625 111.804688 389.421875 111.8125 390.21875 111.8125 C 390.21875 112.878906 390.234375 113.792969 390.21875 114.703125 C 389.796875 138.253906 389.242188 161.800781 388.980469 185.347656 C 388.644531 215.082031 388.417969 244.8125 388.378906 274.546875 C 388.328125 314.296875 388.132812 354.042969 387.136719 393.78125 C 386.277344 428.042969 385.8125 462.3125 385.890625 496.585938 C 385.917969 509.34375 386.039062 522.09375 386.871094 534.828125 C 386.960938 536.136719 386.882812 537.460938 386.882812 539.167969 Z M 81.519531 105.273438 C 91.859375 105.3125 102.203125 105.527344 112.539062 105.335938 C 132.746094 104.953125 152.945312 104.234375 173.152344 103.855469 C 193.203125 103.480469 213.261719 103.21875 233.316406 103.15625 C 249.136719 103.109375 264.960938 103.429688 280.785156 103.617188 C 295.277344 103.789062 309.769531 104.261719 324.257812 104.128906 C 345.410156 103.9375 366.554688 103.300781 387.707031 104.144531 C 388.535156 104.179688 389.371094 104.148438 390.4375 104.148438 C 390.4375 102.929688 390.445312 102 390.4375 101.074219 C 390.398438 96.066406 390.371094 91.0625 390.3125 86.054688 C 390.273438 83.039062 390.097656 82.875 387.15625 82.664062 C 386.921875 82.648438 386.6875 82.636719 386.453125 82.625 C 373.070312 81.847656 359.679688 81.765625 346.28125 81.847656 C 329.4375 81.953125 312.59375 82.082031 295.753906 82.019531 C 273.503906 81.9375 251.257812 81.625 229.007812 81.511719 C 208.324219 81.410156 187.640625 81.257812 166.960938 81.457031 C 139.152344 81.722656 111.347656 82.296875 83.539062 82.757812 C 82.386719 82.777344 81.238281 82.996094 79.757812 83.15625 C 80.019531 90.539062 80.273438 97.765625 80.535156 105.125 C 81.058594 105.207031 81.289062 105.273438 81.519531 105.273438 Z M 93.015625 99.605469 C 90.183594 99.558594 87.921875 97.300781 87.960938 94.558594 C 88.007812 91.226562 90.523438 88.660156 93.679688 88.726562 C 96.554688 88.789062 98.347656 90.859375 98.296875 94.054688 C 98.242188 97.5 96.1875 99.660156 93.015625 99.605469 Z M 109.09375 87.375 C 112.257812 87.363281 114.742188 90.160156 114.664062 93.652344 C 114.597656 96.703125 111.71875 99.511719 108.722656 99.453125 C 105.792969 99.394531 103.351562 96.535156 103.347656 93.160156 C 103.34375 89.804688 105.742188 87.390625 109.09375 87.375 Z M 129.824219 93.410156 C 129.765625 96.886719 127.226562 99.578125 124.027344 99.542969 C 120.980469 99.507812 118.542969 96.617188 118.574219 93.078125 C 118.597656 90.15625 121.171875 87.875 124.414062 87.898438 C 127.636719 87.917969 129.875 90.199219 129.824219 93.410156 Z M 79.96875 544.664062 C 80.046875 546.769531 80.21875 547.132812 82.304688 547.542969 C 85.984375 548.269531 89.691406 549.136719 93.414062 549.308594 C 110.003906 550.074219 126.601562 550.78125 143.203125 551.1875 C 155.417969 551.488281 167.648438 551.320312 179.871094 551.304688 C 205.179688 551.273438 230.484375 551.140625 255.792969 551.175781 C 271.460938 551.199219 287.132812 551.585938 302.800781 551.578125 C 329.4375 551.566406 356.078125 551.375 382.714844 551.257812 C 383.265625 551.257812 383.8125 551.246094 384.359375 551.226562 C 385.449219 551.195312 386.128906 550.621094 386.359375 549.585938 C 386.902344 547.144531 387.125 544.683594 386.871094 541.992188 C 386.136719 541.992188 385.53125 541.980469 384.925781 541.992188 C 380.464844 542.097656 376 542.289062 371.535156 542.292969 C 341.761719 542.34375 311.988281 542.382812 282.214844 542.363281 C 270.460938 542.355469 258.707031 542.308594 246.960938 542.0625 C 236.78125 541.847656 226.609375 541.199219 216.425781 540.976562 C 202.878906 540.683594 189.324219 540.613281 175.769531 540.453125 C 144.667969 540.089844 113.5625 539.730469 82.460938 539.367188 C 81.699219 539.359375 80.9375 539.367188 79.953125 539.367188 C 79.953125 541.261719 79.902344 542.964844 79.96875 544.664062 Z M 81.804688 112.203125 C 90.734375 112.027344 99.679688 112.089844 108.59375 111.609375 C 125.125 110.71875 141.644531 111.1875 158.171875 111.460938 C 167.808594 111.625 177.441406 111.960938 187.074219 111.851562 C 197.882812 111.730469 208.679688 111.03125 219.488281 110.894531 C 230.140625 110.761719 240.796875 111.105469 251.449219 111.082031 C 272.523438 111.039062 293.601562 110.925781 314.675781 110.757812 C 321.097656 110.707031 327.515625 110.382812 333.9375 110.203125 C 342.863281 109.953125 351.789062 109.648438 360.71875 109.5 C 369.726562 109.351562 378.734375 109.363281 387.746094 109.296875 C 388.511719 109.292969 389.28125 109.207031 390.117188 109.152344 C 390.117188 108.359375 390.117188 107.722656 390.117188 106.964844 C 387.675781 106.964844 385.414062 106.96875 383.152344 106.964844 C 369.519531 106.9375 355.890625 106.882812 342.261719 106.878906 C 327.0625 106.871094 311.863281 107.011719 296.664062 106.886719 C 283.035156 106.777344 269.40625 106.164062 255.777344 106.167969 C 223.03125 106.183594 190.28125 106.125 157.546875 107.4375 C 141.578125 108.082031 125.589844 108.210938 109.609375 108.402344 C 101.074219 108.5 92.53125 108.226562 83.996094 108.132812 C 82.855469 108.117188 81.71875 108.15625 80.582031 108.171875 C 80.582031 109.632812 80.582031 110.78125 80.582031 112.097656 C 81.1875 112.152344 81.5 112.207031 81.804688 112.203125 Z M 105.976562 93.792969 C 105.96875 95.34375 107.433594 96.886719 108.894531 96.867188 C 110.535156 96.851562 112.058594 95.183594 112.03125 93.441406 C 112.003906 91.542969 110.761719 90.140625 109.132812 90.167969 C 107.285156 90.195312 105.992188 91.683594 105.976562 93.792969 Z M 124.058594 97.03125 C 125.78125 97.058594 127.339844 95.378906 127.363281 93.480469 C 127.386719 91.683594 126.257812 90.539062 124.488281 90.558594 C 122.476562 90.578125 121.175781 91.8125 121.195312 93.683594 C 121.210938 95.511719 122.492188 97.011719 124.058594 97.03125 Z M 391.679688 315.101562 C 391.265625 337.632812 390.859375 360.164062 390.433594 382.695312 C 390.191406 395.601562 389.792969 408.511719 389.664062 421.421875 C 389.355469 452.324219 389.128906 483.234375 388.957031 514.140625 C 388.925781 519.296875 389.386719 524.457031 389.53125 529.617188 C 389.683594 534.855469 389.761719 540.097656 389.789062 545.335938 C 389.796875 546.734375 389.585938 548.148438 389.332031 549.53125 C 388.730469 552.84375 387.269531 554.089844 383.890625 554.148438 C 379.660156 554.21875 375.425781 554.210938 371.195312 554.230469 C 346.355469 554.367188 321.511719 554.601562 296.671875 554.605469 C 272.851562 554.613281 249.03125 554.3125 225.207031 554.277344 C 201.855469 554.246094 178.503906 554.519531 155.152344 554.398438 C 141.285156 554.328125 127.417969 553.820312 113.558594 553.378906 C 106.433594 553.152344 99.308594 552.761719 92.203125 552.207031 C 88.550781 551.921875 84.902344 551.277344 81.316406 550.492188 C 77.382812 549.636719 76.632812 548.632812 76.640625 544.679688 C 76.65625 539.125 76.917969 533.574219 76.945312 528.019531 C 77.03125 509.867188 77.203125 491.710938 77.085938 473.558594 C 76.863281 439.992188 76.445312 406.425781 76.136719 372.859375 C 75.917969 348.835938 75.710938 324.816406 75.566406 300.792969 C 75.464844 283.8125 75.191406 266.832031 75.496094 249.859375 C 75.929688 225.605469 76.914062 201.367188 77.496094 177.117188 C 77.988281 156.777344 78.207031 136.433594 77.582031 116.089844 C 77.480469 112.75 77.585938 109.40625 77.511719 106.066406 C 77.371094 99.65625 77.152344 93.246094 76.996094 86.835938 C 76.964844 85.667969 76.992188 84.484375 77.136719 83.324219 C 77.390625 81.234375 78.191406 80.410156 80.328125 80.292969 C 86.664062 79.953125 93 79.640625 99.34375 79.433594 C 149.796875 77.785156 200.269531 78.582031 250.734375 78.5 C 275.496094 78.457031 300.257812 78.824219 325.019531 78.871094 C 339.671875 78.898438 354.324219 78.570312 368.976562 78.582031 C 375.316406 78.589844 381.660156 79.050781 388 79.3125 C 388.390625 79.328125 388.78125 79.351562 389.171875 79.402344 C 392.300781 79.816406 393.585938 81.191406 393.625 84.359375 C 393.691406 89.128906 393.773438 93.90625 393.695312 98.675781 C 393.148438 132.789062 392.4375 166.898438 392.027344 201.011719 C 391.6875 228.945312 391.671875 256.882812 391.542969 284.816406 C 391.5 294.910156 391.539062 305.003906 391.539062 315.097656 C 391.585938 315.101562 391.632812 315.101562 391.679688 315.101562 Z M 386.882812 539.167969 C 386.882812 537.460938 386.960938 536.136719 386.871094 534.828125 C 386.039062 522.09375 385.917969 509.34375 385.890625 496.585938 C 385.8125 462.3125 386.277344 428.042969 387.136719 393.78125 C 388.132812 354.042969 388.328125 314.296875 388.378906 274.546875 C 388.417969 244.8125 388.644531 215.082031 388.980469 185.347656 C 389.242188 161.800781 389.796875 138.253906 390.21875 114.703125 C 390.234375 113.792969 390.21875 112.878906 390.21875 111.8125 C 389.421875 111.8125 388.890625 111.804688 388.359375 111.8125 C 377.941406 111.996094 367.523438 112.128906 357.109375 112.378906 C 348.023438 112.59375 338.941406 112.988281 329.855469 113.21875 C 320.21875 113.460938 310.582031 113.554688 300.949219 113.792969 C 279.792969 114.316406 258.636719 114.386719 237.484375 113.78125 C 227.683594 113.5 217.902344 113.941406 208.113281 114.246094 C 195.269531 114.640625 182.417969 114.875 169.574219 114.820312 C 156.882812 114.761719 144.195312 114.058594 131.503906 114.003906 C 120.460938 113.953125 109.414062 114.414062 98.371094 114.636719 C 93.042969 114.746094 87.714844 114.820312 82.386719 114.929688 C 81.800781 114.941406 81.214844 115.09375 80.835938 115.148438 C 80.835938 119.121094 80.800781 122.867188 80.84375 126.613281 C 81.140625 152.59375 80.75 178.566406 79.953125 204.535156 C 79.488281 219.707031 78.816406 234.878906 78.667969 250.054688 C 78.488281 268.515625 78.726562 286.984375 78.84375 305.449219 C 78.96875 325.476562 79.121094 345.507812 79.328125 365.539062 C 79.652344 396.523438 80.1875 427.503906 80.339844 458.488281 C 80.460938 483.910156 80.148438 509.335938 80.039062 534.761719 C 80.035156 535.273438 80.167969 535.785156 80.25 536.398438 C 81.175781 536.398438 81.949219 536.394531 82.726562 536.398438 C 91.503906 536.425781 100.28125 536.382812 109.058594 536.488281 C 134.992188 536.804688 160.925781 537.179688 186.859375 537.519531 C 196.65625 537.648438 206.453125 537.640625 216.242188 537.886719 C 225.5625 538.117188 234.871094 538.785156 244.191406 538.933594 C 260.878906 539.207031 277.570312 539.339844 294.261719 539.347656 C 322.15625 539.363281 350.054688 539.234375 377.949219 539.167969 C 380.839844 539.160156 383.730469 539.167969 386.882812 539.167969 Z M 80.535156 105.125 C 81.058594 105.207031 81.289062 105.273438 81.519531 105.273438 C 91.859375 105.3125 102.203125 105.527344 112.539062 105.335938 C 132.746094 104.953125 152.945312 104.234375 173.152344 103.855469 C 193.203125 103.480469 213.261719 103.21875 233.316406 103.15625 C 249.136719 103.109375 264.960938 103.429688 280.785156 103.617188 C 295.277344 103.789062 309.769531 104.261719 324.257812 104.128906 C 345.410156 103.9375 366.554688 103.300781 387.707031 104.144531 C 388.535156 104.179688 389.371094 104.148438 390.4375 104.148438 C 390.4375 102.929688 390.445312 102 390.4375 101.074219 C 390.398438 96.066406 390.371094 91.0625 390.3125 86.054688 C 390.273438 83.039062 390.097656 82.875 387.15625 82.664062 C 386.921875 82.648438 386.6875 82.636719 386.453125 82.625 C 373.070312 81.847656 359.679688 81.765625 346.28125 81.847656 C 329.4375 81.953125 312.59375 82.082031 295.753906 82.019531 C 273.503906 81.9375 251.257812 81.625 229.007812 81.511719 C 208.324219 81.410156 187.640625 81.257812 166.960938 81.457031 C 139.152344 81.722656 111.347656 82.296875 83.539062 82.757812 C 82.386719 82.777344 81.238281 82.996094 79.757812 83.15625 C 80.019531 90.539062 80.273438 97.765625 80.535156 105.125 Z M 79.953125 539.367188 C 79.953125 541.261719 79.902344 542.964844 79.96875 544.664062 C 80.046875 546.769531 80.21875 547.132812 82.304688 547.542969 C 85.984375 548.269531 89.691406 549.136719 93.414062 549.308594 C 110.003906 550.074219 126.601562 550.78125 143.203125 551.1875 C 155.417969 551.488281 167.648438 551.320312 179.871094 551.304688 C 205.179688 551.273438 230.484375 551.140625 255.792969 551.175781 C 271.460938 551.199219 287.132812 551.585938 302.800781 551.578125 C 329.4375 551.566406 356.078125 551.375 382.714844 551.257812 C 383.265625 551.257812 383.8125 551.246094 384.359375 551.226562 C 385.449219 551.195312 386.128906 550.621094 386.359375 549.585938 C 386.902344 547.144531 387.125 544.683594 386.871094 541.992188 C 386.136719 541.992188 385.53125 541.980469 384.925781 541.992188 C 380.464844 542.097656 376 542.289062 371.535156 542.292969 C 341.761719 542.34375 311.988281 542.382812 282.214844 542.363281 C 270.460938 542.355469 258.707031 542.308594 246.960938 542.0625 C 236.78125 541.847656 226.609375 541.199219 216.425781 540.976562 C 202.878906 540.683594 189.324219 540.613281 175.769531 540.453125 C 144.667969 540.089844 113.5625 539.730469 82.460938 539.367188 C 81.699219 539.359375 80.9375 539.367188 79.953125 539.367188 Z M 80.582031 112.097656 C 81.1875 112.152344 81.5 112.207031 81.804688 112.203125 C 90.734375 112.027344 99.679688 112.089844 108.59375 111.609375 C 125.125 110.71875 141.644531 111.1875 158.171875 111.460938 C 167.808594 111.625 177.441406 111.960938 187.074219 111.851562 C 197.882812 111.730469 208.679688 111.03125 219.488281 110.894531 C 230.140625 110.761719 240.796875 111.105469 251.449219 111.082031 C 272.523438 111.039062 293.601562 110.925781 314.675781 110.757812 C 321.097656 110.707031 327.515625 110.382812 333.9375 110.203125 C 342.863281 109.953125 351.789062 109.648438 360.71875 109.5 C 369.726562 109.351562 378.734375 109.363281 387.746094 109.296875 C 388.511719 109.292969 389.28125 109.207031 390.117188 109.152344 C 390.117188 108.359375 390.117188 107.722656 390.117188 106.964844 C 387.675781 106.964844 385.414062 106.96875 383.152344 106.964844 C 369.519531 106.9375 355.890625 106.882812 342.261719 106.878906 C 327.0625 106.871094 311.863281 107.011719 296.664062 106.886719 C 283.035156 106.777344 269.40625 106.164062 255.777344 106.167969 C 223.03125 106.183594 190.28125 106.125 157.546875 107.4375 C 141.578125 108.082031 125.589844 108.210938 109.609375 108.402344 C 101.074219 108.5 92.53125 108.226562 83.996094 108.132812 C 82.855469 108.117188 81.71875 108.15625 80.582031 108.171875 C 80.582031 109.632812 80.582031 110.78125 80.582031 112.097656 Z M 93.679688 88.726562 C 90.523438 88.660156 88.007812 91.226562 87.960938 94.558594 C 87.921875 97.300781 90.183594 99.558594 93.015625 99.605469 C 96.1875 99.660156 98.242188 97.5 98.296875 94.054688 C 98.347656 90.859375 96.554688 88.789062 93.679688 88.726562 Z M 103.347656 93.160156 C 103.34375 89.804688 105.742188 87.390625 109.09375 87.375 C 112.257812 87.363281 114.742188 90.160156 114.664062 93.652344 C 114.597656 96.703125 111.71875 99.511719 108.722656 99.453125 C 105.792969 99.394531 103.351562 96.535156 103.347656 93.160156 Z M 109.132812 90.167969 C 107.285156 90.195312 105.992188 91.683594 105.976562 93.792969 C 105.96875 95.34375 107.433594 96.886719 108.894531 96.867188 C 110.535156 96.851562 112.058594 95.183594 112.03125 93.441406 C 112.003906 91.542969 110.761719 90.140625 109.132812 90.167969 Z M 124.414062 87.898438 C 127.636719 87.917969 129.875 90.199219 129.824219 93.410156 C 129.765625 96.886719 127.226562 99.578125 124.027344 99.542969 C 120.980469 99.507812 118.542969 96.617188 118.574219 93.078125 C 118.597656 90.15625 121.171875 87.875 124.414062 87.898438 Z M 121.195312 93.683594 C 121.210938 95.511719 122.492188 97.011719 124.058594 97.03125 C 125.78125 97.058594 127.339844 95.378906 127.363281 93.480469 C 127.386719 91.683594 126.257812 90.539062 124.488281 90.558594 C 122.476562 90.578125 121.175781 91.8125 121.195312 93.683594 Z M 121.195312 93.683594 " fill-opacity="1" fill-rule="nonzero"/></g><path fill="#fafafa" d="M 386.882812 539.167969 C 383.730469 539.167969 380.839844 539.160156 377.949219 539.167969 C 350.054688 539.234375 322.15625 539.363281 294.261719 539.347656 C 277.570312 539.339844 260.878906 539.207031 244.191406 538.933594 C 234.871094 538.785156 225.5625 538.117188 216.242188 537.886719 C 206.453125 537.640625 196.65625 537.648438 186.859375 537.519531 C 160.925781 537.179688 134.992188 536.804688 109.058594 536.488281 C 100.28125 536.382812 91.503906 536.425781 82.726562 536.398438 C 81.949219 536.394531 81.175781 536.398438 80.25 536.398438 C 80.167969 535.785156 80.035156 535.273438 80.039062 534.761719 C 80.148438 509.335938 80.460938 483.910156 80.339844 458.488281 C 80.1875 427.503906 79.652344 396.523438 79.328125 365.539062 C 79.121094 345.507812 78.96875 325.476562 78.84375 305.449219 C 78.726562 286.984375 78.488281 268.515625 78.667969 250.054688 C 78.816406 234.878906 79.488281 219.707031 79.953125 204.535156 C 80.75 178.566406 81.140625 152.59375 80.84375 126.613281 C 80.800781 122.867188 80.835938 119.121094 80.835938 115.148438 C 81.214844 115.09375 81.800781 114.941406 82.386719 114.929688 C 87.714844 114.820312 93.042969 114.746094 98.371094 114.636719 C 109.414062 114.414062 120.460938 113.953125 131.503906 114.003906 C 144.195312 114.058594 156.882812 114.761719 169.574219 114.820312 C 182.417969 114.875 195.269531 114.640625 208.113281 114.246094 C 217.902344 113.941406 227.683594 113.5 237.484375 113.78125 C 258.636719 114.386719 279.792969 114.316406 300.949219 113.792969 C 310.582031 113.554688 320.21875 113.460938 329.855469 113.21875 C 338.941406 112.988281 348.023438 112.59375 357.109375 112.378906 C 367.523438 112.128906 377.941406 111.996094 388.359375 111.8125 C 388.890625 111.804688 389.421875 111.8125 390.21875 111.8125 C 390.21875 112.878906 390.234375 113.792969 390.21875 114.703125 C 389.796875 138.253906 389.242188 161.800781 388.980469 185.347656 C 388.644531 215.082031 388.417969 244.8125 388.378906 274.546875 C 388.328125 314.296875 388.132812 354.042969 387.136719 393.78125 C 386.277344 428.042969 385.8125 462.3125 385.890625 496.585938 C 385.917969 509.34375 386.039062 522.09375 386.871094 534.828125 C 386.960938 536.136719 386.882812 537.460938 386.882812 539.167969 Z M 81.519531 105.273438 C 91.859375 105.3125 102.203125 105.527344 112.539062 105.335938 C 132.746094 104.953125 152.945312 104.234375 173.152344 103.855469 C 193.203125 103.480469 213.261719 103.21875 233.316406 103.15625 C 249.136719 103.109375 264.960938 103.429688 280.785156 103.617188 C 295.277344 103.789062 309.769531 104.261719 324.257812 104.128906 C 345.410156 103.9375 366.554688 103.300781 387.707031 104.144531 C 388.535156 104.179688 389.371094 104.148438 390.4375 104.148438 C 390.4375 102.929688 390.445312 102 390.4375 101.074219 C 390.398438 96.066406 390.371094 91.0625 390.3125 86.054688 C 390.273438 83.039062 390.097656 82.875 387.15625 82.664062 C 386.921875 82.648438 386.6875 82.636719 386.453125 82.625 C 373.070312 81.847656 359.679688 81.765625 346.28125 81.847656 C 329.4375 81.953125 312.59375 82.082031 295.753906 82.019531 C 273.503906 81.9375 251.257812 81.625 229.007812 81.511719 C 208.324219 81.410156 187.640625 81.257812 166.960938 81.457031 C 139.152344 81.722656 111.347656 82.296875 83.539062 82.757812 C 82.386719 82.777344 81.238281 82.996094 79.757812 83.15625 C 80.019531 90.539062 80.273438 97.765625 80.535156 105.125 C 81.058594 105.207031 81.289062 105.273438 81.519531 105.273438 Z M 93.015625 99.605469 C 90.183594 99.558594 87.921875 97.300781 87.960938 94.558594 C 88.007812 91.226562 90.523438 88.660156 93.679688 88.726562 C 96.554688 88.789062 98.347656 90.859375 98.296875 94.054688 C 98.242188 97.5 96.1875 99.660156 93.015625 99.605469 Z M 109.09375 87.375 C 112.257812 87.363281 114.742188 90.160156 114.664062 93.652344 C 114.597656 96.703125 111.71875 99.511719 108.722656 99.453125 C 105.792969 99.394531 103.351562 96.535156 103.347656 93.160156 C 103.34375 89.804688 105.742188 87.390625 109.09375 87.375 Z M 129.824219 93.410156 C 129.765625 96.886719 127.226562 99.578125 124.027344 99.542969 C 120.980469 99.507812 118.542969 96.617188 118.574219 93.078125 C 118.597656 90.15625 121.171875 87.875 124.414062 87.898438 C 127.636719 87.917969 129.875 90.199219 129.824219 93.410156 Z M 79.96875 544.664062 C 80.046875 546.769531 80.21875 547.132812 82.304688 547.542969 C 85.984375 548.269531 89.691406 549.136719 93.414062 549.308594 C 110.003906 550.074219 126.601562 550.78125 143.203125 551.1875 C 155.417969 551.488281 167.648438 551.320312 179.871094 551.304688 C 205.179688 551.273438 230.484375 551.140625 255.792969 551.175781 C 271.460938 551.199219 287.132812 551.585938 302.800781 551.578125 C 329.4375 551.566406 356.078125 551.375 382.714844 551.257812 C 383.265625 551.257812 383.8125 551.246094 384.359375 551.226562 C 385.449219 551.195312 386.128906 550.621094 386.359375 549.585938 C 386.902344 547.144531 387.125 544.683594 386.871094 541.992188 C 386.136719 541.992188 385.53125 541.980469 384.925781 541.992188 C 380.464844 542.097656 376 542.289062 371.535156 542.292969 C 341.761719 542.34375 311.988281 542.382812 282.214844 542.363281 C 270.460938 542.355469 258.707031 542.308594 246.960938 542.0625 C 236.78125 541.847656 226.609375 541.199219 216.425781 540.976562 C 202.878906 540.683594 189.324219 540.613281 175.769531 540.453125 C 144.667969 540.089844 113.5625 539.730469 82.460938 539.367188 C 81.699219 539.359375 80.9375 539.367188 79.953125 539.367188 C 79.953125 541.261719 79.902344 542.964844 79.96875 544.664062 Z M 81.804688 112.203125 C 90.734375 112.027344 99.679688 112.089844 108.59375 111.609375 C 125.125 110.71875 141.644531 111.1875 158.171875 111.460938 C 167.808594 111.625 177.441406 111.960938 187.074219 111.851562 C 197.882812 111.730469 208.679688 111.03125 219.488281 110.894531 C 230.140625 110.761719 240.796875 111.105469 251.449219 111.082031 C 272.523438 111.039062 293.601562 110.925781 314.675781 110.757812 C 321.097656 110.707031 327.515625 110.382812 333.9375 110.203125 C 342.863281 109.953125 351.789062 109.648438 360.71875 109.5 C 369.726562 109.351562 378.734375 109.363281 387.746094 109.296875 C 388.511719 109.292969 389.28125 109.207031 390.117188 109.152344 C 390.117188 108.359375 390.117188 107.722656 390.117188 106.964844 C 387.675781 106.964844 385.414062 106.96875 383.152344 106.964844 C 369.519531 106.9375 355.890625 106.882812 342.261719 106.878906 C 327.0625 106.871094 311.863281 107.011719 296.664062 106.886719 C 283.035156 106.777344 269.40625 106.164062 255.777344 106.167969 C 223.03125 106.183594 190.28125 106.125 157.546875 107.4375 C 141.578125 108.082031 125.589844 108.210938 109.609375 108.402344 C 101.074219 108.5 92.53125 108.226562 83.996094 108.132812 C 82.855469 108.117188 81.71875 108.15625 80.582031 108.171875 C 80.582031 109.632812 80.582031 110.78125 80.582031 112.097656 C 81.1875 112.152344 81.5 112.207031 81.804688 112.203125 Z M 105.976562 93.792969 C 105.96875 95.34375 107.433594 96.886719 108.894531 96.867188 C 110.535156 96.851562 112.058594 95.183594 112.03125 93.441406 C 112.003906 91.542969 110.761719 90.140625 109.132812 90.167969 C 107.285156 90.195312 105.992188 91.683594 105.976562 93.792969 Z M 124.058594 97.03125 C 125.78125 97.058594 127.339844 95.378906 127.363281 93.480469 C 127.386719 91.683594 126.257812 90.539062 124.488281 90.558594 C 122.476562 90.578125 121.175781 91.8125 121.195312 93.683594 C 121.210938 95.511719 122.492188 97.011719 124.058594 97.03125 Z M 124.058594 97.03125 " fill-opacity="1" fill-rule="nonzero"/><g clip-path="url(#bf696cb7ef)"><path fill="#a9a4ff" d="M 391.679688 315.101562 C 391.265625 337.632812 390.859375 360.164062 390.433594 382.695312 C 390.191406 395.601562 389.792969 408.511719 389.664062 421.421875 C 389.355469 452.324219 389.128906 483.234375 388.957031 514.140625 C 388.925781 519.296875 389.386719 524.457031 389.53125 529.617188 C 389.683594 534.855469 389.761719 540.097656 389.789062 545.335938 C 389.796875 546.734375 389.585938 548.148438 389.332031 549.53125 C 388.730469 552.84375 387.269531 554.089844 383.890625 554.148438 C 379.660156 554.21875 375.425781 554.210938 371.195312 554.230469 C 346.355469 554.367188 321.511719 554.601562 296.671875 554.605469 C 272.851562 554.613281 249.03125 554.3125 225.207031 554.277344 C 201.855469 554.246094 178.503906 554.519531 155.152344 554.398438 C 141.285156 554.328125 127.417969 553.820312 113.558594 553.378906 C 106.433594 553.152344 99.308594 552.761719 92.203125 552.207031 C 88.550781 551.921875 84.902344 551.277344 81.316406 550.492188 C 77.382812 549.636719 76.632812 548.632812 76.640625 544.679688 C 76.65625 539.125 76.917969 533.574219 76.945312 528.019531 C 77.03125 509.867188 77.203125 491.710938 77.085938 473.558594 C 76.863281 439.992188 76.445312 406.425781 76.136719 372.859375 C 75.917969 348.835938 75.710938 324.816406 75.566406 300.792969 C 75.464844 283.8125 75.191406 266.832031 75.496094 249.859375 C 75.929688 225.605469 76.914062 201.367188 77.496094 177.117188 C 77.988281 156.777344 78.207031 136.433594 77.582031 116.089844 C 77.480469 112.75 77.585938 109.40625 77.511719 106.066406 C 77.371094 99.65625 77.152344 93.246094 76.996094 86.835938 C 76.964844 85.667969 76.992188 84.484375 77.136719 83.324219 C 77.390625 81.234375 78.191406 80.410156 80.328125 80.292969 C 86.664062 79.953125 93 79.640625 99.34375 79.433594 C 149.796875 77.785156 200.269531 78.582031 250.734375 78.5 C 275.496094 78.457031 300.257812 78.824219 325.019531 78.871094 C 339.671875 78.898438 354.324219 78.570312 368.976562 78.582031 C 375.316406 78.589844 381.660156 79.050781 388 79.3125 C 388.390625 79.328125 388.78125 79.351562 389.171875 79.402344 C 392.300781 79.816406 393.585938 81.191406 393.625 84.359375 C 393.691406 89.128906 393.773438 93.90625 393.695312 98.675781 C 393.148438 132.789062 392.4375 166.898438 392.027344 201.011719 C 391.6875 228.945312 391.671875 256.882812 391.542969 284.816406 C 391.5 294.910156 391.539062 305.003906 391.539062 315.097656 C 391.585938 315.101562 391.632812 315.101562 391.679688 315.101562 Z M 386.882812 539.167969 C 386.882812 537.460938 386.960938 536.136719 386.871094 534.828125 C 386.039062 522.09375 385.917969 509.34375 385.890625 496.585938 C 385.8125 462.3125 386.277344 428.042969 387.136719 393.78125 C 388.132812 354.042969 388.328125 314.296875 388.378906 274.546875 C 388.417969 244.8125 388.644531 215.082031 388.980469 185.347656 C 389.242188 161.800781 389.796875 138.253906 390.21875 114.703125 C 390.234375 113.792969 390.21875 112.878906 390.21875 111.8125 C 389.421875 111.8125 388.890625 111.804688 388.359375 111.8125 C 377.941406 111.996094 367.523438 112.128906 357.109375 112.378906 C 348.023438 112.59375 338.941406 112.988281 329.855469 113.21875 C 320.21875 113.460938 310.582031 113.554688 300.949219 113.792969 C 279.792969 114.316406 258.636719 114.386719 237.484375 113.78125 C 227.683594 113.5 217.902344 113.941406 208.113281 114.246094 C 195.269531 114.640625 182.417969 114.875 169.574219 114.820312 C 156.882812 114.761719 144.195312 114.058594 131.503906 114.003906 C 120.460938 113.953125 109.414062 114.414062 98.371094 114.636719 C 93.042969 114.746094 87.714844 114.820312 82.386719 114.929688 C 81.800781 114.941406 81.214844 115.09375 80.835938 115.148438 C 80.835938 119.121094 80.800781 122.867188 80.84375 126.613281 C 81.140625 152.59375 80.75 178.566406 79.953125 204.535156 C 79.488281 219.707031 78.816406 234.878906 78.667969 250.054688 C 78.488281 268.515625 78.726562 286.984375 78.84375 305.449219 C 78.96875 325.476562 79.121094 345.507812 79.328125 365.539062 C 79.652344 396.523438 80.1875 427.503906 80.339844 458.488281 C 80.460938 483.910156 80.148438 509.335938 80.039062 534.761719 C 80.035156 535.273438 80.167969 535.785156 80.25 536.398438 C 81.175781 536.398438 81.949219 536.394531 82.726562 536.398438 C 91.503906 536.425781 100.28125 536.382812 109.058594 536.488281 C 134.992188 536.804688 160.925781 537.179688 186.859375 537.519531 C 196.65625 537.648438 206.453125 537.640625 216.242188 537.886719 C 225.5625 538.117188 234.871094 538.785156 244.191406 538.933594 C 260.878906 539.207031 277.570312 539.339844 294.261719 539.347656 C 322.15625 539.363281 350.054688 539.234375 377.949219 539.167969 C 380.839844 539.160156 383.730469 539.167969 386.882812 539.167969 Z M 80.535156 105.125 C 81.058594 105.207031 81.289062 105.273438 81.519531 105.273438 C 91.859375 105.3125 102.203125 105.527344 112.539062 105.335938 C 132.746094 104.953125 152.945312 104.234375 173.152344 103.855469 C 193.203125 103.480469 213.261719 103.21875 233.316406 103.15625 C 249.136719 103.109375 264.960938 103.429688 280.785156 103.617188 C 295.277344 103.789062 309.769531 104.261719 324.257812 104.128906 C 345.410156 103.9375 366.554688 103.300781 387.707031 104.144531 C 388.535156 104.179688 389.371094 104.148438 390.4375 104.148438 C 390.4375 102.929688 390.445312 102 390.4375 101.074219 C 390.398438 96.066406 390.371094 91.0625 390.3125 86.054688 C 390.273438 83.039062 390.097656 82.875 387.15625 82.664062 C 386.921875 82.648438 386.6875 82.636719 386.453125 82.625 C 373.070312 81.847656 359.679688 81.765625 346.28125 81.847656 C 329.4375 81.953125 312.59375 82.082031 295.753906 82.019531 C 273.503906 81.9375 251.257812 81.625 229.007812 81.511719 C 208.324219 81.410156 187.640625 81.257812 166.960938 81.457031 C 139.152344 81.722656 111.347656 82.296875 83.539062 82.757812 C 82.386719 82.777344 81.238281 82.996094 79.757812 83.15625 C 80.019531 90.539062 80.273438 97.765625 80.535156 105.125 Z M 79.953125 539.367188 C 79.953125 541.261719 79.902344 542.964844 79.96875 544.664062 C 80.046875 546.769531 80.21875 547.132812 82.304688 547.542969 C 85.984375 548.269531 89.691406 549.136719 93.414062 549.308594 C 110.003906 550.074219 126.601562 550.78125 143.203125 551.1875 C 155.417969 551.488281 167.648438 551.320312 179.871094 551.304688 C 205.179688 551.273438 230.484375 551.140625 255.792969 551.175781 C 271.460938 551.199219 287.132812 551.585938 302.800781 551.578125 C 329.4375 551.566406 356.078125 551.375 382.714844 551.257812 C 383.265625 551.257812 383.8125 551.246094 384.359375 551.226562 C 385.449219 551.195312 386.128906 550.621094 386.359375 549.585938 C 386.902344 547.144531 387.125 544.683594 386.871094 541.992188 C 386.136719 541.992188 385.53125 541.980469 384.925781 541.992188 C 380.464844 542.097656 376 542.289062 371.535156 542.292969 C 341.761719 542.34375 311.988281 542.382812 282.214844 542.363281 C 270.460938 542.355469 258.707031 542.308594 246.960938 542.0625 C 236.78125 541.847656 226.609375 541.199219 216.425781 540.976562 C 202.878906 540.683594 189.324219 540.613281 175.769531 540.453125 C 144.667969 540.089844 113.5625 539.730469 82.460938 539.367188 C 81.699219 539.359375 80.9375 539.367188 79.953125 539.367188 Z M 80.582031 112.097656 C 81.1875 112.152344 81.5 112.207031 81.804688 112.203125 C 90.734375 112.027344 99.679688 112.089844 108.59375 111.609375 C 125.125 110.71875 141.644531 111.1875 158.171875 111.460938 C 167.808594 111.625 177.441406 111.960938 187.074219 111.851562 C 197.882812 111.730469 208.679688 111.03125 219.488281 110.894531 C 230.140625 110.761719 240.796875 111.105469 251.449219 111.082031 C 272.523438 111.039062 293.601562 110.925781 314.675781 110.757812 C 321.097656 110.707031 327.515625 110.382812 333.9375 110.203125 C 342.863281 109.953125 351.789062 109.648438 360.71875 109.5 C 369.726562 109.351562 378.734375 109.363281 387.746094 109.296875 C 388.511719 109.292969 389.28125 109.207031 390.117188 109.152344 C 390.117188 108.359375 390.117188 107.722656 390.117188 106.964844 C 387.675781 106.964844 385.414062 106.96875 383.152344 106.964844 C 369.519531 106.9375 355.890625 106.882812 342.261719 106.878906 C 327.0625 106.871094 311.863281 107.011719 296.664062 106.886719 C 283.035156 106.777344 269.40625 106.164062 255.777344 106.167969 C 223.03125 106.183594 190.28125 106.125 157.546875 107.4375 C 141.578125 108.082031 125.589844 108.210938 109.609375 108.402344 C 101.074219 108.5 92.53125 108.226562 83.996094 108.132812 C 82.855469 108.117188 81.71875 108.15625 80.582031 108.171875 C 80.582031 109.632812 80.582031 110.78125 80.582031 112.097656 Z M 93.679688 88.726562 C 90.523438 88.660156 88.007812 91.226562 87.960938 94.558594 C 87.921875 97.300781 90.183594 99.558594 93.015625 99.605469 C 96.1875 99.660156 98.242188 97.5 98.296875 94.054688 C 98.347656 90.859375 96.554688 88.789062 93.679688 88.726562 Z M 103.347656 93.160156 C 103.34375 89.804688 105.742188 87.390625 109.09375 87.375 C 112.257812 87.363281 114.742188 90.160156 114.664062 93.652344 C 114.597656 96.703125 111.71875 99.511719 108.722656 99.453125 C 105.792969 99.394531 103.351562 96.535156 103.347656 93.160156 Z M 109.132812 90.167969 C 107.285156 90.195312 105.992188 91.683594 105.976562 93.792969 C 105.96875 95.34375 107.433594 96.886719 108.894531 96.867188 C 110.535156 96.851562 112.058594 95.183594 112.03125 93.441406 C 112.003906 91.542969 110.761719 90.140625 109.132812 90.167969 Z M 124.414062 87.898438 C 127.636719 87.917969 129.875 90.199219 129.824219 93.410156 C 129.765625 96.886719 127.226562 99.578125 124.027344 99.542969 C 120.980469 99.507812 118.542969 96.617188 118.574219 93.078125 C 118.597656 90.15625 121.171875 87.875 124.414062 87.898438 Z M 121.195312 93.683594 C 121.210938 95.511719 122.492188 97.011719 124.058594 97.03125 C 125.78125 97.058594 127.339844 95.378906 127.363281 93.480469 C 127.386719 91.683594 126.257812 90.539062 124.488281 90.558594 C 122.476562 90.578125 121.175781 91.8125 121.195312 93.683594 Z M 121.195312 93.683594 " fill-opacity="1" fill-rule="nonzero"/></g></svg>