<svg xmlns="http://www.w3.org/2000/svg" xmlns:xlink="http://www.w3.org/1999/xlink" zoomAndPan="magnify" preserveAspectRatio="xMidYMid meet" version="1.0" viewBox="309 271 406 17.25"><defs><clipPath id="0e22f64f2d"><path d="M 309 271.003906 L 715 271.003906 L 715 288.253906 L 309 288.253906 Z M 309 271.003906 " clip-rule="nonzero"/></clipPath></defs><g clip-path="url(#0e22f64f2d)"><path fill="#b1a1ed" d="M 355.757812 274.945312 C 356.269531 274.613281 356.773438 273.996094 357.296875 273.976562 C 361.945312 273.828125 366.601562 273.746094 371.257812 273.726562 C 372.738281 273.726562 374.21875 274.101562 375.691406 274.035156 C 377.996094 273.9375 380.296875 273.527344 382.613281 273.410156 C 384.902344 273.296875 387.277344 273.019531 389.460938 273.511719 C 390.453125 273.738281 391.140625 273.578125 391.984375 273.46875 C 392.265625 273.4375 392.578125 273.828125 392.882812 273.835938 C 393.273438 273.851562 393.679688 273.703125 394.066406 273.585938 C 394.316406 273.511719 394.589844 273.1875 394.761719 273.246094 C 397.707031 274.1875 400.757812 272.828125 403.71875 273.71875 C 404.316406 273.902344 405.074219 273.421875 405.753906 273.460938 C 406.707031 273.519531 407.640625 273.769531 408.757812 273.96875 C 408.722656 274.054688 408.839844 273.527344 408.964844 273.535156 C 411.179688 273.554688 413.386719 273.652344 415.605469 273.6875 C 418.492188 273.738281 421.378906 273.710938 424.253906 273.796875 C 427.886719 273.902344 431.515625 274.09375 435.148438 274.210938 C 435.992188 274.238281 436.84375 274.054688 437.6875 274.070312 C 438.101562 274.078125 438.507812 274.429688 438.929688 274.460938 C 439.339844 274.496094 439.773438 274.296875 440.195312 274.246094 C 440.960938 274.152344 441.789062 273.886719 442.5 274.0625 C 444.570312 274.578125 446.59375 273.726562 448.5625 273.960938 C 449.546875 274.078125 450.367188 273.960938 451.277344 273.878906 C 451.574219 273.851562 451.921875 274.601562 452.253906 274.613281 C 452.9375 274.613281 453.625 274.351562 454.320312 274.203125 C 454.34375 274.027344 454.371094 273.851562 454.394531 273.679688 C 454.726562 273.988281 455.054688 274.296875 455.4375 274.652344 C 455.644531 274.421875 455.890625 274.136719 456.199219 273.785156 C 456.636719 274.101562 457.058594 274.636719 457.519531 274.6875 C 457.917969 274.726562 458.363281 274.195312 458.859375 273.878906 C 459.84375 274.070312 460.871094 275.679688 462.09375 273.863281 C 462.308594 273.546875 463.675781 274.027344 464.460938 274.304688 C 464.921875 274.246094 465.402344 274.070312 465.839844 274.136719 C 467.378906 274.351562 468.835938 274.085938 470.355469 273.8125 C 472.5 273.429688 474.742188 273.621094 476.933594 273.503906 C 477.757812 273.460938 478.570312 273.128906 479.390625 273.113281 C 480.117188 273.09375 480.84375 273.34375 481.605469 273.476562 C 481.8125 273.3125 482.160156 272.804688 482.507812 272.804688 C 483.664062 272.785156 484.824219 273.046875 485.972656 273.019531 C 486.660156 273.003906 487.335938 272.46875 488.015625 272.488281 C 489.925781 272.535156 491.835938 272.777344 493.753906 272.871094 C 494.160156 272.886719 494.574219 272.527344 495.003906 272.453125 C 495.535156 272.363281 496.128906 272.238281 496.601562 272.402344 C 498.054688 272.929688 499.75 273.046875 500.960938 272.578125 C 502.628906 271.921875 504.101562 272.660156 505.683594 272.4375 C 508.0625 272.09375 510.535156 272.386719 512.96875 272.3125 C 513.582031 272.296875 514.347656 271.554688 514.746094 271.761719 C 516.625 272.71875 518.601562 272.070312 520.511719 272.34375 C 520.925781 272.402344 521.378906 271.988281 521.84375 271.894531 C 522.453125 271.769531 523.257812 271.460938 523.679688 271.71875 C 525.191406 272.644531 526.65625 272.410156 528.09375 271.769531 C 529.410156 271.1875 530.550781 271.078125 531.535156 272.371094 C 531.84375 271.988281 532.117188 271.660156 532.378906 271.335938 C 533.429688 271.835938 534.257812 272.71875 535.480469 271.511719 C 535.902344 271.09375 537.226562 271.71875 538.128906 271.679688 C 539.839844 271.59375 541.542969 271.3125 543.257812 271.238281 C 544.230469 271.195312 545.515625 271.035156 546.140625 271.5625 C 547.589844 272.769531 549.101562 271.546875 550.46875 272.070312 C 552.1875 272.738281 553.910156 271.113281 555.703125 272.179688 C 556.207031 272.476562 557.207031 271.886719 557.996094 271.769531 C 558.539062 271.6875 559.160156 271.554688 559.65625 271.726562 C 561.929688 272.546875 564.199219 271.601562 566.449219 271.804688 C 568.109375 271.953125 569.753906 272.296875 571.410156 272.554688 C 571.453125 272.554688 571.527344 272.652344 571.527344 272.652344 C 573.121094 270.96875 575.191406 273.6875 576.792969 272.085938 C 581.847656 272.671875 586.894531 271.738281 591.960938 272.085938 C 596.296875 272.386719 600.671875 272.085938 605.03125 272.046875 C 606.34375 272.027344 607.667969 271.851562 608.976562 271.929688 C 609.585938 271.960938 610.175781 272.402344 610.695312 272.621094 C 611.367188 272.4375 612.128906 272.046875 612.878906 272.054688 C 615.128906 272.070312 617.378906 272.378906 619.621094 272.328125 C 621.835938 272.277344 624.046875 271.785156 626.261719 271.769531 C 629 271.746094 631.746094 272.101562 634.492188 272.09375 C 637.335938 272.09375 640.179688 271.769531 643.027344 271.753906 C 647.601562 271.726562 652.175781 271.878906 656.738281 271.878906 C 660.617188 271.878906 664.507812 271.710938 668.386719 271.726562 C 671.660156 271.746094 674.933594 271.902344 678.203125 272.035156 C 683.03125 272.21875 687.863281 272.5625 692.691406 272.601562 C 696.710938 272.636719 700.730469 272.277344 704.75 272.171875 C 706.628906 272.121094 708.523438 272.203125 710.390625 272.378906 C 710.9375 272.429688 711.433594 272.996094 711.957031 273.328125 C 711.929688 273.570312 711.898438 273.8125 711.871094 274.054688 C 710.277344 274.226562 708.671875 274.402344 706.878906 274.59375 C 707.207031 275.0625 707.539062 276.003906 707.96875 276.054688 C 709.839844 276.253906 709.25 277.695312 709.484375 278.710938 C 709.546875 279.003906 709.441406 279.328125 709.457031 279.160156 C 710.953125 280.085938 712.1875 280.851562 713.476562 281.652344 C 713.476562 281.660156 713.59375 281.378906 713.75 281.019531 C 715.488281 283.394531 712.253906 282.253906 712.195312 283.445312 C 712.519531 283.503906 712.839844 283.570312 713.210938 283.636719 C 712.742188 284.003906 712.328125 284.328125 711.75 284.777344 C 712.484375 284.886719 712.996094 284.960938 713.675781 285.070312 C 713.453125 285.402344 713.320312 285.738281 713.230469 285.71875 C 712.320312 285.578125 711.417969 286.238281 710.78125 286.210938 C 708.003906 286.113281 705.3125 286.851562 702.558594 286.785156 C 701.5 286.761719 700.425781 286.976562 699.375 286.921875 C 698.945312 286.894531 698.546875 286.402344 698.027344 286.054688 C 696.644531 287.121094 695.109375 287.363281 693.867188 286.261719 C 692.558594 286.554688 691.519531 286.976562 690.460938 286.988281 C 688.757812 287.003906 687.050781 286.660156 685.347656 286.628906 C 683.265625 286.59375 681.179688 286.753906 679.09375 286.769531 C 678.308594 286.769531 677.523438 286.527344 676.738281 286.546875 C 676.199219 286.554688 675.671875 286.96875 675.140625 286.953125 C 673.605469 286.921875 672.066406 286.695312 670.535156 286.660156 C 669.519531 286.636719 668.5 286.886719 667.484375 286.878906 C 666.929688 286.878906 666.382812 286.613281 665.714844 286.4375 C 665.207031 287.402344 657.394531 287.246094 656.492188 286.136719 C 655.730469 286.453125 655.117188 286.871094 654.472656 286.921875 C 653.753906 286.96875 653.007812 286.6875 652.355469 286.5625 C 651.105469 286.601562 649.851562 286.695312 648.601562 286.671875 C 646.664062 286.621094 644.746094 285.628906 642.777344 286.613281 C 642.472656 286.769531 641.886719 286.769531 641.644531 286.570312 C 641.023438 286.070312 640.613281 285.96875 639.992188 286.59375 C 639.851562 286.738281 639.046875 286.195312 638.558594 285.976562 C 638.445312 286.136719 638.246094 286.410156 638.039062 286.6875 C 638.015625 286.421875 637.988281 286.152344 637.921875 285.511719 C 637.015625 285.929688 636.195312 286.34375 635.335938 286.636719 C 635.152344 286.695312 634.832031 286.09375 634.539062 286.054688 C 633.492188 285.910156 632.421875 285.820312 631.363281 285.8125 C 629.304688 285.796875 627.238281 285.785156 625.179688 285.902344 C 624.359375 285.945312 623.53125 286.269531 622.746094 286.554688 C 622.183594 286.753906 622.234375 286.796875 621.628906 286.195312 C 621.488281 286.054688 620.945312 286.046875 620.902344 286.136719 C 619.960938 287.996094 618.75 286.644531 617.652344 286.4375 C 617.246094 286.363281 616.667969 286.003906 616.476562 286.160156 C 614.796875 287.527344 612.945312 286.851562 611.117188 286.835938 C 607.488281 286.804688 603.863281 286.96875 600.234375 286.976562 C 596.089844 286.988281 591.945312 286.945312 587.8125 286.863281 C 587.191406 286.851562 586.585938 286.394531 585.957031 286.371094 C 584.992188 286.328125 584.007812 286.476562 583.03125 286.527344 C 582.722656 286.546875 582.417969 286.460938 582.113281 286.453125 C 581.34375 286.445312 580.574219 286.453125 579.65625 286.453125 C 579.773438 286.828125 579.101562 286.578125 579.003906 286.570312 C 578.835938 286.5625 578.671875 286.429688 578.515625 286.4375 C 578.074219 286.460938 577.636719 286.519531 577.207031 286.601562 C 576.941406 286.652344 576.570312 286.929688 576.445312 286.835938 C 575.039062 285.761719 573.171875 287.628906 571.847656 286.085938 C 571.773438 285.996094 571.433594 285.976562 571.367188 286.0625 C 570.070312 287.636719 568.78125 286.253906 567.472656 286.101562 C 567.035156 286.054688 566.5625 286.4375 566.089844 286.503906 C 565.355469 286.613281 564.28125 286.945312 563.933594 286.59375 C 563.121094 285.777344 562.675781 286.152344 561.957031 286.578125 C 561.574219 286.804688 560.972656 286.660156 560.285156 286.695312 C 560.484375 286.363281 560.601562 286.152344 560.796875 285.820312 L 558.6875 285.820312 C 558.804688 285.976562 558.945312 286.160156 559.085938 286.34375 C 559.035156 286.46875 558.980469 286.601562 558.929688 286.726562 C 558.367188 286.476562 557.796875 286.238281 557.199219 285.96875 C 556.871094 286.453125 556.878906 286.445312 556.140625 285.96875 C 555.96875 285.851562 555.613281 285.695312 555.570312 285.746094 C 554.3125 287.285156 552.511719 285.621094 551.402344 286.46875 C 551.128906 286.144531 550.921875 285.71875 550.75 285.726562 C 548.78125 285.878906 546.796875 286.328125 544.851562 286.210938 C 543.59375 286.136719 542.335938 286.269531 541.097656 286.101562 C 540.800781 286.0625 540.542969 285.652344 540.179688 285.320312 C 539.535156 286.128906 538.855469 286.738281 537.746094 285.769531 C 537.398438 285.460938 536.5 285.785156 535.855469 285.828125 C 534.613281 285.894531 532.941406 286.496094 532.238281 285.910156 C 530.90625 284.8125 530.03125 286.1875 528.914062 285.929688 C 527.507812 285.613281 526.003906 285.695312 524.539062 285.726562 C 521.875 285.777344 519.222656 285.960938 516.566406 286.003906 C 515.324219 286.019531 514.09375 285.746094 512.851562 285.753906 C 511.761719 285.753906 510.667969 285.976562 509.578125 286.054688 C 508.941406 286.09375 508.171875 286.238281 507.683594 285.945312 C 507.105469 285.613281 506.757812 284.785156 506.375 286.046875 C 506.144531 285.871094 505.914062 285.6875 505.542969 285.402344 C 505.25 285.628906 504.828125 285.945312 504.351562 286.3125 C 503.207031 285.679688 502.074219 285.535156 500.628906 286.070312 C 499.453125 286.503906 497.949219 286.027344 496.59375 285.996094 C 495.46875 285.96875 494.34375 286.011719 493.21875 286.035156 C 488.859375 286.144531 484.492188 286.203125 480.132812 286.402344 C 477.378906 286.527344 474.632812 286.96875 471.878906 287.101562 C 469.695312 287.210938 467.503906 287.054688 465.320312 287.078125 C 464.800781 287.078125 464.285156 287.34375 463.460938 287.570312 C 462.773438 287.113281 461.863281 286.996094 460.523438 287.621094 C 459.257812 288.210938 457.585938 287.945312 456.097656 288.003906 C 456.039062 288.003906 455.957031 287.488281 455.832031 287.011719 C 455.421875 287.453125 455.113281 287.777344 454.71875 288.195312 C 453.742188 286.394531 452.320312 287.671875 451.070312 287.601562 C 450.902344 287.59375 450.605469 288.003906 450.566406 287.96875 C 449.457031 287.121094 448.332031 287.5625 447.117188 287.671875 C 445.808594 287.796875 444.460938 287.261719 443.113281 287.128906 C 442.742188 287.09375 442.320312 287.453125 441.707031 287.726562 C 441.707031 287.753906 441.625 287.445312 441.457031 286.921875 C 441.113281 287.34375 440.847656 287.671875 440.589844 287.976562 C 439.613281 286.804688 439.539062 286.796875 438.28125 287.488281 C 438.117188 287.578125 437.910156 287.59375 437.710938 287.613281 C 437.082031 287.671875 436.445312 287.761719 435.808594 287.746094 C 434.429688 287.703125 433.046875 287.527344 431.675781 287.554688 C 430.382812 287.578125 429.09375 287.777344 427.730469 287.910156 C 427.730469 287.738281 427.730469 287.496094 427.730469 287.511719 C 426.933594 287.386719 426.214844 287.21875 425.480469 287.160156 C 424.875 287.121094 424.265625 287.246094 423.660156 287.21875 C 421.726562 287.144531 419.773438 287.195312 417.871094 286.902344 C 416.175781 286.644531 414.265625 286.511719 412.882812 286.929688 C 410.816406 287.554688 408.980469 286.160156 407.0625 286.976562 C 406.703125 287.128906 406.101562 286.578125 405.628906 286.621094 C 404.828125 286.695312 404.050781 286.988281 403.074219 287.246094 C 402.636719 287.011719 402.179688 285.363281 401.246094 286.988281 C 401.1875 287.085938 400.921875 287.144531 400.808594 287.101562 C 398.558594 286.3125 396.265625 287.152344 393.984375 286.921875 C 391.511719 286.671875 388.980469 286.96875 386.53125 286.613281 C 384.976562 286.386719 383.355469 287.195312 381.785156 286.113281 C 381.238281 285.738281 379.933594 286.703125 379.113281 286.503906 C 377.527344 286.121094 376.046875 286.519531 374.515625 286.578125 C 372.886719 286.644531 371.246094 286.304688 369.617188 286.179688 C 368.644531 286.101562 367.660156 286.085938 366.675781 286.085938 C 362.851562 286.113281 359.023438 286.246094 355.203125 286.152344 C 353.332031 286.101562 351.480469 285.527344 349.601562 285.378906 C 348.082031 285.253906 346.527344 285.488281 344.996094 285.429688 C 341.539062 285.285156 338.082031 285.152344 334.632812 284.84375 C 330.84375 284.511719 327.074219 283.996094 323.292969 283.546875 C 320.902344 283.261719 318.488281 283.113281 316.148438 282.601562 C 314.023438 282.144531 311.945312 281.34375 309.921875 280.535156 C 309.539062 280.386719 308.828125 279.96875 309.050781 278.902344 C 309.382812 277.378906 308.703125 275.628906 310.175781 274.261719 C 310.117188 277.101562 312.558594 276.09375 313.90625 276.601562 C 315.253906 277.113281 316.933594 276.710938 318.332031 276.921875 C 320.886719 277.304688 323.425781 277.152344 325.957031 277.371094 C 326.941406 277.453125 327.925781 277.519531 328.910156 277.628906 C 329.464844 277.695312 330.011719 277.828125 330.695312 277.960938 C 331.324219 276.527344 332.441406 277.851562 333.410156 277.8125 C 333.824219 277.796875 334.3125 277.804688 334.609375 277.585938 C 334.847656 277.410156 334.855469 276.921875 334.964844 276.5625 C 334.527344 276.503906 334.078125 276.460938 333.640625 276.386719 C 332.269531 276.179688 330.65625 276.902344 329.570312 275.554688 C 329.613281 275.335938 329.652344 275.121094 329.6875 274.902344 C 330.472656 275.035156 331.265625 275.171875 332.050781 275.296875 C 332.027344 275.253906 332.003906 275.210938 331.976562 275.160156 C 332.671875 275.128906 333.375 275.101562 334.070312 275.070312 C 334.054688 275.144531 334.039062 275.21875 334.019531 275.285156 C 334.453125 275.113281 334.871094 274.796875 335.3125 274.777344 C 340.613281 274.578125 345.921875 274.429688 351.222656 274.253906 C 352.042969 274.226562 352.871094 273.996094 353.664062 274.09375 C 354.398438 274.195312 355.09375 274.621094 355.804688 274.894531 C 355.285156 275.503906 354.765625 276.113281 354.160156 276.8125 C 355.011719 276.863281 355.957031 276.921875 357.082031 276.996094 C 357.046875 276.636719 357.015625 276.246094 356.980469 275.851562 C 356.707031 276.003906 356.433594 276.152344 356.097656 276.335938 C 355.988281 275.84375 355.890625 275.371094 355.78125 274.902344 Z M 624.824219 275.453125 C 624.476562 274.871094 624.640625 274.003906 623.308594 274.226562 C 621.730469 274.503906 620.042969 274.054688 618.40625 274.121094 C 617.75 274.144531 617.121094 274.695312 616.476562 275.003906 C 616.519531 275.09375 616.570312 275.179688 616.609375 275.269531 L 617.378906 275.269531 C 617.296875 275.554688 617.222656 275.804688 617.15625 276.027344 C 618.238281 276.085938 619.296875 276.136719 620.414062 276.195312 C 620.183594 275.835938 620 275.570312 619.820312 275.296875 L 620.148438 274.996094 C 620.53125 275.402344 620.917969 275.820312 621.292969 276.21875 C 622.109375 276.003906 622.945312 275.09375 624.011719 276.027344 C 624.0625 276.070312 624.535156 275.628906 624.804688 275.421875 C 626.15625 274.578125 627.238281 276.046875 628.660156 275.851562 C 628.453125 275.136719 627.972656 274.160156 627.75 274.210938 C 626.742188 274.460938 625.796875 275.011719 624.832031 275.453125 Z M 401.214844 276.34375 C 400.203125 274.671875 399.285156 274.570312 398.410156 275.796875 C 397.308594 275.621094 396.359375 275.488281 395.414062 275.304688 C 393.96875 275.027344 392.519531 275.101562 391.105469 275.378906 C 390.691406 275.460938 390.378906 276.054688 390.113281 276.3125 C 392.140625 276.4375 393.976562 276.554688 395.902344 276.679688 C 395.929688 276.960938 395.953125 277.351562 395.96875 277.535156 C 397.234375 277.1875 398.410156 276.761719 399.625 276.570312 C 400.023438 276.511719 400.511719 277.070312 401.179688 277.496094 C 401.179688 276.988281 401.179688 276.644531 401.179688 276.3125 C 402.320312 276.511719 403.464844 276.785156 404.613281 276.878906 C 405.207031 276.929688 405.796875 277.710938 406.566406 276.746094 C 406.835938 276.394531 408.335938 277.003906 409.261719 277.21875 C 409.550781 277.285156 409.808594 277.519531 410.078125 277.679688 C 410.105469 277.351562 410.128906 277.027344 410.164062 276.460938 C 410.980469 276.828125 411.726562 277.152344 412.59375 277.546875 L 412.59375 275.796875 C 412.023438 275.835938 411.453125 275.929688 410.890625 275.902344 C 410.527344 275.886719 410.171875 275.660156 409.796875 275.601562 C 409.460938 275.554688 409.085938 275.671875 408.765625 275.601562 C 407.648438 275.34375 406.25 277.144531 405.496094 275.179688 C 404.96875 275.378906 404.304688 275.8125 404.140625 275.671875 C 402.792969 274.503906 402.066406 275.636719 401.214844 276.363281 Z M 473.316406 275.113281 C 473.195312 275.246094 473.078125 275.496094 472.9375 275.503906 C 470.300781 275.738281 467.554688 274.453125 465.015625 276.113281 C 464.949219 276.152344 464.75 275.921875 464.609375 275.902344 C 463.722656 275.785156 462.832031 275.59375 461.945312 275.613281 C 460.96875 275.636719 459.992188 275.953125 459.019531 275.960938 C 457.488281 275.976562 455.957031 275.820312 454.425781 275.785156 C 453.507812 275.761719 452.582031 275.828125 451.664062 275.835938 C 450.855469 275.835938 450.035156 275.777344 449.234375 275.835938 C 448.84375 275.871094 448.429688 276.070312 448.109375 276.3125 C 447.992188 276.394531 448.027344 276.976562 448.140625 277.035156 C 449.183594 277.5625 450.242188 278.054688 451.335938 278.453125 C 451.507812 278.519531 451.839844 278.085938 452.128906 277.929688 C 452.492188 277.71875 453.003906 277.296875 453.226562 277.410156 C 454.097656 277.84375 454.269531 277.886719 454.402344 277.636719 C 455.289062 277.902344 456.140625 278.476562 456.777344 278.296875 C 458.183594 277.886719 459.539062 277.953125 460.953125 277.96875 C 464.046875 278.003906 467.140625 277.871094 470.234375 277.785156 C 470.414062 277.785156 470.582031 277.546875 470.769531 277.496094 C 471.257812 277.351562 471.804688 277.335938 472.242188 277.121094 C 472.625 276.929688 472.988281 276.570312 473.203125 276.195312 C 473.375 275.894531 473.300781 275.460938 473.335938 275.085938 C 473.550781 275.953125 473.765625 276.820312 474.046875 277.953125 C 475.164062 277.628906 476.535156 277.238281 477.917969 276.835938 C 477.867188 276.953125 477.777344 277.179688 477.59375 277.613281 C 479.613281 276.636719 481.496094 275.09375 483.457031 277.445312 C 483.738281 277.113281 484.046875 276.746094 484.375 276.351562 C 484.582031 276.671875 484.75 276.910156 485.039062 277.351562 C 485.921875 275.09375 486.867188 276.945312 487.808594 277.070312 C 487.785156 276.777344 487.757812 276.476562 487.734375 276.277344 C 488.816406 276.101562 489.808594 275.9375 490.8125 275.769531 C 490.851562 275.578125 490.894531 275.386719 490.933594 275.203125 C 490.570312 275.027344 490.199219 274.6875 489.84375 274.710938 C 488.386719 274.796875 486.957031 275.027344 485.519531 275.277344 C 483.484375 275.636719 481.316406 275.277344 479.207031 275.238281 C 477.246094 275.195312 475.285156 275.144531 473.335938 275.101562 Z M 495.75 275.796875 C 496.269531 275.871094 496.660156 275.976562 497.054688 275.976562 C 497.726562 275.976562 498.394531 275.863281 499.058594 275.886719 C 500.800781 275.9375 502.546875 276.070312 504.300781 276.113281 C 505.441406 276.136719 506.589844 276.003906 507.734375 276.027344 C 509.195312 276.070312 510.792969 276.710938 511.519531 275.054688 C 512.125 275.429688 512.644531 275.753906 513.160156 276.070312 C 513.25 275.929688 513.332031 275.785156 513.421875 275.644531 C 513.234375 275.511719 513.042969 275.371094 512.621094 275.070312 C 513.6875 275.21875 514.722656 275.054688 515.183594 275.496094 C 516.175781 276.445312 516.683594 276.171875 517.171875 275.613281 C 517.996094 275.796875 518.832031 275.96875 519.808594 276.1875 C 519.617188 275.6875 519.519531 275.429688 519.269531 274.761719 C 519.972656 275.285156 520.28125 275.679688 520.628906 275.726562 C 520.984375 275.769531 521.378906 275.46875 521.734375 275.335938 C 521.925781 275.554688 522.199219 275.863281 522.398438 276.085938 C 524.496094 274.863281 526.484375 275.546875 528.507812 275.902344 C 529.136719 274.628906 530.289062 274.945312 531.394531 275.078125 C 532.753906 275.238281 534.117188 275.488281 535.480469 275.488281 C 536.351562 275.488281 537.316406 275.488281 538.09375 274.863281 C 538.203125 274.769531 538.574219 274.84375 538.699219 274.960938 C 539.378906 275.621094 541.304688 275.921875 542.089844 275.695312 C 542.882812 275.46875 543.761719 275.503906 544.597656 275.496094 C 544.933594 275.496094 545.273438 275.769531 545.621094 275.796875 C 547.53125 275.929688 549.449219 276.195312 551.34375 276.078125 C 553.777344 275.921875 556.234375 276.6875 558.679688 275.601562 C 559.738281 275.136719 561.164062 275.503906 562.410156 275.527344 C 562.632812 275.527344 562.859375 275.753906 563.082031 275.871094 C 563.46875 276.0625 563.875 276.445312 564.238281 276.402344 C 566.167969 276.195312 565.445312 274.871094 565.347656 273.804688 C 563.867188 273.804688 562.484375 273.777344 561.105469 273.804688 C 559.242188 273.84375 557.382812 274.019531 555.53125 273.953125 C 553.371094 273.871094 551.195312 273.296875 549.070312 273.46875 C 546.886719 273.644531 544.644531 272.703125 542.527344 273.804688 C 540.082031 272.488281 537.515625 274.613281 534.96875 273.46875 C 533.925781 273.003906 532.511719 273.320312 531.273438 273.371094 C 530.039062 273.421875 528.816406 273.679688 527.589844 273.671875 C 524.878906 273.644531 522.171875 273.421875 519.460938 273.445312 C 517.449219 273.46875 515.449219 273.902344 513.441406 273.894531 C 511.15625 273.894531 508.875 273.421875 506.601562 273.460938 C 503.375 273.519531 500.15625 273.84375 496.929688 274.078125 C 495.070312 274.21875 493.210938 274.410156 491.40625 274.578125 C 491.308594 275.421875 491.234375 276.027344 491.160156 276.59375 C 492.308594 277.679688 493.492188 273.6875 494.589844 276.863281 C 495.09375 276.394531 495.507812 276.011719 495.742188 275.796875 Z M 581.535156 275.203125 C 581.492188 274.996094 581.441406 274.785156 581.402344 274.570312 C 576.976562 274.378906 572.550781 274.1875 568.109375 273.996094 C 568.144531 274.394531 568.160156 274.636719 568.175781 274.878906 C 567.753906 274.679688 567.339844 274.476562 566.730469 274.1875 L 566.730469 276.0625 C 567.175781 275.960938 567.613281 275.796875 568.058594 275.769531 C 568.5 275.738281 568.960938 275.785156 569.390625 275.894531 C 569.90625 276.027344 570.382812 276.335938 570.90625 276.421875 C 571.253906 276.46875 571.640625 276.160156 572.003906 276.171875 C 574.230469 276.246094 576.453125 276.496094 578.671875 276.394531 C 579.640625 276.351562 580.574219 275.621094 581.523438 275.203125 Z M 438.472656 277.402344 C 444.28125 277.8125 446.03125 277.644531 447.652344 276.5625 C 446.4375 275.671875 442.003906 275.554688 441.070312 276.429688 C 440.316406 276.070312 439.558594 275.703125 438.574219 275.238281 C 438.53125 276.144531 438.507812 276.769531 438.472656 277.402344 Z M 346.285156 276.410156 C 346.246094 276.476562 346.203125 276.554688 346.171875 276.621094 L 348.910156 277.761719 C 348.890625 277.644531 348.875 277.535156 348.859375 277.421875 C 349.808594 277.21875 350.761719 277.027344 351.703125 276.828125 C 351.703125 276.6875 351.703125 276.554688 351.695312 276.410156 Z M 424.414062 277.070312 C 423.859375 276.5625 423.519531 276.136719 423.082031 275.902344 C 422.742188 275.71875 422.113281 275.570312 421.914062 275.746094 C 421.625 276.003906 421.609375 276.570312 421.484375 277.003906 C 421.882812 277.101562 422.277344 277.269531 422.683594 277.277344 C 423.171875 277.285156 423.660156 277.171875 424.414062 277.070312 Z M 430.476562 278.160156 C 431.277344 277.570312 431.890625 277.113281 432.824219 276.421875 C 431.808594 276.285156 431.03125 276.1875 430.253906 276.078125 C 430.328125 276.777344 430.410156 277.46875 430.484375 278.160156 Z M 430.476562 278.160156 " fill-opacity="1" fill-rule="nonzero"/></g><path fill="#b1a1ed" d="M 325.914062 277.386719 C 325.851562 275.304688 324.046875 276.113281 323.160156 275.976562 C 321.003906 275.660156 318.738281 276.820312 316.554688 275.628906 C 316.28125 275.476562 315.757812 275.878906 315.371094 275.835938 C 314.90625 275.796875 314.453125 275.554688 313.996094 275.394531 L 314.039062 274.929688 C 316.40625 274.929688 318.785156 274.777344 321.136719 274.96875 C 323.75 275.179688 326.535156 274.160156 329 275.644531 C 328.984375 275.804688 328.96875 275.960938 328.953125 276.128906 C 328.199219 276.0625 327.445312 275.996094 326.496094 275.910156 C 326.347656 276.285156 326.121094 276.835938 325.90625 277.386719 Z M 325.914062 277.386719 " fill-opacity="1" fill-rule="nonzero"/></svg>