<svg xmlns="http://www.w3.org/2000/svg" xmlns:xlink="http://www.w3.org/1999/xlink" width="626" zoomAndPan="magnify" viewBox="0 0 469.5 631.499985" height="842" preserveAspectRatio="xMidYMid meet" version="1.0"><defs><clipPath id="d5c3e7a79e"><path d="M 75.414062 76 L 394.164062 76 L 394.164062 552.648438 L 75.414062 552.648438 Z M 75.414062 76 " clip-rule="nonzero"/></clipPath><clipPath id="d24b414a36"><path d="M 75.414062 76 L 394.164062 76 L 394.164062 552.648438 L 75.414062 552.648438 Z M 75.414062 76 " clip-rule="nonzero"/></clipPath></defs><g clip-path="url(#d5c3e7a79e)"><path fill="#ec709a" d="M 387.277344 537.140625 C 384.125 537.140625 381.234375 537.136719 378.34375 537.140625 C 350.441406 537.207031 322.535156 537.335938 294.632812 537.324219 C 277.9375 537.3125 261.242188 537.183594 244.550781 536.910156 C 235.226562 536.757812 225.914062 536.09375 216.59375 535.859375 C 206.800781 535.613281 197 535.625 187.203125 535.496094 C 161.261719 535.15625 135.320312 534.777344 109.378906 534.464844 C 100.601562 534.359375 91.824219 534.398438 83.042969 534.371094 C 82.265625 534.371094 81.488281 534.371094 80.566406 534.371094 C 80.484375 533.757812 80.351562 533.246094 80.355469 532.734375 C 80.464844 507.304688 80.777344 481.871094 80.652344 456.441406 C 80.503906 425.449219 79.964844 394.460938 79.644531 363.46875 C 79.433594 343.433594 79.28125 323.398438 79.15625 303.363281 C 79.042969 284.894531 78.800781 266.421875 78.984375 247.953125 C 79.132812 232.773438 79.804688 217.601562 80.269531 202.425781 C 81.066406 176.449219 81.457031 150.46875 81.160156 124.480469 C 81.117188 120.734375 81.152344 116.988281 81.152344 113.011719 C 81.53125 112.957031 82.117188 112.808594 82.703125 112.796875 C 88.03125 112.6875 93.359375 112.609375 98.691406 112.503906 C 109.738281 112.277344 120.785156 111.816406 131.832031 111.867188 C 144.527344 111.925781 157.21875 112.628906 169.910156 112.683594 C 182.761719 112.742188 195.617188 112.507812 208.460938 112.109375 C 218.253906 111.808594 228.039062 111.367188 237.839844 111.648438 C 259 112.25 280.160156 112.179688 301.320312 111.660156 C 310.957031 111.421875 320.597656 111.324219 330.234375 111.082031 C 339.324219 110.855469 348.40625 110.460938 357.496094 110.242188 C 367.914062 109.996094 378.332031 109.859375 388.753906 109.679688 C 389.285156 109.667969 389.816406 109.679688 390.617188 109.679688 C 390.617188 110.742188 390.628906 111.65625 390.613281 112.570312 C 390.191406 136.125 389.636719 159.675781 389.375 183.234375 C 389.039062 212.972656 388.8125 242.714844 388.773438 272.453125 C 388.722656 312.214844 388.527344 351.96875 387.53125 391.722656 C 386.671875 425.992188 386.207031 460.269531 386.285156 494.550781 C 386.3125 507.3125 386.433594 520.0625 387.269531 532.800781 C 387.355469 534.113281 387.277344 535.433594 387.277344 537.140625 Z M 81.835938 103.136719 C 92.175781 103.175781 102.523438 103.390625 112.859375 103.199219 C 133.074219 102.816406 153.277344 102.097656 173.492188 101.71875 C 193.546875 101.34375 213.609375 101.082031 233.671875 101.019531 C 249.496094 100.972656 265.324219 101.292969 281.152344 101.480469 C 295.648438 101.652344 310.144531 102.125 324.636719 101.992188 C 345.792969 101.800781 366.945312 101.164062 388.101562 102.007812 C 388.929688 102.042969 389.765625 102.011719 390.832031 102.011719 C 390.832031 100.789062 390.839844 99.863281 390.832031 98.933594 C 390.792969 93.929688 390.765625 88.921875 390.707031 83.914062 C 390.671875 80.898438 390.492188 80.734375 387.550781 80.519531 C 387.316406 80.503906 387.082031 80.496094 386.847656 80.480469 C 373.464844 79.703125 360.066406 79.625 346.664062 79.707031 C 329.816406 79.8125 312.96875 79.941406 296.125 79.878906 C 273.867188 79.792969 251.617188 79.480469 229.359375 79.371094 C 208.671875 79.265625 187.984375 79.117188 167.296875 79.3125 C 139.480469 79.578125 111.667969 80.15625 83.855469 80.617188 C 82.703125 80.636719 81.554688 80.851562 80.074219 81.011719 C 80.335938 88.398438 80.589844 95.625 80.851562 102.988281 C 81.371094 103.070312 81.601562 103.136719 81.835938 103.136719 Z M 93.335938 97.46875 C 90.5 97.417969 88.242188 95.160156 88.277344 92.417969 C 88.328125 89.085938 90.84375 86.519531 94 86.585938 C 96.875 86.648438 98.667969 88.71875 98.617188 91.914062 C 98.5625 95.359375 96.503906 97.519531 93.335938 97.46875 Z M 109.414062 85.234375 C 112.582031 85.222656 115.066406 88.019531 114.988281 91.515625 C 114.921875 94.5625 112.042969 97.371094 109.042969 97.3125 C 106.117188 97.257812 103.671875 94.394531 103.667969 91.019531 C 103.664062 87.664062 106.066406 85.246094 109.414062 85.234375 Z M 130.152344 91.269531 C 130.097656 94.75 127.554688 97.441406 124.355469 97.402344 C 121.308594 97.371094 118.867188 94.480469 118.898438 90.9375 C 118.925781 88.015625 121.496094 85.734375 124.738281 85.753906 C 127.964844 85.777344 130.203125 88.058594 130.152344 91.269531 Z M 80.285156 542.640625 C 80.363281 544.746094 80.535156 545.109375 82.621094 545.523438 C 86.300781 546.246094 90.007812 547.113281 93.734375 547.285156 C 110.328125 548.054688 126.929688 548.761719 143.535156 549.167969 C 155.753906 549.464844 167.984375 549.300781 180.210938 549.285156 C 205.527344 549.253906 230.839844 549.117188 256.152344 549.152344 C 271.828125 549.175781 287.5 549.5625 303.171875 549.558594 C 329.820312 549.546875 356.464844 549.355469 383.109375 549.238281 C 383.660156 549.234375 384.207031 549.222656 384.753906 549.207031 C 385.84375 549.171875 386.523438 548.601562 386.753906 547.5625 C 387.300781 545.121094 387.519531 542.660156 387.265625 539.96875 C 386.53125 539.96875 385.925781 539.957031 385.320312 539.96875 C 380.855469 540.070312 376.390625 540.261719 371.925781 540.269531 C 342.144531 540.320312 312.363281 540.359375 282.582031 540.339844 C 270.828125 540.332031 259.070312 540.285156 247.320312 540.039062 C 237.136719 539.824219 226.960938 539.175781 216.777344 538.953125 C 203.222656 538.660156 189.667969 538.589844 176.109375 538.429688 C 145 538.066406 113.886719 537.703125 82.777344 537.34375 C 82.015625 537.335938 81.253906 537.34375 80.269531 537.34375 C 80.269531 539.238281 80.21875 540.941406 80.285156 542.640625 Z M 82.121094 110.066406 C 91.054688 109.890625 100 109.957031 108.914062 109.472656 C 125.453125 108.582031 141.976562 109.050781 158.507812 109.328125 C 168.144531 109.488281 177.785156 109.824219 187.417969 109.71875 C 198.226562 109.597656 209.03125 108.894531 219.839844 108.761719 C 230.492188 108.625 241.152344 108.972656 251.808594 108.949219 C 272.890625 108.90625 293.96875 108.789062 315.050781 108.625 C 321.472656 108.574219 327.894531 108.246094 334.320312 108.066406 C 343.25 107.816406 352.175781 107.511719 361.105469 107.363281 C 370.117188 107.214844 379.128906 107.230469 388.140625 107.160156 C 388.90625 107.15625 389.675781 107.070312 390.515625 107.019531 C 390.515625 106.222656 390.515625 105.589844 390.515625 104.828125 C 388.070312 104.828125 385.808594 104.832031 383.542969 104.828125 C 369.910156 104.800781 356.277344 104.75 342.644531 104.742188 C 327.441406 104.734375 312.238281 104.875 297.035156 104.75 C 283.402344 104.640625 269.769531 104.027344 256.136719 104.03125 C 223.382812 104.046875 190.625 103.988281 157.878906 105.300781 C 141.910156 105.945312 125.917969 106.078125 109.929688 106.265625 C 101.394531 106.367188 92.851562 106.09375 84.3125 105.996094 C 83.171875 105.984375 82.03125 106.019531 80.898438 106.035156 C 80.898438 107.496094 80.898438 108.644531 80.898438 109.960938 C 81.503906 110.015625 81.8125 110.074219 82.121094 110.066406 Z M 106.300781 91.652344 C 106.289062 93.203125 107.753906 94.746094 109.21875 94.730469 C 110.859375 94.710938 112.382812 93.046875 112.355469 91.300781 C 112.328125 89.402344 111.085938 88 109.453125 88.027344 C 107.605469 88.054688 106.3125 89.542969 106.300781 91.652344 Z M 124.382812 94.894531 C 126.109375 94.917969 127.667969 93.242188 127.691406 91.339844 C 127.710938 89.542969 126.585938 88.398438 124.8125 88.417969 C 122.804688 88.4375 121.503906 89.671875 121.519531 91.542969 C 121.535156 93.371094 122.816406 94.871094 124.382812 94.894531 Z M 392.074219 313.019531 C 391.660156 335.554688 391.257812 358.09375 390.828125 380.628906 C 390.585938 393.542969 390.191406 406.453125 390.058594 419.363281 C 389.75 450.277344 389.523438 481.195312 389.351562 512.109375 C 389.320312 517.269531 389.78125 522.429688 389.929688 527.589844 C 390.078125 532.828125 390.15625 538.070312 390.183594 543.3125 C 390.191406 544.710938 389.980469 546.125 389.726562 547.507812 C 389.125 550.824219 387.664062 552.070312 384.285156 552.125 C 380.050781 552.199219 375.816406 552.1875 371.585938 552.210938 C 346.738281 552.347656 321.890625 552.578125 297.042969 552.585938 C 273.214844 552.59375 249.390625 552.289062 225.5625 552.257812 C 202.203125 552.226562 178.84375 552.5 155.488281 552.378906 C 141.617188 552.308594 127.746094 551.800781 113.882812 551.359375 C 106.753906 551.132812 99.628906 550.742188 92.519531 550.183594 C 88.867188 549.898438 85.21875 549.253906 81.632812 548.472656 C 77.699219 547.613281 76.945312 546.609375 76.957031 542.65625 C 76.96875 537.101562 77.230469 531.546875 77.257812 525.992188 C 77.347656 507.832031 77.519531 489.675781 77.398438 471.515625 C 77.179688 437.941406 76.757812 404.367188 76.453125 370.792969 C 76.230469 346.761719 76.027344 322.734375 75.882812 298.707031 C 75.777344 281.722656 75.503906 264.734375 75.808594 247.757812 C 76.246094 223.5 77.226562 199.253906 77.8125 174.996094 C 78.300781 154.652344 78.523438 134.304688 77.894531 113.953125 C 77.792969 110.617188 77.902344 107.269531 77.828125 103.929688 C 77.683594 97.519531 77.46875 91.109375 77.308594 84.695312 C 77.28125 83.523438 77.308594 82.339844 77.449219 81.179688 C 77.707031 79.089844 78.503906 78.265625 80.640625 78.152344 C 86.980469 77.808594 93.320312 77.496094 99.664062 77.289062 C 150.132812 75.640625 200.617188 76.441406 251.09375 76.355469 C 275.859375 76.3125 300.628906 76.679688 325.398438 76.726562 C 340.054688 76.753906 354.710938 76.425781 369.367188 76.4375 C 375.710938 76.445312 382.050781 76.910156 388.394531 77.167969 C 388.785156 77.183594 389.179688 77.210938 389.566406 77.261719 C 392.699219 77.671875 393.980469 79.046875 394.023438 82.214844 C 394.085938 86.988281 394.167969 91.765625 394.09375 96.539062 C 393.542969 130.660156 392.835938 164.777344 392.421875 198.902344 C 392.082031 226.839844 392.070312 254.785156 391.941406 282.726562 C 391.894531 292.824219 391.933594 302.917969 391.933594 313.015625 C 391.980469 313.015625 392.027344 313.019531 392.074219 313.019531 Z M 387.277344 537.140625 C 387.277344 535.433594 387.355469 534.113281 387.269531 532.800781 C 386.433594 520.0625 386.3125 507.3125 386.285156 494.550781 C 386.207031 460.269531 386.671875 425.992188 387.53125 391.722656 C 388.527344 351.96875 388.722656 312.214844 388.773438 272.453125 C 388.8125 242.714844 389.039062 212.972656 389.375 183.234375 C 389.636719 159.675781 390.191406 136.125 390.613281 112.570312 C 390.628906 111.65625 390.617188 110.742188 390.617188 109.679688 C 389.816406 109.679688 389.285156 109.667969 388.753906 109.679688 C 378.332031 109.859375 367.914062 109.996094 357.496094 110.242188 C 348.40625 110.460938 339.324219 110.855469 330.234375 111.082031 C 320.597656 111.324219 310.957031 111.421875 301.320312 111.660156 C 280.160156 112.179688 259 112.25 237.839844 111.648438 C 228.039062 111.367188 218.253906 111.808594 208.460938 112.109375 C 195.617188 112.507812 182.761719 112.742188 169.910156 112.683594 C 157.21875 112.628906 144.527344 111.925781 131.832031 111.867188 C 120.785156 111.816406 109.738281 112.277344 98.691406 112.503906 C 93.359375 112.609375 88.03125 112.6875 82.703125 112.796875 C 82.117188 112.808594 81.53125 112.957031 81.152344 113.011719 C 81.152344 116.988281 81.117188 120.734375 81.160156 124.480469 C 81.457031 150.46875 81.066406 176.449219 80.269531 202.425781 C 79.804688 217.601562 79.132812 232.773438 78.984375 247.953125 C 78.800781 266.421875 79.042969 284.894531 79.15625 303.363281 C 79.28125 323.398438 79.433594 343.433594 79.644531 363.46875 C 79.964844 394.460938 80.503906 425.449219 80.652344 456.441406 C 80.777344 481.871094 80.464844 507.304688 80.355469 532.734375 C 80.351562 533.246094 80.484375 533.757812 80.566406 534.371094 C 81.488281 534.371094 82.265625 534.371094 83.042969 534.371094 C 91.824219 534.398438 100.601562 534.359375 109.378906 534.464844 C 135.320312 534.777344 161.261719 535.15625 187.203125 535.496094 C 197 535.625 206.800781 535.613281 216.59375 535.859375 C 225.914062 536.09375 235.226562 536.757812 244.550781 536.910156 C 261.242188 537.183594 277.9375 537.3125 294.632812 537.324219 C 322.535156 537.335938 350.441406 537.207031 378.34375 537.140625 C 381.234375 537.136719 384.125 537.140625 387.277344 537.140625 Z M 80.851562 102.988281 C 81.371094 103.070312 81.601562 103.136719 81.835938 103.136719 C 92.175781 103.175781 102.523438 103.390625 112.859375 103.199219 C 133.074219 102.816406 153.277344 102.097656 173.492188 101.71875 C 193.546875 101.34375 213.609375 101.082031 233.671875 101.019531 C 249.496094 100.972656 265.324219 101.292969 281.152344 101.480469 C 295.648438 101.652344 310.144531 102.125 324.636719 101.992188 C 345.792969 101.800781 366.945312 101.164062 388.101562 102.007812 C 388.929688 102.042969 389.765625 102.011719 390.832031 102.011719 C 390.832031 100.789062 390.839844 99.863281 390.832031 98.933594 C 390.792969 93.929688 390.765625 88.921875 390.707031 83.914062 C 390.671875 80.898438 390.492188 80.734375 387.550781 80.519531 C 387.316406 80.503906 387.082031 80.496094 386.847656 80.480469 C 373.464844 79.703125 360.066406 79.625 346.664062 79.707031 C 329.816406 79.8125 312.96875 79.941406 296.125 79.878906 C 273.867188 79.792969 251.617188 79.480469 229.359375 79.371094 C 208.671875 79.265625 187.984375 79.117188 167.296875 79.3125 C 139.480469 79.578125 111.667969 80.15625 83.855469 80.617188 C 82.703125 80.636719 81.554688 80.851562 80.074219 81.011719 C 80.335938 88.398438 80.589844 95.625 80.851562 102.988281 Z M 80.269531 537.34375 C 80.269531 539.238281 80.21875 540.941406 80.285156 542.640625 C 80.363281 544.746094 80.535156 545.109375 82.621094 545.523438 C 86.300781 546.246094 90.007812 547.113281 93.734375 547.285156 C 110.328125 548.054688 126.929688 548.761719 143.535156 549.167969 C 155.753906 549.464844 167.984375 549.300781 180.210938 549.285156 C 205.527344 549.253906 230.839844 549.117188 256.152344 549.152344 C 271.828125 549.175781 287.5 549.5625 303.171875 549.558594 C 329.820312 549.546875 356.464844 549.355469 383.109375 549.238281 C 383.660156 549.234375 384.207031 549.222656 384.753906 549.207031 C 385.84375 549.171875 386.523438 548.601562 386.753906 547.5625 C 387.300781 545.121094 387.519531 542.660156 387.265625 539.96875 C 386.53125 539.96875 385.925781 539.957031 385.320312 539.96875 C 380.855469 540.070312 376.390625 540.261719 371.925781 540.269531 C 342.144531 540.320312 312.363281 540.359375 282.582031 540.339844 C 270.828125 540.332031 259.070312 540.285156 247.320312 540.039062 C 237.136719 539.824219 226.960938 539.175781 216.777344 538.953125 C 203.222656 538.660156 189.667969 538.589844 176.109375 538.429688 C 145 538.066406 113.886719 537.703125 82.777344 537.34375 C 82.015625 537.335938 81.253906 537.34375 80.269531 537.34375 Z M 80.898438 109.960938 C 81.503906 110.015625 81.8125 110.074219 82.121094 110.066406 C 91.054688 109.890625 100 109.957031 108.914062 109.472656 C 125.453125 108.582031 141.976562 109.050781 158.507812 109.328125 C 168.144531 109.488281 177.785156 109.824219 187.417969 109.71875 C 198.226562 109.597656 209.03125 108.894531 219.839844 108.761719 C 230.492188 108.625 241.152344 108.972656 251.808594 108.949219 C 272.890625 108.90625 293.96875 108.789062 315.050781 108.625 C 321.472656 108.574219 327.894531 108.246094 334.320312 108.066406 C 343.25 107.816406 352.175781 107.511719 361.105469 107.363281 C 370.117188 107.214844 379.128906 107.230469 388.140625 107.160156 C 388.90625 107.15625 389.675781 107.070312 390.515625 107.019531 C 390.515625 106.222656 390.515625 105.589844 390.515625 104.828125 C 388.070312 104.828125 385.808594 104.832031 383.542969 104.828125 C 369.910156 104.800781 356.277344 104.75 342.644531 104.742188 C 327.441406 104.734375 312.238281 104.875 297.035156 104.75 C 283.402344 104.640625 269.769531 104.027344 256.136719 104.03125 C 223.382812 104.046875 190.625 103.988281 157.878906 105.300781 C 141.910156 105.945312 125.917969 106.078125 109.929688 106.265625 C 101.394531 106.367188 92.851562 106.09375 84.3125 105.996094 C 83.171875 105.984375 82.03125 106.019531 80.898438 106.035156 C 80.898438 107.496094 80.898438 108.644531 80.898438 109.960938 Z M 94 86.585938 C 90.84375 86.519531 88.328125 89.085938 88.277344 92.417969 C 88.242188 95.160156 90.5 97.417969 93.335938 97.46875 C 96.503906 97.519531 98.5625 95.359375 98.617188 91.914062 C 98.667969 88.71875 96.875 86.648438 94 86.585938 Z M 103.667969 91.019531 C 103.664062 87.664062 106.066406 85.246094 109.414062 85.234375 C 112.582031 85.222656 115.066406 88.019531 114.988281 91.515625 C 114.921875 94.5625 112.042969 97.371094 109.042969 97.3125 C 106.117188 97.257812 103.671875 94.394531 103.667969 91.019531 Z M 109.453125 88.027344 C 107.605469 88.054688 106.3125 89.542969 106.300781 91.652344 C 106.289062 93.203125 107.753906 94.746094 109.21875 94.730469 C 110.859375 94.710938 112.382812 93.046875 112.355469 91.300781 C 112.328125 89.402344 111.085938 88 109.453125 88.027344 Z M 124.738281 85.753906 C 127.964844 85.777344 130.203125 88.058594 130.152344 91.269531 C 130.097656 94.75 127.554688 97.441406 124.355469 97.402344 C 121.308594 97.371094 118.867188 94.480469 118.898438 90.9375 C 118.925781 88.015625 121.496094 85.734375 124.738281 85.753906 Z M 121.519531 91.542969 C 121.535156 93.371094 122.816406 94.871094 124.382812 94.894531 C 126.109375 94.917969 127.667969 93.242188 127.691406 91.339844 C 127.710938 89.542969 126.585938 88.398438 124.8125 88.417969 C 122.804688 88.4375 121.503906 89.671875 121.519531 91.542969 Z M 121.519531 91.542969 " fill-opacity="1" fill-rule="nonzero"/></g><path fill="#fafafa" d="M 387.277344 537.140625 C 384.125 537.140625 381.234375 537.136719 378.34375 537.140625 C 350.441406 537.207031 322.535156 537.335938 294.632812 537.324219 C 277.9375 537.3125 261.242188 537.183594 244.550781 536.910156 C 235.226562 536.757812 225.914062 536.09375 216.59375 535.859375 C 206.800781 535.613281 197 535.625 187.203125 535.496094 C 161.261719 535.15625 135.320312 534.777344 109.378906 534.464844 C 100.601562 534.359375 91.824219 534.398438 83.042969 534.371094 C 82.265625 534.371094 81.488281 534.371094 80.566406 534.371094 C 80.484375 533.757812 80.351562 533.246094 80.355469 532.734375 C 80.464844 507.304688 80.777344 481.871094 80.652344 456.441406 C 80.503906 425.449219 79.964844 394.460938 79.644531 363.46875 C 79.433594 343.433594 79.28125 323.398438 79.15625 303.363281 C 79.042969 284.894531 78.800781 266.421875 78.984375 247.953125 C 79.132812 232.773438 79.804688 217.601562 80.269531 202.425781 C 81.066406 176.449219 81.457031 150.46875 81.160156 124.480469 C 81.117188 120.734375 81.152344 116.988281 81.152344 113.011719 C 81.53125 112.957031 82.117188 112.808594 82.703125 112.796875 C 88.03125 112.6875 93.359375 112.609375 98.691406 112.503906 C 109.738281 112.277344 120.785156 111.816406 131.832031 111.867188 C 144.527344 111.925781 157.21875 112.628906 169.910156 112.683594 C 182.761719 112.742188 195.617188 112.507812 208.460938 112.109375 C 218.253906 111.808594 228.039062 111.367188 237.839844 111.648438 C 259 112.25 280.160156 112.179688 301.320312 111.660156 C 310.957031 111.421875 320.597656 111.324219 330.234375 111.082031 C 339.324219 110.855469 348.40625 110.460938 357.496094 110.242188 C 367.914062 109.996094 378.332031 109.859375 388.753906 109.679688 C 389.285156 109.667969 389.816406 109.679688 390.617188 109.679688 C 390.617188 110.742188 390.628906 111.65625 390.613281 112.570312 C 390.191406 136.125 389.636719 159.675781 389.375 183.234375 C 389.039062 212.972656 388.8125 242.714844 388.773438 272.453125 C 388.722656 312.214844 388.527344 351.96875 387.53125 391.722656 C 386.671875 425.992188 386.207031 460.269531 386.285156 494.550781 C 386.3125 507.3125 386.433594 520.0625 387.269531 532.800781 C 387.355469 534.113281 387.277344 535.433594 387.277344 537.140625 Z M 81.835938 103.136719 C 92.175781 103.175781 102.523438 103.390625 112.859375 103.199219 C 133.074219 102.816406 153.277344 102.097656 173.492188 101.71875 C 193.546875 101.34375 213.609375 101.082031 233.671875 101.019531 C 249.496094 100.972656 265.324219 101.292969 281.152344 101.480469 C 295.648438 101.652344 310.144531 102.125 324.636719 101.992188 C 345.792969 101.800781 366.945312 101.164062 388.101562 102.007812 C 388.929688 102.042969 389.765625 102.011719 390.832031 102.011719 C 390.832031 100.789062 390.839844 99.863281 390.832031 98.933594 C 390.792969 93.929688 390.765625 88.921875 390.707031 83.914062 C 390.671875 80.898438 390.492188 80.734375 387.550781 80.519531 C 387.316406 80.503906 387.082031 80.496094 386.847656 80.480469 C 373.464844 79.703125 360.066406 79.625 346.664062 79.707031 C 329.816406 79.8125 312.96875 79.941406 296.125 79.878906 C 273.867188 79.792969 251.617188 79.480469 229.359375 79.371094 C 208.671875 79.265625 187.984375 79.117188 167.296875 79.3125 C 139.480469 79.578125 111.667969 80.15625 83.855469 80.617188 C 82.703125 80.636719 81.554688 80.851562 80.074219 81.011719 C 80.335938 88.398438 80.589844 95.625 80.851562 102.988281 C 81.371094 103.070312 81.601562 103.136719 81.835938 103.136719 Z M 93.335938 97.46875 C 90.5 97.417969 88.242188 95.160156 88.277344 92.417969 C 88.328125 89.085938 90.84375 86.519531 94 86.585938 C 96.875 86.648438 98.667969 88.71875 98.617188 91.914062 C 98.5625 95.359375 96.503906 97.519531 93.335938 97.46875 Z M 109.414062 85.234375 C 112.582031 85.222656 115.066406 88.019531 114.988281 91.515625 C 114.921875 94.5625 112.042969 97.371094 109.042969 97.3125 C 106.117188 97.257812 103.671875 94.394531 103.667969 91.019531 C 103.664062 87.664062 106.066406 85.246094 109.414062 85.234375 Z M 130.152344 91.269531 C 130.097656 94.75 127.554688 97.441406 124.355469 97.402344 C 121.308594 97.371094 118.867188 94.480469 118.898438 90.9375 C 118.925781 88.015625 121.496094 85.734375 124.738281 85.753906 C 127.964844 85.777344 130.203125 88.058594 130.152344 91.269531 Z M 80.285156 542.640625 C 80.363281 544.746094 80.535156 545.109375 82.621094 545.523438 C 86.300781 546.246094 90.007812 547.113281 93.734375 547.285156 C 110.328125 548.054688 126.929688 548.761719 143.535156 549.167969 C 155.753906 549.464844 167.984375 549.300781 180.210938 549.285156 C 205.527344 549.253906 230.839844 549.117188 256.152344 549.152344 C 271.828125 549.175781 287.5 549.5625 303.171875 549.558594 C 329.820312 549.546875 356.464844 549.355469 383.109375 549.238281 C 383.660156 549.234375 384.207031 549.222656 384.753906 549.207031 C 385.84375 549.171875 386.523438 548.601562 386.753906 547.5625 C 387.300781 545.121094 387.519531 542.660156 387.265625 539.96875 C 386.53125 539.96875 385.925781 539.957031 385.320312 539.96875 C 380.855469 540.070312 376.390625 540.261719 371.925781 540.269531 C 342.144531 540.320312 312.363281 540.359375 282.582031 540.339844 C 270.828125 540.332031 259.070312 540.285156 247.320312 540.039062 C 237.136719 539.824219 226.960938 539.175781 216.777344 538.953125 C 203.222656 538.660156 189.667969 538.589844 176.109375 538.429688 C 145 538.066406 113.886719 537.703125 82.777344 537.34375 C 82.015625 537.335938 81.253906 537.34375 80.269531 537.34375 C 80.269531 539.238281 80.21875 540.941406 80.285156 542.640625 Z M 82.121094 110.066406 C 91.054688 109.890625 100 109.957031 108.914062 109.472656 C 125.453125 108.582031 141.976562 109.050781 158.507812 109.328125 C 168.144531 109.488281 177.785156 109.824219 187.417969 109.71875 C 198.226562 109.597656 209.03125 108.894531 219.839844 108.761719 C 230.492188 108.625 241.152344 108.972656 251.808594 108.949219 C 272.890625 108.90625 293.96875 108.789062 315.050781 108.625 C 321.472656 108.574219 327.894531 108.246094 334.320312 108.066406 C 343.25 107.816406 352.175781 107.511719 361.105469 107.363281 C 370.117188 107.214844 379.128906 107.230469 388.140625 107.160156 C 388.90625 107.15625 389.675781 107.070312 390.515625 107.019531 C 390.515625 106.222656 390.515625 105.589844 390.515625 104.828125 C 388.070312 104.828125 385.808594 104.832031 383.542969 104.828125 C 369.910156 104.800781 356.277344 104.75 342.644531 104.742188 C 327.441406 104.734375 312.238281 104.875 297.035156 104.75 C 283.402344 104.640625 269.769531 104.027344 256.136719 104.03125 C 223.382812 104.046875 190.625 103.988281 157.878906 105.300781 C 141.910156 105.945312 125.917969 106.078125 109.929688 106.265625 C 101.394531 106.367188 92.851562 106.09375 84.3125 105.996094 C 83.171875 105.984375 82.03125 106.019531 80.898438 106.035156 C 80.898438 107.496094 80.898438 108.644531 80.898438 109.960938 C 81.503906 110.015625 81.8125 110.074219 82.121094 110.066406 Z M 106.300781 91.652344 C 106.289062 93.203125 107.753906 94.746094 109.21875 94.730469 C 110.859375 94.710938 112.382812 93.046875 112.355469 91.300781 C 112.328125 89.402344 111.085938 88 109.453125 88.027344 C 107.605469 88.054688 106.3125 89.542969 106.300781 91.652344 Z M 124.382812 94.894531 C 126.109375 94.917969 127.667969 93.242188 127.691406 91.339844 C 127.710938 89.542969 126.585938 88.398438 124.8125 88.417969 C 122.804688 88.4375 121.503906 89.671875 121.519531 91.542969 C 121.535156 93.371094 122.816406 94.871094 124.382812 94.894531 Z M 124.382812 94.894531 " fill-opacity="1" fill-rule="nonzero"/><g clip-path="url(#d24b414a36)"><path fill="#ec709a" d="M 392.074219 313.019531 C 391.660156 335.554688 391.257812 358.09375 390.828125 380.628906 C 390.585938 393.542969 390.191406 406.453125 390.058594 419.363281 C 389.75 450.277344 389.523438 481.195312 389.351562 512.109375 C 389.320312 517.269531 389.78125 522.429688 389.929688 527.589844 C 390.078125 532.828125 390.15625 538.070312 390.183594 543.3125 C 390.191406 544.710938 389.980469 546.125 389.726562 547.507812 C 389.125 550.824219 387.664062 552.070312 384.285156 552.125 C 380.050781 552.199219 375.816406 552.1875 371.585938 552.210938 C 346.738281 552.347656 321.890625 552.578125 297.042969 552.585938 C 273.214844 552.59375 249.390625 552.289062 225.5625 552.257812 C 202.203125 552.226562 178.84375 552.5 155.488281 552.378906 C 141.617188 552.308594 127.746094 551.800781 113.882812 551.359375 C 106.753906 551.132812 99.628906 550.742188 92.519531 550.183594 C 88.867188 549.898438 85.21875 549.253906 81.632812 548.472656 C 77.699219 547.613281 76.945312 546.609375 76.957031 542.65625 C 76.96875 537.101562 77.230469 531.546875 77.257812 525.992188 C 77.347656 507.832031 77.519531 489.675781 77.398438 471.515625 C 77.179688 437.941406 76.757812 404.367188 76.453125 370.792969 C 76.230469 346.761719 76.027344 322.734375 75.882812 298.707031 C 75.777344 281.722656 75.503906 264.734375 75.808594 247.757812 C 76.246094 223.5 77.226562 199.253906 77.8125 174.996094 C 78.300781 154.652344 78.523438 134.304688 77.894531 113.953125 C 77.792969 110.617188 77.902344 107.269531 77.828125 103.929688 C 77.683594 97.519531 77.46875 91.109375 77.308594 84.695312 C 77.28125 83.523438 77.308594 82.339844 77.449219 81.179688 C 77.707031 79.089844 78.503906 78.265625 80.640625 78.152344 C 86.980469 77.808594 93.320312 77.496094 99.664062 77.289062 C 150.132812 75.640625 200.617188 76.441406 251.09375 76.355469 C 275.859375 76.3125 300.628906 76.679688 325.398438 76.726562 C 340.054688 76.753906 354.710938 76.425781 369.367188 76.4375 C 375.710938 76.445312 382.050781 76.910156 388.394531 77.167969 C 388.785156 77.183594 389.179688 77.210938 389.566406 77.261719 C 392.699219 77.671875 393.980469 79.046875 394.023438 82.214844 C 394.085938 86.988281 394.167969 91.765625 394.09375 96.539062 C 393.542969 130.660156 392.835938 164.777344 392.421875 198.902344 C 392.082031 226.839844 392.070312 254.785156 391.941406 282.726562 C 391.894531 292.824219 391.933594 302.917969 391.933594 313.015625 C 391.980469 313.015625 392.027344 313.019531 392.074219 313.019531 Z M 387.277344 537.140625 C 387.277344 535.433594 387.355469 534.113281 387.269531 532.800781 C 386.433594 520.0625 386.3125 507.3125 386.285156 494.550781 C 386.207031 460.269531 386.671875 425.992188 387.53125 391.722656 C 388.527344 351.96875 388.722656 312.214844 388.773438 272.453125 C 388.8125 242.714844 389.039062 212.972656 389.375 183.234375 C 389.636719 159.675781 390.191406 136.125 390.613281 112.570312 C 390.628906 111.65625 390.617188 110.742188 390.617188 109.679688 C 389.816406 109.679688 389.285156 109.667969 388.753906 109.679688 C 378.332031 109.859375 367.914062 109.996094 357.496094 110.242188 C 348.40625 110.460938 339.324219 110.855469 330.234375 111.082031 C 320.597656 111.324219 310.957031 111.421875 301.320312 111.660156 C 280.160156 112.179688 259 112.25 237.839844 111.648438 C 228.039062 111.367188 218.253906 111.808594 208.460938 112.109375 C 195.617188 112.507812 182.761719 112.742188 169.910156 112.683594 C 157.21875 112.628906 144.527344 111.925781 131.832031 111.867188 C 120.785156 111.816406 109.738281 112.277344 98.691406 112.503906 C 93.359375 112.609375 88.03125 112.6875 82.703125 112.796875 C 82.117188 112.808594 81.53125 112.957031 81.152344 113.011719 C 81.152344 116.988281 81.117188 120.734375 81.160156 124.480469 C 81.457031 150.46875 81.066406 176.449219 80.269531 202.425781 C 79.804688 217.601562 79.132812 232.773438 78.984375 247.953125 C 78.800781 266.421875 79.042969 284.894531 79.15625 303.363281 C 79.28125 323.398438 79.433594 343.433594 79.644531 363.46875 C 79.964844 394.460938 80.503906 425.449219 80.652344 456.441406 C 80.777344 481.871094 80.464844 507.304688 80.355469 532.734375 C 80.351562 533.246094 80.484375 533.757812 80.566406 534.371094 C 81.488281 534.371094 82.265625 534.371094 83.042969 534.371094 C 91.824219 534.398438 100.601562 534.359375 109.378906 534.464844 C 135.320312 534.777344 161.261719 535.15625 187.203125 535.496094 C 197 535.625 206.800781 535.613281 216.59375 535.859375 C 225.914062 536.09375 235.226562 536.757812 244.550781 536.910156 C 261.242188 537.183594 277.9375 537.3125 294.632812 537.324219 C 322.535156 537.335938 350.441406 537.207031 378.34375 537.140625 C 381.234375 537.136719 384.125 537.140625 387.277344 537.140625 Z M 80.851562 102.988281 C 81.371094 103.070312 81.601562 103.136719 81.835938 103.136719 C 92.175781 103.175781 102.523438 103.390625 112.859375 103.199219 C 133.074219 102.816406 153.277344 102.097656 173.492188 101.71875 C 193.546875 101.34375 213.609375 101.082031 233.671875 101.019531 C 249.496094 100.972656 265.324219 101.292969 281.152344 101.480469 C 295.648438 101.652344 310.144531 102.125 324.636719 101.992188 C 345.792969 101.800781 366.945312 101.164062 388.101562 102.007812 C 388.929688 102.042969 389.765625 102.011719 390.832031 102.011719 C 390.832031 100.789062 390.839844 99.863281 390.832031 98.933594 C 390.792969 93.929688 390.765625 88.921875 390.707031 83.914062 C 390.671875 80.898438 390.492188 80.734375 387.550781 80.519531 C 387.316406 80.503906 387.082031 80.496094 386.847656 80.480469 C 373.464844 79.703125 360.066406 79.625 346.664062 79.707031 C 329.816406 79.8125 312.96875 79.941406 296.125 79.878906 C 273.867188 79.792969 251.617188 79.480469 229.359375 79.371094 C 208.671875 79.265625 187.984375 79.117188 167.296875 79.3125 C 139.480469 79.578125 111.667969 80.15625 83.855469 80.617188 C 82.703125 80.636719 81.554688 80.851562 80.074219 81.011719 C 80.335938 88.398438 80.589844 95.625 80.851562 102.988281 Z M 80.269531 537.34375 C 80.269531 539.238281 80.21875 540.941406 80.285156 542.640625 C 80.363281 544.746094 80.535156 545.109375 82.621094 545.523438 C 86.300781 546.246094 90.007812 547.113281 93.734375 547.285156 C 110.328125 548.054688 126.929688 548.761719 143.535156 549.167969 C 155.753906 549.464844 167.984375 549.300781 180.210938 549.285156 C 205.527344 549.253906 230.839844 549.117188 256.152344 549.152344 C 271.828125 549.175781 287.5 549.5625 303.171875 549.558594 C 329.820312 549.546875 356.464844 549.355469 383.109375 549.238281 C 383.660156 549.234375 384.207031 549.222656 384.753906 549.207031 C 385.84375 549.171875 386.523438 548.601562 386.753906 547.5625 C 387.300781 545.121094 387.519531 542.660156 387.265625 539.96875 C 386.53125 539.96875 385.925781 539.957031 385.320312 539.96875 C 380.855469 540.070312 376.390625 540.261719 371.925781 540.269531 C 342.144531 540.320312 312.363281 540.359375 282.582031 540.339844 C 270.828125 540.332031 259.070312 540.285156 247.320312 540.039062 C 237.136719 539.824219 226.960938 539.175781 216.777344 538.953125 C 203.222656 538.660156 189.667969 538.589844 176.109375 538.429688 C 145 538.066406 113.886719 537.703125 82.777344 537.34375 C 82.015625 537.335938 81.253906 537.34375 80.269531 537.34375 Z M 80.898438 109.960938 C 81.503906 110.015625 81.8125 110.074219 82.121094 110.066406 C 91.054688 109.890625 100 109.957031 108.914062 109.472656 C 125.453125 108.582031 141.976562 109.050781 158.507812 109.328125 C 168.144531 109.488281 177.785156 109.824219 187.417969 109.71875 C 198.226562 109.597656 209.03125 108.894531 219.839844 108.761719 C 230.492188 108.625 241.152344 108.972656 251.808594 108.949219 C 272.890625 108.90625 293.96875 108.789062 315.050781 108.625 C 321.472656 108.574219 327.894531 108.246094 334.320312 108.066406 C 343.25 107.816406 352.175781 107.511719 361.105469 107.363281 C 370.117188 107.214844 379.128906 107.230469 388.140625 107.160156 C 388.90625 107.15625 389.675781 107.070312 390.515625 107.019531 C 390.515625 106.222656 390.515625 105.589844 390.515625 104.828125 C 388.070312 104.828125 385.808594 104.832031 383.542969 104.828125 C 369.910156 104.800781 356.277344 104.75 342.644531 104.742188 C 327.441406 104.734375 312.238281 104.875 297.035156 104.75 C 283.402344 104.640625 269.769531 104.027344 256.136719 104.03125 C 223.382812 104.046875 190.625 103.988281 157.878906 105.300781 C 141.910156 105.945312 125.917969 106.078125 109.929688 106.265625 C 101.394531 106.367188 92.851562 106.09375 84.3125 105.996094 C 83.171875 105.984375 82.03125 106.019531 80.898438 106.035156 C 80.898438 107.496094 80.898438 108.644531 80.898438 109.960938 Z M 94 86.585938 C 90.84375 86.519531 88.328125 89.085938 88.277344 92.417969 C 88.242188 95.160156 90.5 97.417969 93.335938 97.46875 C 96.503906 97.519531 98.5625 95.359375 98.617188 91.914062 C 98.667969 88.71875 96.875 86.648438 94 86.585938 Z M 103.667969 91.019531 C 103.664062 87.664062 106.066406 85.246094 109.414062 85.234375 C 112.582031 85.222656 115.066406 88.019531 114.988281 91.515625 C 114.921875 94.5625 112.042969 97.371094 109.042969 97.3125 C 106.117188 97.257812 103.671875 94.394531 103.667969 91.019531 Z M 109.453125 88.027344 C 107.605469 88.054688 106.3125 89.542969 106.300781 91.652344 C 106.289062 93.203125 107.753906 94.746094 109.21875 94.730469 C 110.859375 94.710938 112.382812 93.046875 112.355469 91.300781 C 112.328125 89.402344 111.085938 88 109.453125 88.027344 Z M 124.738281 85.753906 C 127.964844 85.777344 130.203125 88.058594 130.152344 91.269531 C 130.097656 94.75 127.554688 97.441406 124.355469 97.402344 C 121.308594 97.371094 118.867188 94.480469 118.898438 90.9375 C 118.925781 88.015625 121.496094 85.734375 124.738281 85.753906 Z M 121.519531 91.542969 C 121.535156 93.371094 122.816406 94.871094 124.382812 94.894531 C 126.109375 94.917969 127.667969 93.242188 127.691406 91.339844 C 127.710938 89.542969 126.585938 88.398438 124.8125 88.417969 C 122.804688 88.4375 121.503906 89.671875 121.519531 91.542969 Z M 121.519531 91.542969 " fill-opacity="1" fill-rule="nonzero"/></g></svg>