<svg xmlns="http://www.w3.org/2000/svg" xmlns:xlink="http://www.w3.org/1999/xlink" width="253" zoomAndPan="magnify" viewBox="0 0 189.75 186.749996" height="249" preserveAspectRatio="xMidYMid meet" version="1.0"><defs><clipPath id="5e95387081"><path d="M 85 77 L 108 77 L 108 108 L 85 108 Z M 85 77 " clip-rule="nonzero"/></clipPath><clipPath id="46e8ebacbf"><path d="M 83.113281 101.496094 L 101.808594 77.082031 L 114.910156 87.113281 L 96.214844 111.527344 Z M 83.113281 101.496094 " clip-rule="nonzero"/></clipPath><clipPath id="a1f823442f"><path d="M 96.019531 111.375 L 114.714844 86.964844 L 101.613281 76.933594 L 82.917969 101.34375 Z M 96.019531 111.375 " clip-rule="nonzero"/></clipPath><clipPath id="637bc23b3b"><path d="M 96.019531 111.375 L 114.714844 86.964844 L 101.613281 76.933594 L 82.917969 101.34375 Z M 96.019531 111.375 " clip-rule="nonzero"/></clipPath></defs><g clip-path="url(#5e95387081)"><g clip-path="url(#46e8ebacbf)"><g clip-path="url(#a1f823442f)"><g clip-path="url(#637bc23b3b)"><path fill="#ec709a" d="M 106.785156 82.359375 C 107.191406 83.207031 107.449219 84.160156 107.488281 85.097656 C 107.527344 86.070312 107.378906 87.074219 106.921875 87.941406 C 106.792969 88.1875 106.640625 88.425781 106.472656 88.648438 C 107.335938 90.039062 107.710938 91.6875 107.6875 93.3125 C 107.660156 95.253906 106.941406 97.109375 105.753906 98.628906 C 104.464844 100.265625 102.699219 101.488281 100.785156 102.304688 C 98.851562 103.136719 96.75 103.53125 94.652344 103.648438 C 92.589844 103.765625 90.519531 103.640625 88.460938 103.453125 C 89.039062 103.976562 89.628906 104.484375 90.230469 104.976562 C 90.546875 105.234375 90.867188 105.488281 91.1875 105.738281 C 91.347656 105.863281 91.460938 106.054688 91.488281 106.25 C 91.511719 106.4375 91.460938 106.675781 91.335938 106.820312 C 91.210938 106.972656 91.03125 107.097656 90.828125 107.113281 C 90.621094 107.132812 90.417969 107.089844 90.253906 106.960938 C 89.117188 106.074219 88.019531 105.140625 86.964844 104.160156 C 86.695312 103.910156 86.425781 103.652344 86.160156 103.394531 C 86.125 103.382812 86.089844 103.375 86.054688 103.359375 C 85.875 103.289062 85.695312 103.117188 85.628906 102.933594 C 85.558594 102.75 85.539062 102.535156 85.625 102.355469 C 85.707031 102.167969 85.847656 102.003906 86.046875 101.929688 C 86.960938 101.601562 87.851562 101.210938 88.714844 100.765625 C 88.933594 100.652344 89.152344 100.535156 89.367188 100.414062 C 90.226562 99.921875 91.054688 99.375 91.84375 98.773438 C 91.996094 98.65625 92.214844 98.597656 92.40625 98.625 C 92.597656 98.648438 92.816406 98.765625 92.925781 98.925781 C 93.039062 99.089844 93.113281 99.289062 93.082031 99.488281 C 93.046875 99.695312 92.949219 99.878906 92.78125 100.007812 C 91.800781 100.753906 90.757812 101.425781 89.664062 102.011719 C 90.71875 102.09375 91.773438 102.152344 92.832031 102.160156 C 92.890625 102.160156 92.945312 102.160156 93.003906 102.160156 C 92.78125 102.15625 93.007812 102.160156 93.054688 102.160156 C 93.1875 102.160156 93.320312 102.15625 93.453125 102.15625 C 93.699219 102.152344 93.945312 102.144531 94.195312 102.132812 C 94.6875 102.109375 95.179688 102.070312 95.671875 102.015625 C 96.164062 101.960938 96.652344 101.890625 97.140625 101.800781 C 97.375 101.757812 97.609375 101.707031 97.84375 101.652344 C 97.953125 101.628906 98.0625 101.601562 98.171875 101.574219 C 98.183594 101.570312 98.195312 101.570312 98.203125 101.566406 C 98.265625 101.550781 98.324219 101.53125 98.386719 101.515625 C 99.304688 101.253906 100.203125 100.910156 101.050781 100.476562 C 101.15625 100.421875 101.261719 100.367188 101.363281 100.308594 C 101.398438 100.292969 101.429688 100.273438 101.460938 100.257812 C 101.488281 100.242188 101.515625 100.226562 101.539062 100.210938 C 101.742188 100.09375 101.941406 99.96875 102.136719 99.839844 C 102.535156 99.578125 102.914062 99.292969 103.273438 98.984375 C 103.449219 98.835938 103.621094 98.675781 103.785156 98.515625 C 103.789062 98.515625 103.789062 98.515625 103.789062 98.515625 C 103.828125 98.476562 103.863281 98.4375 103.902344 98.398438 C 103.984375 98.308594 104.070312 98.21875 104.152344 98.128906 C 104.457031 97.78125 104.738281 97.414062 104.992188 97.027344 C 105.050781 96.9375 105.109375 96.84375 105.164062 96.75 C 105.183594 96.71875 105.207031 96.683594 105.226562 96.648438 C 105.242188 96.621094 105.253906 96.59375 105.269531 96.566406 C 105.371094 96.378906 105.46875 96.183594 105.554688 95.988281 C 105.636719 95.800781 105.710938 95.609375 105.777344 95.417969 C 105.808594 95.320312 105.839844 95.222656 105.871094 95.125 C 105.882812 95.078125 105.898438 95.035156 105.910156 94.988281 C 105.917969 94.960938 105.921875 94.933594 105.929688 94.910156 C 105.960938 94.804688 105.921875 94.96875 105.914062 94.984375 C 105.957031 94.90625 105.964844 94.769531 105.980469 94.683594 C 106.003906 94.578125 106.023438 94.46875 106.042969 94.359375 C 106.074219 94.15625 106.101562 93.953125 106.121094 93.75 C 106.140625 93.542969 106.148438 93.339844 106.152344 93.132812 C 106.152344 93.089844 106.152344 93.046875 106.152344 93.003906 C 106.152344 92.996094 106.152344 92.988281 106.152344 92.980469 C 106.152344 92.878906 106.144531 92.777344 106.140625 92.671875 C 106.113281 92.257812 106.054688 91.84375 105.964844 91.4375 C 105.945312 91.347656 105.925781 91.257812 105.902344 91.171875 C 105.886719 91.113281 105.871094 91.058594 105.851562 91 C 105.792969 90.808594 105.726562 90.617188 105.648438 90.429688 C 105.574219 90.242188 105.492188 90.058594 105.402344 89.878906 C 105.378906 89.835938 105.355469 89.789062 105.332031 89.746094 C 104.460938 90.359375 103.402344 90.695312 102.308594 90.59375 C 101.351562 90.503906 100.324219 90.015625 99.824219 89.164062 C 99.492188 88.597656 99.394531 87.992188 99.589844 87.363281 C 99.746094 86.859375 100.144531 86.402344 100.59375 86.136719 C 102.246094 85.160156 104.183594 86.109375 105.464844 87.382812 C 105.472656 87.371094 105.484375 87.355469 105.492188 87.34375 C 105.515625 87.304688 105.535156 87.261719 105.554688 87.21875 C 105.644531 87.035156 105.71875 86.84375 105.78125 86.648438 C 105.789062 86.613281 105.800781 86.582031 105.808594 86.550781 C 105.8125 86.542969 105.820312 86.519531 105.824219 86.5 C 105.824219 86.496094 105.824219 86.496094 105.824219 86.492188 C 105.832031 86.472656 105.835938 86.449219 105.84375 86.425781 C 105.839844 86.441406 105.835938 86.453125 105.832031 86.464844 C 105.851562 86.367188 105.875 86.273438 105.890625 86.175781 C 105.921875 85.96875 105.945312 85.761719 105.953125 85.554688 C 105.957031 85.507812 105.957031 85.457031 105.957031 85.410156 C 105.957031 85.40625 105.957031 85.402344 105.957031 85.398438 C 105.949219 85.296875 105.949219 85.1875 105.941406 85.085938 C 105.925781 84.875 105.898438 84.664062 105.863281 84.457031 C 105.84375 84.359375 105.824219 84.265625 105.804688 84.167969 C 105.792969 84.117188 105.777344 84.066406 105.765625 84.011719 C 105.761719 84.003906 105.761719 83.996094 105.757812 83.988281 C 105.640625 83.582031 105.484375 83.183594 105.292969 82.804688 C 105.246094 82.710938 105.199219 82.621094 105.148438 82.53125 C 105.117188 82.472656 105.082031 82.417969 105.046875 82.363281 C 104.90625 82.144531 104.761719 81.929688 104.601562 81.726562 C 104.441406 81.511719 104.269531 81.308594 104.089844 81.109375 C 104.007812 81.019531 103.925781 80.933594 103.84375 80.84375 C 103.832031 80.832031 103.816406 80.820312 103.804688 80.808594 C 103.753906 80.761719 103.707031 80.710938 103.65625 80.664062 C 103.28125 80.304688 102.878906 79.96875 102.464844 79.652344 C 102.054688 79.34375 101.632812 79.050781 101.203125 78.769531 C 100.863281 78.550781 100.800781 77.992188 101.054688 77.691406 C 101.339844 77.351562 101.773438 77.3125 102.140625 77.550781 C 104.019531 78.773438 105.808594 80.300781 106.785156 82.359375 Z M 103.675781 87.882812 C 103.589844 87.824219 103.507812 87.769531 103.417969 87.714844 C 103.402344 87.707031 103.382812 87.695312 103.367188 87.683594 C 103.363281 87.679688 103.359375 87.679688 103.355469 87.675781 C 103.324219 87.660156 103.289062 87.640625 103.257812 87.625 C 103.054688 87.519531 102.847656 87.429688 102.632812 87.359375 C 102.59375 87.347656 102.550781 87.339844 102.511719 87.328125 C 102.503906 87.324219 102.492188 87.324219 102.480469 87.320312 C 102.367188 87.296875 102.25 87.28125 102.132812 87.269531 C 102.09375 87.269531 102.054688 87.269531 102.019531 87.269531 C 102.003906 87.269531 101.988281 87.269531 101.976562 87.273438 C 101.925781 87.277344 101.875 87.28125 101.820312 87.289062 C 101.796875 87.292969 101.769531 87.296875 101.742188 87.300781 C 101.714844 87.3125 101.667969 87.324219 101.65625 87.332031 C 101.601562 87.347656 101.554688 87.371094 101.503906 87.394531 C 101.5 87.394531 101.488281 87.402344 101.476562 87.40625 C 101.453125 87.421875 101.394531 87.457031 101.378906 87.46875 C 101.339844 87.5 101.300781 87.527344 101.265625 87.558594 C 101.257812 87.5625 101.253906 87.570312 101.246094 87.578125 C 101.253906 87.570312 101.257812 87.5625 101.265625 87.550781 C 101.257812 87.558594 101.25 87.570312 101.246094 87.578125 C 101.203125 87.621094 101.160156 87.679688 101.207031 87.628906 C 101.167969 87.675781 101.132812 87.71875 101.097656 87.769531 C 101.074219 87.8125 101.054688 87.859375 101.039062 87.902344 C 101.035156 87.949219 101.027344 87.996094 101.023438 88.042969 C 101.027344 88.085938 101.035156 88.125 101.042969 88.167969 C 101.058594 88.214844 101.078125 88.261719 101.097656 88.308594 C 101.101562 88.316406 101.105469 88.324219 101.109375 88.332031 C 101.125 88.355469 101.140625 88.378906 101.15625 88.398438 C 101.183594 88.4375 101.210938 88.472656 101.242188 88.507812 C 101.257812 88.527344 101.289062 88.554688 101.3125 88.578125 C 101.296875 88.5625 101.273438 88.546875 101.242188 88.519531 C 101.3125 88.578125 101.382812 88.644531 101.457031 88.699219 C 101.5 88.730469 101.542969 88.761719 101.589844 88.792969 C 101.597656 88.796875 101.605469 88.800781 101.609375 88.804688 C 101.683594 88.84375 101.761719 88.878906 101.839844 88.910156 C 101.921875 88.945312 102.039062 89.007812 102.132812 89.011719 C 102.132812 89.011719 101.929688 88.964844 102.046875 88.988281 C 102.066406 88.992188 102.085938 88.996094 102.105469 89 C 102.148438 89.011719 102.191406 89.019531 102.234375 89.027344 C 102.332031 89.042969 102.429688 89.058594 102.53125 89.066406 C 102.574219 89.070312 102.617188 89.070312 102.660156 89.074219 C 102.683594 89.074219 102.710938 89.074219 102.734375 89.074219 C 102.816406 89.082031 102.613281 89.074219 102.628906 89.074219 C 102.722656 89.089844 102.835938 89.070312 102.925781 89.058594 C 103.019531 89.050781 103.113281 89.039062 103.203125 89.019531 C 103.246094 89.011719 103.289062 89.003906 103.332031 88.996094 C 103.355469 88.992188 103.378906 88.984375 103.40625 88.980469 C 103.503906 88.957031 103.335938 89 103.324219 89 C 103.5 88.976562 103.691406 88.886719 103.855469 88.816406 C 103.941406 88.777344 104.027344 88.738281 104.113281 88.695312 C 104.152344 88.675781 104.191406 88.652344 104.230469 88.632812 C 103.996094 88.753906 104.183594 88.65625 104.234375 88.625 C 104.296875 88.585938 104.359375 88.546875 104.417969 88.503906 C 104.398438 88.484375 104.375 88.464844 104.363281 88.445312 C 104.292969 88.378906 104.222656 88.316406 104.152344 88.253906 C 104 88.121094 103.839844 88 103.675781 87.882812 Z M 105.191406 82.605469 C 105.183594 82.585938 105.175781 82.570312 105.164062 82.554688 C 105.179688 82.582031 105.195312 82.609375 105.191406 82.605469 Z M 105.191406 82.605469 " fill-opacity="1" fill-rule="nonzero"/></g></g></g></g></svg>