<svg xmlns="http://www.w3.org/2000/svg" xmlns:xlink="http://www.w3.org/1999/xlink" zoomAndPan="magnify" preserveAspectRatio="xMidYMid meet" version="1.0" viewBox="454.9 228.65 114.52 119.23"><defs><clipPath id="fab12d61fa"><path d="M 515 333 L 516 333 L 516 334 L 515 334 Z M 515 333 " clip-rule="nonzero"/></clipPath><clipPath id="65e6c776af"><path d="M 520.269531 228.652344 L 569.421875 306.71875 L 504.050781 347.878906 L 454.898438 269.816406 Z M 520.269531 228.652344 " clip-rule="nonzero"/></clipPath><clipPath id="3f741fc166"><path d="M 520.269531 228.652344 L 569.421875 306.71875 L 504.050781 347.878906 L 454.898438 269.816406 Z M 520.269531 228.652344 " clip-rule="nonzero"/></clipPath><clipPath id="b52463eb87"><path d="M 472 237 L 543 237 L 543 344 L 472 344 Z M 472 237 " clip-rule="nonzero"/></clipPath><clipPath id="f48ca6e740"><path d="M 520.269531 228.652344 L 569.421875 306.71875 L 504.050781 347.878906 L 454.898438 269.816406 Z M 520.269531 228.652344 " clip-rule="nonzero"/></clipPath><clipPath id="1e847f5c44"><path d="M 520.269531 228.652344 L 569.421875 306.71875 L 504.050781 347.878906 L 454.898438 269.816406 Z M 520.269531 228.652344 " clip-rule="nonzero"/></clipPath><clipPath id="33274ba893"><path d="M 490 265 L 491 265 L 491 266 L 490 266 Z M 490 265 " clip-rule="nonzero"/></clipPath><clipPath id="5dbe3047c5"><path d="M 520.269531 228.652344 L 569.421875 306.71875 L 504.050781 347.878906 L 454.898438 269.816406 Z M 520.269531 228.652344 " clip-rule="nonzero"/></clipPath><clipPath id="86ffa245fd"><path d="M 520.269531 228.652344 L 569.421875 306.71875 L 504.050781 347.878906 L 454.898438 269.816406 Z M 520.269531 228.652344 " clip-rule="nonzero"/></clipPath><clipPath id="d25b47b538"><path d="M 478 299 L 479 299 L 479 300 L 478 300 Z M 478 299 " clip-rule="nonzero"/></clipPath><clipPath id="0251e6e3b0"><path d="M 520.269531 228.652344 L 569.421875 306.71875 L 504.050781 347.878906 L 454.898438 269.816406 Z M 520.269531 228.652344 " clip-rule="nonzero"/></clipPath><clipPath id="f69aa37304"><path d="M 520.269531 228.652344 L 569.421875 306.71875 L 504.050781 347.878906 L 454.898438 269.816406 Z M 520.269531 228.652344 " clip-rule="nonzero"/></clipPath></defs><g clip-path="url(#fab12d61fa)"><g clip-path="url(#65e6c776af)"><g clip-path="url(#3f741fc166)"><path fill="#ff5055" d="M 515.035156 333.628906 C 515.035156 333.625 515.035156 333.625 515.035156 333.625 C 515.15625 333.527344 515.476562 333.230469 515.035156 333.628906 Z M 515.035156 333.628906 " fill-opacity="1" fill-rule="nonzero"/></g></g></g><g clip-path="url(#b52463eb87)"><g clip-path="url(#f48ca6e740)"><g clip-path="url(#1e847f5c44)"><path fill="#ff5055" d="M 511.96875 342.824219 C 511.984375 342.8125 511.996094 342.800781 512.007812 342.789062 C 512.019531 342.78125 512.03125 342.769531 512.042969 342.757812 C 512.0625 342.738281 512.085938 342.71875 512.105469 342.699219 C 514.175781 340.628906 516.261719 338.578125 518.339844 336.519531 C 519.296875 335.714844 520.207031 334.867188 520.984375 333.894531 C 521.691406 333.003906 521.792969 331.601562 520.84375 330.8125 C 519.90625 330.027344 518.625 330.089844 517.757812 330.957031 C 516.945312 331.769531 516.125 332.582031 515.304688 333.394531 C 515.203125 333.480469 515.101562 333.566406 515.003906 333.652344 C 515.015625 333.644531 515.023438 333.636719 515.035156 333.628906 C 514.929688 333.714844 514.824219 333.800781 514.71875 333.886719 C 514.496094 334.066406 514.273438 334.246094 514.054688 334.425781 C 514.027344 331.839844 513.53125 329.238281 512.738281 326.753906 C 511.90625 324.148438 510.761719 321.644531 509.503906 319.21875 C 509.410156 319.035156 509.308594 318.847656 509.210938 318.664062 C 513.09375 318.628906 516.953125 317.828125 520.335938 315.855469 C 525.128906 313.058594 528.105469 307.992188 528.839844 302.566406 C 529.21875 299.792969 529.113281 297.054688 528.597656 294.308594 C 528.023438 291.277344 526.820312 288.375 525.359375 285.671875 C 524.980469 284.964844 524.578125 284.273438 524.15625 283.59375 C 524.332031 283.5625 524.511719 283.539062 524.6875 283.507812 C 527.074219 283.089844 529.417969 282.425781 531.664062 281.507812 C 534.273438 280.4375 536.742188 279.042969 538.765625 277.054688 C 540.863281 274.992188 542.152344 272.300781 542.28125 269.359375 C 542.414062 266.304688 541.164062 263.355469 539.824219 260.6875 C 537.390625 255.847656 533.941406 251.480469 529.890625 247.886719 C 525.824219 244.277344 521.082031 241.359375 515.976562 239.460938 C 513.445312 238.519531 510.863281 237.773438 508.203125 237.3125 C 507.074219 237.117188 505.804688 237.757812 505.585938 238.960938 C 505.382812 240.074219 506.027344 241.363281 507.230469 241.570312 C 508.488281 241.789062 509.734375 242.0625 510.96875 242.398438 C 511.5625 242.558594 512.152344 242.734375 512.738281 242.921875 C 513.019531 243.011719 513.300781 243.105469 513.578125 243.203125 C 513.710938 243.25 513.84375 243.296875 513.976562 243.34375 C 514.035156 243.363281 514.089844 243.386719 514.148438 243.40625 C 516.511719 244.300781 518.796875 245.410156 520.964844 246.710938 C 521.492188 247.027344 522.015625 247.355469 522.527344 247.695312 C 522.769531 247.855469 523.011719 248.019531 523.253906 248.183594 C 523.269531 248.195312 523.289062 248.210938 523.304688 248.222656 C 523.453125 248.328125 523.601562 248.433594 523.75 248.542969 C 524.761719 249.28125 525.742188 250.0625 526.6875 250.886719 C 527.648438 251.726562 528.570312 252.609375 529.453125 253.53125 C 529.894531 253.992188 530.324219 254.460938 530.746094 254.941406 C 530.835938 255.042969 530.925781 255.148438 531.011719 255.25 C 531.042969 255.285156 531.121094 255.375 531.179688 255.449219 C 531.242188 255.523438 531.320312 255.617188 531.339844 255.640625 C 531.4375 255.765625 531.539062 255.886719 531.636719 256.011719 C 533.210938 257.992188 534.601562 260.113281 535.78125 262.347656 C 535.929688 262.628906 536.074219 262.914062 536.214844 263.199219 C 536.34375 263.457031 536.449219 263.84375 536.628906 264.066406 C 536.695312 264.21875 536.757812 264.367188 536.824219 264.523438 C 536.960938 264.851562 537.089844 265.183594 537.207031 265.519531 C 537.421875 266.121094 537.605469 266.734375 537.746094 267.359375 C 537.777344 267.5 537.789062 267.664062 537.832031 267.804688 C 537.835938 267.839844 537.839844 267.871094 537.847656 267.90625 C 537.886719 268.230469 537.910156 268.554688 537.917969 268.878906 C 537.925781 269.160156 537.863281 269.476562 537.894531 269.753906 C 537.890625 269.789062 537.886719 269.824219 537.878906 269.859375 C 537.855469 270.03125 537.820312 270.207031 537.785156 270.378906 C 537.726562 270.644531 537.648438 270.902344 537.570312 271.164062 C 537.566406 271.167969 537.566406 271.167969 537.566406 271.171875 C 537.511719 271.304688 537.457031 271.433594 537.398438 271.5625 C 537.277344 271.824219 537.144531 272.078125 536.996094 272.328125 C 536.933594 272.433594 536.871094 272.539062 536.804688 272.644531 C 536.777344 272.683594 536.75 272.722656 536.722656 272.761719 C 536.386719 273.207031 536.027344 273.628906 535.632812 274.023438 C 535.4375 274.222656 535.234375 274.410156 535.027344 274.59375 C 535.003906 274.613281 534.980469 274.632812 534.957031 274.65625 C 534.847656 274.738281 534.742188 274.828125 534.632812 274.914062 C 534.167969 275.269531 533.679688 275.597656 533.179688 275.90625 C 532.660156 276.226562 532.125 276.523438 531.578125 276.796875 C 531.445312 276.867188 531.308594 276.933594 531.167969 277 C 530.894531 277.105469 530.621094 277.242188 530.347656 277.351562 C 528.21875 278.21875 525.996094 278.855469 523.738281 279.273438 C 523.609375 279.296875 523.480469 279.320312 523.351562 279.339844 C 523.339844 279.34375 523.328125 279.34375 523.308594 279.347656 C 523.019531 279.394531 522.730469 279.433594 522.441406 279.472656 C 522.089844 279.515625 521.738281 279.554688 521.382812 279.589844 C 520.914062 278.972656 520.429688 278.359375 519.941406 277.757812 C 517.914062 275.265625 515.792969 272.84375 513.578125 270.519531 C 509.503906 266.226562 504.878906 262.210938 499.402344 259.824219 C 496.777344 258.679688 493.894531 258.25 491.070312 258.847656 C 489.71875 259.132812 488.46875 259.777344 487.464844 260.714844 C 486.335938 261.769531 485.800781 263.25 485.6875 264.753906 C 485.460938 267.820312 487.738281 270.453125 489.714844 272.511719 C 491.496094 274.371094 493.488281 275.976562 495.613281 277.421875 C 499.742188 280.234375 504.492188 282.191406 509.375 283.234375 C 512.632812 283.933594 515.945312 284.210938 519.253906 284.082031 C 520.105469 285.324219 520.90625 286.601562 521.621094 287.925781 C 521.792969 288.238281 521.957031 288.554688 522.117188 288.875 C 522.203125 289.042969 522.289062 289.214844 522.371094 289.390625 C 522.40625 289.464844 522.441406 289.535156 522.476562 289.609375 C 522.480469 289.617188 522.515625 289.6875 522.546875 289.757812 C 522.558594 289.785156 522.570312 289.8125 522.578125 289.824219 C 522.621094 289.925781 522.664062 290.027344 522.707031 290.125 C 522.773438 290.277344 522.835938 290.429688 522.898438 290.582031 C 523.054688 290.960938 523.203125 291.34375 523.34375 291.730469 C 523.785156 292.941406 524.140625 294.179688 524.386719 295.445312 C 524.414062 295.582031 524.4375 295.71875 524.464844 295.855469 C 524.511719 296.167969 524.550781 296.476562 524.585938 296.789062 C 524.648438 297.367188 524.691406 297.941406 524.707031 298.519531 C 524.730469 299.121094 524.726562 299.71875 524.695312 300.316406 C 524.683594 300.585938 524.664062 300.851562 524.644531 301.117188 C 524.640625 301.132812 524.640625 301.144531 524.636719 301.164062 C 524.617188 301.332031 524.597656 301.5 524.574219 301.667969 C 524.414062 302.816406 524.15625 303.949219 523.792969 305.050781 C 523.769531 305.125 523.742188 305.199219 523.714844 305.269531 C 523.6875 305.335938 523.664062 305.410156 523.644531 305.46875 C 523.535156 305.742188 523.421875 306.007812 523.300781 306.273438 C 523.058594 306.804688 522.785156 307.320312 522.488281 307.820312 C 522.351562 308.046875 522.207031 308.277344 522.058594 308.5 C 521.96875 308.613281 521.882812 308.734375 521.792969 308.847656 C 521.433594 309.3125 521.046875 309.753906 520.632812 310.171875 C 520.425781 310.378906 520.210938 310.582031 519.988281 310.78125 C 519.941406 310.820312 519.890625 310.863281 519.839844 310.90625 C 519.734375 310.992188 519.625 311.078125 519.515625 311.164062 C 519.015625 311.539062 518.492188 311.886719 517.953125 312.199219 C 517.671875 312.359375 517.386719 312.511719 517.097656 312.65625 C 516.976562 312.71875 516.847656 312.773438 516.722656 312.835938 C 517.3125 312.523438 516.78125 312.808594 516.625 312.875 C 516.027344 313.125 515.414062 313.339844 514.789062 313.523438 C 514.160156 313.710938 513.523438 313.863281 512.878906 313.988281 C 512.769531 314.007812 512.65625 314.023438 512.546875 314.046875 C 512.496094 314.054688 512.441406 314.0625 512.390625 314.070312 C 512.0625 314.117188 511.730469 314.15625 511.402344 314.1875 C 510.058594 314.320312 508.707031 314.339844 507.363281 314.269531 C 507.132812 314.257812 506.90625 314.238281 506.675781 314.222656 C 506.050781 313.207031 505.402344 312.207031 504.730469 311.222656 C 501.160156 305.976562 496.964844 301.125 492.273438 296.851562 C 489.957031 294.742188 487.511719 292.769531 484.960938 290.953125 C 482.515625 289.214844 479.792969 287.519531 476.652344 288.1875 C 475.449219 288.445312 474.203125 289.203125 473.46875 290.199219 C 472.648438 291.308594 472.28125 292.519531 472.207031 293.890625 C 472.085938 296.175781 473.042969 298.566406 474.21875 300.476562 C 474.894531 301.570312 475.753906 302.539062 476.636719 303.476562 C 477.609375 304.511719 478.628906 305.5 479.691406 306.445312 C 481.917969 308.425781 484.332031 310.199219 486.867188 311.765625 C 489.285156 313.261719 491.835938 314.542969 494.480469 315.589844 C 497.25 316.6875 500.105469 317.605469 503.042969 318.125 C 503.363281 318.183594 503.6875 318.234375 504.011719 318.285156 C 504.6875 319.449219 505.339844 320.632812 505.953125 321.835938 C 506.246094 322.40625 506.535156 322.984375 506.808594 323.566406 C 506.859375 323.671875 506.910156 323.777344 506.957031 323.882812 C 506.960938 323.890625 506.964844 323.902344 506.96875 323.910156 C 507.09375 324.1875 507.214844 324.460938 507.332031 324.738281 C 507.804688 325.851562 508.230469 326.988281 508.59375 328.140625 C 508.945312 329.265625 509.238281 330.40625 509.449219 331.566406 C 509.457031 331.605469 509.464844 331.644531 509.46875 331.679688 C 509.484375 331.769531 509.496094 331.859375 509.511719 331.949219 C 509.554688 332.257812 509.589844 332.574219 509.621094 332.886719 C 509.679688 333.464844 509.710938 334.050781 509.714844 334.632812 C 509.71875 335.152344 509.691406 335.667969 509.65625 336.1875 C 509.65625 336.203125 509.65625 336.21875 509.652344 336.234375 C 509.636719 336.355469 509.621094 336.480469 509.605469 336.601562 C 509.5625 336.886719 509.515625 337.167969 509.457031 337.449219 C 509.453125 337.46875 509.449219 337.488281 509.445312 337.507812 C 509.054688 337.105469 508.679688 336.683594 508.308594 336.257812 C 507.089844 334.847656 505.902344 333.414062 504.5625 332.105469 C 503.746094 331.308594 502.214844 331.367188 501.476562 332.25 C 500.695312 333.183594 500.738281 334.480469 501.613281 335.335938 C 502.984375 336.671875 504.191406 338.140625 505.445312 339.585938 C 506.523438 340.820312 507.667969 341.917969 509.003906 342.84375 C 509.144531 342.972656 509.300781 343.082031 509.480469 343.167969 C 509.972656 343.484375 510.578125 343.484375 511.121094 343.300781 C 511.433594 343.210938 511.722656 343.046875 511.96875 342.824219 Z M 537.910156 269.648438 C 537.910156 269.652344 537.910156 269.652344 537.910156 269.65625 C 537.925781 269.53125 537.945312 269.398438 537.910156 269.648438 Z M 536.777344 272.691406 C 536.777344 272.695312 536.773438 272.699219 536.773438 272.703125 C 536.835938 272.613281 536.886719 272.550781 536.777344 272.691406 Z M 490.726562 263.621094 C 490.746094 263.625 490.652344 263.691406 490.566406 263.753906 C 490.632812 263.683594 490.699219 263.617188 490.726562 263.621094 Z M 515.503906 279.707031 C 515.234375 279.6875 514.960938 279.671875 514.691406 279.648438 C 514.605469 279.640625 514.519531 279.632812 514.4375 279.625 C 514.351562 279.617188 514.269531 279.609375 514.1875 279.597656 C 513.042969 279.472656 511.90625 279.296875 510.777344 279.070312 C 509.648438 278.839844 508.53125 278.5625 507.429688 278.234375 C 506.867188 278.066406 506.3125 277.886719 505.757812 277.695312 C 505.703125 277.675781 505.519531 277.609375 505.453125 277.585938 C 505.402344 277.566406 505.355469 277.550781 505.339844 277.542969 C 505.066406 277.441406 504.792969 277.332031 504.523438 277.222656 C 502.375 276.351562 500.308594 275.289062 498.363281 274.03125 C 498.136719 273.886719 497.910156 273.734375 497.6875 273.582031 C 497.671875 273.570312 497.632812 273.546875 497.59375 273.519531 C 497.53125 273.476562 497.375 273.367188 497.332031 273.335938 C 496.859375 272.992188 496.394531 272.640625 495.9375 272.277344 C 495.027344 271.546875 494.152344 270.773438 493.320312 269.953125 C 492.921875 269.558594 492.527344 269.152344 492.148438 268.738281 C 491.964844 268.535156 491.78125 268.328125 491.601562 268.121094 C 491.585938 268.105469 491.570312 268.085938 491.558594 268.070312 C 491.453125 267.9375 491.347656 267.804688 491.246094 267.671875 C 491.066406 267.433594 490.898438 267.1875 490.738281 266.9375 C 490.65625 266.804688 490.574219 266.667969 490.496094 266.527344 C 490.464844 266.472656 490.359375 266.261719 490.316406 266.175781 C 490.300781 266.140625 490.289062 266.109375 490.28125 266.09375 C 490.226562 265.949219 490.179688 265.804688 490.136719 265.65625 C 490.128906 265.632812 490.125 265.605469 490.117188 265.578125 C 490.105469 265.589844 490.078125 265.542969 490.070312 265.453125 C 490.066406 265.410156 490.0625 265.371094 490.058594 265.332031 C 490.054688 265.3125 490.050781 265.292969 490.042969 265.277344 C 490.046875 265.292969 490.054688 265.304688 490.058594 265.320312 C 490.054688 265.277344 490.050781 265.234375 490.046875 265.191406 C 490.042969 265.085938 490.042969 264.980469 490.046875 264.875 C 490.054688 264.808594 490.0625 264.730469 490.066406 264.71875 C 490.085938 264.605469 490.113281 264.496094 490.144531 264.386719 C 490.199219 264.28125 490.246094 264.175781 490.304688 264.070312 C 490.351562 264.015625 490.410156 263.941406 490.433594 263.910156 C 490.453125 263.890625 490.503906 263.828125 490.558594 263.765625 C 490.570312 263.757812 490.582031 263.746094 490.597656 263.734375 C 490.695312 263.664062 490.796875 263.59375 490.902344 263.53125 C 490.996094 263.472656 491.097656 263.417969 491.195312 263.363281 C 491.417969 263.277344 491.644531 263.199219 491.878906 263.132812 C 491.988281 263.101562 492.101562 263.074219 492.214844 263.050781 C 492.238281 263.042969 492.308594 263.03125 492.382812 263.015625 C 492.46875 263.003906 492.597656 262.984375 492.644531 262.980469 C 492.765625 262.96875 492.886719 262.957031 493.007812 262.949219 C 493.3125 262.929688 493.621094 262.921875 493.929688 262.929688 C 494.074219 262.933594 494.21875 262.9375 494.363281 262.945312 C 494.390625 262.949219 494.414062 262.949219 494.441406 262.953125 C 494.6875 262.984375 494.929688 263.011719 495.175781 263.054688 C 495.742188 263.15625 496.304688 263.292969 496.851562 263.476562 C 496.855469 263.476562 496.863281 263.480469 496.871094 263.484375 C 496.996094 263.535156 497.121094 263.585938 497.246094 263.636719 C 497.566406 263.777344 497.886719 263.921875 498.203125 264.070312 C 499.445312 264.660156 500.640625 265.335938 501.796875 266.078125 C 502.085938 266.265625 502.371094 266.460938 502.660156 266.652344 C 502.671875 266.660156 502.683594 266.667969 502.695312 266.675781 C 502.859375 266.792969 503.019531 266.910156 503.179688 267.027344 C 503.746094 267.441406 504.300781 267.871094 504.84375 268.3125 C 507.019531 270.078125 509.027344 272.039062 510.941406 274.074219 C 511.902344 275.09375 512.835938 276.132812 513.761719 277.179688 C 514.273438 277.761719 514.78125 278.347656 515.285156 278.9375 C 515.394531 279.0625 515.5 279.191406 515.605469 279.316406 C 515.625 279.335938 515.660156 279.378906 515.695312 279.421875 C 515.703125 279.429688 515.707031 279.4375 515.710938 279.441406 C 515.789062 279.539062 515.867188 279.632812 515.945312 279.726562 C 515.796875 279.71875 515.652344 279.714844 515.503906 279.707031 Z M 481.746094 293.992188 C 481.917969 294.109375 481.796875 294.027344 481.695312 293.960938 C 481.710938 293.96875 481.730469 293.980469 481.746094 293.992188 Z M 476.9375 292.785156 C 476.976562 292.726562 477.027344 292.660156 476.9375 292.785156 Z M 477.195312 296.804688 C 477.191406 296.785156 477.238281 296.898438 477.28125 297 C 477.25 296.933594 477.21875 296.871094 477.195312 296.804688 Z M 499.867188 312.875 C 499.234375 312.6875 498.605469 312.484375 497.976562 312.265625 C 497.816406 312.210938 497.652344 312.152344 497.492188 312.097656 C 497.480469 312.09375 497.476562 312.089844 497.46875 312.085938 C 497.464844 312.085938 497.464844 312.085938 497.464844 312.085938 C 497.121094 311.957031 496.777344 311.828125 496.433594 311.691406 C 493.90625 310.683594 491.464844 309.464844 489.140625 308.046875 C 488.574219 307.703125 488.015625 307.347656 487.46875 306.980469 C 487.324219 306.882812 487.183594 306.789062 487.039062 306.691406 C 486.996094 306.664062 486.957031 306.632812 486.914062 306.605469 C 486.648438 306.417969 486.386719 306.230469 486.125 306.039062 C 485.039062 305.238281 483.984375 304.394531 482.96875 303.511719 C 481.9375 302.609375 480.941406 301.660156 479.988281 300.671875 C 479.769531 300.445312 479.550781 300.210938 479.332031 299.980469 C 479.21875 299.851562 479.101562 299.726562 478.988281 299.597656 C 478.964844 299.578125 478.925781 299.539062 478.882812 299.5 C 478.902344 299.523438 478.90625 299.527344 478.878906 299.496094 C 478.785156 299.40625 478.664062 299.292969 478.65625 299.230469 C 478.65625 299.222656 478.671875 299.238281 478.695312 299.261719 C 478.644531 299.199219 478.59375 299.136719 478.546875 299.070312 C 478.398438 298.875 478.257812 298.671875 478.121094 298.464844 C 477.84375 298.039062 477.589844 297.601562 477.363281 297.148438 C 477.347656 297.117188 477.328125 297.085938 477.3125 297.050781 C 477.296875 297.015625 477.277344 296.976562 477.265625 296.941406 C 477.160156 296.695312 477.0625 296.441406 476.976562 296.1875 C 476.828125 295.761719 476.71875 295.328125 476.625 294.890625 C 476.613281 294.792969 476.601562 294.695312 476.589844 294.597656 C 476.574219 294.375 476.5625 294.152344 476.570312 293.925781 C 476.570312 293.878906 476.574219 293.828125 476.574219 293.777344 C 476.609375 293.589844 476.65625 293.410156 476.699219 293.230469 C 476.722656 293.175781 476.746094 293.125 476.773438 293.074219 C 476.796875 293.027344 476.828125 292.980469 476.855469 292.929688 C 476.914062 292.867188 476.96875 292.804688 477.027344 292.742188 C 477.070312 292.710938 477.113281 292.679688 477.136719 292.664062 C 477.21875 292.609375 477.300781 292.5625 477.382812 292.515625 C 477.480469 292.484375 477.578125 292.449219 477.679688 292.421875 C 477.695312 292.417969 477.722656 292.410156 477.75 292.40625 C 477.867188 292.398438 477.988281 292.378906 478.105469 292.378906 C 478.1875 292.378906 478.265625 292.382812 478.34375 292.386719 C 478.375 292.390625 478.402344 292.394531 478.433594 292.402344 C 478.722656 292.453125 479 292.539062 479.28125 292.617188 C 479.410156 292.671875 479.539062 292.726562 479.664062 292.78125 C 479.933594 292.90625 480.199219 293.042969 480.457031 293.1875 C 480.71875 293.332031 480.972656 293.488281 481.222656 293.648438 C 481.328125 293.714844 481.433594 293.78125 481.539062 293.851562 C 481.582031 293.882812 481.621094 293.910156 481.664062 293.9375 C 482.238281 294.386719 482.855469 294.785156 483.441406 295.222656 C 488.183594 298.761719 492.519531 302.84375 496.351562 307.355469 C 496.398438 307.414062 496.445312 307.472656 496.496094 307.527344 C 496.59375 307.652344 496.699219 307.773438 496.796875 307.894531 C 497.035156 308.183594 497.273438 308.476562 497.507812 308.769531 C 497.972656 309.355469 498.433594 309.949219 498.882812 310.546875 C 499.519531 311.394531 500.136719 312.253906 500.738281 313.125 C 500.449219 313.042969 500.15625 312.960938 499.867188 312.875 Z M 499.867188 312.875 " fill-opacity="1" fill-rule="nonzero"/></g></g></g><g clip-path="url(#33274ba893)"><g clip-path="url(#5dbe3047c5)"><g clip-path="url(#86ffa245fd)"><path fill="#ff5055" d="M 490.058594 265.320312 C 490.058594 265.324219 490.058594 265.328125 490.0625 265.332031 C 490.085938 265.410156 490.101562 265.496094 490.117188 265.578125 C 490.132812 265.570312 490.125 265.488281 490.058594 265.320312 Z M 490.058594 265.320312 " fill-opacity="1" fill-rule="nonzero"/></g></g></g><g clip-path="url(#d25b47b538)"><g clip-path="url(#0251e6e3b0)"><g clip-path="url(#f69aa37304)"><path fill="#ff5055" d="M 478.769531 299.359375 C 478.800781 299.402344 478.835938 299.441406 478.867188 299.480469 C 478.871094 299.488281 478.875 299.492188 478.878906 299.496094 C 478.878906 299.496094 478.882812 299.5 478.882812 299.5 C 478.84375 299.449219 478.75 299.324219 478.695312 299.261719 C 478.71875 299.296875 478.746094 299.328125 478.769531 299.359375 Z M 478.769531 299.359375 " fill-opacity="1" fill-rule="nonzero"/></g></g></g></svg>