<svg xmlns="http://www.w3.org/2000/svg" xmlns:xlink="http://www.w3.org/1999/xlink" zoomAndPan="magnify" preserveAspectRatio="xMidYMid meet" version="1.0" viewBox="415.01 225 194.25 127.07"><defs><clipPath id="034bb86a79"><path d="M 415.011719 225 L 609.261719 225 L 609.261719 352.070312 L 415.011719 352.070312 Z M 415.011719 225 " clip-rule="nonzero"/></clipPath></defs><g clip-path="url(#034bb86a79)"><path fill="#ff5055" d="M 510.445312 237.71875 C 509.824219 237.390625 508.960938 237.183594 507.804688 237.183594 C 506.238281 237.183594 503.847656 237.554688 500.917969 238.300781 C 495.472656 239.707031 487.886719 242.316406 480.214844 245.171875 C 479.183594 242.6875 478.152344 240.289062 477.121094 238.050781 C 474.605469 232.378906 472.253906 228.03125 470.726562 226.5 C 469.574219 225.339844 467.015625 224.636719 465.203125 227.90625 C 463.59375 230.804688 460.871094 240.371094 458.027344 247.242188 C 456.953125 249.851562 455.882812 252.460938 454.890625 255.027344 C 452.457031 255.980469 450.644531 256.683594 449.734375 257.015625 C 439.550781 260.578125 428.785156 263.847656 418.804688 267.824219 C 418.144531 268.070312 416.988281 268.609375 416.414062 269.105469 C 415.875 269.5625 415.585938 270.058594 415.421875 270.554688 C 415.011719 271.675781 415.09375 272.792969 416.164062 273.910156 C 416.535156 274.28125 417.402344 274.820312 418.679688 274.945312 C 420.289062 275.109375 423.589844 274.738281 424.207031 274.738281 C 432.457031 274.738281 439.382812 275.359375 446.933594 277.886719 C 444.414062 286 442.3125 294.242188 440.457031 302.8125 C 440.414062 303.101562 440.085938 304.425781 439.796875 305.835938 C 439.671875 305.960938 439.589844 306.125 439.46875 306.332031 C 439.34375 306.539062 438.683594 308.277344 438.3125 309.5625 C 438.066406 310.429688 437.980469 311.175781 437.980469 311.507812 C 438.066406 312.625 438.558594 313.246094 438.972656 313.621094 C 439.507812 314.117188 440.125 314.367188 440.910156 314.367188 L 441.074219 314.367188 C 441.613281 314.988281 442.394531 315.359375 443.261719 315.359375 C 443.960938 315.359375 444.871094 315.152344 445.859375 314.65625 C 447.179688 313.953125 448.953125 312.542969 451.015625 310.597656 C 456.375 305.378906 464.007812 295.9375 470.605469 287.699219 C 481.203125 292.460938 492.175781 297.925781 499.433594 303.390625 C 499.351562 303.351562 499.226562 303.183594 499.226562 303.183594 C 499.226562 303.183594 500.503906 304.261719 501.328125 304.386719 C 501.824219 304.46875 502.527344 304.46875 503.472656 304.011719 C 504.835938 303.351562 505.207031 302.273438 505.042969 300.992188 C 505 300.742188 504.875 299.707031 503.679688 298.921875 C 503.597656 298.835938 502.898438 298.507812 502.566406 298.339844 C 497.742188 291.675781 495.308594 282.273438 492.132812 274.78125 C 491.433594 273.164062 490.402344 270.515625 489.121094 267.285156 C 493.699219 263.269531 498.238281 259.167969 502.320312 254.699219 C 506.527344 250.058594 510.03125 245.835938 511.351562 243.515625 C 512.175781 242.066406 512.339844 240.910156 512.257812 240.246094 C 512.054688 239.003906 511.433594 238.21875 510.445312 237.71875 Z M 463.347656 249.480469 C 465.40625 244.511719 467.347656 238.09375 468.871094 233.992188 C 469.78125 235.734375 470.8125 237.96875 471.925781 240.453125 C 472.871094 242.566406 473.863281 244.84375 474.851562 247.203125 C 470.398438 248.898438 466.027344 250.640625 462.234375 252.128906 C 462.605469 251.261719 462.976562 250.351562 463.347656 249.480469 Z M 431.714844 269.191406 C 438.351562 266.871094 445.074219 264.757812 451.59375 262.480469 C 451.757812 262.441406 451.964844 262.359375 452.167969 262.273438 C 450.972656 265.628906 449.777344 268.984375 448.707031 272.378906 C 442.972656 270.472656 437.527344 269.5625 431.714844 269.191406 Z M 451.054688 302.234375 C 448.910156 304.59375 446.972656 306.621094 445.324219 308.03125 C 445.734375 306.207031 446.023438 304.46875 446.105469 304.011719 C 447.878906 295.730469 449.941406 287.78125 452.335938 279.957031 C 456.210938 281.53125 460.625 283.351562 465.242188 285.339844 C 460.542969 291.175781 455.425781 297.429688 451.054688 302.234375 Z M 468.953125 280.660156 C 463.59375 278.339844 458.480469 276.230469 454.066406 274.40625 C 455.675781 269.4375 457.449219 264.46875 459.34375 259.460938 C 464.128906 257.554688 470.480469 255.027344 477.039062 252.503906 C 478.851562 257.015625 480.667969 261.570312 482.234375 265.585938 C 481.328125 266.375 480.421875 267.203125 479.511719 268.03125 C 477.90625 269.480469 473.863281 274.53125 468.953125 280.660156 Z M 492.792969 292.296875 C 487.101562 289.066406 480.667969 285.960938 474.316406 283.0625 C 478.523438 277.800781 481.90625 273.621094 483.347656 272.335938 L 484.503906 271.300781 C 485.453125 273.703125 486.234375 275.691406 486.8125 277.015625 C 488.832031 281.738281 490.605469 287.203125 492.792969 292.296875 Z M 498.03125 250.765625 C 494.566406 254.574219 490.730469 258.132812 486.855469 261.570312 C 485.492188 258.050781 483.96875 254.242188 482.441406 250.472656 C 487.265625 248.691406 492.050781 246.996094 496.257812 245.628906 C 499.226562 244.675781 501.90625 243.929688 504.09375 243.433594 C 502.445312 245.546875 500.214844 248.320312 498.03125 250.765625 Z M 609.21875 303.597656 C 609.261719 302.605469 608.972656 301.527344 608.0625 300.328125 C 605.507812 296.890625 599.691406 294.78125 592.308594 293.953125 C 587.277344 293.371094 581.421875 293.371094 575.648438 293.578125 C 574.492188 286.914062 573.421875 280.867188 572.429688 276.394531 C 571.6875 272.957031 570.945312 270.390625 570.285156 268.984375 C 569.625 267.617188 568.84375 266.914062 568.222656 266.621094 C 567.441406 266.25 566.453125 266.085938 565.378906 266.746094 C 565.089844 266.914062 564.636719 267.242188 564.265625 267.78125 C 563.769531 268.445312 563.109375 269.726562 563.027344 269.933594 C 561.253906 273.453125 559.6875 276.726562 557.296875 279.871094 C 553.417969 284.964844 549.953125 290.183594 546.695312 295.523438 C 541.539062 295.359375 526.15625 294.40625 520.382812 296.1875 C 516.671875 297.304688 515.640625 299.707031 516.425781 302.027344 C 516.546875 302.355469 516.753906 302.8125 517.167969 303.308594 C 517.621094 303.847656 518.734375 304.71875 520.261719 305.753906 C 523.890625 308.152344 530.488281 311.882812 535.847656 314.902344 C 533.910156 318.546875 531.972656 322.234375 529.992188 325.960938 C 525.496094 334.40625 521.703125 342.769531 521.085938 344.097656 L 521.042969 344.179688 C 521.003906 344.304688 520.960938 344.386719 520.921875 344.511719 C 520.878906 344.675781 520.835938 344.757812 520.796875 344.800781 C 520.753906 344.925781 521.539062 346.042969 522.570312 346.910156 C 521.910156 347.574219 521.703125 348.277344 521.664062 348.773438 C 521.578125 349.4375 521.746094 350.058594 522.117188 350.636719 C 522.363281 351.011719 522.980469 352.003906 524.839844 352.003906 C 525.539062 352.003906 526.199219 351.757812 526.695312 351.34375 C 528.796875 351.34375 530.15625 351.175781 532.675781 350.101562 C 537.664062 347.945312 542.117188 345.089844 546.777344 342.191406 C 552.347656 338.671875 557.914062 334.902344 563.648438 331.425781 C 565.460938 332.5 567.316406 333.621094 569.089844 334.777344 C 573.875 337.925781 577.667969 342.273438 582.328125 345.421875 L 582.699219 345.792969 C 582.824219 345.917969 582.90625 346.042969 583.03125 346.167969 C 584.515625 347.699219 585.957031 347.035156 586 346.996094 C 586.617188 346.789062 587.113281 346.457031 587.445312 346 C 587.773438 345.546875 588.0625 344.964844 588.0625 344.136719 C 588.0625 343.929688 588.0625 343.308594 587.484375 342.5625 C 587.445312 342.523438 587.277344 342.316406 587.03125 342.109375 L 587.070312 342.148438 C 586.535156 341.613281 586.042969 340.660156 585.546875 339.375 C 584.515625 336.933594 583.566406 333.621094 582.578125 329.726562 C 582.039062 327.492188 581.464844 325.089844 580.96875 322.5625 C 589.710938 318.921875 600.023438 315.109375 606.496094 308.652344 C 607.980469 306.953125 609.179688 305.339844 609.21875 303.597656 Z M 521.578125 343.433594 C 522.488281 342.441406 523.476562 342.480469 524.011719 342.5625 C 523.105469 342.4375 522.199219 342.769531 521.578125 343.433594 Z M 526.488281 345.503906 C 526.527344 344.882812 526.324219 344.304688 525.992188 343.804688 C 526.324219 344.21875 526.570312 344.800781 526.527344 345.503906 Z M 561.914062 283.351562 C 563.730469 280.949219 565.171875 278.507812 566.492188 275.9375 C 567.070312 278.464844 567.730469 281.695312 568.390625 285.339844 C 568.882812 287.988281 569.378906 290.886719 569.914062 293.867188 C 563.8125 294.242188 558.121094 294.78125 553.75 295.152344 C 556.304688 291.136719 558.988281 287.203125 561.914062 283.351562 Z M 526.117188 302.523438 C 525.457031 302.109375 524.753906 301.652344 524.09375 301.238281 C 524.261719 301.199219 524.382812 301.199219 524.507812 301.15625 C 529.785156 300.453125 538.078125 300.785156 543.4375 301.03125 C 541.789062 303.890625 540.179688 306.828125 538.570312 309.726562 C 534.488281 307.449219 529.703125 304.71875 526.117188 302.523438 Z M 543.769531 337.222656 C 539.394531 339.996094 535.191406 342.6875 530.445312 344.757812 C 528.921875 345.421875 528.011719 345.503906 526.777344 345.546875 C 528.011719 342.855469 531.3125 335.773438 535.105469 328.652344 C 537.085938 324.964844 538.984375 321.320312 540.882812 317.71875 C 542.367188 318.589844 543.480469 319.210938 543.972656 319.582031 C 548.46875 322.769531 553.253906 325.460938 558.039062 328.152344 C 553.210938 331.09375 548.46875 334.28125 543.769531 337.222656 Z M 563.605469 324.675781 C 558.078125 321.527344 552.46875 318.507812 547.273438 314.820312 C 546.738281 314.449219 545.375 313.660156 543.601562 312.625 C 545.707031 308.773438 547.808594 304.925781 550.078125 301.15625 C 554.613281 300.867188 562.492188 299.996094 570.90625 299.5 C 572.019531 305.917969 573.171875 312.625 574.410156 318.921875 C 570.742188 320.660156 567.152344 322.605469 563.605469 324.675781 Z M 572.265625 329.851562 C 571.316406 329.230469 570.328125 328.609375 569.339844 327.988281 C 571.398438 326.828125 573.503906 325.753906 575.605469 324.71875 C 576.265625 327.863281 576.96875 330.804688 577.667969 333.453125 L 577.875 334.242188 C 576.101562 332.707031 574.289062 331.175781 572.265625 329.851562 Z M 602.457031 304.386719 C 596.722656 310.101562 587.730469 313.453125 579.855469 316.644531 C 578.742188 311.011719 577.710938 305.007812 576.71875 299.25 C 581.957031 299.085938 587.15625 299.167969 591.734375 299.664062 C 594.703125 299.996094 597.339844 300.492188 599.527344 301.28125 C 601.09375 301.859375 602.414062 302.523438 603.28125 303.476562 C 603.03125 303.765625 602.660156 304.136719 602.457031 304.386719 Z M 602.457031 304.386719 " fill-opacity="1" fill-rule="nonzero"/></g></svg>