<svg xmlns="http://www.w3.org/2000/svg" xmlns:xlink="http://www.w3.org/1999/xlink" width="254" zoomAndPan="magnify" viewBox="0 0 190.5 188.249992" height="251" preserveAspectRatio="xMidYMid meet" version="1.0"><defs><clipPath id="0ca519b8f5"><path d="M 82 77 L 96 77 L 96 111 L 82 111 Z M 82 77 " clip-rule="nonzero"/></clipPath><clipPath id="b17a67a963"><path d="M 84.117188 77.019531 L 96.046875 78.148438 L 92.933594 110.957031 L 81.003906 109.824219 Z M 84.117188 77.019531 " clip-rule="nonzero"/></clipPath><clipPath id="06f94c8ea2"><path d="M 84.117188 77.019531 L 96.046875 78.148438 L 92.933594 110.957031 L 81.003906 109.824219 Z M 84.117188 77.019531 " clip-rule="nonzero"/></clipPath><clipPath id="ed331e815d"><path d="M 84.117188 77.019531 L 96.046875 78.148438 L 92.933594 110.957031 L 81.003906 109.824219 Z M 84.117188 77.019531 " clip-rule="nonzero"/></clipPath><clipPath id="49b987fff5"><path d="M 99 77 L 112 77 L 112 111 L 99 111 Z M 99 77 " clip-rule="nonzero"/></clipPath><clipPath id="d17824ec5c"><path d="M 98.917969 77.984375 L 110.898438 77.683594 L 111.71875 110.628906 L 99.738281 110.929688 Z M 98.917969 77.984375 " clip-rule="nonzero"/></clipPath><clipPath id="57b861b853"><path d="M 99.730469 110.695312 L 111.710938 110.394531 L 110.894531 77.453125 L 98.914062 77.75 Z M 99.730469 110.695312 " clip-rule="nonzero"/></clipPath><clipPath id="99020d7b8d"><path d="M 99.730469 110.695312 L 111.710938 110.394531 L 110.894531 77.453125 L 98.914062 77.75 Z M 99.730469 110.695312 " clip-rule="nonzero"/></clipPath></defs><g clip-path="url(#0ca519b8f5)"><g clip-path="url(#b17a67a963)"><g clip-path="url(#06f94c8ea2)"><g clip-path="url(#ed331e815d)"><path fill="#b1a1ed" d="M 88.019531 93.3125 C 87.824219 95.058594 88.300781 96.644531 89.121094 98.15625 C 89.234375 98.359375 89.414062 98.582031 89.617188 98.675781 C 90.304688 98.980469 91.023438 99.226562 91.714844 99.515625 C 91.871094 99.578125 92.085938 99.714844 92.097656 99.832031 C 92.074219 100.121094 91.964844 100.355469 90.808594 100.652344 C 89.132812 101.261719 88.339844 102.550781 88.167969 104.195312 C 87.988281 105.941406 87.964844 107.703125 87.851562 109.457031 C 87.832031 109.800781 87.976562 110.222656 87.464844 110.277344 C 87.121094 110.351562 87.097656 109.882812 87.03125 109.574219 C 86.8125 108.53125 86.582031 107.488281 86.464844 106.433594 C 86.28125 104.804688 85.621094 103.378906 84.722656 102.035156 C 84.238281 101.308594 82.589844 100.796875 82.550781 100.796875 C 81.863281 100.761719 81.964844 100.089844 82.488281 99.890625 C 82.511719 99.878906 83.265625 99.476562 83.621094 99.28125 C 85.289062 98.378906 86.089844 96.867188 86.589844 95.144531 C 86.835938 94.304688 87.0625 93.457031 87.320312 92.617188 C 87.335938 92.558594 87.355469 92.503906 87.386719 92.453125 C 87.480469 92.246094 88.152344 91.96875 88.019531 93.3125 Z M 89.972656 99.648438 C 88.417969 98.992188 87.957031 97.644531 87.585938 96.234375 C 87.496094 95.90625 87.035156 95.882812 86.917969 96.195312 C 86.324219 97.816406 85.3125 99.105469 83.679688 99.945312 C 83.429688 100.078125 83.433594 100.429688 83.6875 100.554688 C 83.753906 100.585938 83.816406 100.621094 83.878906 100.660156 C 84.316406 100.9375 84.835938 101.175781 85.140625 101.5625 C 85.628906 102.191406 86.019531 102.878906 86.3125 103.613281 C 86.476562 104.035156 86.613281 104.460938 86.738281 104.878906 C 86.84375 105.234375 87.367188 105.199219 87.421875 104.835938 C 87.480469 104.421875 87.550781 104 87.636719 103.578125 C 87.921875 102.148438 88.570312 100.933594 89.988281 100.269531 C 89.988281 100.269531 89.992188 100.265625 89.992188 100.265625 C 90.265625 100.140625 90.25 99.761719 89.972656 99.648438 Z M 93.015625 78.734375 C 93.128906 79.675781 93.167969 80.636719 93.386719 81.550781 C 93.597656 82.414062 94.339844 82.800781 95.195312 82.976562 C 95.195312 82.976562 95.199219 82.976562 95.199219 82.976562 C 95.484375 83.042969 95.546875 83.421875 95.296875 83.578125 C 95.261719 83.601562 94.953125 83.660156 94.84375 83.675781 C 93.503906 83.878906 93.136719 84.257812 93.082031 85.601562 C 93.050781 86.332031 93.101562 87.058594 93.0625 87.789062 C 93.050781 88.027344 92.871094 88.257812 92.769531 88.492188 C 92.613281 88.300781 92.347656 88.125 92.3125 87.910156 C 92.195312 87.15625 92.167969 86.386719 92.078125 85.625 C 91.933594 84.355469 91.523438 83.957031 90.230469 83.746094 C 89.6875 83.6875 89.359375 83.273438 90.070312 83.121094 C 91.597656 82.675781 91.945312 81.402344 92.25 80.105469 C 92.382812 79.542969 92.378906 79.199219 92.5 78.632812 C 92.542969 78.453125 92.667969 77.882812 92.855469 77.902344 C 93.015625 77.917969 93.015625 78.734375 93.015625 78.734375 Z M 92.605469 81.144531 C 92.128906 82.507812 91.195312 83.203125 91.195312 83.203125 C 91.589844 83.316406 92.640625 84.871094 92.640625 84.871094 C 92.8125 84.3125 93.121094 83.355469 93.902344 83.183594 C 93.144531 82.632812 92.691406 82.015625 92.605469 81.144531 Z M 92.605469 81.144531 " fill-opacity="1" fill-rule="nonzero"/></g></g></g></g><g clip-path="url(#49b987fff5)"><g clip-path="url(#d17824ec5c)"><g clip-path="url(#57b861b853)"><g clip-path="url(#99020d7b8d)"><path fill="#b1a1ed" d="M 104.761719 94.710938 C 104.683594 92.957031 105.273438 91.40625 106.199219 89.957031 C 106.324219 89.757812 106.519531 89.550781 106.730469 89.472656 C 107.4375 89.214844 108.167969 89.019531 108.878906 88.78125 C 109.039062 88.726562 109.265625 88.605469 109.285156 88.488281 C 109.28125 88.199219 109.1875 87.960938 108.054688 87.582031 C 106.425781 86.859375 105.726562 85.519531 105.667969 83.867188 C 105.609375 82.113281 105.707031 80.351562 105.71875 78.59375 C 105.722656 78.25 105.898438 77.839844 105.390625 77.75 C 105.054688 77.652344 104.996094 78.113281 104.90625 78.417969 C 104.617188 79.445312 104.316406 80.46875 104.125 81.511719 C 103.828125 83.125 103.070312 84.5 102.082031 85.78125 C 101.546875 86.472656 99.867188 86.863281 99.828125 86.867188 C 99.140625 86.851562 99.191406 87.53125 99.699219 87.765625 C 99.726562 87.773438 100.449219 88.230469 100.789062 88.449219 C 102.390625 89.46875 103.082031 91.03125 103.460938 92.78125 C 103.648438 93.636719 103.8125 94.5 104.011719 95.355469 C 104.027344 95.414062 104.042969 95.472656 104.066406 95.523438 C 104.148438 95.734375 104.796875 96.0625 104.761719 94.710938 Z M 107.152344 88.527344 C 105.554688 89.074219 105 90.386719 104.53125 91.769531 C 104.417969 92.085938 103.957031 92.078125 103.863281 91.757812 C 103.382812 90.097656 102.460938 88.746094 100.894531 87.792969 C 100.65625 87.644531 100.679688 87.292969 100.941406 87.183594 C 101.011719 87.15625 101.074219 87.128906 101.140625 87.089844 C 101.601562 86.84375 102.132812 86.644531 102.464844 86.277344 C 102.992188 85.6875 103.433594 85.027344 103.773438 84.316406 C 103.96875 83.90625 104.136719 83.492188 104.289062 83.082031 C 104.417969 82.734375 104.9375 82.808594 104.964844 83.171875 C 104.996094 83.589844 105.039062 84.015625 105.09375 84.441406 C 105.277344 85.890625 105.839844 87.148438 107.210938 87.910156 C 107.210938 87.910156 107.214844 87.914062 107.214844 87.914062 C 107.476562 88.054688 107.4375 88.433594 107.152344 88.527344 Z M 108.726562 109.601562 C 108.90625 108.671875 109.015625 107.714844 109.292969 106.816406 C 109.566406 105.96875 110.332031 105.640625 111.195312 105.519531 C 111.195312 105.519531 111.199219 105.519531 111.199219 105.519531 C 111.492188 105.476562 111.578125 105.101562 111.34375 104.929688 C 111.308594 104.90625 111.003906 104.824219 110.894531 104.800781 C 109.570312 104.503906 109.234375 104.101562 109.273438 102.757812 C 109.292969 102.027344 109.394531 101.304688 109.40625 100.574219 C 109.410156 100.335938 109.246094 100.089844 109.160156 99.851562 C 108.992188 100.03125 108.714844 100.1875 108.667969 100.398438 C 108.496094 101.144531 108.417969 101.910156 108.273438 102.660156 C 108.042969 103.917969 107.601562 104.285156 106.296875 104.40625 C 105.753906 104.429688 105.398438 104.820312 106.09375 105.019531 C 107.585938 105.570312 107.847656 106.867188 108.058594 108.179688 C 108.152344 108.753906 108.125 109.09375 108.207031 109.667969 C 108.234375 109.851562 108.320312 110.425781 108.511719 110.421875 C 108.671875 110.417969 108.726562 109.601562 108.726562 109.601562 Z M 108.488281 107.171875 C 108.105469 105.773438 107.222656 105.019531 107.222656 105.019531 C 107.625 104.929688 108.78125 103.457031 108.78125 103.457031 C 108.914062 104.023438 109.15625 105 109.921875 105.226562 C 109.128906 105.722656 108.632812 106.304688 108.488281 107.171875 Z M 108.488281 107.171875 " fill-opacity="1" fill-rule="nonzero"/></g></g></g></g></svg>