<svg xmlns="http://www.w3.org/2000/svg" xmlns:xlink="http://www.w3.org/1999/xlink" zoomAndPan="magnify" preserveAspectRatio="xMidYMid meet" version="1.0" viewBox="81.24 81.99 109.08 16.99"><path fill="#1967be" d="M 175.164062 84.261719 C 169.71875 84.109375 166.835938 91.339844 161.246094 90.488281 C 157.191406 89.15625 154.742188 84.269531 150.128906 84.316406 C 144.09375 83.84375 140.65625 90.410156 135.140625 91.601562 C 132.679688 91.1875 131.648438 88.21875 129.871094 86.699219 C 127.046875 83.433594 122.433594 80.585938 118.160156 82.746094 C 113.65625 85.390625 110.570312 90.265625 105.75 92.359375 C 103.386719 92.859375 102.175781 89.910156 100.703125 88.578125 C 98.824219 86.1875 96.519531 83.382812 93.1875 83.804688 C 88.816406 84.0625 86.144531 88.4375 83.761719 91.707031 C 83.167969 92.859375 82.261719 94.125 81.730469 95.445312 C 79.730469 99.210938 84.414062 100.058594 84.917969 97.570312 C 86.136719 94.832031 87.558594 91.714844 89.710938 89.535156 C 93.621094 85.292969 95.816406 88.535156 98.902344 91.253906 C 101.167969 93.949219 104.65625 97.128906 108.359375 95.300781 C 111.785156 93.382812 114.390625 90.210938 117.441406 87.746094 C 121.007812 84.828125 123.601562 84.296875 126.871094 87.632812 C 129.972656 91.152344 134.671875 95.984375 138.34375 94.296875 C 142.75 92.570312 145.785156 87.511719 150.75 87.351562 C 155.441406 87.933594 157.929688 93.605469 162.867188 93.621094 C 167.703125 93.867188 170.679688 89.167969 174.824219 87.496094 C 179.035156 87.089844 184.109375 91.347656 186.71875 94.089844 C 190.0625 97.714844 192.03125 94.738281 188.273438 91.609375 C 184.261719 88.875 179.554688 84.40625 175.164062 84.261719 Z M 175.164062 84.261719 " fill-opacity="1" fill-rule="nonzero"/></svg>