<svg xmlns="http://www.w3.org/2000/svg" xmlns:xlink="http://www.w3.org/1999/xlink" width="319" zoomAndPan="magnify" viewBox="0 0 239.25 237.749993" height="317" preserveAspectRatio="xMidYMid meet" version="1.0"><defs><clipPath id="a6b1cfe65e"><path d="M 92 78 L 160 78 L 160 144 L 92 144 Z M 92 78 " clip-rule="nonzero"/></clipPath><clipPath id="5a57558550"><path d="M 93.214844 75.214844 L 163.339844 79.871094 L 158.832031 147.757812 L 88.707031 143.101562 Z M 93.214844 75.214844 " clip-rule="nonzero"/></clipPath><clipPath id="ea2bb86e50"><path d="M 93.214844 75.214844 L 163.339844 79.871094 L 158.832031 147.757812 L 88.707031 143.101562 Z M 93.214844 75.214844 " clip-rule="nonzero"/></clipPath><clipPath id="2103bdc6e9"><path d="M 93.214844 75.214844 L 163.339844 79.871094 L 158.832031 147.757812 L 88.707031 143.101562 Z M 93.214844 75.214844 " clip-rule="nonzero"/></clipPath><clipPath id="e57aa9144e"><path d="M 78 93 L 146 93 L 146 159 L 78 159 Z M 78 93 " clip-rule="nonzero"/></clipPath><clipPath id="09ff9c4fa3"><path d="M 79.871094 89.773438 L 149.996094 94.429688 L 145.488281 162.316406 L 75.363281 157.664062 Z M 79.871094 89.773438 " clip-rule="nonzero"/></clipPath><clipPath id="4457fcf1a0"><path d="M 79.871094 89.773438 L 149.996094 94.429688 L 145.488281 162.316406 L 75.363281 157.664062 Z M 79.871094 89.773438 " clip-rule="nonzero"/></clipPath><clipPath id="f322ccf7e5"><path d="M 79.871094 89.773438 L 149.996094 94.429688 L 145.488281 162.316406 L 75.363281 157.664062 Z M 79.871094 89.773438 " clip-rule="nonzero"/></clipPath></defs><g clip-path="url(#a6b1cfe65e)"><g clip-path="url(#5a57558550)"><g clip-path="url(#ea2bb86e50)"><g clip-path="url(#2103bdc6e9)"><path fill="#1867be" d="M 158.433594 103.816406 C 158.445312 103.664062 158.453125 103.515625 158.386719 103.359375 L 158.394531 103.28125 Z M 92.847656 143.226562 C 92.851562 143.152344 92.859375 143.074219 92.867188 142.925781 C 92.863281 143 92.859375 143.074219 92.847656 143.226562 C 92.863281 143 92.867188 142.925781 92.878906 142.773438 C 92.886719 142.621094 92.898438 142.472656 92.90625 142.320312 L 92.894531 142.546875 L 92.90625 142.320312 C 92.914062 142.246094 92.914062 142.246094 92.917969 142.167969 L 92.921875 142.09375 C 92.921875 142.09375 92.929688 142.019531 92.929688 142.019531 L 92.933594 141.941406 C 92.9375 141.867188 92.941406 141.792969 92.941406 141.792969 L 92.9375 141.867188 C 92.941406 141.792969 92.949219 141.714844 92.953125 141.640625 C 92.921875 137.542969 92.738281 133.433594 92.628906 129.40625 C 92.511719 126.59375 92.390625 123.855469 92.269531 121.117188 C 92.289062 117.402344 92.308594 113.6875 92.324219 110.046875 C 92.285156 106.023438 92.476562 102.015625 92.589844 98.003906 C 92.707031 93.992188 92.972656 89.988281 93.082031 86.054688 C 93.140625 84.007812 93.121094 82.035156 93.105469 79.988281 C 93.128906 79.609375 93.082031 79.226562 93.105469 78.847656 L 96.21875 78.753906 C 99.390625 78.886719 102.484375 79.09375 105.582031 79.222656 C 107.550781 79.277344 109.523438 79.257812 111.417969 79.230469 C 113.3125 79.203125 115.210938 79.179688 117.105469 79.152344 C 119.605469 79.167969 122.175781 79.261719 124.675781 79.277344 C 126.640625 79.332031 128.609375 79.386719 130.574219 79.441406 C 132.542969 79.496094 134.738281 79.488281 136.785156 79.472656 C 139.136719 79.476562 141.480469 79.558594 143.824219 79.636719 C 147.988281 79.6875 152.007812 79.648438 155.953125 79.53125 L 158.378906 79.542969 C 158.316406 80.449219 158.332031 81.359375 158.347656 82.269531 C 158.308594 86.289062 158.421875 90.316406 158.460938 94.261719 C 158.503906 98.207031 158.609375 102.3125 158.726562 106.261719 C 158.84375 110.214844 158.9375 114.46875 158.96875 118.566406 L 159.027344 124.5625 C 159.050781 126.460938 159.078125 128.359375 159.109375 130.179688 L 159.113281 130.105469 C 159.113281 130.105469 159.109375 130.179688 159.101562 130.253906 L 159.125 132.230469 L 159.128906 132.152344 C 159.128906 132.152344 159.125 132.230469 159.125 132.230469 C 159.140625 134.277344 159.078125 136.320312 159.09375 138.371094 C 159.058594 140.035156 159.027344 141.703125 158.984375 143.445312 L 152.773438 143.410156 L 146.636719 143.382812 C 144.515625 143.394531 142.324219 143.324219 140.207031 143.261719 C 138.089844 143.195312 135.890625 143.203125 133.773438 143.136719 L 127.039062 142.992188 C 122.648438 142.929688 118.25 142.941406 113.929688 142.957031 C 111.734375 142.960938 109.53125 143.042969 107.332031 143.050781 L 100.878906 143.226562 C 98.230469 143.203125 95.5 143.25 92.835938 143.378906 C 92.84375 143.300781 92.84375 143.300781 92.847656 143.226562 Z M 92.847656 143.226562 " fill-opacity="1" fill-rule="nonzero"/></g></g></g></g><g clip-path="url(#e57aa9144e)"><g clip-path="url(#09ff9c4fa3)"><g clip-path="url(#4457fcf1a0)"><g clip-path="url(#f322ccf7e5)"><path fill="#37a75c" d="M 145.089844 118.375 C 145.101562 118.222656 145.109375 118.074219 145.042969 117.917969 L 145.050781 117.84375 Z M 79.503906 157.785156 C 79.507812 157.710938 79.515625 157.632812 79.523438 157.484375 C 79.519531 157.558594 79.515625 157.632812 79.503906 157.785156 C 79.519531 157.558594 79.523438 157.484375 79.535156 157.332031 C 79.542969 157.179688 79.554688 157.03125 79.5625 156.878906 L 79.550781 157.105469 L 79.5625 156.878906 C 79.570312 156.804688 79.570312 156.804688 79.574219 156.726562 L 79.578125 156.652344 C 79.578125 156.652344 79.582031 156.578125 79.582031 156.578125 L 79.589844 156.5 C 79.59375 156.425781 79.597656 156.351562 79.597656 156.351562 L 79.59375 156.425781 C 79.597656 156.351562 79.605469 156.273438 79.609375 156.199219 C 79.578125 152.101562 79.394531 147.992188 79.285156 143.964844 C 79.167969 141.152344 79.046875 138.414062 78.925781 135.675781 C 78.945312 131.960938 78.964844 128.246094 78.976562 124.605469 C 78.941406 120.582031 79.132812 116.574219 79.246094 112.5625 C 79.363281 108.550781 79.628906 104.550781 79.738281 100.613281 C 79.796875 98.570312 79.777344 96.59375 79.761719 94.546875 C 79.785156 94.167969 79.734375 93.785156 79.761719 93.410156 L 82.875 93.3125 C 86.046875 93.445312 89.140625 93.652344 92.238281 93.78125 C 94.207031 93.835938 96.175781 93.816406 98.074219 93.789062 C 99.96875 93.765625 101.867188 93.738281 103.761719 93.710938 C 106.261719 93.726562 108.832031 93.820312 111.332031 93.835938 C 113.296875 93.890625 115.265625 93.945312 117.230469 94 C 119.199219 94.054688 121.394531 94.046875 123.441406 94.03125 C 125.792969 94.035156 128.136719 94.117188 130.480469 94.195312 C 134.644531 94.246094 138.660156 94.207031 142.609375 94.089844 L 145.035156 94.101562 C 144.972656 95.007812 144.988281 95.917969 145.003906 96.828125 C 144.964844 100.847656 145.078125 104.875 145.117188 108.820312 C 145.160156 112.765625 145.265625 116.871094 145.382812 120.820312 C 145.5 124.773438 145.59375 129.027344 145.625 133.125 L 145.683594 139.121094 C 145.707031 141.019531 145.734375 142.917969 145.765625 144.738281 L 145.769531 144.664062 C 145.769531 144.664062 145.765625 144.738281 145.757812 144.816406 L 145.78125 146.789062 L 145.785156 146.710938 C 145.785156 146.710938 145.78125 146.789062 145.78125 146.789062 C 145.796875 148.835938 145.734375 150.882812 145.75 152.929688 C 145.714844 154.597656 145.679688 156.261719 145.640625 158.003906 L 139.429688 157.972656 L 133.292969 157.941406 C 131.171875 157.953125 128.980469 157.882812 126.863281 157.820312 C 124.742188 157.753906 122.546875 157.761719 120.429688 157.695312 L 113.695312 157.550781 C 109.304688 157.488281 104.90625 157.5 100.585938 157.515625 C 98.390625 157.523438 96.1875 157.601562 93.988281 157.609375 L 87.535156 157.789062 C 84.886719 157.761719 82.15625 157.808594 79.492188 157.9375 C 79.5 157.859375 79.5 157.859375 79.503906 157.785156 Z M 79.503906 157.785156 " fill-opacity="1" fill-rule="nonzero"/></g></g></g></g></svg>