<svg xmlns="http://www.w3.org/2000/svg" xmlns:xlink="http://www.w3.org/1999/xlink" zoomAndPan="magnify" preserveAspectRatio="xMidYMid meet" version="1.0" viewBox="84.4 79.85 188.36 13.46"><defs><clipPath id="f236042d95"><path d="M 84.398438 79.847656 L 112.074219 79.847656 L 112.074219 93.3125 L 84.398438 93.3125 Z M 84.398438 79.847656 " clip-rule="nonzero"/></clipPath><clipPath id="0bf347bb8c"><path d="M 124.40625 79.847656 L 152.082031 79.847656 L 152.082031 93.3125 L 124.40625 93.3125 Z M 124.40625 79.847656 " clip-rule="nonzero"/></clipPath><clipPath id="b8b868083a"><path d="M 164.632812 79.847656 L 192.308594 79.847656 L 192.308594 93.3125 L 164.632812 93.3125 Z M 164.632812 79.847656 " clip-rule="nonzero"/></clipPath><clipPath id="2567822be2"><path d="M 204.859375 79.847656 L 232.535156 79.847656 L 232.535156 93.3125 L 204.859375 93.3125 Z M 204.859375 79.847656 " clip-rule="nonzero"/></clipPath><clipPath id="339c30edd4"><path d="M 245.085938 79.847656 L 272.761719 79.847656 L 272.761719 93.3125 L 245.085938 93.3125 Z M 245.085938 79.847656 " clip-rule="nonzero"/></clipPath></defs><g clip-path="url(#f236042d95)"><path fill="#37a75b" d="M 112.054688 79.847656 C 112.054688 87.285156 105.863281 93.3125 98.222656 93.3125 C 90.582031 93.3125 84.414062 87.285156 84.414062 79.847656 Z M 112.054688 79.847656 " fill-opacity="1" fill-rule="nonzero"/></g><g clip-path="url(#0bf347bb8c)"><path fill="#1967be" d="M 152.0625 79.847656 C 152.0625 87.285156 145.871094 93.3125 138.230469 93.3125 C 130.589844 93.3125 124.421875 87.285156 124.421875 79.847656 Z M 152.0625 79.847656 " fill-opacity="1" fill-rule="nonzero"/></g><g clip-path="url(#b8b868083a)"><path fill="#ec709a" d="M 192.289062 79.847656 C 192.289062 87.285156 186.097656 93.3125 178.457031 93.3125 C 170.816406 93.3125 164.648438 87.285156 164.648438 79.847656 Z M 192.289062 79.847656 " fill-opacity="1" fill-rule="nonzero"/></g><g clip-path="url(#2567822be2)"><path fill="#ffe683" d="M 232.519531 79.847656 C 232.519531 87.285156 226.328125 93.3125 218.6875 93.3125 C 211.046875 93.3125 204.878906 87.285156 204.878906 79.847656 Z M 232.519531 79.847656 " fill-opacity="1" fill-rule="nonzero"/></g><g clip-path="url(#339c30edd4)"><path fill="#b1a1ed" d="M 272.746094 79.847656 C 272.746094 87.285156 266.554688 93.3125 258.914062 93.3125 C 251.273438 93.3125 245.105469 87.285156 245.105469 79.847656 Z M 272.746094 79.847656 " fill-opacity="1" fill-rule="nonzero"/></g></svg>