<svg xmlns="http://www.w3.org/2000/svg" xmlns:xlink="http://www.w3.org/1999/xlink" zoomAndPan="magnify" preserveAspectRatio="xMidYMid meet" version="1.0" viewBox="316.96 143.26 145.82 28.35"><defs><g/><clipPath id="80993db88f"><path d="M 316.960938 143.261719 L 462.785156 143.261719 L 462.785156 171.480469 L 316.960938 171.480469 Z M 316.960938 143.261719 " clip-rule="nonzero"/></clipPath><clipPath id="92ed66d768"><path d="M 316.960938 143.328125 L 462.785156 143.328125 L 462.785156 143.683594 L 316.960938 143.683594 Z M 462.425781 143.683594 L 462.785156 143.683594 L 462.785156 171.1875 L 462.425781 171.1875 Z M 316.960938 143.683594 L 317.3125 143.683594 L 317.3125 171.1875 L 316.960938 171.1875 Z M 316.960938 171.1875 L 462.785156 171.1875 L 462.785156 171.550781 L 316.960938 171.550781 Z M 316.960938 171.1875 " clip-rule="nonzero"/></clipPath></defs><g clip-path="url(#80993db88f)"><path fill="#fefefe" d="M 316.960938 143.261719 L 462.761719 143.261719 L 462.761719 171.609375 L 316.960938 171.609375 Z M 316.960938 143.261719 " fill-opacity="1" fill-rule="nonzero"/></g><g clip-path="url(#92ed66d768)"><path fill="#000000" d="M 316.960938 143.328125 L 462.78125 143.328125 L 462.78125 171.519531 L 316.960938 171.519531 Z M 316.960938 143.328125 " fill-opacity="1" fill-rule="nonzero"/></g><g fill="#000000" fill-opacity="1"><g transform="translate(345.902353, 161.129847)"><g><path d="M 7.25 -8.359375 C 7.28125 -8.359375 7.304688 -8.34375 7.328125 -8.3125 C 7.347656 -8.289062 7.347656 -8.257812 7.328125 -8.21875 L 4.4375 -0.140625 C 4.40625 -0.046875 4.332031 0 4.21875 0 L 3.625 0 C 3.476562 0 3.394531 -0.046875 3.375 -0.140625 L 0.546875 -8.21875 C 0.546875 -8.226562 0.546875 -8.242188 0.546875 -8.265625 C 0.546875 -8.285156 0.554688 -8.304688 0.578125 -8.328125 C 0.597656 -8.347656 0.625 -8.359375 0.65625 -8.359375 L 1.234375 -8.359375 C 1.316406 -8.359375 1.367188 -8.320312 1.390625 -8.25 L 3.875 -1.109375 C 3.894531 -1.046875 3.925781 -1.015625 3.96875 -1.015625 C 4 -1.015625 4.023438 -1.050781 4.046875 -1.125 L 6.578125 -8.25 C 6.597656 -8.320312 6.644531 -8.359375 6.71875 -8.359375 Z M 7.25 -8.359375 "/></g></g></g><g fill="#000000" fill-opacity="1"><g transform="translate(353.789792, 161.129847)"><g><path d="M 1.90625 -8.359375 C 1.945312 -8.359375 1.972656 -8.347656 1.984375 -8.328125 C 2.003906 -8.304688 2.015625 -8.269531 2.015625 -8.21875 L 2.015625 -0.171875 C 2.015625 -0.0976562 2.003906 -0.0507812 1.984375 -0.03125 C 1.960938 -0.0078125 1.914062 0 1.84375 0 L 1.328125 0 C 1.265625 0 1.222656 -0.0078125 1.203125 -0.03125 C 1.179688 -0.0507812 1.171875 -0.0859375 1.171875 -0.140625 L 1.171875 -8.21875 C 1.171875 -8.269531 1.179688 -8.304688 1.203125 -8.328125 C 1.222656 -8.347656 1.253906 -8.359375 1.296875 -8.359375 Z M 1.90625 -8.359375 "/></g></g></g><g fill="#000000" fill-opacity="1"><g transform="translate(356.978571, 161.129847)"><g><path d="M 1.171875 -8.21875 C 1.171875 -8.269531 1.179688 -8.304688 1.203125 -8.328125 C 1.222656 -8.347656 1.253906 -8.359375 1.296875 -8.359375 L 6.203125 -8.359375 C 6.265625 -8.359375 6.296875 -8.320312 6.296875 -8.25 L 6.28125 -7.796875 C 6.28125 -7.753906 6.269531 -7.722656 6.25 -7.703125 C 6.238281 -7.691406 6.210938 -7.6875 6.171875 -7.6875 L 2.15625 -7.6875 C 2.101562 -7.6875 2.066406 -7.675781 2.046875 -7.65625 C 2.023438 -7.644531 2.015625 -7.613281 2.015625 -7.5625 L 2.015625 -4.65625 C 2.015625 -4.613281 2.023438 -4.582031 2.046875 -4.5625 C 2.066406 -4.550781 2.097656 -4.546875 2.140625 -4.546875 L 5.1875 -4.546875 C 5.226562 -4.546875 5.253906 -4.535156 5.265625 -4.515625 C 5.285156 -4.503906 5.296875 -4.484375 5.296875 -4.453125 L 5.296875 -3.984375 C 5.296875 -3.941406 5.285156 -3.914062 5.265625 -3.90625 C 5.253906 -3.894531 5.226562 -3.890625 5.1875 -3.890625 L 2.125 -3.890625 C 2.09375 -3.890625 2.066406 -3.878906 2.046875 -3.859375 C 2.023438 -3.847656 2.015625 -3.820312 2.015625 -3.78125 L 2.015625 -0.78125 C 2.015625 -0.738281 2.019531 -0.707031 2.03125 -0.6875 C 2.050781 -0.675781 2.082031 -0.671875 2.125 -0.671875 L 6.328125 -0.671875 C 6.378906 -0.671875 6.410156 -0.664062 6.421875 -0.65625 C 6.441406 -0.644531 6.453125 -0.617188 6.453125 -0.578125 L 6.453125 -0.09375 C 6.453125 -0.03125 6.414062 0 6.34375 0 L 1.3125 0 C 1.257812 0 1.222656 -0.0078125 1.203125 -0.03125 C 1.179688 -0.0507812 1.171875 -0.0859375 1.171875 -0.140625 Z M 1.171875 -8.21875 "/></g></g></g><g fill="#000000" fill-opacity="1"><g transform="translate(363.987121, 161.129847)"><g><path d="M 10.984375 -8.359375 C 11.035156 -8.359375 11.070312 -8.34375 11.09375 -8.3125 C 11.113281 -8.28125 11.117188 -8.242188 11.109375 -8.203125 L 8.78125 -0.140625 C 8.75 -0.046875 8.675781 0 8.5625 0 L 8.015625 0 C 7.878906 0 7.796875 -0.046875 7.765625 -0.140625 L 5.875 -6.890625 C 5.863281 -6.929688 5.851562 -6.953125 5.84375 -6.953125 C 5.832031 -6.953125 5.820312 -6.929688 5.8125 -6.890625 L 3.875 -0.140625 C 3.84375 -0.046875 3.769531 0 3.65625 0 L 3.09375 0 C 2.957031 0 2.878906 -0.046875 2.859375 -0.140625 L 0.578125 -8.1875 C 0.578125 -8.195312 0.570312 -8.203125 0.5625 -8.203125 C 0.5625 -8.210938 0.566406 -8.222656 0.578125 -8.234375 C 0.578125 -8.316406 0.617188 -8.359375 0.703125 -8.359375 L 1.25 -8.359375 C 1.300781 -8.359375 1.335938 -8.347656 1.359375 -8.328125 C 1.378906 -8.316406 1.398438 -8.289062 1.421875 -8.25 L 3.359375 -1.3125 C 3.378906 -1.226562 3.398438 -1.1875 3.421875 -1.1875 C 3.441406 -1.1875 3.46875 -1.226562 3.5 -1.3125 L 5.46875 -8.25 C 5.5 -8.320312 5.554688 -8.359375 5.640625 -8.359375 L 6.140625 -8.359375 C 6.191406 -8.359375 6.226562 -8.347656 6.25 -8.328125 C 6.269531 -8.316406 6.289062 -8.289062 6.3125 -8.25 L 8.25 -1.296875 C 8.28125 -1.222656 8.304688 -1.1875 8.328125 -1.1875 C 8.347656 -1.1875 8.367188 -1.222656 8.390625 -1.296875 L 10.359375 -8.25 C 10.378906 -8.320312 10.4375 -8.359375 10.53125 -8.359375 Z M 10.984375 -8.359375 "/></g></g></g><g fill="#000000" fill-opacity="1"><g transform="translate(375.649261, 161.129847)"><g/></g></g><g fill="#000000" fill-opacity="1"><g transform="translate(378.094368, 161.129847)"><g><path d="M 1.3125 0 C 1.21875 0 1.171875 -0.046875 1.171875 -0.140625 L 1.171875 -8.21875 C 1.171875 -8.269531 1.179688 -8.304688 1.203125 -8.328125 C 1.222656 -8.347656 1.253906 -8.359375 1.296875 -8.359375 L 2.046875 -8.359375 C 2.097656 -8.359375 2.132812 -8.347656 2.15625 -8.328125 C 2.1875 -8.316406 2.210938 -8.289062 2.234375 -8.25 L 4.9375 -1.359375 C 4.96875 -1.273438 5 -1.234375 5.03125 -1.234375 C 5.050781 -1.234375 5.078125 -1.273438 5.109375 -1.359375 L 7.84375 -8.234375 C 7.863281 -8.316406 7.910156 -8.359375 7.984375 -8.359375 L 8.796875 -8.359375 C 8.867188 -8.359375 8.90625 -8.3125 8.90625 -8.21875 L 8.90625 -0.140625 C 8.90625 -0.046875 8.859375 0 8.765625 0 L 8.203125 0 C 8.148438 0 8.113281 -0.0078125 8.09375 -0.03125 C 8.070312 -0.0507812 8.0625 -0.0859375 8.0625 -0.140625 L 8.0625 -6.78125 C 8.0625 -6.8125 8.050781 -6.820312 8.03125 -6.8125 C 8.019531 -6.8125 8.015625 -6.800781 8.015625 -6.78125 L 5.390625 -0.140625 C 5.359375 -0.046875 5.296875 0 5.203125 0 L 4.75 0 C 4.6875 0 4.640625 -0.0078125 4.609375 -0.03125 C 4.578125 -0.0507812 4.550781 -0.0820312 4.53125 -0.125 L 1.96875 -6.71875 C 1.957031 -6.75 1.945312 -6.765625 1.9375 -6.765625 C 1.925781 -6.765625 1.921875 -6.75 1.921875 -6.71875 L 1.921875 -0.125 C 1.921875 -0.0820312 1.910156 -0.0507812 1.890625 -0.03125 C 1.867188 -0.0078125 1.832031 0 1.78125 0 Z M 1.3125 0 "/></g></g></g><g fill="#000000" fill-opacity="1"><g transform="translate(388.179022, 161.129847)"><g><path d="M 6.84375 -8.359375 C 6.882812 -8.359375 6.910156 -8.34375 6.921875 -8.3125 C 6.941406 -8.28125 6.941406 -8.25 6.921875 -8.21875 L 4.234375 -3.6875 C 4.210938 -3.65625 4.195312 -3.613281 4.1875 -3.5625 C 4.175781 -3.519531 4.171875 -3.460938 4.171875 -3.390625 L 4.171875 -0.1875 C 4.171875 -0.0625 4.109375 0 3.984375 0 L 3.5 0 C 3.382812 0 3.328125 -0.046875 3.328125 -0.140625 L 3.328125 -3.3125 C 3.328125 -3.375 3.320312 -3.421875 3.3125 -3.453125 C 3.300781 -3.492188 3.28125 -3.535156 3.25 -3.578125 L 0.515625 -8.1875 C 0.503906 -8.207031 0.5 -8.234375 0.5 -8.265625 C 0.5 -8.328125 0.539062 -8.359375 0.625 -8.359375 L 1.21875 -8.359375 C 1.28125 -8.359375 1.320312 -8.347656 1.34375 -8.328125 C 1.375 -8.316406 1.40625 -8.285156 1.4375 -8.234375 L 3.640625 -4.46875 C 3.679688 -4.375 3.726562 -4.328125 3.78125 -4.328125 C 3.800781 -4.328125 3.835938 -4.363281 3.890625 -4.4375 L 6.078125 -8.234375 C 6.109375 -8.285156 6.132812 -8.316406 6.15625 -8.328125 C 6.1875 -8.347656 6.234375 -8.359375 6.296875 -8.359375 Z M 6.84375 -8.359375 "/></g></g></g><g fill="#000000" fill-opacity="1"><g transform="translate(395.615752, 161.129847)"><g/></g></g><g fill="#000000" fill-opacity="1"><g transform="translate(398.060859, 161.129847)"><g><path d="M 10.984375 -8.359375 C 11.035156 -8.359375 11.070312 -8.34375 11.09375 -8.3125 C 11.113281 -8.28125 11.117188 -8.242188 11.109375 -8.203125 L 8.78125 -0.140625 C 8.75 -0.046875 8.675781 0 8.5625 0 L 8.015625 0 C 7.878906 0 7.796875 -0.046875 7.765625 -0.140625 L 5.875 -6.890625 C 5.863281 -6.929688 5.851562 -6.953125 5.84375 -6.953125 C 5.832031 -6.953125 5.820312 -6.929688 5.8125 -6.890625 L 3.875 -0.140625 C 3.84375 -0.046875 3.769531 0 3.65625 0 L 3.09375 0 C 2.957031 0 2.878906 -0.046875 2.859375 -0.140625 L 0.578125 -8.1875 C 0.578125 -8.195312 0.570312 -8.203125 0.5625 -8.203125 C 0.5625 -8.210938 0.566406 -8.222656 0.578125 -8.234375 C 0.578125 -8.316406 0.617188 -8.359375 0.703125 -8.359375 L 1.25 -8.359375 C 1.300781 -8.359375 1.335938 -8.347656 1.359375 -8.328125 C 1.378906 -8.316406 1.398438 -8.289062 1.421875 -8.25 L 3.359375 -1.3125 C 3.378906 -1.226562 3.398438 -1.1875 3.421875 -1.1875 C 3.441406 -1.1875 3.46875 -1.226562 3.5 -1.3125 L 5.46875 -8.25 C 5.5 -8.320312 5.554688 -8.359375 5.640625 -8.359375 L 6.140625 -8.359375 C 6.191406 -8.359375 6.226562 -8.347656 6.25 -8.328125 C 6.269531 -8.316406 6.289062 -8.289062 6.3125 -8.25 L 8.25 -1.296875 C 8.28125 -1.222656 8.304688 -1.1875 8.328125 -1.1875 C 8.347656 -1.1875 8.367188 -1.222656 8.390625 -1.296875 L 10.359375 -8.25 C 10.378906 -8.320312 10.4375 -8.359375 10.53125 -8.359375 Z M 10.984375 -8.359375 "/></g></g></g><g fill="#000000" fill-opacity="1"><g transform="translate(409.722998, 161.129847)"><g><path d="M 4.296875 0.109375 C 3.191406 0.109375 2.328125 -0.253906 1.703125 -0.984375 C 1.085938 -1.722656 0.78125 -2.773438 0.78125 -4.140625 C 0.78125 -5.054688 0.921875 -5.835938 1.203125 -6.484375 C 1.492188 -7.128906 1.898438 -7.617188 2.421875 -7.953125 C 2.953125 -8.296875 3.578125 -8.46875 4.296875 -8.46875 C 5.023438 -8.46875 5.648438 -8.300781 6.171875 -7.96875 C 6.691406 -7.632812 7.085938 -7.144531 7.359375 -6.5 C 7.640625 -5.851562 7.78125 -5.070312 7.78125 -4.15625 C 7.78125 -2.789062 7.472656 -1.738281 6.859375 -1 C 6.242188 -0.257812 5.390625 0.109375 4.296875 0.109375 Z M 4.3125 -0.578125 C 5.175781 -0.578125 5.820312 -0.867188 6.25 -1.453125 C 6.675781 -2.035156 6.890625 -2.9375 6.890625 -4.15625 C 6.890625 -6.582031 6.023438 -7.796875 4.296875 -7.796875 C 2.546875 -7.796875 1.671875 -6.582031 1.671875 -4.15625 C 1.671875 -1.769531 2.550781 -0.578125 4.3125 -0.578125 Z M 4.3125 -0.578125 "/></g></g></g><g fill="#000000" fill-opacity="1"><g transform="translate(418.30904, 161.129847)"><g><path d="M 6.9375 -0.1875 C 6.945312 -0.175781 6.953125 -0.160156 6.953125 -0.140625 C 6.953125 -0.0976562 6.941406 -0.0625 6.921875 -0.03125 C 6.898438 -0.0078125 6.867188 0 6.828125 0 L 6.203125 0 C 6.140625 0 6.085938 -0.0390625 6.046875 -0.125 L 4.53125 -3.765625 C 4.507812 -3.804688 4.476562 -3.835938 4.4375 -3.859375 C 4.40625 -3.878906 4.351562 -3.890625 4.28125 -3.890625 L 2.15625 -3.890625 C 2.0625 -3.890625 2.015625 -3.847656 2.015625 -3.765625 L 2.015625 -0.15625 C 2.015625 -0.09375 2.003906 -0.0507812 1.984375 -0.03125 C 1.960938 -0.0078125 1.925781 0 1.875 0 L 1.3125 0 C 1.21875 0 1.171875 -0.046875 1.171875 -0.140625 L 1.171875 -8.21875 C 1.171875 -8.269531 1.179688 -8.304688 1.203125 -8.328125 C 1.222656 -8.347656 1.253906 -8.359375 1.296875 -8.359375 L 4.34375 -8.359375 C 5.195312 -8.359375 5.859375 -8.175781 6.328125 -7.8125 C 6.804688 -7.445312 7.046875 -6.921875 7.046875 -6.234375 C 7.046875 -5.617188 6.882812 -5.132812 6.5625 -4.78125 C 6.238281 -4.4375 5.84375 -4.195312 5.375 -4.0625 C 5.332031 -4.050781 5.316406 -4.015625 5.328125 -3.953125 Z M 3.984375 -4.546875 C 4.722656 -4.546875 5.269531 -4.671875 5.625 -4.921875 C 5.976562 -5.179688 6.15625 -5.585938 6.15625 -6.140625 C 6.15625 -7.179688 5.535156 -7.703125 4.296875 -7.703125 L 2.15625 -7.703125 C 2.0625 -7.703125 2.015625 -7.671875 2.015625 -7.609375 L 2.015625 -4.65625 C 2.015625 -4.582031 2.050781 -4.546875 2.125 -4.546875 Z M 3.984375 -4.546875 "/></g></g></g><g fill="#000000" fill-opacity="1"><g transform="translate(426.072535, 161.129847)"><g><path d="M 7.25 -0.125 C 7.257812 -0.09375 7.265625 -0.0703125 7.265625 -0.0625 C 7.265625 -0.0195312 7.238281 0 7.1875 0 L 6.46875 0 C 6.375 0 6.316406 -0.0234375 6.296875 -0.078125 L 3.640625 -4.40625 C 3.617188 -4.4375 3.597656 -4.453125 3.578125 -4.453125 C 3.546875 -4.453125 3.515625 -4.429688 3.484375 -4.390625 L 2.109375 -2.84375 C 2.066406 -2.8125 2.039062 -2.78125 2.03125 -2.75 C 2.019531 -2.726562 2.015625 -2.691406 2.015625 -2.640625 L 2.015625 -0.140625 C 2.015625 -0.046875 1.96875 0 1.875 0 L 1.3125 0 C 1.257812 0 1.222656 -0.0078125 1.203125 -0.03125 C 1.179688 -0.0507812 1.171875 -0.0859375 1.171875 -0.140625 L 1.171875 -8.25 C 1.171875 -8.320312 1.207031 -8.359375 1.28125 -8.359375 L 1.921875 -8.359375 C 1.984375 -8.359375 2.015625 -8.320312 2.015625 -8.25 L 2.015625 -3.90625 C 2.015625 -3.820312 2.050781 -3.816406 2.125 -3.890625 L 6.0625 -8.28125 C 6.09375 -8.3125 6.117188 -8.332031 6.140625 -8.34375 C 6.171875 -8.351562 6.207031 -8.359375 6.25 -8.359375 L 6.890625 -8.359375 C 6.941406 -8.359375 6.972656 -8.34375 6.984375 -8.3125 C 6.992188 -8.289062 6.984375 -8.265625 6.953125 -8.234375 L 4.203125 -5.1875 C 4.179688 -5.164062 4.171875 -5.144531 4.171875 -5.125 C 4.171875 -5.113281 4.179688 -5.097656 4.203125 -5.078125 Z M 7.25 -0.125 "/></g></g></g></svg>