<svg xmlns="http://www.w3.org/2000/svg" xmlns:xlink="http://www.w3.org/1999/xlink" zoomAndPan="magnify" preserveAspectRatio="xMidYMid meet" version="1.0" viewBox="76 81 302.41 453.43"><defs><clipPath id="2beb8e5c4f"><path d="M 76 81 L 378.414062 81 L 378.414062 219.90625 L 76 219.90625 Z M 76 81 " clip-rule="nonzero"/></clipPath><clipPath id="ae55067457"><path d="M 79 83 L 376 83 L 376 219.90625 L 79 219.90625 Z M 79 83 " clip-rule="nonzero"/></clipPath><clipPath id="6b851b8562"><path d="M 76 81 L 378.414062 81 L 378.414062 219.90625 L 76 219.90625 Z M 76 81 " clip-rule="nonzero"/></clipPath></defs><g clip-path="url(#2beb8e5c4f)"><path fill="#ffe683" d="M 371.878906 519.726562 C 368.882812 519.726562 366.140625 519.722656 363.394531 519.726562 C 336.90625 519.792969 310.417969 519.914062 283.929688 519.898438 C 268.082031 519.890625 252.230469 519.769531 236.386719 519.507812 C 227.535156 519.363281 218.695312 518.730469 209.847656 518.507812 C 200.550781 518.273438 191.246094 518.285156 181.945312 518.160156 C 157.320312 517.835938 132.695312 517.480469 108.070312 517.179688 C 99.734375 517.078125 91.402344 517.117188 83.066406 517.09375 C 82.332031 517.089844 81.59375 517.09375 80.714844 517.09375 C 80.636719 516.507812 80.511719 516.019531 80.515625 515.535156 C 80.617188 491.335938 80.914062 467.136719 80.800781 442.941406 C 80.65625 413.449219 80.144531 383.960938 79.839844 354.472656 C 79.640625 335.40625 79.496094 316.34375 79.378906 297.277344 C 79.269531 279.703125 79.042969 262.125 79.214844 244.554688 C 79.355469 230.109375 79.992188 215.671875 80.433594 201.230469 C 81.191406 176.511719 81.5625 151.792969 81.277344 127.0625 C 81.238281 123.5 81.273438 119.933594 81.273438 116.152344 C 81.632812 116.097656 82.1875 115.957031 82.746094 115.945312 C 87.804688 115.839844 92.863281 115.769531 97.921875 115.664062 C 108.410156 115.453125 118.898438 115.015625 129.382812 115.0625 C 141.433594 115.117188 153.480469 115.785156 165.53125 115.839844 C 177.730469 115.894531 189.933594 115.671875 202.125 115.292969 C 211.421875 115.003906 220.710938 114.585938 230.015625 114.851562 C 250.101562 115.425781 270.191406 115.359375 290.277344 114.863281 C 299.425781 114.636719 308.578125 114.542969 317.726562 114.3125 C 326.351562 114.097656 334.976562 113.722656 343.605469 113.515625 C 353.492188 113.277344 363.386719 113.152344 373.277344 112.980469 C 373.78125 112.96875 374.289062 112.976562 375.046875 112.976562 C 375.046875 113.992188 375.058594 114.863281 375.042969 115.730469 C 374.644531 138.144531 374.117188 160.554688 373.867188 182.96875 C 373.550781 211.265625 373.335938 239.566406 373.296875 267.867188 C 373.25 305.699219 373.0625 343.527344 372.117188 381.355469 C 371.300781 413.964844 370.863281 446.578125 370.933594 479.203125 C 370.960938 491.34375 371.074219 503.476562 371.867188 515.597656 C 371.949219 516.84375 371.878906 518.101562 371.878906 519.726562 Z M 81.921875 106.753906 C 91.738281 106.789062 101.558594 106.996094 111.375 106.8125 C 130.5625 106.449219 149.742188 105.765625 168.929688 105.40625 C 187.96875 105.046875 207.015625 104.796875 226.058594 104.738281 C 241.082031 104.695312 256.105469 105 271.132812 105.175781 C 284.890625 105.339844 298.65625 105.792969 312.410156 105.664062 C 332.496094 105.484375 352.574219 104.875 372.65625 105.679688 C 373.445312 105.710938 374.238281 105.683594 375.253906 105.683594 C 375.253906 104.519531 375.257812 103.636719 375.25 102.753906 C 375.214844 97.992188 375.1875 93.226562 375.132812 88.460938 C 375.097656 85.589844 374.929688 85.433594 372.136719 85.234375 C 371.914062 85.21875 371.691406 85.207031 371.46875 85.195312 C 358.761719 84.457031 346.042969 84.378906 333.320312 84.457031 C 317.328125 84.558594 301.335938 84.679688 285.34375 84.621094 C 264.21875 84.542969 243.09375 84.246094 221.96875 84.136719 C 202.328125 84.039062 182.6875 83.898438 163.050781 84.085938 C 136.644531 84.339844 110.242188 84.886719 83.839844 85.324219 C 82.746094 85.34375 81.652344 85.550781 80.25 85.703125 C 80.496094 92.726562 80.738281 99.605469 80.984375 106.613281 C 81.480469 106.691406 81.699219 106.753906 81.921875 106.753906 Z M 92.835938 101.359375 C 90.148438 101.3125 88 99.164062 88.039062 96.554688 C 88.082031 93.382812 90.46875 90.941406 93.46875 91.007812 C 96.195312 91.066406 97.898438 93.03125 97.851562 96.074219 C 97.800781 99.351562 95.847656 101.410156 92.835938 101.359375 Z M 108.101562 89.71875 C 111.109375 89.707031 113.464844 92.367188 113.394531 95.695312 C 113.332031 98.59375 110.597656 101.269531 107.75 101.214844 C 104.972656 101.160156 102.648438 98.4375 102.648438 95.226562 C 102.644531 92.03125 104.921875 89.730469 108.101562 89.71875 Z M 127.789062 95.460938 C 127.734375 98.773438 125.320312 101.332031 122.285156 101.296875 C 119.390625 101.265625 117.078125 98.515625 117.105469 95.144531 C 117.128906 92.367188 119.570312 90.195312 122.648438 90.214844 C 125.710938 90.234375 127.835938 92.40625 127.789062 95.460938 Z M 80.449219 524.960938 C 80.523438 526.964844 80.6875 527.308594 82.667969 527.703125 C 86.160156 528.390625 89.679688 529.214844 93.21875 529.378906 C 108.96875 530.109375 124.726562 530.78125 140.492188 531.171875 C 152.09375 531.457031 163.703125 531.296875 175.308594 531.28125 C 199.339844 531.253906 223.371094 531.125 247.402344 531.160156 C 262.28125 531.179688 277.15625 531.546875 292.035156 531.542969 C 317.332031 531.53125 342.625 531.347656 367.921875 531.238281 C 368.441406 531.234375 368.960938 531.222656 369.480469 531.207031 C 370.515625 531.175781 371.160156 530.632812 371.378906 529.644531 C 371.898438 527.320312 372.105469 524.976562 371.863281 522.417969 C 371.167969 522.417969 370.59375 522.40625 370.019531 522.417969 C 365.78125 522.515625 361.542969 522.699219 357.304688 522.707031 C 329.03125 522.753906 300.761719 522.789062 272.488281 522.773438 C 261.332031 522.765625 250.167969 522.71875 239.015625 522.484375 C 229.347656 522.28125 219.6875 521.664062 210.023438 521.453125 C 197.15625 521.171875 184.285156 521.105469 171.414062 520.953125 C 141.882812 520.605469 112.347656 520.261719 82.816406 519.921875 C 82.09375 519.914062 81.367188 519.917969 80.433594 519.917969 C 80.433594 521.722656 80.386719 523.34375 80.449219 524.960938 Z M 82.191406 113.347656 C 90.671875 113.179688 99.164062 113.242188 107.628906 112.785156 C 123.324219 111.933594 139.011719 112.382812 154.707031 112.644531 C 163.855469 112.796875 173.003906 113.117188 182.148438 113.015625 C 192.410156 112.898438 202.667969 112.234375 212.929688 112.105469 C 223.042969 111.976562 233.160156 112.304688 243.277344 112.285156 C 263.289062 112.242188 283.300781 112.132812 303.3125 111.976562 C 309.410156 111.925781 315.507812 111.617188 321.605469 111.445312 C 330.078125 111.207031 338.554688 110.917969 347.03125 110.777344 C 355.585938 110.632812 364.140625 110.648438 372.695312 110.582031 C 373.425781 110.578125 374.152344 110.496094 374.949219 110.445312 C 374.949219 109.691406 374.949219 109.085938 374.949219 108.363281 C 372.628906 108.363281 370.480469 108.367188 368.332031 108.363281 C 355.390625 108.335938 342.449219 108.285156 329.503906 108.28125 C 315.074219 108.273438 300.640625 108.410156 286.210938 108.289062 C 273.269531 108.183594 260.328125 107.601562 247.386719 107.605469 C 216.289062 107.617188 185.195312 107.5625 154.109375 108.8125 C 138.949219 109.425781 123.765625 109.550781 108.59375 109.730469 C 100.488281 109.824219 92.378906 109.566406 84.269531 109.472656 C 83.191406 109.460938 82.109375 109.496094 81.03125 109.511719 C 81.03125 110.902344 81.03125 111.996094 81.03125 113.25 C 81.605469 113.300781 81.902344 113.355469 82.191406 113.347656 Z M 105.144531 95.828125 C 105.136719 97.300781 106.527344 98.769531 107.914062 98.753906 C 109.472656 98.738281 110.921875 97.152344 110.894531 95.492188 C 110.867188 93.683594 109.6875 92.351562 108.140625 92.375 C 106.386719 92.402344 105.15625 93.816406 105.144531 95.828125 Z M 122.3125 98.910156 C 123.949219 98.933594 125.429688 97.335938 125.453125 95.527344 C 125.472656 93.816406 124.402344 92.730469 122.71875 92.746094 C 120.8125 92.769531 119.578125 93.941406 119.59375 95.722656 C 119.609375 97.460938 120.824219 98.890625 122.3125 98.910156 Z M 376.429688 306.464844 C 376.039062 327.910156 375.652344 349.355469 375.25 370.800781 C 375.015625 383.085938 374.640625 395.371094 374.519531 407.660156 C 374.222656 437.074219 374.007812 466.492188 373.84375 495.90625 C 373.816406 500.816406 374.253906 505.726562 374.394531 510.640625 C 374.535156 515.625 374.609375 520.613281 374.636719 525.601562 C 374.640625 526.929688 374.441406 528.277344 374.203125 529.589844 C 373.628906 532.746094 372.242188 533.933594 369.035156 533.988281 C 365.015625 534.054688 361 534.046875 356.980469 534.066406 C 333.394531 534.195312 309.804688 534.417969 286.21875 534.425781 C 263.597656 534.429688 240.980469 534.140625 218.359375 534.113281 C 196.1875 534.082031 174.011719 534.339844 151.839844 534.226562 C 138.671875 534.15625 125.503906 533.675781 112.34375 533.253906 C 105.578125 533.039062 98.8125 532.667969 92.066406 532.140625 C 88.597656 531.867188 85.132812 531.253906 81.726562 530.507812 C 77.992188 529.691406 77.277344 528.738281 77.289062 524.976562 C 77.300781 519.6875 77.550781 514.402344 77.574219 509.117188 C 77.660156 491.839844 77.824219 474.5625 77.710938 457.285156 C 77.5 425.335938 77.101562 393.386719 76.808594 361.4375 C 76.601562 338.574219 76.40625 315.710938 76.269531 292.847656 C 76.171875 276.6875 75.910156 260.519531 76.199219 244.367188 C 76.613281 221.285156 77.546875 198.210938 78.101562 175.132812 C 78.566406 155.773438 78.773438 136.410156 78.179688 117.046875 C 78.085938 113.871094 78.1875 110.6875 78.117188 107.507812 C 77.980469 101.40625 77.773438 95.308594 77.625 89.207031 C 77.597656 88.09375 77.625 86.964844 77.757812 85.859375 C 78 83.871094 78.757812 83.085938 80.789062 82.976562 C 86.804688 82.65625 92.824219 82.355469 98.84375 82.160156 C 146.753906 80.589844 194.679688 81.351562 242.597656 81.269531 C 266.109375 81.230469 289.621094 81.578125 313.132812 81.625 C 327.046875 81.648438 340.960938 81.335938 354.875 81.351562 C 360.894531 81.355469 366.917969 81.796875 372.9375 82.042969 C 373.308594 82.058594 373.679688 82.082031 374.050781 82.128906 C 377.023438 82.523438 378.238281 83.832031 378.28125 86.847656 C 378.339844 91.390625 378.417969 95.933594 378.34375 100.476562 C 377.824219 132.941406 377.152344 165.410156 376.761719 197.878906 C 376.4375 224.464844 376.425781 251.050781 376.304688 277.640625 C 376.257812 287.246094 376.296875 296.855469 376.296875 306.460938 C 376.339844 306.464844 376.386719 306.464844 376.429688 306.464844 Z M 371.878906 519.726562 C 371.878906 518.101562 371.949219 516.84375 371.867188 515.597656 C 371.074219 503.476562 370.960938 491.34375 370.933594 479.203125 C 370.863281 446.578125 371.300781 413.964844 372.117188 381.355469 C 373.0625 343.527344 373.25 305.699219 373.296875 267.867188 C 373.335938 239.566406 373.550781 211.265625 373.867188 182.96875 C 374.117188 160.554688 374.644531 138.144531 375.042969 115.730469 C 375.058594 114.863281 375.046875 113.992188 375.046875 112.976562 C 374.289062 112.976562 373.78125 112.96875 373.277344 112.980469 C 363.386719 113.152344 353.492188 113.277344 343.605469 113.515625 C 334.976562 113.722656 326.351562 114.097656 317.726562 114.3125 C 308.578125 114.542969 299.425781 114.636719 290.277344 114.863281 C 270.191406 115.359375 250.101562 115.425781 230.015625 114.851562 C 220.710938 114.585938 211.421875 115.003906 202.125 115.292969 C 189.933594 115.671875 177.730469 115.894531 165.53125 115.839844 C 153.480469 115.785156 141.433594 115.117188 129.382812 115.0625 C 118.898438 115.015625 108.410156 115.453125 97.921875 115.664062 C 92.863281 115.769531 87.804688 115.839844 82.746094 115.945312 C 82.1875 115.957031 81.632812 116.097656 81.273438 116.152344 C 81.273438 119.933594 81.238281 123.5 81.277344 127.0625 C 81.5625 151.792969 81.191406 176.511719 80.433594 201.230469 C 79.992188 215.671875 79.355469 230.109375 79.214844 244.554688 C 79.042969 262.125 79.269531 279.703125 79.378906 297.277344 C 79.496094 316.34375 79.640625 335.40625 79.839844 354.472656 C 80.144531 383.960938 80.65625 413.449219 80.800781 442.941406 C 80.914062 467.136719 80.617188 491.335938 80.515625 515.535156 C 80.511719 516.019531 80.636719 516.507812 80.714844 517.09375 C 81.59375 517.09375 82.332031 517.089844 83.066406 517.09375 C 91.402344 517.117188 99.734375 517.078125 108.070312 517.179688 C 132.695312 517.480469 157.320312 517.835938 181.945312 518.160156 C 191.246094 518.285156 200.550781 518.273438 209.847656 518.507812 C 218.695312 518.730469 227.535156 519.363281 236.386719 519.507812 C 252.230469 519.769531 268.082031 519.890625 283.929688 519.898438 C 310.417969 519.914062 336.90625 519.792969 363.394531 519.726562 C 366.140625 519.722656 368.882812 519.726562 371.878906 519.726562 Z M 80.984375 106.613281 C 81.480469 106.691406 81.699219 106.753906 81.921875 106.753906 C 91.738281 106.789062 101.558594 106.996094 111.375 106.8125 C 130.5625 106.449219 149.742188 105.765625 168.929688 105.40625 C 187.96875 105.046875 207.015625 104.796875 226.058594 104.738281 C 241.082031 104.695312 256.105469 105 271.132812 105.175781 C 284.890625 105.339844 298.65625 105.792969 312.410156 105.664062 C 332.496094 105.484375 352.574219 104.875 372.65625 105.679688 C 373.445312 105.710938 374.238281 105.683594 375.253906 105.683594 C 375.253906 104.519531 375.257812 103.636719 375.25 102.753906 C 375.214844 97.992188 375.1875 93.226562 375.132812 88.460938 C 375.097656 85.589844 374.929688 85.433594 372.136719 85.234375 C 371.914062 85.21875 371.691406 85.207031 371.46875 85.195312 C 358.761719 84.457031 346.042969 84.378906 333.320312 84.457031 C 317.328125 84.558594 301.335938 84.679688 285.34375 84.621094 C 264.21875 84.542969 243.09375 84.246094 221.96875 84.136719 C 202.328125 84.039062 182.6875 83.898438 163.050781 84.085938 C 136.644531 84.339844 110.242188 84.886719 83.839844 85.324219 C 82.746094 85.34375 81.652344 85.550781 80.25 85.703125 C 80.496094 92.726562 80.738281 99.605469 80.984375 106.613281 Z M 80.433594 519.917969 C 80.433594 521.722656 80.386719 523.34375 80.449219 524.960938 C 80.523438 526.964844 80.6875 527.308594 82.667969 527.703125 C 86.160156 528.390625 89.679688 529.214844 93.21875 529.378906 C 108.96875 530.109375 124.726562 530.78125 140.492188 531.171875 C 152.09375 531.457031 163.703125 531.296875 175.308594 531.28125 C 199.339844 531.253906 223.371094 531.125 247.402344 531.160156 C 262.28125 531.179688 277.15625 531.546875 292.035156 531.542969 C 317.332031 531.53125 342.625 531.347656 367.921875 531.238281 C 368.441406 531.234375 368.960938 531.222656 369.480469 531.207031 C 370.515625 531.175781 371.160156 530.632812 371.378906 529.644531 C 371.898438 527.320312 372.105469 524.976562 371.863281 522.417969 C 371.167969 522.417969 370.59375 522.40625 370.019531 522.417969 C 365.78125 522.515625 361.542969 522.699219 357.304688 522.707031 C 329.03125 522.753906 300.761719 522.789062 272.488281 522.773438 C 261.332031 522.765625 250.167969 522.71875 239.015625 522.484375 C 229.347656 522.28125 219.6875 521.664062 210.023438 521.453125 C 197.15625 521.171875 184.285156 521.105469 171.414062 520.953125 C 141.882812 520.605469 112.347656 520.261719 82.816406 519.921875 C 82.09375 519.914062 81.367188 519.917969 80.433594 519.917969 Z M 81.03125 113.25 C 81.605469 113.300781 81.902344 113.355469 82.191406 113.347656 C 90.671875 113.179688 99.164062 113.242188 107.628906 112.785156 C 123.324219 111.933594 139.011719 112.382812 154.707031 112.644531 C 163.855469 112.796875 173.003906 113.117188 182.148438 113.015625 C 192.410156 112.898438 202.667969 112.234375 212.929688 112.105469 C 223.042969 111.976562 233.160156 112.304688 243.277344 112.285156 C 263.289062 112.242188 283.300781 112.132812 303.3125 111.976562 C 309.410156 111.925781 315.507812 111.617188 321.605469 111.445312 C 330.078125 111.207031 338.554688 110.917969 347.03125 110.777344 C 355.585938 110.632812 364.140625 110.648438 372.695312 110.582031 C 373.425781 110.578125 374.152344 110.496094 374.949219 110.445312 C 374.949219 109.691406 374.949219 109.085938 374.949219 108.363281 C 372.628906 108.363281 370.480469 108.367188 368.332031 108.363281 C 355.390625 108.335938 342.449219 108.285156 329.503906 108.28125 C 315.074219 108.273438 300.640625 108.410156 286.210938 108.289062 C 273.269531 108.183594 260.328125 107.601562 247.386719 107.605469 C 216.289062 107.617188 185.195312 107.5625 154.109375 108.8125 C 138.949219 109.425781 123.765625 109.550781 108.59375 109.730469 C 100.488281 109.824219 92.378906 109.566406 84.269531 109.472656 C 83.191406 109.460938 82.109375 109.496094 81.03125 109.511719 C 81.03125 110.902344 81.03125 111.996094 81.03125 113.25 Z M 93.46875 91.007812 C 90.46875 90.941406 88.082031 93.382812 88.039062 96.554688 C 88 99.164062 90.148438 101.3125 92.835938 101.359375 C 95.847656 101.410156 97.800781 99.351562 97.851562 96.074219 C 97.898438 93.03125 96.195312 91.066406 93.46875 91.007812 Z M 102.648438 95.226562 C 102.644531 92.03125 104.921875 89.730469 108.101562 89.71875 C 111.109375 89.707031 113.464844 92.367188 113.394531 95.695312 C 113.332031 98.59375 110.597656 101.269531 107.75 101.214844 C 104.972656 101.160156 102.648438 98.4375 102.648438 95.226562 Z M 108.140625 92.375 C 106.386719 92.402344 105.15625 93.816406 105.144531 95.828125 C 105.136719 97.300781 106.527344 98.769531 107.914062 98.753906 C 109.472656 98.738281 110.921875 97.152344 110.894531 95.492188 C 110.867188 93.683594 109.6875 92.351562 108.140625 92.375 Z M 122.648438 90.214844 C 125.710938 90.234375 127.835938 92.40625 127.789062 95.460938 C 127.734375 98.773438 125.320312 101.332031 122.285156 101.296875 C 119.390625 101.265625 117.078125 98.515625 117.105469 95.144531 C 117.128906 92.367188 119.570312 90.195312 122.648438 90.214844 Z M 119.59375 95.722656 C 119.609375 97.460938 120.824219 98.890625 122.3125 98.910156 C 123.949219 98.933594 125.429688 97.335938 125.453125 95.527344 C 125.472656 93.816406 124.402344 92.730469 122.71875 92.746094 C 120.8125 92.769531 119.578125 93.941406 119.59375 95.722656 Z M 119.59375 95.722656 " fill-opacity="1" fill-rule="nonzero"/></g><g clip-path="url(#ae55067457)"><path fill="#ffffff" d="M 371.878906 519.726562 C 368.882812 519.726562 366.140625 519.722656 363.394531 519.726562 C 336.90625 519.792969 310.417969 519.914062 283.929688 519.898438 C 268.082031 519.890625 252.230469 519.769531 236.386719 519.507812 C 227.535156 519.363281 218.695312 518.730469 209.847656 518.507812 C 200.550781 518.273438 191.246094 518.285156 181.945312 518.160156 C 157.320312 517.835938 132.695312 517.480469 108.070312 517.179688 C 99.734375 517.078125 91.402344 517.117188 83.066406 517.09375 C 82.332031 517.089844 81.59375 517.09375 80.714844 517.09375 C 80.636719 516.507812 80.511719 516.019531 80.515625 515.535156 C 80.617188 491.335938 80.914062 467.136719 80.800781 442.941406 C 80.65625 413.449219 80.144531 383.960938 79.839844 354.472656 C 79.640625 335.40625 79.496094 316.34375 79.378906 297.277344 C 79.269531 279.703125 79.042969 262.125 79.214844 244.554688 C 79.355469 230.109375 79.992188 215.671875 80.433594 201.230469 C 81.191406 176.511719 81.5625 151.792969 81.277344 127.0625 C 81.238281 123.5 81.273438 119.933594 81.273438 116.152344 C 81.632812 116.097656 82.1875 115.957031 82.746094 115.945312 C 87.804688 115.839844 92.863281 115.769531 97.921875 115.664062 C 108.410156 115.453125 118.898438 115.015625 129.382812 115.0625 C 141.433594 115.117188 153.480469 115.785156 165.53125 115.839844 C 177.730469 115.894531 189.933594 115.671875 202.125 115.292969 C 211.421875 115.003906 220.710938 114.585938 230.015625 114.851562 C 250.101562 115.425781 270.191406 115.359375 290.277344 114.863281 C 299.425781 114.636719 308.578125 114.542969 317.726562 114.3125 C 326.351562 114.097656 334.976562 113.722656 343.605469 113.515625 C 353.492188 113.277344 363.386719 113.152344 373.277344 112.980469 C 373.78125 112.96875 374.289062 112.976562 375.046875 112.976562 C 375.046875 113.992188 375.058594 114.863281 375.042969 115.730469 C 374.644531 138.144531 374.117188 160.554688 373.867188 182.96875 C 373.550781 211.265625 373.335938 239.566406 373.296875 267.867188 C 373.25 305.699219 373.0625 343.527344 372.117188 381.355469 C 371.300781 413.964844 370.863281 446.578125 370.933594 479.203125 C 370.960938 491.34375 371.074219 503.476562 371.867188 515.597656 C 371.949219 516.84375 371.878906 518.101562 371.878906 519.726562 Z M 81.921875 106.753906 C 91.738281 106.789062 101.558594 106.996094 111.375 106.8125 C 130.5625 106.449219 149.742188 105.765625 168.929688 105.40625 C 187.96875 105.046875 207.015625 104.796875 226.058594 104.738281 C 241.082031 104.695312 256.105469 105 271.132812 105.175781 C 284.890625 105.339844 298.65625 105.792969 312.410156 105.664062 C 332.496094 105.484375 352.574219 104.875 372.65625 105.679688 C 373.445312 105.710938 374.238281 105.683594 375.253906 105.683594 C 375.253906 104.519531 375.257812 103.636719 375.25 102.753906 C 375.214844 97.992188 375.1875 93.226562 375.132812 88.460938 C 375.097656 85.589844 374.929688 85.433594 372.136719 85.234375 C 371.914062 85.21875 371.691406 85.207031 371.46875 85.195312 C 358.761719 84.457031 346.042969 84.378906 333.320312 84.457031 C 317.328125 84.558594 301.335938 84.679688 285.34375 84.621094 C 264.21875 84.542969 243.09375 84.246094 221.96875 84.136719 C 202.328125 84.039062 182.6875 83.898438 163.050781 84.085938 C 136.644531 84.339844 110.242188 84.886719 83.839844 85.324219 C 82.746094 85.34375 81.652344 85.550781 80.25 85.703125 C 80.496094 92.726562 80.738281 99.605469 80.984375 106.613281 C 81.480469 106.691406 81.699219 106.753906 81.921875 106.753906 Z M 92.835938 101.359375 C 90.148438 101.3125 88 99.164062 88.039062 96.554688 C 88.082031 93.382812 90.46875 90.941406 93.46875 91.007812 C 96.195312 91.066406 97.898438 93.03125 97.851562 96.074219 C 97.800781 99.351562 95.847656 101.410156 92.835938 101.359375 Z M 108.101562 89.71875 C 111.109375 89.707031 113.464844 92.367188 113.394531 95.695312 C 113.332031 98.59375 110.597656 101.269531 107.75 101.214844 C 104.972656 101.160156 102.648438 98.4375 102.648438 95.226562 C 102.644531 92.03125 104.921875 89.730469 108.101562 89.71875 Z M 127.789062 95.460938 C 127.734375 98.773438 125.320312 101.332031 122.285156 101.296875 C 119.390625 101.265625 117.078125 98.515625 117.105469 95.144531 C 117.128906 92.367188 119.570312 90.195312 122.648438 90.214844 C 125.710938 90.234375 127.835938 92.40625 127.789062 95.460938 Z M 80.449219 524.960938 C 80.523438 526.964844 80.6875 527.308594 82.667969 527.703125 C 86.160156 528.390625 89.679688 529.214844 93.21875 529.378906 C 108.96875 530.109375 124.726562 530.78125 140.492188 531.171875 C 152.09375 531.457031 163.703125 531.296875 175.308594 531.28125 C 199.339844 531.253906 223.371094 531.125 247.402344 531.160156 C 262.28125 531.179688 277.15625 531.546875 292.035156 531.542969 C 317.332031 531.53125 342.625 531.347656 367.921875 531.238281 C 368.441406 531.234375 368.960938 531.222656 369.480469 531.207031 C 370.515625 531.175781 371.160156 530.632812 371.378906 529.644531 C 371.898438 527.320312 372.105469 524.976562 371.863281 522.417969 C 371.167969 522.417969 370.59375 522.40625 370.019531 522.417969 C 365.78125 522.515625 361.542969 522.699219 357.304688 522.707031 C 329.03125 522.753906 300.761719 522.789062 272.488281 522.773438 C 261.332031 522.765625 250.167969 522.71875 239.015625 522.484375 C 229.347656 522.28125 219.6875 521.664062 210.023438 521.453125 C 197.15625 521.171875 184.285156 521.105469 171.414062 520.953125 C 141.882812 520.605469 112.347656 520.261719 82.816406 519.921875 C 82.09375 519.914062 81.367188 519.917969 80.433594 519.917969 C 80.433594 521.722656 80.386719 523.34375 80.449219 524.960938 Z M 82.191406 113.347656 C 90.671875 113.179688 99.164062 113.242188 107.628906 112.785156 C 123.324219 111.933594 139.011719 112.382812 154.707031 112.644531 C 163.855469 112.796875 173.003906 113.117188 182.148438 113.015625 C 192.410156 112.898438 202.667969 112.234375 212.929688 112.105469 C 223.042969 111.976562 233.160156 112.304688 243.277344 112.285156 C 263.289062 112.242188 283.300781 112.132812 303.3125 111.976562 C 309.410156 111.925781 315.507812 111.617188 321.605469 111.445312 C 330.078125 111.207031 338.554688 110.917969 347.03125 110.777344 C 355.585938 110.632812 364.140625 110.648438 372.695312 110.582031 C 373.425781 110.578125 374.152344 110.496094 374.949219 110.445312 C 374.949219 109.691406 374.949219 109.085938 374.949219 108.363281 C 372.628906 108.363281 370.480469 108.367188 368.332031 108.363281 C 355.390625 108.335938 342.449219 108.285156 329.503906 108.28125 C 315.074219 108.273438 300.640625 108.410156 286.210938 108.289062 C 273.269531 108.183594 260.328125 107.601562 247.386719 107.605469 C 216.289062 107.617188 185.195312 107.5625 154.109375 108.8125 C 138.949219 109.425781 123.765625 109.550781 108.59375 109.730469 C 100.488281 109.824219 92.378906 109.566406 84.269531 109.472656 C 83.191406 109.460938 82.109375 109.496094 81.03125 109.511719 C 81.03125 110.902344 81.03125 111.996094 81.03125 113.25 C 81.605469 113.300781 81.902344 113.355469 82.191406 113.347656 Z M 105.144531 95.828125 C 105.136719 97.300781 106.527344 98.769531 107.914062 98.753906 C 109.472656 98.738281 110.921875 97.152344 110.894531 95.492188 C 110.867188 93.683594 109.6875 92.351562 108.140625 92.375 C 106.386719 92.402344 105.15625 93.816406 105.144531 95.828125 Z M 122.3125 98.910156 C 123.949219 98.933594 125.429688 97.335938 125.453125 95.527344 C 125.472656 93.816406 124.402344 92.730469 122.71875 92.746094 C 120.8125 92.769531 119.578125 93.941406 119.59375 95.722656 C 119.609375 97.460938 120.824219 98.890625 122.3125 98.910156 Z M 122.3125 98.910156 " fill-opacity="1" fill-rule="nonzero"/></g><g clip-path="url(#6b851b8562)"><path fill="#ffe683" d="M 376.429688 306.464844 C 376.039062 327.910156 375.652344 349.355469 375.25 370.800781 C 375.015625 383.085938 374.640625 395.371094 374.519531 407.660156 C 374.222656 437.074219 374.007812 466.492188 373.84375 495.90625 C 373.816406 500.816406 374.253906 505.726562 374.394531 510.640625 C 374.535156 515.625 374.609375 520.613281 374.636719 525.601562 C 374.640625 526.929688 374.441406 528.277344 374.203125 529.589844 C 373.628906 532.746094 372.242188 533.933594 369.035156 533.988281 C 365.015625 534.054688 361 534.046875 356.980469 534.066406 C 333.394531 534.195312 309.804688 534.417969 286.21875 534.425781 C 263.597656 534.429688 240.980469 534.140625 218.359375 534.113281 C 196.1875 534.082031 174.011719 534.339844 151.839844 534.226562 C 138.671875 534.15625 125.503906 533.675781 112.34375 533.253906 C 105.578125 533.039062 98.8125 532.667969 92.066406 532.140625 C 88.597656 531.867188 85.132812 531.253906 81.726562 530.507812 C 77.992188 529.691406 77.277344 528.738281 77.289062 524.976562 C 77.300781 519.6875 77.550781 514.402344 77.574219 509.117188 C 77.660156 491.839844 77.824219 474.5625 77.710938 457.285156 C 77.5 425.335938 77.101562 393.386719 76.808594 361.4375 C 76.601562 338.574219 76.40625 315.710938 76.269531 292.847656 C 76.171875 276.6875 75.910156 260.519531 76.199219 244.367188 C 76.613281 221.285156 77.546875 198.210938 78.101562 175.132812 C 78.566406 155.773438 78.773438 136.410156 78.179688 117.046875 C 78.085938 113.871094 78.1875 110.6875 78.117188 107.507812 C 77.980469 101.40625 77.773438 95.308594 77.625 89.207031 C 77.597656 88.09375 77.625 86.964844 77.757812 85.859375 C 78 83.871094 78.757812 83.085938 80.789062 82.976562 C 86.804688 82.65625 92.824219 82.355469 98.84375 82.160156 C 146.753906 80.589844 194.679688 81.351562 242.597656 81.269531 C 266.109375 81.230469 289.621094 81.578125 313.132812 81.625 C 327.046875 81.648438 340.960938 81.335938 354.875 81.351562 C 360.894531 81.355469 366.917969 81.796875 372.9375 82.042969 C 373.308594 82.058594 373.679688 82.082031 374.050781 82.128906 C 377.023438 82.523438 378.238281 83.832031 378.28125 86.847656 C 378.339844 91.390625 378.417969 95.933594 378.34375 100.476562 C 377.824219 132.941406 377.152344 165.410156 376.761719 197.878906 C 376.4375 224.464844 376.425781 251.050781 376.304688 277.640625 C 376.257812 287.246094 376.296875 296.855469 376.296875 306.460938 C 376.339844 306.464844 376.386719 306.464844 376.429688 306.464844 Z M 371.878906 519.726562 C 371.878906 518.101562 371.949219 516.84375 371.867188 515.597656 C 371.074219 503.476562 370.960938 491.34375 370.933594 479.203125 C 370.863281 446.578125 371.300781 413.964844 372.117188 381.355469 C 373.0625 343.527344 373.25 305.699219 373.296875 267.867188 C 373.335938 239.566406 373.550781 211.265625 373.867188 182.96875 C 374.117188 160.554688 374.644531 138.144531 375.042969 115.730469 C 375.058594 114.863281 375.046875 113.992188 375.046875 112.976562 C 374.289062 112.976562 373.78125 112.96875 373.277344 112.980469 C 363.386719 113.152344 353.492188 113.277344 343.605469 113.515625 C 334.976562 113.722656 326.351562 114.097656 317.726562 114.3125 C 308.578125 114.542969 299.425781 114.636719 290.277344 114.863281 C 270.191406 115.359375 250.101562 115.425781 230.015625 114.851562 C 220.710938 114.585938 211.421875 115.003906 202.125 115.292969 C 189.933594 115.671875 177.730469 115.894531 165.53125 115.839844 C 153.480469 115.785156 141.433594 115.117188 129.382812 115.0625 C 118.898438 115.015625 108.410156 115.453125 97.921875 115.664062 C 92.863281 115.769531 87.804688 115.839844 82.746094 115.945312 C 82.1875 115.957031 81.632812 116.097656 81.273438 116.152344 C 81.273438 119.933594 81.238281 123.5 81.277344 127.0625 C 81.5625 151.792969 81.191406 176.511719 80.433594 201.230469 C 79.992188 215.671875 79.355469 230.109375 79.214844 244.554688 C 79.042969 262.125 79.269531 279.703125 79.378906 297.277344 C 79.496094 316.34375 79.640625 335.40625 79.839844 354.472656 C 80.144531 383.960938 80.65625 413.449219 80.800781 442.941406 C 80.914062 467.136719 80.617188 491.335938 80.515625 515.535156 C 80.511719 516.019531 80.636719 516.507812 80.714844 517.09375 C 81.59375 517.09375 82.332031 517.089844 83.066406 517.09375 C 91.402344 517.117188 99.734375 517.078125 108.070312 517.179688 C 132.695312 517.480469 157.320312 517.835938 181.945312 518.160156 C 191.246094 518.285156 200.550781 518.273438 209.847656 518.507812 C 218.695312 518.730469 227.535156 519.363281 236.386719 519.507812 C 252.230469 519.769531 268.082031 519.890625 283.929688 519.898438 C 310.417969 519.914062 336.90625 519.792969 363.394531 519.726562 C 366.140625 519.722656 368.882812 519.726562 371.878906 519.726562 Z M 80.984375 106.613281 C 81.480469 106.691406 81.699219 106.753906 81.921875 106.753906 C 91.738281 106.789062 101.558594 106.996094 111.375 106.8125 C 130.5625 106.449219 149.742188 105.765625 168.929688 105.40625 C 187.96875 105.046875 207.015625 104.796875 226.058594 104.738281 C 241.082031 104.695312 256.105469 105 271.132812 105.175781 C 284.890625 105.339844 298.65625 105.792969 312.410156 105.664062 C 332.496094 105.484375 352.574219 104.875 372.65625 105.679688 C 373.445312 105.710938 374.238281 105.683594 375.253906 105.683594 C 375.253906 104.519531 375.257812 103.636719 375.25 102.753906 C 375.214844 97.992188 375.1875 93.226562 375.132812 88.460938 C 375.097656 85.589844 374.929688 85.433594 372.136719 85.234375 C 371.914062 85.21875 371.691406 85.207031 371.46875 85.195312 C 358.761719 84.457031 346.042969 84.378906 333.320312 84.457031 C 317.328125 84.558594 301.335938 84.679688 285.34375 84.621094 C 264.21875 84.542969 243.09375 84.246094 221.96875 84.136719 C 202.328125 84.039062 182.6875 83.898438 163.050781 84.085938 C 136.644531 84.339844 110.242188 84.886719 83.839844 85.324219 C 82.746094 85.34375 81.652344 85.550781 80.25 85.703125 C 80.496094 92.726562 80.738281 99.605469 80.984375 106.613281 Z M 80.433594 519.917969 C 80.433594 521.722656 80.386719 523.34375 80.449219 524.960938 C 80.523438 526.964844 80.6875 527.308594 82.667969 527.703125 C 86.160156 528.390625 89.679688 529.214844 93.21875 529.378906 C 108.96875 530.109375 124.726562 530.78125 140.492188 531.171875 C 152.09375 531.457031 163.703125 531.296875 175.308594 531.28125 C 199.339844 531.253906 223.371094 531.125 247.402344 531.160156 C 262.28125 531.179688 277.15625 531.546875 292.035156 531.542969 C 317.332031 531.53125 342.625 531.347656 367.921875 531.238281 C 368.441406 531.234375 368.960938 531.222656 369.480469 531.207031 C 370.515625 531.175781 371.160156 530.632812 371.378906 529.644531 C 371.898438 527.320312 372.105469 524.976562 371.863281 522.417969 C 371.167969 522.417969 370.59375 522.40625 370.019531 522.417969 C 365.78125 522.515625 361.542969 522.699219 357.304688 522.707031 C 329.03125 522.753906 300.761719 522.789062 272.488281 522.773438 C 261.332031 522.765625 250.167969 522.71875 239.015625 522.484375 C 229.347656 522.28125 219.6875 521.664062 210.023438 521.453125 C 197.15625 521.171875 184.285156 521.105469 171.414062 520.953125 C 141.882812 520.605469 112.347656 520.261719 82.816406 519.921875 C 82.09375 519.914062 81.367188 519.917969 80.433594 519.917969 Z M 81.03125 113.25 C 81.605469 113.300781 81.902344 113.355469 82.191406 113.347656 C 90.671875 113.179688 99.164062 113.242188 107.628906 112.785156 C 123.324219 111.933594 139.011719 112.382812 154.707031 112.644531 C 163.855469 112.796875 173.003906 113.117188 182.148438 113.015625 C 192.410156 112.898438 202.667969 112.234375 212.929688 112.105469 C 223.042969 111.976562 233.160156 112.304688 243.277344 112.285156 C 263.289062 112.242188 283.300781 112.132812 303.3125 111.976562 C 309.410156 111.925781 315.507812 111.617188 321.605469 111.445312 C 330.078125 111.207031 338.554688 110.917969 347.03125 110.777344 C 355.585938 110.632812 364.140625 110.648438 372.695312 110.582031 C 373.425781 110.578125 374.152344 110.496094 374.949219 110.445312 C 374.949219 109.691406 374.949219 109.085938 374.949219 108.363281 C 372.628906 108.363281 370.480469 108.367188 368.332031 108.363281 C 355.390625 108.335938 342.449219 108.285156 329.503906 108.28125 C 315.074219 108.273438 300.640625 108.410156 286.210938 108.289062 C 273.269531 108.183594 260.328125 107.601562 247.386719 107.605469 C 216.289062 107.617188 185.195312 107.5625 154.109375 108.8125 C 138.949219 109.425781 123.765625 109.550781 108.59375 109.730469 C 100.488281 109.824219 92.378906 109.566406 84.269531 109.472656 C 83.191406 109.460938 82.109375 109.496094 81.03125 109.511719 C 81.03125 110.902344 81.03125 111.996094 81.03125 113.25 Z M 93.46875 91.007812 C 90.46875 90.941406 88.082031 93.382812 88.039062 96.554688 C 88 99.164062 90.148438 101.3125 92.835938 101.359375 C 95.847656 101.410156 97.800781 99.351562 97.851562 96.074219 C 97.898438 93.03125 96.195312 91.066406 93.46875 91.007812 Z M 102.648438 95.226562 C 102.644531 92.03125 104.921875 89.730469 108.101562 89.71875 C 111.109375 89.707031 113.464844 92.367188 113.394531 95.695312 C 113.332031 98.59375 110.597656 101.269531 107.75 101.214844 C 104.972656 101.160156 102.648438 98.4375 102.648438 95.226562 Z M 108.140625 92.375 C 106.386719 92.402344 105.15625 93.816406 105.144531 95.828125 C 105.136719 97.300781 106.527344 98.769531 107.914062 98.753906 C 109.472656 98.738281 110.921875 97.152344 110.894531 95.492188 C 110.867188 93.683594 109.6875 92.351562 108.140625 92.375 Z M 122.648438 90.214844 C 125.710938 90.234375 127.835938 92.40625 127.789062 95.460938 C 127.734375 98.773438 125.320312 101.332031 122.285156 101.296875 C 119.390625 101.265625 117.078125 98.515625 117.105469 95.144531 C 117.128906 92.367188 119.570312 90.195312 122.648438 90.214844 Z M 119.59375 95.722656 C 119.609375 97.460938 120.824219 98.890625 122.3125 98.910156 C 123.949219 98.933594 125.429688 97.335938 125.453125 95.527344 C 125.472656 93.816406 124.402344 92.730469 122.71875 92.746094 C 120.8125 92.769531 119.578125 93.941406 119.59375 95.722656 Z M 119.59375 95.722656 " fill-opacity="1" fill-rule="nonzero"/></g></svg>