<svg xmlns="http://www.w3.org/2000/svg" xmlns:xlink="http://www.w3.org/1999/xlink" zoomAndPan="magnify" preserveAspectRatio="xMidYMid meet" version="1.0" viewBox="75.72 76 318.71 476.5"><defs><clipPath id="d3ae1e5622"><path d="M 75.722656 76 L 394.4375 76 L 394.4375 552.5 L 75.722656 552.5 Z M 75.722656 76 " clip-rule="nonzero"/></clipPath><clipPath id="c6205d00dc"><path d="M 75.722656 76 L 394.4375 76 L 394.4375 552.5 L 75.722656 552.5 Z M 75.722656 76 " clip-rule="nonzero"/></clipPath></defs><g clip-path="url(#d3ae1e5622)"><path fill="#ffe683" d="M 387.554688 536.996094 C 384.398438 536.996094 381.507812 536.988281 378.621094 536.996094 C 350.71875 537.0625 322.820312 537.191406 294.917969 537.175781 C 278.226562 537.167969 261.53125 537.039062 244.839844 536.765625 C 235.519531 536.613281 226.207031 535.949219 216.886719 535.714844 C 207.09375 535.46875 197.296875 535.480469 187.5 535.351562 C 161.5625 535.011719 135.625 534.632812 109.6875 534.320312 C 100.910156 534.214844 92.128906 534.253906 83.351562 534.226562 C 82.574219 534.226562 81.800781 534.226562 80.875 534.226562 C 80.792969 533.613281 80.660156 533.101562 80.664062 532.589844 C 80.773438 507.160156 81.085938 481.734375 80.960938 456.304688 C 80.8125 425.316406 80.273438 394.332031 79.953125 363.34375 C 79.742188 343.308594 79.59375 323.277344 79.46875 303.242188 C 79.351562 284.777344 79.109375 266.304688 79.292969 247.839844 C 79.441406 232.664062 80.113281 217.488281 80.578125 202.316406 C 81.375 176.34375 81.765625 150.367188 81.46875 124.382812 C 81.425781 120.636719 81.460938 116.890625 81.460938 112.914062 C 81.839844 112.859375 82.425781 112.710938 83.011719 112.699219 C 88.339844 112.585938 93.667969 112.511719 98.996094 112.402344 C 110.042969 112.179688 121.089844 111.71875 132.136719 111.769531 C 144.828125 111.828125 157.519531 112.527344 170.210938 112.585938 C 183.058594 112.644531 195.914062 112.410156 208.753906 112.011719 C 218.546875 111.710938 228.332031 111.269531 238.132812 111.546875 C 259.289062 112.152344 280.445312 112.082031 301.605469 111.558594 C 311.242188 111.320312 320.878906 111.226562 330.515625 110.984375 C 339.605469 110.753906 348.6875 110.363281 357.773438 110.144531 C 368.191406 109.894531 378.609375 109.761719 389.027344 109.582031 C 389.558594 109.570312 390.09375 109.578125 390.890625 109.578125 C 390.890625 110.644531 390.90625 111.558594 390.890625 112.472656 C 390.46875 136.023438 389.914062 159.574219 389.648438 183.128906 C 389.316406 212.863281 389.089844 242.601562 389.050781 272.339844 C 389 312.09375 388.800781 351.84375 387.804688 391.589844 C 386.945312 425.859375 386.484375 460.132812 386.558594 494.410156 C 386.585938 507.171875 386.707031 519.921875 387.542969 532.65625 C 387.628906 533.96875 387.554688 535.289062 387.554688 536.996094 Z M 82.144531 103.039062 C 92.484375 103.078125 102.828125 103.296875 113.167969 103.101562 C 133.375 102.71875 153.582031 102 173.789062 101.621094 C 193.84375 101.246094 213.902344 100.984375 233.960938 100.921875 C 249.789062 100.875 265.613281 101.195312 281.4375 101.382812 C 295.933594 101.554688 310.429688 102.027344 324.917969 101.894531 C 346.074219 101.703125 367.222656 101.066406 388.375 101.910156 C 389.207031 101.945312 390.039062 101.914062 391.109375 101.914062 C 391.109375 100.695312 391.113281 99.765625 391.109375 98.835938 C 391.070312 93.832031 391.042969 88.824219 390.980469 83.820312 C 390.945312 80.800781 390.769531 80.636719 387.828125 80.425781 C 387.59375 80.410156 387.359375 80.398438 387.121094 80.386719 C 373.738281 79.609375 360.34375 79.527344 346.945312 79.613281 C 330.097656 79.714844 313.253906 79.84375 296.410156 79.78125 C 274.15625 79.699219 251.90625 79.386719 229.652344 79.273438 C 208.96875 79.171875 188.28125 79.023438 167.597656 79.21875 C 139.785156 79.484375 111.976562 80.058594 84.164062 80.523438 C 83.011719 80.542969 81.863281 80.757812 80.382812 80.917969 C 80.644531 88.300781 80.898438 95.527344 81.160156 102.890625 C 81.679688 102.972656 81.914062 103.039062 82.144531 103.039062 Z M 93.644531 97.371094 C 90.808594 97.320312 88.546875 95.066406 88.585938 92.324219 C 88.632812 88.988281 91.148438 86.425781 94.304688 86.492188 C 97.179688 86.554688 98.972656 88.621094 98.921875 91.820312 C 98.867188 95.261719 96.8125 97.425781 93.644531 97.371094 Z M 109.722656 85.140625 C 112.886719 85.128906 115.371094 87.925781 115.292969 91.417969 C 115.226562 94.46875 112.351562 97.277344 109.351562 97.21875 C 106.421875 97.160156 103.976562 94.300781 103.976562 90.925781 C 103.972656 87.570312 106.371094 85.152344 109.722656 85.140625 Z M 130.453125 91.175781 C 130.398438 94.652344 127.855469 97.34375 124.660156 97.308594 C 121.613281 97.273438 119.171875 94.382812 119.203125 90.839844 C 119.230469 87.921875 121.800781 85.640625 125.042969 85.660156 C 128.269531 85.679688 130.507812 87.960938 130.453125 91.175781 Z M 80.59375 542.496094 C 80.671875 544.601562 80.84375 544.964844 82.929688 545.375 C 86.609375 546.101562 90.316406 546.96875 94.042969 547.140625 C 110.632812 547.90625 127.234375 548.613281 143.835938 549.019531 C 156.054688 549.320312 168.285156 549.152344 180.511719 549.136719 C 205.820312 549.105469 231.132812 548.972656 256.445312 549.007812 C 272.113281 549.03125 287.785156 549.417969 303.457031 549.410156 C 330.101562 549.398438 356.742188 549.207031 383.386719 549.089844 C 383.933594 549.089844 384.480469 549.078125 385.03125 549.058594 C 386.117188 549.027344 386.796875 548.453125 387.03125 547.417969 C 387.574219 544.976562 387.792969 542.511719 387.539062 539.824219 C 386.804688 539.824219 386.199219 539.8125 385.597656 539.824219 C 381.132812 539.925781 376.667969 540.117188 372.203125 540.125 C 342.425781 540.175781 312.648438 540.214844 282.867188 540.195312 C 271.117188 540.1875 259.359375 540.136719 247.609375 539.890625 C 237.425781 539.679688 227.253906 539.03125 217.074219 538.808594 C 203.519531 538.515625 189.964844 538.441406 176.40625 538.285156 C 145.300781 537.917969 114.195312 537.558594 83.085938 537.199219 C 82.324219 537.191406 81.5625 537.199219 80.578125 537.199219 C 80.578125 539.089844 80.527344 540.792969 80.59375 542.496094 Z M 82.429688 109.96875 C 91.363281 109.792969 100.308594 109.855469 109.222656 109.375 C 125.757812 108.484375 142.28125 108.953125 158.808594 109.230469 C 168.445312 109.390625 178.082031 109.726562 187.714844 109.617188 C 198.523438 109.5 209.324219 108.796875 220.132812 108.664062 C 230.785156 108.527344 241.445312 108.871094 252.101562 108.851562 C 273.179688 108.808594 294.257812 108.691406 315.332031 108.527344 C 321.757812 108.476562 328.179688 108.148438 334.601562 107.96875 C 343.527344 107.71875 352.453125 107.414062 361.382812 107.265625 C 370.394531 107.117188 379.40625 107.132812 388.414062 107.0625 C 389.183594 107.058594 389.949219 106.972656 390.789062 106.921875 C 390.789062 106.125 390.789062 105.492188 390.789062 104.730469 C 388.347656 104.730469 386.082031 104.734375 383.820312 104.730469 C 370.1875 104.703125 356.554688 104.652344 342.925781 104.644531 C 327.722656 104.636719 312.523438 104.777344 297.320312 104.652344 C 283.6875 104.542969 270.058594 103.929688 256.425781 103.933594 C 223.675781 103.949219 190.921875 103.890625 158.179688 105.203125 C 142.210938 105.847656 126.21875 105.980469 110.238281 106.167969 C 101.699219 106.269531 93.160156 105.996094 84.621094 105.898438 C 83.480469 105.886719 82.34375 105.921875 81.207031 105.9375 C 81.207031 107.398438 81.207031 108.546875 81.207031 109.863281 C 81.8125 109.917969 82.121094 109.976562 82.429688 109.96875 Z M 106.605469 91.558594 C 106.597656 93.105469 108.058594 94.648438 109.523438 94.632812 C 111.164062 94.613281 112.6875 92.949219 112.660156 91.203125 C 112.632812 89.308594 111.390625 87.90625 109.757812 87.929688 C 107.914062 87.960938 106.621094 89.445312 106.605469 91.558594 Z M 124.6875 94.796875 C 126.410156 94.820312 127.972656 93.144531 127.996094 91.242188 C 128.015625 89.445312 126.890625 88.300781 125.117188 88.320312 C 123.109375 88.34375 121.808594 89.578125 121.824219 91.445312 C 121.839844 93.277344 123.121094 94.773438 124.6875 94.796875 Z M 392.347656 312.898438 C 391.933594 335.433594 391.53125 357.96875 391.105469 380.5 C 390.859375 393.414062 390.464844 406.320312 390.335938 419.234375 C 390.023438 450.144531 389.796875 481.054688 389.625 511.964844 C 389.597656 517.125 390.054688 522.285156 390.203125 527.445312 C 390.351562 532.683594 390.429688 537.925781 390.457031 543.167969 C 390.464844 544.566406 390.253906 545.980469 390.003906 547.363281 C 389.398438 550.675781 387.941406 551.921875 384.558594 551.980469 C 380.328125 552.050781 376.09375 552.042969 371.863281 552.066406 C 347.019531 552.199219 322.171875 552.433594 297.328125 552.4375 C 273.503906 552.445312 249.679688 552.144531 225.855469 552.109375 C 202.5 552.078125 179.144531 552.351562 155.789062 552.230469 C 141.917969 552.160156 128.050781 551.652344 114.1875 551.210938 C 107.0625 550.984375 99.9375 550.59375 92.828125 550.039062 C 89.175781 549.753906 85.527344 549.109375 81.941406 548.324219 C 78.007812 547.464844 77.253906 546.464844 77.265625 542.511719 C 77.277344 536.957031 77.539062 531.402344 77.566406 525.847656 C 77.65625 507.691406 77.828125 489.535156 77.710938 471.378906 C 77.488281 437.808594 77.070312 404.234375 76.761719 370.664062 C 76.542969 346.640625 76.335938 322.613281 76.191406 298.585938 C 76.085938 281.605469 75.8125 264.621094 76.117188 247.644531 C 76.554688 223.390625 77.535156 199.144531 78.121094 174.894531 C 78.609375 154.550781 78.832031 134.203125 78.207031 113.855469 C 78.101562 110.515625 78.210938 107.171875 78.136719 103.832031 C 77.992188 97.421875 77.777344 91.011719 77.617188 84.601562 C 77.589844 83.429688 77.617188 82.246094 77.761719 81.085938 C 78.015625 78.996094 78.8125 78.171875 80.949219 78.054688 C 87.289062 77.714844 93.628906 77.402344 99.96875 77.195312 C 150.433594 75.546875 200.910156 76.34375 251.382812 76.261719 C 276.148438 76.21875 300.914062 76.585938 325.679688 76.632812 C 340.335938 76.660156 354.988281 76.332031 369.644531 76.34375 C 375.988281 76.351562 382.328125 76.8125 388.667969 77.074219 C 389.0625 77.089844 389.453125 77.113281 389.839844 77.164062 C 392.972656 77.578125 394.253906 78.953125 394.296875 82.121094 C 394.363281 86.894531 394.445312 91.667969 394.367188 96.441406 C 393.820312 130.558594 393.109375 164.675781 392.695312 198.792969 C 392.359375 226.730469 392.34375 254.667969 392.214844 282.609375 C 392.167969 292.703125 392.207031 302.800781 392.207031 312.894531 C 392.253906 312.898438 392.300781 312.898438 392.347656 312.898438 Z M 387.554688 536.996094 C 387.554688 535.289062 387.628906 533.96875 387.542969 532.65625 C 386.707031 519.921875 386.585938 507.171875 386.558594 494.410156 C 386.484375 460.132812 386.945312 425.859375 387.804688 391.589844 C 388.800781 351.84375 389 312.09375 389.050781 272.339844 C 389.089844 242.601562 389.316406 212.863281 389.648438 183.128906 C 389.914062 159.574219 390.46875 136.023438 390.890625 112.472656 C 390.90625 111.558594 390.890625 110.644531 390.890625 109.578125 C 390.09375 109.578125 389.558594 109.570312 389.027344 109.582031 C 378.609375 109.761719 368.191406 109.894531 357.773438 110.144531 C 348.6875 110.363281 339.605469 110.753906 330.515625 110.984375 C 320.878906 111.226562 311.242188 111.320312 301.605469 111.558594 C 280.445312 112.082031 259.289062 112.152344 238.132812 111.546875 C 228.332031 111.269531 218.546875 111.710938 208.753906 112.011719 C 195.914062 112.410156 183.058594 112.644531 170.210938 112.585938 C 157.519531 112.527344 144.828125 111.828125 132.136719 111.769531 C 121.089844 111.71875 110.042969 112.179688 98.996094 112.402344 C 93.667969 112.511719 88.339844 112.585938 83.011719 112.699219 C 82.425781 112.710938 81.839844 112.859375 81.460938 112.914062 C 81.460938 116.890625 81.425781 120.636719 81.46875 124.382812 C 81.765625 150.367188 81.375 176.34375 80.578125 202.316406 C 80.113281 217.488281 79.441406 232.664062 79.292969 247.839844 C 79.109375 266.304688 79.351562 284.777344 79.46875 303.242188 C 79.59375 323.277344 79.742188 343.308594 79.953125 363.34375 C 80.273438 394.332031 80.8125 425.316406 80.960938 456.304688 C 81.085938 481.734375 80.773438 507.160156 80.664062 532.589844 C 80.660156 533.101562 80.792969 533.613281 80.875 534.226562 C 81.800781 534.226562 82.574219 534.226562 83.351562 534.226562 C 92.128906 534.253906 100.910156 534.214844 109.6875 534.320312 C 135.625 534.632812 161.5625 535.011719 187.5 535.351562 C 197.296875 535.480469 207.09375 535.46875 216.886719 535.714844 C 226.207031 535.949219 235.519531 536.613281 244.839844 536.765625 C 261.53125 537.039062 278.226562 537.167969 294.917969 537.175781 C 322.820312 537.191406 350.71875 537.0625 378.621094 536.996094 C 381.507812 536.988281 384.398438 536.996094 387.554688 536.996094 Z M 81.160156 102.890625 C 81.679688 102.972656 81.914062 103.039062 82.144531 103.039062 C 92.484375 103.078125 102.828125 103.296875 113.167969 103.101562 C 133.375 102.71875 153.582031 102 173.789062 101.621094 C 193.84375 101.246094 213.902344 100.984375 233.960938 100.921875 C 249.789062 100.875 265.613281 101.195312 281.4375 101.382812 C 295.933594 101.554688 310.429688 102.027344 324.917969 101.894531 C 346.074219 101.703125 367.222656 101.066406 388.375 101.910156 C 389.207031 101.945312 390.039062 101.914062 391.109375 101.914062 C 391.109375 100.695312 391.113281 99.765625 391.109375 98.835938 C 391.070312 93.832031 391.042969 88.824219 390.980469 83.820312 C 390.945312 80.800781 390.769531 80.636719 387.828125 80.425781 C 387.59375 80.410156 387.359375 80.398438 387.121094 80.386719 C 373.738281 79.609375 360.34375 79.527344 346.945312 79.613281 C 330.097656 79.714844 313.253906 79.84375 296.410156 79.78125 C 274.15625 79.699219 251.90625 79.386719 229.652344 79.273438 C 208.96875 79.171875 188.28125 79.023438 167.597656 79.21875 C 139.785156 79.484375 111.976562 80.058594 84.164062 80.523438 C 83.011719 80.542969 81.863281 80.757812 80.382812 80.917969 C 80.644531 88.300781 80.898438 95.527344 81.160156 102.890625 Z M 80.578125 537.199219 C 80.578125 539.089844 80.527344 540.792969 80.59375 542.496094 C 80.671875 544.601562 80.84375 544.964844 82.929688 545.375 C 86.609375 546.101562 90.316406 546.96875 94.042969 547.140625 C 110.632812 547.90625 127.234375 548.613281 143.835938 549.019531 C 156.054688 549.320312 168.285156 549.152344 180.511719 549.136719 C 205.820312 549.105469 231.132812 548.972656 256.445312 549.007812 C 272.113281 549.03125 287.785156 549.417969 303.457031 549.410156 C 330.101562 549.398438 356.742188 549.207031 383.386719 549.089844 C 383.933594 549.089844 384.480469 549.078125 385.03125 549.058594 C 386.117188 549.027344 386.796875 548.453125 387.03125 547.417969 C 387.574219 544.976562 387.792969 542.511719 387.539062 539.824219 C 386.804688 539.824219 386.199219 539.8125 385.597656 539.824219 C 381.132812 539.925781 376.667969 540.117188 372.203125 540.125 C 342.425781 540.175781 312.648438 540.214844 282.867188 540.195312 C 271.117188 540.1875 259.359375 540.136719 247.609375 539.890625 C 237.425781 539.679688 227.253906 539.03125 217.074219 538.808594 C 203.519531 538.515625 189.964844 538.441406 176.40625 538.285156 C 145.300781 537.917969 114.195312 537.558594 83.085938 537.199219 C 82.324219 537.191406 81.5625 537.199219 80.578125 537.199219 Z M 81.207031 109.863281 C 81.8125 109.917969 82.121094 109.976562 82.429688 109.96875 C 91.363281 109.792969 100.308594 109.855469 109.222656 109.375 C 125.757812 108.484375 142.28125 108.953125 158.808594 109.230469 C 168.445312 109.390625 178.082031 109.726562 187.714844 109.617188 C 198.523438 109.5 209.324219 108.796875 220.132812 108.664062 C 230.785156 108.527344 241.445312 108.871094 252.101562 108.851562 C 273.179688 108.808594 294.257812 108.691406 315.332031 108.527344 C 321.757812 108.476562 328.179688 108.148438 334.601562 107.96875 C 343.527344 107.71875 352.453125 107.414062 361.382812 107.265625 C 370.394531 107.117188 379.40625 107.132812 388.414062 107.0625 C 389.183594 107.058594 389.949219 106.972656 390.789062 106.921875 C 390.789062 106.125 390.789062 105.492188 390.789062 104.730469 C 388.347656 104.730469 386.082031 104.734375 383.820312 104.730469 C 370.1875 104.703125 356.554688 104.652344 342.925781 104.644531 C 327.722656 104.636719 312.523438 104.777344 297.320312 104.652344 C 283.6875 104.542969 270.058594 103.929688 256.425781 103.933594 C 223.675781 103.949219 190.921875 103.890625 158.179688 105.203125 C 142.210938 105.847656 126.21875 105.980469 110.238281 106.167969 C 101.699219 106.269531 93.160156 105.996094 84.621094 105.898438 C 83.480469 105.886719 82.34375 105.921875 81.207031 105.9375 C 81.207031 107.398438 81.207031 108.546875 81.207031 109.863281 Z M 94.304688 86.492188 C 91.148438 86.425781 88.632812 88.988281 88.585938 92.324219 C 88.546875 95.066406 90.808594 97.320312 93.644531 97.371094 C 96.8125 97.425781 98.867188 95.261719 98.921875 91.820312 C 98.972656 88.621094 97.179688 86.554688 94.304688 86.492188 Z M 103.976562 90.925781 C 103.972656 87.570312 106.371094 85.152344 109.722656 85.140625 C 112.886719 85.128906 115.371094 87.925781 115.292969 91.417969 C 115.226562 94.46875 112.351562 97.277344 109.351562 97.21875 C 106.421875 97.160156 103.976562 94.300781 103.976562 90.925781 Z M 109.757812 87.929688 C 107.914062 87.960938 106.621094 89.445312 106.605469 91.558594 C 106.597656 93.105469 108.058594 94.648438 109.523438 94.632812 C 111.164062 94.613281 112.6875 92.949219 112.660156 91.203125 C 112.632812 89.308594 111.390625 87.90625 109.757812 87.929688 Z M 125.042969 85.660156 C 128.269531 85.679688 130.507812 87.960938 130.453125 91.175781 C 130.398438 94.652344 127.855469 97.34375 124.660156 97.308594 C 121.613281 97.273438 119.171875 94.382812 119.203125 90.839844 C 119.230469 87.921875 121.800781 85.640625 125.042969 85.660156 Z M 121.824219 91.445312 C 121.839844 93.277344 123.121094 94.773438 124.6875 94.796875 C 126.410156 94.820312 127.972656 93.144531 127.996094 91.242188 C 128.015625 89.445312 126.890625 88.300781 125.117188 88.320312 C 123.109375 88.34375 121.808594 89.578125 121.824219 91.445312 Z M 121.824219 91.445312 " fill-opacity="1" fill-rule="nonzero"/></g><path fill="#fafafa" d="M 387.554688 536.996094 C 384.398438 536.996094 381.507812 536.988281 378.621094 536.996094 C 350.71875 537.0625 322.820312 537.191406 294.917969 537.175781 C 278.226562 537.167969 261.53125 537.039062 244.839844 536.765625 C 235.519531 536.613281 226.207031 535.949219 216.886719 535.714844 C 207.09375 535.46875 197.296875 535.480469 187.5 535.351562 C 161.5625 535.011719 135.625 534.632812 109.6875 534.320312 C 100.910156 534.214844 92.128906 534.253906 83.351562 534.226562 C 82.574219 534.226562 81.800781 534.226562 80.875 534.226562 C 80.792969 533.613281 80.660156 533.101562 80.664062 532.589844 C 80.773438 507.160156 81.085938 481.734375 80.960938 456.304688 C 80.8125 425.316406 80.273438 394.332031 79.953125 363.34375 C 79.742188 343.308594 79.59375 323.277344 79.46875 303.242188 C 79.351562 284.777344 79.109375 266.304688 79.292969 247.839844 C 79.441406 232.664062 80.113281 217.488281 80.578125 202.316406 C 81.375 176.34375 81.765625 150.367188 81.46875 124.382812 C 81.425781 120.636719 81.460938 116.890625 81.460938 112.914062 C 81.839844 112.859375 82.425781 112.710938 83.011719 112.699219 C 88.339844 112.585938 93.667969 112.511719 98.996094 112.402344 C 110.042969 112.179688 121.089844 111.71875 132.136719 111.769531 C 144.828125 111.828125 157.519531 112.527344 170.210938 112.585938 C 183.058594 112.644531 195.914062 112.410156 208.753906 112.011719 C 218.546875 111.710938 228.332031 111.269531 238.132812 111.546875 C 259.289062 112.152344 280.445312 112.082031 301.605469 111.558594 C 311.242188 111.320312 320.878906 111.226562 330.515625 110.984375 C 339.605469 110.753906 348.6875 110.363281 357.773438 110.144531 C 368.191406 109.894531 378.609375 109.761719 389.027344 109.582031 C 389.558594 109.570312 390.09375 109.578125 390.890625 109.578125 C 390.890625 110.644531 390.90625 111.558594 390.890625 112.472656 C 390.46875 136.023438 389.914062 159.574219 389.648438 183.128906 C 389.316406 212.863281 389.089844 242.601562 389.050781 272.339844 C 389 312.09375 388.800781 351.84375 387.804688 391.589844 C 386.945312 425.859375 386.484375 460.132812 386.558594 494.410156 C 386.585938 507.171875 386.707031 519.921875 387.542969 532.65625 C 387.628906 533.96875 387.554688 535.289062 387.554688 536.996094 Z M 82.144531 103.039062 C 92.484375 103.078125 102.828125 103.296875 113.167969 103.101562 C 133.375 102.71875 153.582031 102 173.789062 101.621094 C 193.84375 101.246094 213.902344 100.984375 233.960938 100.921875 C 249.789062 100.875 265.613281 101.195312 281.4375 101.382812 C 295.933594 101.554688 310.429688 102.027344 324.917969 101.894531 C 346.074219 101.703125 367.222656 101.066406 388.375 101.910156 C 389.207031 101.945312 390.039062 101.914062 391.109375 101.914062 C 391.109375 100.695312 391.113281 99.765625 391.109375 98.835938 C 391.070312 93.832031 391.042969 88.824219 390.980469 83.820312 C 390.945312 80.800781 390.769531 80.636719 387.828125 80.425781 C 387.59375 80.410156 387.359375 80.398438 387.121094 80.386719 C 373.738281 79.609375 360.34375 79.527344 346.945312 79.613281 C 330.097656 79.714844 313.253906 79.84375 296.410156 79.78125 C 274.15625 79.699219 251.90625 79.386719 229.652344 79.273438 C 208.96875 79.171875 188.28125 79.023438 167.597656 79.21875 C 139.785156 79.484375 111.976562 80.058594 84.164062 80.523438 C 83.011719 80.542969 81.863281 80.757812 80.382812 80.917969 C 80.644531 88.300781 80.898438 95.527344 81.160156 102.890625 C 81.679688 102.972656 81.914062 103.039062 82.144531 103.039062 Z M 93.644531 97.371094 C 90.808594 97.320312 88.546875 95.066406 88.585938 92.324219 C 88.632812 88.988281 91.148438 86.425781 94.304688 86.492188 C 97.179688 86.554688 98.972656 88.621094 98.921875 91.820312 C 98.867188 95.261719 96.8125 97.425781 93.644531 97.371094 Z M 109.722656 85.140625 C 112.886719 85.128906 115.371094 87.925781 115.292969 91.417969 C 115.226562 94.46875 112.351562 97.277344 109.351562 97.21875 C 106.421875 97.160156 103.976562 94.300781 103.976562 90.925781 C 103.972656 87.570312 106.371094 85.152344 109.722656 85.140625 Z M 130.453125 91.175781 C 130.398438 94.652344 127.855469 97.34375 124.660156 97.308594 C 121.613281 97.273438 119.171875 94.382812 119.203125 90.839844 C 119.230469 87.921875 121.800781 85.640625 125.042969 85.660156 C 128.269531 85.679688 130.507812 87.960938 130.453125 91.175781 Z M 80.59375 542.496094 C 80.671875 544.601562 80.84375 544.964844 82.929688 545.375 C 86.609375 546.101562 90.316406 546.96875 94.042969 547.140625 C 110.632812 547.90625 127.234375 548.613281 143.835938 549.019531 C 156.054688 549.320312 168.285156 549.152344 180.511719 549.136719 C 205.820312 549.105469 231.132812 548.972656 256.445312 549.007812 C 272.113281 549.03125 287.785156 549.417969 303.457031 549.410156 C 330.101562 549.398438 356.742188 549.207031 383.386719 549.089844 C 383.933594 549.089844 384.480469 549.078125 385.03125 549.058594 C 386.117188 549.027344 386.796875 548.453125 387.03125 547.417969 C 387.574219 544.976562 387.792969 542.511719 387.539062 539.824219 C 386.804688 539.824219 386.199219 539.8125 385.597656 539.824219 C 381.132812 539.925781 376.667969 540.117188 372.203125 540.125 C 342.425781 540.175781 312.648438 540.214844 282.867188 540.195312 C 271.117188 540.1875 259.359375 540.136719 247.609375 539.890625 C 237.425781 539.679688 227.253906 539.03125 217.074219 538.808594 C 203.519531 538.515625 189.964844 538.441406 176.40625 538.285156 C 145.300781 537.917969 114.195312 537.558594 83.085938 537.199219 C 82.324219 537.191406 81.5625 537.199219 80.578125 537.199219 C 80.578125 539.089844 80.527344 540.792969 80.59375 542.496094 Z M 82.429688 109.96875 C 91.363281 109.792969 100.308594 109.855469 109.222656 109.375 C 125.757812 108.484375 142.28125 108.953125 158.808594 109.230469 C 168.445312 109.390625 178.082031 109.726562 187.714844 109.617188 C 198.523438 109.5 209.324219 108.796875 220.132812 108.664062 C 230.785156 108.527344 241.445312 108.871094 252.101562 108.851562 C 273.179688 108.808594 294.257812 108.691406 315.332031 108.527344 C 321.757812 108.476562 328.179688 108.148438 334.601562 107.96875 C 343.527344 107.71875 352.453125 107.414062 361.382812 107.265625 C 370.394531 107.117188 379.40625 107.132812 388.414062 107.0625 C 389.183594 107.058594 389.949219 106.972656 390.789062 106.921875 C 390.789062 106.125 390.789062 105.492188 390.789062 104.730469 C 388.347656 104.730469 386.082031 104.734375 383.820312 104.730469 C 370.1875 104.703125 356.554688 104.652344 342.925781 104.644531 C 327.722656 104.636719 312.523438 104.777344 297.320312 104.652344 C 283.6875 104.542969 270.058594 103.929688 256.425781 103.933594 C 223.675781 103.949219 190.921875 103.890625 158.179688 105.203125 C 142.210938 105.847656 126.21875 105.980469 110.238281 106.167969 C 101.699219 106.269531 93.160156 105.996094 84.621094 105.898438 C 83.480469 105.886719 82.34375 105.921875 81.207031 105.9375 C 81.207031 107.398438 81.207031 108.546875 81.207031 109.863281 C 81.8125 109.917969 82.121094 109.976562 82.429688 109.96875 Z M 106.605469 91.558594 C 106.597656 93.105469 108.058594 94.648438 109.523438 94.632812 C 111.164062 94.613281 112.6875 92.949219 112.660156 91.203125 C 112.632812 89.308594 111.390625 87.90625 109.757812 87.929688 C 107.914062 87.960938 106.621094 89.445312 106.605469 91.558594 Z M 124.6875 94.796875 C 126.410156 94.820312 127.972656 93.144531 127.996094 91.242188 C 128.015625 89.445312 126.890625 88.300781 125.117188 88.320312 C 123.109375 88.34375 121.808594 89.578125 121.824219 91.445312 C 121.839844 93.277344 123.121094 94.773438 124.6875 94.796875 Z M 124.6875 94.796875 " fill-opacity="1" fill-rule="nonzero"/><g clip-path="url(#c6205d00dc)"><path fill="#ffe683" d="M 392.347656 312.898438 C 391.933594 335.433594 391.53125 357.96875 391.105469 380.5 C 390.859375 393.414062 390.464844 406.320312 390.335938 419.234375 C 390.023438 450.144531 389.796875 481.054688 389.625 511.964844 C 389.597656 517.125 390.054688 522.285156 390.203125 527.445312 C 390.351562 532.683594 390.429688 537.925781 390.457031 543.167969 C 390.464844 544.566406 390.253906 545.980469 390.003906 547.363281 C 389.398438 550.675781 387.941406 551.921875 384.558594 551.980469 C 380.328125 552.050781 376.09375 552.042969 371.863281 552.066406 C 347.019531 552.199219 322.171875 552.433594 297.328125 552.4375 C 273.503906 552.445312 249.679688 552.144531 225.855469 552.109375 C 202.5 552.078125 179.144531 552.351562 155.789062 552.230469 C 141.917969 552.160156 128.050781 551.652344 114.1875 551.210938 C 107.0625 550.984375 99.9375 550.59375 92.828125 550.039062 C 89.175781 549.753906 85.527344 549.109375 81.941406 548.324219 C 78.007812 547.464844 77.253906 546.464844 77.265625 542.511719 C 77.277344 536.957031 77.539062 531.402344 77.566406 525.847656 C 77.65625 507.691406 77.828125 489.535156 77.710938 471.378906 C 77.488281 437.808594 77.070312 404.234375 76.761719 370.664062 C 76.542969 346.640625 76.335938 322.613281 76.191406 298.585938 C 76.085938 281.605469 75.8125 264.621094 76.117188 247.644531 C 76.554688 223.390625 77.535156 199.144531 78.121094 174.894531 C 78.609375 154.550781 78.832031 134.203125 78.207031 113.855469 C 78.101562 110.515625 78.210938 107.171875 78.136719 103.832031 C 77.992188 97.421875 77.777344 91.011719 77.617188 84.601562 C 77.589844 83.429688 77.617188 82.246094 77.761719 81.085938 C 78.015625 78.996094 78.8125 78.171875 80.949219 78.054688 C 87.289062 77.714844 93.628906 77.402344 99.96875 77.195312 C 150.433594 75.546875 200.910156 76.34375 251.382812 76.261719 C 276.148438 76.21875 300.914062 76.585938 325.679688 76.632812 C 340.335938 76.660156 354.988281 76.332031 369.644531 76.34375 C 375.988281 76.351562 382.328125 76.8125 388.667969 77.074219 C 389.0625 77.089844 389.453125 77.113281 389.839844 77.164062 C 392.972656 77.578125 394.253906 78.953125 394.296875 82.121094 C 394.363281 86.894531 394.445312 91.667969 394.367188 96.441406 C 393.820312 130.558594 393.109375 164.675781 392.695312 198.792969 C 392.359375 226.730469 392.34375 254.667969 392.214844 282.609375 C 392.167969 292.703125 392.207031 302.800781 392.207031 312.894531 C 392.253906 312.898438 392.300781 312.898438 392.347656 312.898438 Z M 387.554688 536.996094 C 387.554688 535.289062 387.628906 533.96875 387.542969 532.65625 C 386.707031 519.921875 386.585938 507.171875 386.558594 494.410156 C 386.484375 460.132812 386.945312 425.859375 387.804688 391.589844 C 388.800781 351.84375 389 312.09375 389.050781 272.339844 C 389.089844 242.601562 389.316406 212.863281 389.648438 183.128906 C 389.914062 159.574219 390.46875 136.023438 390.890625 112.472656 C 390.90625 111.558594 390.890625 110.644531 390.890625 109.578125 C 390.09375 109.578125 389.558594 109.570312 389.027344 109.582031 C 378.609375 109.761719 368.191406 109.894531 357.773438 110.144531 C 348.6875 110.363281 339.605469 110.753906 330.515625 110.984375 C 320.878906 111.226562 311.242188 111.320312 301.605469 111.558594 C 280.445312 112.082031 259.289062 112.152344 238.132812 111.546875 C 228.332031 111.269531 218.546875 111.710938 208.753906 112.011719 C 195.914062 112.410156 183.058594 112.644531 170.210938 112.585938 C 157.519531 112.527344 144.828125 111.828125 132.136719 111.769531 C 121.089844 111.71875 110.042969 112.179688 98.996094 112.402344 C 93.667969 112.511719 88.339844 112.585938 83.011719 112.699219 C 82.425781 112.710938 81.839844 112.859375 81.460938 112.914062 C 81.460938 116.890625 81.425781 120.636719 81.46875 124.382812 C 81.765625 150.367188 81.375 176.34375 80.578125 202.316406 C 80.113281 217.488281 79.441406 232.664062 79.292969 247.839844 C 79.109375 266.304688 79.351562 284.777344 79.46875 303.242188 C 79.59375 323.277344 79.742188 343.308594 79.953125 363.34375 C 80.273438 394.332031 80.8125 425.316406 80.960938 456.304688 C 81.085938 481.734375 80.773438 507.160156 80.664062 532.589844 C 80.660156 533.101562 80.792969 533.613281 80.875 534.226562 C 81.800781 534.226562 82.574219 534.226562 83.351562 534.226562 C 92.128906 534.253906 100.910156 534.214844 109.6875 534.320312 C 135.625 534.632812 161.5625 535.011719 187.5 535.351562 C 197.296875 535.480469 207.09375 535.46875 216.886719 535.714844 C 226.207031 535.949219 235.519531 536.613281 244.839844 536.765625 C 261.53125 537.039062 278.226562 537.167969 294.917969 537.175781 C 322.820312 537.191406 350.71875 537.0625 378.621094 536.996094 C 381.507812 536.988281 384.398438 536.996094 387.554688 536.996094 Z M 81.160156 102.890625 C 81.679688 102.972656 81.914062 103.039062 82.144531 103.039062 C 92.484375 103.078125 102.828125 103.296875 113.167969 103.101562 C 133.375 102.71875 153.582031 102 173.789062 101.621094 C 193.84375 101.246094 213.902344 100.984375 233.960938 100.921875 C 249.789062 100.875 265.613281 101.195312 281.4375 101.382812 C 295.933594 101.554688 310.429688 102.027344 324.917969 101.894531 C 346.074219 101.703125 367.222656 101.066406 388.375 101.910156 C 389.207031 101.945312 390.039062 101.914062 391.109375 101.914062 C 391.109375 100.695312 391.113281 99.765625 391.109375 98.835938 C 391.070312 93.832031 391.042969 88.824219 390.980469 83.820312 C 390.945312 80.800781 390.769531 80.636719 387.828125 80.425781 C 387.59375 80.410156 387.359375 80.398438 387.121094 80.386719 C 373.738281 79.609375 360.34375 79.527344 346.945312 79.613281 C 330.097656 79.714844 313.253906 79.84375 296.410156 79.78125 C 274.15625 79.699219 251.90625 79.386719 229.652344 79.273438 C 208.96875 79.171875 188.28125 79.023438 167.597656 79.21875 C 139.785156 79.484375 111.976562 80.058594 84.164062 80.523438 C 83.011719 80.542969 81.863281 80.757812 80.382812 80.917969 C 80.644531 88.300781 80.898438 95.527344 81.160156 102.890625 Z M 80.578125 537.199219 C 80.578125 539.089844 80.527344 540.792969 80.59375 542.496094 C 80.671875 544.601562 80.84375 544.964844 82.929688 545.375 C 86.609375 546.101562 90.316406 546.96875 94.042969 547.140625 C 110.632812 547.90625 127.234375 548.613281 143.835938 549.019531 C 156.054688 549.320312 168.285156 549.152344 180.511719 549.136719 C 205.820312 549.105469 231.132812 548.972656 256.445312 549.007812 C 272.113281 549.03125 287.785156 549.417969 303.457031 549.410156 C 330.101562 549.398438 356.742188 549.207031 383.386719 549.089844 C 383.933594 549.089844 384.480469 549.078125 385.03125 549.058594 C 386.117188 549.027344 386.796875 548.453125 387.03125 547.417969 C 387.574219 544.976562 387.792969 542.511719 387.539062 539.824219 C 386.804688 539.824219 386.199219 539.8125 385.597656 539.824219 C 381.132812 539.925781 376.667969 540.117188 372.203125 540.125 C 342.425781 540.175781 312.648438 540.214844 282.867188 540.195312 C 271.117188 540.1875 259.359375 540.136719 247.609375 539.890625 C 237.425781 539.679688 227.253906 539.03125 217.074219 538.808594 C 203.519531 538.515625 189.964844 538.441406 176.40625 538.285156 C 145.300781 537.917969 114.195312 537.558594 83.085938 537.199219 C 82.324219 537.191406 81.5625 537.199219 80.578125 537.199219 Z M 81.207031 109.863281 C 81.8125 109.917969 82.121094 109.976562 82.429688 109.96875 C 91.363281 109.792969 100.308594 109.855469 109.222656 109.375 C 125.757812 108.484375 142.28125 108.953125 158.808594 109.230469 C 168.445312 109.390625 178.082031 109.726562 187.714844 109.617188 C 198.523438 109.5 209.324219 108.796875 220.132812 108.664062 C 230.785156 108.527344 241.445312 108.871094 252.101562 108.851562 C 273.179688 108.808594 294.257812 108.691406 315.332031 108.527344 C 321.757812 108.476562 328.179688 108.148438 334.601562 107.96875 C 343.527344 107.71875 352.453125 107.414062 361.382812 107.265625 C 370.394531 107.117188 379.40625 107.132812 388.414062 107.0625 C 389.183594 107.058594 389.949219 106.972656 390.789062 106.921875 C 390.789062 106.125 390.789062 105.492188 390.789062 104.730469 C 388.347656 104.730469 386.082031 104.734375 383.820312 104.730469 C 370.1875 104.703125 356.554688 104.652344 342.925781 104.644531 C 327.722656 104.636719 312.523438 104.777344 297.320312 104.652344 C 283.6875 104.542969 270.058594 103.929688 256.425781 103.933594 C 223.675781 103.949219 190.921875 103.890625 158.179688 105.203125 C 142.210938 105.847656 126.21875 105.980469 110.238281 106.167969 C 101.699219 106.269531 93.160156 105.996094 84.621094 105.898438 C 83.480469 105.886719 82.34375 105.921875 81.207031 105.9375 C 81.207031 107.398438 81.207031 108.546875 81.207031 109.863281 Z M 94.304688 86.492188 C 91.148438 86.425781 88.632812 88.988281 88.585938 92.324219 C 88.546875 95.066406 90.808594 97.320312 93.644531 97.371094 C 96.8125 97.425781 98.867188 95.261719 98.921875 91.820312 C 98.972656 88.621094 97.179688 86.554688 94.304688 86.492188 Z M 103.976562 90.925781 C 103.972656 87.570312 106.371094 85.152344 109.722656 85.140625 C 112.886719 85.128906 115.371094 87.925781 115.292969 91.417969 C 115.226562 94.46875 112.351562 97.277344 109.351562 97.21875 C 106.421875 97.160156 103.976562 94.300781 103.976562 90.925781 Z M 109.757812 87.929688 C 107.914062 87.960938 106.621094 89.445312 106.605469 91.558594 C 106.597656 93.105469 108.058594 94.648438 109.523438 94.632812 C 111.164062 94.613281 112.6875 92.949219 112.660156 91.203125 C 112.632812 89.308594 111.390625 87.90625 109.757812 87.929688 Z M 125.042969 85.660156 C 128.269531 85.679688 130.507812 87.960938 130.453125 91.175781 C 130.398438 94.652344 127.855469 97.34375 124.660156 97.308594 C 121.613281 97.273438 119.171875 94.382812 119.203125 90.839844 C 119.230469 87.921875 121.800781 85.640625 125.042969 85.660156 Z M 121.824219 91.445312 C 121.839844 93.277344 123.121094 94.773438 124.6875 94.796875 C 126.410156 94.820312 127.972656 93.144531 127.996094 91.242188 C 128.015625 89.445312 126.890625 88.300781 125.117188 88.320312 C 123.109375 88.34375 121.808594 89.578125 121.824219 91.445312 Z M 121.824219 91.445312 " fill-opacity="1" fill-rule="nonzero"/></g></svg>